<svg width="71" height="70" viewBox="0 0 71 70" xmlns="http://www.w3.org/2000/svg" xmlns:xlink="http://www.w3.org/1999/xlink" overflow="hidden"><defs><clipPath id="clip-path"><rect x="0" y="0" width="34.756" height="31.808" fill="none"/></clipPath></defs><g id="Group_2827" transform="matrix(1 0 0 1 0 -0.231)"><g id="Group_2813"><g id="Group_2808"><g id="Group_2796"><g id="Ellipse_502" stroke="#52E59F" stroke-width="1" fill="none" transform="matrix(1 0 0 1 0 0.231)"><ellipse cx="35.5" cy="35" rx="35.5" ry="35" stroke="#C00000" stroke-width="1.33333" stroke-linecap="butt" stroke-opacity="1" fill="none"/><ellipse cx="35.5" cy="35" rx="35" ry="34.5" stroke="#C00000" stroke-width="1.33333" stroke-linecap="butt" stroke-opacity="1" fill="none"/></g></g><g id="icon_heart" clip-path="url(#clip-path)" transform="translate(17.979 20.745)"><path d="M32 2.8C28.3772-0.870484 22.4648-0.909147 18.7944 2.71364 18.7654 2.74224 18.7366 2.77103 18.708 2.8L17.4 4.111 16.1 2.8C12.4273-0.872694 6.47269-0.872693 2.8 2.8-0.872693 6.47269-0.872693 12.4273 2.8 16.1L17.4 30.7 32 16.1C35.6727 12.4794 35.715 6.56711 32.0944 2.89441 32.0632 2.86272 32.0317 2.83125 32 2.8" id="Heart" stroke="#C00000" stroke-width="1.33333" stroke-linecap="butt" stroke-opacity="1" fill="none" fill-rule="evenodd" transform="translate(-0.025 -0.025)"/></g></g></g></g></svg>