<?xml version="1.0" standalone="no"?>
<!DOCTYPE svg PUBLIC "-//W3C//DTD SVG 20010904//EN"
 "http://www.w3.org/TR/2001/REC-SVG-20010904/DTD/svg10.dtd">
<svg version="1.0" xmlns="http://www.w3.org/2000/svg"
 width="1762.000000pt" height="263.000000pt" viewBox="0 0 1762.000000 263.000000"
 preserveAspectRatio="xMidYMid meet">

<g transform="translate(0.000000,263.000000) scale(0.100000,-0.100000)"
fill="#C42C2C" stroke="none">
<path d="M1476 2204 c-39 -12 -71 -37 -155 -119 -102 -99 -108 -103 -161 -110
-79 -11 -175 -42 -252 -82 -96 -50 -457 -359 -525 -450 -109 -143 -157 -292
-157 -478 1 -228 81 -414 242 -567 245 -231 597 -281 892 -128 222 116 362
309 414 571 l6 26 67 -23 c88 -30 168 -30 256 0 l67 23 6 -26 c36 -158 75
-246 155 -353 160 -213 451 -336 712 -299 291 41 533 231 633 501 97 257 57
531 -110 757 -58 79 -410 383 -504 436 -74 41 -189 81 -267 92 -46 7 -58 16
-152 105 -111 108 -173 140 -261 140 -89 -1 -180 -50 -222 -120 -47 -77 -41
-73 -82 -55 -48 19 -158 20 -205 0 -19 -8 -37 -15 -39 -15 -2 0 -11 16 -20 37
-56 116 -208 179 -338 137z m-326 -720 c89 -25 164 -71 233 -143 147 -152 194
-361 123 -555 -135 -374 -611 -477 -884 -192 -164 170 -199 421 -89 631 65
123 217 238 347 264 30 6 64 13 75 15 32 7 135 -4 195 -20z m1971 -8 c166 -57
291 -190 343 -365 23 -78 21 -222 -4 -303 -23 -75 -82 -170 -140 -227 -208
-202 -541 -200 -745 4 -181 180 -213 462 -77 671 138 212 388 300 623 220z
m-1084 -97 c119 -45 150 -203 57 -291 -126 -117 -334 8 -285 173 30 100 133
154 228 118z"/>
<path d="M893 1281 c-125 -43 -215 -164 -217 -294 -1 -50 2 -61 23 -78 56 -45
117 -13 130 68 15 98 70 152 170 168 55 9 81 35 81 79 0 71 -79 95 -187 57z"/>
<path d="M2826 1275 c-115 -47 -195 -155 -204 -276 -4 -62 -3 -67 23 -87 58
-46 118 -14 129 66 12 91 75 154 165 166 62 8 96 43 87 91 -13 68 -93 84 -200
40z"/>
<path d="M5055 2006 c-73 -17 -145 -45 -145 -57 0 -5 25 -54 56 -110 56 -99
57 -101 88 -95 176 36 327 4 459 -96 29 -21 56 -38 62 -38 15 0 155 166 155
184 0 36 -182 147 -315 192 -98 33 -264 42 -360 20z"/>
<path d="M6102 1952 c-10 -7 -12 -169 -10 -778 l3 -769 498 -3 497 -2 0 120 0
120 -345 0 -346 0 -25 25 c-25 25 -25 26 -22 190 2 118 7 168 16 177 10 10 81
14 285 18 l272 5 0 120 0 120 -272 5 c-149 3 -273 7 -276 10 -21 24 -27 65
-27 198 0 136 2 152 21 176 l20 26 347 2 347 3 0 120 0 120 -485 2 c-267 2
-491 -1 -498 -5z"/>
<path d="M7403 1954 c-17 -7 -18 -256 -2 -286 11 -21 1096 -1200 1146 -1245
29 -28 97 -32 107 -7 3 9 6 354 6 768 0 572 -3 755 -12 764 -8 8 -50 12 -123
12 -73 0 -115 -4 -123 -12 -9 -9 -12 -128 -12 -474 0 -274 -4 -465 -9 -469
-14 -8 -27 5 -456 470 -219 237 -407 440 -419 453 -22 22 -79 37 -103 26z"/>
<path d="M8922 1952 c-9 -6 -12 -38 -10 -123 l3 -114 629 -3 c497 -2 631 0
638 10 11 19 10 196 -2 219 -10 18 -28 19 -628 19 -339 0 -623 -4 -630 -8z"/>
<path d="M10452 1952 c-9 -6 -12 -38 -10 -123 l3 -114 125 0 125 0 3 114 c2
85 -1 117 -10 123 -7 4 -60 8 -118 8 -58 0 -111 -4 -118 -8z"/>
<path d="M11053 1949 c-9 -9 -13 -52 -13 -140 0 -116 2 -129 22 -155 36 -46
1140 -1238 1155 -1247 7 -5 30 -7 51 -5 l37 3 3 764 c1 556 -1 768 -9 777 -8
10 -41 14 -125 14 -102 0 -114 -2 -124 -19 -6 -13 -10 -180 -10 -475 0 -250
-4 -457 -9 -460 -4 -3 -15 0 -23 7 -9 7 -192 203 -408 437 -216 234 -409 442
-429 463 -40 41 -97 58 -118 36z"/>
<path d="M12663 1953 c-10 -4 -13 -169 -13 -779 l0 -774 500 0 500 0 0 120 0
120 -345 0 -346 0 -24 25 c-24 24 -25 28 -25 183 0 137 2 163 18 181 16 20 26
21 287 24 l270 2 0 120 0 120 -273 5 c-259 5 -274 6 -288 25 -20 27 -16 347 4
367 10 10 95 14 365 18 l352 5 3 114 c2 85 -1 117 -10 123 -14 8 -954 10 -975
1z"/>
<path d="M13963 1953 c-10 -4 -13 -119 -13 -529 l0 -524 130 0 130 0 0 524 c0
468 -2 525 -16 530 -19 7 -213 7 -231 -1z"/>
<path d="M15217 1953 c-4 -3 -7 -242 -7 -530 l0 -524 128 3 127 3 3 514 c1
371 -1 518 -9 527 -8 10 -41 14 -124 14 -61 0 -115 -3 -118 -7z"/>
<path d="M16472 1952 c-10 -7 -12 -169 -10 -778 l3 -769 498 -3 497 -2 0 120
0 120 -344 0 c-324 0 -345 1 -367 19 -24 19 -24 23 -24 190 0 126 3 173 13
183 10 10 81 14 285 18 l272 5 0 120 0 120 -272 5 c-149 3 -273 7 -276 10 -21
24 -27 65 -27 198 0 136 2 152 21 176 l20 26 350 0 350 0 -3 123 -3 122 -485
2 c-267 2 -491 -1 -498 -5z"/>
<path d="M4680 1595 c-20 -24 -4 -121 30 -191 63 -129 174 -209 469 -338 218
-96 282 -133 322 -189 33 -46 39 -118 14 -167 -48 -94 -225 -140 -402 -107
-95 18 -168 52 -235 108 -26 21 -51 39 -56 39 -18 0 -177 -133 -180 -151 -5
-26 82 -109 166 -158 334 -197 811 -115 947 163 59 122 42 308 -40 418 -70 95
-176 162 -440 278 -224 98 -299 152 -331 238 -27 73 -25 72 -144 72 -84 0
-110 -3 -120 -15z"/>
<path d="M9415 1468 c-3 -13 -4 -257 -3 -543 l3 -520 130 0 130 0 3 520 c1
286 0 530 -3 543 -5 21 -9 22 -130 22 -121 0 -125 -1 -130 -22z"/>
<path d="M10447 1484 c-4 -4 -7 -250 -7 -546 l0 -538 130 0 130 0 -2 543 -3
542 -121 3 c-66 1 -123 -1 -127 -4z"/>
<path d="M7392 863 l3 -458 128 -3 127 -3 0 325 0 325 -47 54 c-102 115 -198
217 -206 217 -4 0 -6 -206 -5 -457z"/>
<path d="M11042 863 l3 -458 124 -3 c93 -2 126 1 133 10 9 16 10 606 0 630 -9
22 -242 278 -254 278 -4 0 -7 -206 -6 -457z"/>
<path d="M13957 633 c-4 -3 -7 -57 -7 -120 l0 -113 500 0 500 0 0 120 0 120
-493 0 c-272 0 -497 -3 -500 -7z"/>
<path d="M15210 520 l0 -120 498 2 497 3 0 115 0 115 -497 3 -498 2 0 -120z"/>
</g>
</svg>
