<svg height="512" viewBox="0 0 512 512" width="512" xmlns="http://www.w3.org/2000/svg"><g id="filled_outline" data-name="filled outline"><circle cx="256.037" cy="255.997" fill="#69b9e7" r="232"/><path d="m85.209 368a7.985 7.985 0 0 1 -6.836-3.836q-1.266-2.069-2.477-4.184a208.387 208.387 0 0 1 -25.187-137.27 8 8 0 0 1 15.8 2.571 192.325 192.325 0 0 0 23.254 126.719c.75 1.3 1.5 2.574 2.266 3.836a8 8 0 0 1 -6.82 12.164z" fill="#74cdff"/><path d="m426.905 368a8 8 0 0 1 -6.828-12.153 192.487 192.487 0 0 0 25.539-130.57 8 8 0 1 1 15.8-2.555 208.514 208.514 0 0 1 -27.665 141.43 7.99 7.99 0 0 1 -6.846 3.848z" fill="#74cdff"/><path d="m199.998 351.996v8h112v-8l-16-144.001v-32h8v-56l-8-8h-80l-8 8v56h8v32z" fill="#cdcdcd"/><path d="m203.128 323.822 101.51-38.067-5.12-46.079-90.824 34.059z" fill="#de4c3b"/><path d="m256 328a8 8 0 0 0 -8 8v16h16v-16a8 8 0 0 0 -8-8z" fill="#fbeebd"/><path d="m264 288a8 8 0 0 0 -16 0v16a7.907 7.907 0 0 0 .563 2.79l15.437-5.79z" fill="#fbeebd"/><path d="m264 240a8 8 0 0 0 -16 0v16a7.9 7.9 0 0 0 .563 2.789l15.437-5.789z" fill="#fbeebd"/><g fill="#fdb62f"><path d="m176.006 144a8.024 8.024 0 0 1 -2.11-.285l-88-24a8 8 0 1 1 4.2-15.438l88 24a8 8 0 0 1 -2.09 15.723z"/><path d="m87.99 200a8 8 0 0 1 -2.09-15.723l88-24a8 8 0 1 1 4.2 15.438l-88 24a8.011 8.011 0 0 1 -2.11.285z"/><path d="m335.99 144a8 8 0 0 1 -2.093-15.723l88-24a8 8 0 1 1 4.2 15.438l-88 24a8.013 8.013 0 0 1 -2.107.285z"/><path d="m424.006 200a8.011 8.011 0 0 1 -2.109-.285l-88-24a8 8 0 1 1 4.2-15.438l88 24a8 8 0 0 1 -2.091 15.723z"/></g><path d="m295.998 207.995h-80l-8-32h96z" fill="#a8a8a8"/><path d="m272 176h-32v-16a16 16 0 0 1 16-16 16 16 0 0 1 16 16z" fill="#a8a8a8"/><path d="m252 144.561a15.962 15.962 0 0 0 -12 15.439v16h24v-16a15.962 15.962 0 0 0 -12-15.439z" fill="#fbeebd"/><path d="m312 120-48-41.148v-22.852a8 8 0 0 0 -16 0v22.852l-48 41.148z" fill="#de4c3b"/><path d="m319.998 479.022v-95.026l8-16v-16h-144v16l8 16v94.924z" fill="#b9b9b9"/><path d="m421.607 386.714-9.716 7.03a40 40 0 0 1 -46.906-.01l-9.695-7.02-9.68 7.011a40 40 0 0 1 -46.92 0l-9.69-7.011-9.691 7.016a40 40 0 0 1 -46.915 0l-9.691-7.016-9.664 7a40 40 0 0 1 -46.937-.006l-9.651-6.994-9.664 7a40 40 0 0 1 -46.94-.01l-9.64-6.989-9.64 6.985a39.749 39.749 0 0 1 -7.919 4.334c69.9 90.482 197.628 117.634 299.389 58.882a231.25 231.25 0 0 0 67.363-58.773 39.757 39.757 0 0 1 -8.036-4.373z" fill="#4298d1"/><path d="m372.037 456.916c4.957-2.863 9.716-5.932 14.379-9.1a39.812 39.812 0 0 1 -21.431-7.445l-9.695-7.02-9.68 7.011a40 40 0 0 1 -46.92 0l-9.69-7.007-9.691 7.016a40 40 0 0 1 -46.915 0l-9.691-7.016-9.664 7a40 40 0 0 1 -46.937-.006l-9.651-6.994-9.664 7a39.814 39.814 0 0 1 -21.365 7.442 232.013 232.013 0 0 0 246.615 9.119z" fill="#3e8cc7"/><path d="m327.995 367.996h-143.997l8 16h128l7.997-15.995z" fill="#a8a8a8"/><path d="m318.148 24.18a238.429 238.429 0 0 0 -182.117 23.976c-114.609 66.168-154.015 213.244-87.851 327.844a238.414 238.414 0 0 0 71.979 77.68c.171.158.382.254.566.4a241.563 241.563 0 0 0 135.712 41.876 239.958 239.958 0 0 0 207.438-359.956 238.435 238.435 0 0 0 -145.727-111.82zm-172.848 426.42a45.994 45.994 0 0 0 6.162-3.786l4.992-3.589 4.906 3.558a47.82 47.82 0 0 0 31.063 9.043 46.491 46.491 0 0 0 25.281-9.012l4.984-3.586 5.032 3.661a48.053 48.053 0 0 0 56.234 0l5.063-3.649 5 3.637a47.763 47.763 0 0 0 25.554 9.035c.836.043 1.672.067 2.508.067a48.613 48.613 0 0 0 28.219-9.11l4.976-3.617 5.032 3.66a49 49 0 0 0 6.37 3.816c-70.948 40.328-154.937 37.535-221.376-.128zm238.952-10.974a32.444 32.444 0 0 1 -14.595-5.7l-9.679-7.039a8 8 0 0 0 -9.407 0l-9.633 7a32.355 32.355 0 0 1 -20.515 6.039 31.828 31.828 0 0 1 -17.008-6l-9.68-7.039a8.009 8.009 0 0 0 -9.382-.02l-9.75 7.035a32.081 32.081 0 0 1 -37.508.024l-9.68-7.039a8.011 8.011 0 0 0 -9.375-.028l-9.781 7.035a31.1 31.1 0 0 1 -16.758 5.957 31.738 31.738 0 0 1 -20.734-6.011l-9.6-6.961a8.011 8.011 0 0 0 -9.367-.02l-9.742 7.008a31.057 31.057 0 0 1 -14.345 5.662 222.178 222.178 0 0 1 -42.851-39.119c.116-.084.253-.153.368-.238l4.992-3.59 4.922 3.57a47.86 47.86 0 0 0 56.32.02l4.992-3.59 4.906 3.559a47.963 47.963 0 0 0 30.466 9.021c.059 0 .108.033.167.033s.084-.025.129-.026c.133-.006.262.018.395.011a47.951 47.951 0 0 0 25.187-9.008l4.977-3.582 5.039 3.66a48.066 48.066 0 0 0 56.234 0l5.063-3.652 5 3.64a47.616 47.616 0 0 0 25.476 8.946c.124.007.249-.017.373-.011.045 0 .082.026.127.026s.109-.032.168-.033a48.33 48.33 0 0 0 30.137-8.936l4.976-3.617 5.008 3.641a48.137 48.137 0 0 0 56.336-.024l4.992-3.632 5.078 3.664c.185.132.366.222.55.351a223.049 223.049 0 0 1 -42.989 39.015zm-185.1-59.206-7.156-14.309v-6.111h128v6.113l-7.156 14.309a8 8 0 0 0 -.844 3.578v7.612a30.959 30.959 0 0 1 -8.578-4.319l-9.68-7.043a8.01 8.01 0 0 0 -9.382-.02l-9.75 7.04a32.093 32.093 0 0 1 -37.508.023l-9.68-7.043a8.011 8.011 0 0 0 -9.375-.027l-9.727 7a31.225 31.225 0 0 1 -8.32 4.265v-7.488a8 8 0 0 0 -.848-3.578zm56.84-297.885 34.375 29.465h-68.75zm0 197.465a8 8 0 0 0 -8 8v10.456l-35.476 13.306 1.4-12.656 2.179-19.6 76.6-28.72 3.3 29.671-32 12v-4.457a8 8 0 0 0 -8.003-8zm-37.75-96h75.5l-4 16h-67.5zm45.75-16h-16v-8a8 8 0 0 1 16 0zm32-40v40h-16v-8a24 24 0 0 0 -48 0v8h-16v-40zm-72.836 88h65.672l2.043 18.375-26.879 10.079v-4.454a8 8 0 0 0 -16 0v10.453l-29.911 11.216zm-12.626 113.6 87.285-32.736 5.24 47.136h-39.063v-8a8 8 0 0 0 -16 0v8h-39.062zm261.87-15.623a223.8 223.8 0 0 1 -35.3 73.983c-.358-.239-.706-.425-1.07-.687l-9.758-7.043a8.01 8.01 0 0 0 -9.382.02l-9.649 7.02a32.152 32.152 0 0 1 -37.586.023l-9.679-7.043a8 8 0 0 0 -9.407 0l-9.633 7a31.986 31.986 0 0 1 -12.945 5.371v-6.738l7.156-14.309a8 8 0 0 0 .844-3.578v-15.996a8 8 0 0 0 -8-8h-8.838l-15.053-135.468 7.647-30.591a7.653 7.653 0 0 0 .015-.816 7.573 7.573 0 0 0 .227-1.125v-48a8 8 0 0 0 5.2-14.074l-53.2-45.6v-12.326a8 8 0 0 0 -16 0v12.323l-53.2 45.6a8 8 0 0 0 5.2 14.074v48a7.56 7.56 0 0 0 .227 1.124 7.667 7.667 0 0 0 .015.817l7.648 30.591-15.049 135.471h-8.838a8 8 0 0 0 -8 8v16a8 8 0 0 0 .844 3.578l7.156 14.309v6.806a31.655 31.655 0 0 1 -13.226-5.49l-9.6-6.961a8.011 8.011 0 0 0 -9.367-.019l-9.7 6.98a31.879 31.879 0 0 1 -37.563 0l-9.6-6.961a8.013 8.013 0 0 0 -9.368-.019l-9.768 7.027c-.272.2-.59.371-.873.563a225.486 225.486 0 0 1 -12.888-19.813c-47.385-82.071-36.7-181.942 19.125-251.895a7.956 7.956 0 0 0 4.727 3.614l88 24a8 8 0 1 0 4.2-15.438l-87.091-23.752a224.033 224.033 0 0 1 330.047-.018l-87.159 23.77a8 8 0 1 0 4.2 15.438l88-24a7.983 7.983 0 0 0 4.826-3.73 227.079 227.079 0 0 1 19.102 28.011 222.522 222.522 0 0 1 22.384 169.977z"/><path d="m89.758 352a192.325 192.325 0 0 1 -23.258-126.715 8 8 0 0 0 -15.8-2.57 208.378 208.378 0 0 0 25.191 137.265q1.206 2.116 2.476 4.184a8 8 0 1 0 13.656-8.328c-.765-1.262-1.515-2.531-2.265-3.836z"/><path d="m445.609 225.277a192.484 192.484 0 0 1 -25.539 130.571 8 8 0 1 0 13.672 8.3 208.51 208.51 0 0 0 27.664-141.429 8 8 0 1 0 -15.8 2.554z"/><path d="m173.891 160.281-88 24a8 8 0 1 0 4.2 15.438l88-24a8 8 0 1 0 -4.2-15.438z"/><path d="m424 200a8 8 0 0 0 2.094-15.723l-88-24a8 8 0 1 0 -4.2 15.438l88 24a8.011 8.011 0 0 0 2.106.285z"/></g></svg>