<svg xmlns="http://www.w3.org/2000/svg" xmlns:xlink="http://www.w3.org/1999/xlink" width="71" height="71" viewBox="0 0 71 71">
  <defs>
    <clipPath id="clip-path">
      <rect width="22" height="26" fill="none"/>
    </clipPath>
  </defs>
  <g id="Group_2826" data-name="Group 2826" transform="translate(-240.234)">
    <g id="Group_2816" data-name="Group 2816" transform="translate(240.645 0)">
      <g id="Group_2810" data-name="Group 2810" transform="translate(0 0)">
        <g id="icon_Invoices" transform="translate(24.589 22)" clip-path="url(#clip-path)">
          <path id="Path_102" data-name="Path 102" d="M21.548,0H2.581A1.523,1.523,0,0,0,1,1.642V26.277l4.742-3.285L8.9,26.277l3.161-3.285,3.161,3.285,3.161-3.285,4.742,3.285V1.642A1.523,1.523,0,0,0,21.548,0ZM18.386,16.423H5.742V13.139H18.386Zm0-6.569H5.742V6.569H18.386Z" transform="translate(-1)" fill="#707070"/>
        </g>
        <g id="Ellipse_504" data-name="Ellipse 504" transform="translate(-0.411 0)" fill="none" stroke="#707070" stroke-width="1">
          <circle cx="35.5" cy="35.5" r="35.5" stroke="none"/>
          <circle cx="35.5" cy="35.5" r="35" fill="none"/>
        </g>
      </g>
    </g>
  </g>
</svg>
