<svg width="71" height="70" viewBox="0 0 71 70" xmlns="http://www.w3.org/2000/svg" xmlns:xlink="http://www.w3.org/1999/xlink" overflow="hidden"><defs><clipPath id="clip-path"><rect x="0" y="0" width="27" height="31" fill="none"/></clipPath></defs><g id="Group_2822" transform="translate(0.321 -0.231)"><g id="Group_2811"><g id="icon_lock-open" clip-path="url(#clip-path)" transform="translate(21.679 16.231)"><path d="M1 28.525C0.935064 29.5087 1.67986 30.3588 2.66355 30.4237 2.73461 30.4284 2.80589 30.4288 2.877 30.425L25.4 30.425C26.3844 30.478 27.2253 29.7229 27.2783 28.7385 27.2821 28.6673 27.2817 28.5961 27.277 28.525L27.277 11.41C27.3419 10.4263 26.5971 9.57624 25.6135 9.5113 25.5424 9.50661 25.4711 9.50618 25.4 9.51L10.385 9.51 10.385 7.61C10.3794 5.52692 12.056 3.82978 14.139 3.81 15.2387 3.76586 16.2903 4.26308 16.954 5.141L18.268 6.472 21.083 4 19.769 2.472C18.291 0.938868 16.2679 0.0505881 14.139-1.16348e-07 9.97028 0.0395719 6.61596 3.43812 6.631 7.607L6.631 9.507 2.877 9.507C1.8926 9.45394 1.05157 10.2089 0.99851 11.1933 0.994619 11.2655 0.995116 11.3379 1 11.41ZM14.139 15.213C16.222 15.2328 17.8986 16.9299 17.893 19.013 17.9001 20.3514 17.1818 21.5886 16.016 22.246L16.016 24.718 12.262 24.718 12.262 22.249C11.0962 21.5916 10.3779 20.3544 10.385 19.016 10.3778 16.9318 12.0548 15.2328 14.139 15.213Z" id="icon_lock-open-2" stroke="#70AD47" stroke-width="1.33333" stroke-linecap="butt" stroke-opacity="1" fill="none" transform="translate(-1 0)"/></g><g id="Ellipse_503" stroke="#FF7F7A" stroke-width="1" fill="none" transform="translate(-0.321 0.231)"><ellipse cx="35.5" cy="35" rx="35.5" ry="35" stroke="#70AD47" stroke-width="1.33333" stroke-linecap="butt" stroke-opacity="1" fill="none"/><ellipse cx="35.5" cy="35" rx="35" ry="34.5" stroke="#70AD47" stroke-width="1.33333" stroke-linecap="butt" stroke-opacity="1" fill="none"/></g></g></g></svg>