<svg xmlns="http://www.w3.org/2000/svg" xmlns:xlink="http://www.w3.org/1999/xlink" width="71" height="71" viewBox="0 0 71 71">
  <defs>
    <clipPath id="clip-path">
      <rect width="26" height="30" fill="none"/>
    </clipPath>
  </defs>
  <g id="Group_2825" data-name="Group 2825" transform="translate(0.088)">
    <g id="Group_2811" data-name="Group 2811" transform="translate(0 0)">
      <g id="icon_lock-open" transform="translate(21.912 17)" clip-path="url(#clip-path)">
        <path id="icon_lock-open-2" data-name="icon_lock-open" d="M1,28.525a1.785,1.785,0,0,0,1.877,1.9H25.4a1.785,1.785,0,0,0,1.877-1.9V11.41a1.785,1.785,0,0,0-1.877-1.9H10.385v-1.9a3.79,3.79,0,0,1,3.754-3.8,3.36,3.36,0,0,1,2.815,1.331l1.314,1.331,2.815-2.472L19.769,2.472A8.087,8.087,0,0,0,14.139,0,7.58,7.58,0,0,0,6.631,7.607v1.9H2.877A1.785,1.785,0,0,0,1,11.41ZM14.139,15.213a3.79,3.79,0,0,1,3.754,3.8,3.689,3.689,0,0,1-1.877,3.233v2.472H12.262V22.249a3.689,3.689,0,0,1-1.877-3.233A3.79,3.79,0,0,1,14.139,15.213Z" transform="translate(-1)" fill="#707070"/>
      </g>
      <g id="Ellipse_503" data-name="Ellipse 503" transform="translate(-0.088 0)" fill="none" stroke="#707070" stroke-width="1">
        <circle cx="35.5" cy="35.5" r="35.5" stroke="none"/>
        <circle cx="35.5" cy="35.5" r="35" fill="none"/>
      </g>
    </g>
  </g>
</svg>
