<?xml version="1.0" standalone="no"?>
<!DOCTYPE svg PUBLIC "-//W3C//DTD SVG 20010904//EN"
 "http://www.w3.org/TR/2001/REC-SVG-20010904/DTD/svg10.dtd">
<svg version="1.0" xmlns="http://www.w3.org/2000/svg"
 width="819.000000pt" height="460.000000pt" viewBox="0 0 819.000000 460.000000"
 preserveAspectRatio="xMidYMid meet">

<g transform="translate(0.000000,460.000000) scale(0.100000,-0.100000)"
fill="#000000" stroke="none">
<path d="M7600 4351 l0 -80 54 -30 54 -31 51 31 51 32 0 78 0 79 -105 0 -105
0 0 -79z m82 -11 c3 -19 0 -30 -7 -30 -7 0 -10 11 -7 30 2 17 5 30 7 30 2 0 5
-13 7 -30z m56 -3 c3 -23 0 -27 -20 -26 -16 0 -19 2 -8 7 17 8 20 33 5 45 -6
5 -4 7 5 4 8 -2 16 -16 18 -30z"/>
<path d="M3480 4390 c0 -11 7 -20 15 -20 8 0 15 9 15 20 0 11 -7 20 -15 20 -8
0 -15 -9 -15 -20z"/>
<path d="M3410 4370 c0 -27 -3 -30 -24 -24 -47 12 -73 -63 -37 -107 16 -21 22
-22 45 -11 15 7 26 8 26 2 0 -6 5 -10 10 -10 6 0 10 37 10 90 0 73 -3 90 -15
90 -10 0 -15 -10 -15 -30z m-5 -85 c0 -33 -28 -47 -39 -19 -10 25 3 56 22 52
11 -2 17 -13 17 -33z"/>
<path d="M2836 4313 c-14 -43 -26 -81 -26 -86 0 -16 28 -6 33 13 4 15 14 20
40 20 26 0 36 -5 40 -20 3 -11 12 -20 21 -20 20 0 20 1 -13 90 -21 57 -32 76
-48 78 -18 3 -25 -8 -47 -75z m58 15 c9 -35 8 -38 -14 -38 -11 0 -20 3 -20 8
0 19 13 52 20 52 4 0 10 -10 14 -22z"/>
<path d="M4340 4370 c-31 -31 -25 -47 28 -74 42 -22 36 -41 -11 -41 -44 0 -50
-21 -10 -31 32 -8 76 13 81 39 4 22 -15 46 -45 58 -13 5 -23 16 -23 25 0 12 7
15 30 12 32 -5 43 15 14 26 -27 10 -43 7 -64 -14z"/>
<path d="M2967 4358 c-6 -25 5 -107 17 -126 10 -17 46 -15 46 2 0 8 -7 16 -15
20 -9 3 -15 18 -15 36 0 20 5 30 15 30 8 0 15 7 15 15 0 8 -7 15 -15 15 -8 0
-15 7 -15 15 0 24 -27 17 -33 -7z"/>
<path d="M4047 4358 c-6 -25 5 -107 17 -126 10 -17 46 -15 46 2 0 8 -7 16 -15
20 -9 3 -15 18 -15 36 0 20 5 30 15 30 8 0 15 7 15 15 0 8 -7 15 -15 15 -8 0
-15 7 -15 15 0 24 -27 17 -33 -7z"/>
<path d="M4987 4358 c-6 -25 5 -107 17 -126 10 -17 46 -15 46 2 0 8 -7 16 -15
20 -9 3 -15 18 -15 36 0 20 5 30 15 30 8 0 15 7 15 15 0 8 -7 15 -15 15 -8 0
-15 7 -15 15 0 24 -27 17 -33 -7z"/>
<path d="M3077 4338 c-9 -7 -20 -27 -23 -44 -10 -51 39 -88 90 -68 30 12 17
30 -18 26 -18 -2 -37 1 -40 7 -5 7 8 11 38 11 39 0 46 3 46 20 0 25 -34 60
-58 60 -10 0 -26 -6 -35 -12z m61 -35 c2 -9 -7 -13 -27 -13 -23 0 -29 4 -24
16 6 17 44 15 51 -3z"/>
<path d="M3200 4285 c0 -50 3 -65 14 -65 11 0 16 14 18 47 2 35 7 49 20 51 14
3 17 -6 20 -44 5 -73 28 -70 28 4 0 51 -3 62 -20 67 -10 3 -28 1 -40 -5 -13
-7 -20 -7 -20 0 0 5 -4 10 -10 10 -6 0 -10 -28 -10 -65z"/>
<path d="M3480 4285 c0 -51 3 -65 15 -65 12 0 15 14 15 65 0 51 -3 65 -15 65
-12 0 -15 -14 -15 -65z"/>
<path d="M3550 4285 c0 -50 3 -65 14 -65 11 0 16 14 18 48 3 39 6 47 23 47 17
0 20 -8 23 -47 4 -66 30 -66 34 -1 2 36 7 49 21 51 14 3 17 -4 17 -47 0 -39 4
-51 15 -51 11 0 15 13 15 54 0 63 -17 85 -53 69 -16 -7 -29 -8 -41 -1 -12 7
-26 7 -42 -1 -15 -6 -24 -7 -24 -1 0 6 -4 10 -10 10 -6 0 -10 -28 -10 -65z"/>
<path d="M3787 4338 c-9 -7 -20 -27 -23 -44 -10 -51 39 -88 90 -68 30 12 17
30 -18 26 -18 -2 -37 1 -40 7 -5 7 8 11 38 11 39 0 46 3 46 20 0 25 -34 60
-58 60 -10 0 -26 -6 -35 -12z m61 -35 c2 -9 -7 -13 -27 -13 -23 0 -29 4 -24
16 6 17 44 15 51 -3z"/>
<path d="M3910 4285 c0 -50 3 -65 14 -65 11 0 16 14 18 47 2 35 7 49 20 51 14
3 17 -6 20 -44 5 -73 28 -70 28 4 0 51 -3 62 -20 67 -10 3 -28 1 -40 -5 -13
-7 -20 -7 -20 0 0 5 -4 10 -10 10 -6 0 -10 -28 -10 -65z"/>
<path d="M4157 4338 c-9 -7 -20 -27 -23 -44 -12 -61 62 -98 106 -54 55 55 -21
144 -83 98z m68 -37 c9 -28 -5 -51 -30 -51 -25 0 -39 23 -30 51 4 12 16 19 30
19 14 0 26 -7 30 -19z"/>
<path d="M4460 4296 c0 -64 17 -85 55 -68 15 7 25 8 25 2 0 -6 5 -10 10 -10 6
0 10 29 10 66 0 77 -22 86 -30 13 -4 -31 -10 -45 -22 -47 -15 -3 -18 4 -18 47
0 39 -4 51 -15 51 -11 0 -15 -13 -15 -54z"/>
<path d="M4600 4260 c0 -73 3 -90 15 -90 10 0 15 10 15 30 0 27 3 30 24 24 31
-8 56 19 56 61 0 32 -21 65 -41 65 -6 0 -19 -5 -30 -10 -13 -7 -19 -7 -19 0 0
5 -4 10 -10 10 -6 0 -10 -37 -10 -90z m75 25 c0 -23 -4 -30 -20 -30 -21 0 -31
25 -21 51 11 28 41 12 41 -21z"/>
<path d="M4757 4338 c-9 -7 -20 -27 -23 -44 -12 -61 62 -98 106 -54 55 55 -21
144 -83 98z m68 -37 c9 -28 -5 -51 -30 -51 -25 0 -39 23 -30 51 4 12 16 19 30
19 14 0 26 -7 30 -19z"/>
<path d="M4890 4284 c0 -50 3 -64 15 -64 11 0 15 12 15 46 0 37 4 47 20 51 33
9 23 29 -15 30 l-35 1 0 -64z"/>
<path d="M5097 4338 c-9 -7 -20 -27 -23 -44 -10 -51 39 -88 90 -68 30 12 17
30 -18 26 -18 -2 -37 1 -40 7 -5 7 8 11 38 11 39 0 46 3 46 20 0 25 -34 60
-58 60 -10 0 -26 -6 -35 -12z m61 -35 c2 -9 -7 -13 -27 -13 -23 0 -29 4 -24
16 6 17 44 15 51 -3z"/>
<path d="M1053 4319 c-52 -33 -37 -55 17 -24 23 12 30 11 78 -16 l52 -30 0 25
c0 18 -5 26 -17 26 -10 0 -33 9 -51 20 -40 24 -39 24 -79 -1z"/>
<path d="M960 4254 c0 -14 4 -23 10 -19 6 3 28 -4 49 -16 38 -21 71 -21 71 1
0 5 -8 10 -17 10 -10 0 -36 11 -58 25 -50 31 -55 31 -55 -1z"/>
<path d="M1080 4260 c0 -14 48 -35 58 -26 8 9 -26 36 -45 36 -7 0 -13 -5 -13
-10z"/>
<path d="M1132 4194 c-29 -18 -58 -34 -65 -34 -6 0 -30 11 -52 25 -46 28 -55
30 -55 12 0 -14 83 -67 106 -67 24 0 134 71 134 86 0 20 -9 17 -68 -22z"/>
<path d="M218 4139 c-26 -15 -24 -75 3 -89 16 -9 26 -8 47 6 16 11 22 19 14
22 -7 2 -18 -1 -26 -7 -9 -7 -16 -7 -24 1 -29 29 1 75 32 49 17 -14 29 -2 15
16 -13 15 -37 16 -61 2z"/>
<path d="M928 4138 c-7 -20 3 -88 13 -88 5 0 9 12 10 28 0 15 2 37 3 50 3 23
-19 31 -26 10z"/>
<path d="M1390 4115 l0 -25 3305 0 3305 0 0 25 0 25 -3305 0 -3305 0 0 -25z"/>
<path d="M854 4114 c-18 -14 -18 -15 6 -9 l25 6 -22 -17 c-35 -25 -29 -44 12
-44 30 0 35 3 35 24 0 14 -7 32 -16 40 -19 19 -16 19 -40 0z m26 -44 c0 -5 -4
-10 -10 -10 -5 0 -10 5 -10 10 0 6 5 10 10 10 6 0 10 -4 10 -10z"/>
<path d="M307 4114 c-14 -14 -7 -53 12 -63 26 -14 54 8 49 40 -2 17 -10 25
-28 27 -14 2 -29 0 -33 -4z m39 -40 c-5 -13 -10 -14 -18 -6 -6 6 -8 18 -4 28
5 13 10 14 18 6 6 -6 8 -18 4 -28z"/>
<path d="M390 4085 c0 -19 5 -35 10 -35 6 0 10 11 10 24 0 14 4 27 9 31 12 7
25 -31 16 -45 -3 -5 -2 -10 3 -10 5 0 12 14 16 31 7 35 26 30 26 -7 0 -13 5
-24 11 -24 6 0 9 14 7 33 -3 31 -4 32 -55 35 l-53 2 0 -35z"/>
<path d="M520 4071 c0 -28 5 -51 10 -51 6 0 10 6 10 14 0 8 10 16 23 18 17 2
22 10 22 33 0 27 -4 30 -32 33 l-33 3 0 -50z m46 3 c-5 -13 -10 -14 -18 -6 -6
6 -8 18 -4 28 5 13 10 14 18 6 6 -6 8 -18 4 -28z"/>
<path d="M610 4085 c0 -33 2 -35 35 -35 33 0 35 2 35 35 0 24 -5 35 -15 35 -9
0 -15 -9 -15 -25 0 -14 -4 -25 -10 -25 -5 0 -10 11 -10 25 0 14 -4 25 -10 25
-5 0 -10 -16 -10 -35z"/>
<path d="M695 4109 c-13 -20 5 -59 28 -60 21 -1 21 -1 -3 -9 -23 -7 -23 -8 -6
-15 30 -13 51 8 54 54 3 41 3 41 -32 41 -19 0 -38 -5 -41 -11z m45 -19 c0 -11
-4 -20 -9 -20 -14 0 -23 18 -16 30 10 17 25 11 25 -10z"/>
<path d="M780 4085 c0 -24 5 -35 15 -35 9 0 15 9 15 25 0 14 5 25 10 25 6 0
10 5 10 10 0 6 -11 10 -25 10 -22 0 -25 -4 -25 -35z"/>
<path d="M1501 3449 c-279 -36 -503 -149 -697 -351 -267 -279 -359 -682 -238
-1043 33 -100 82 -198 94 -190 11 7 3 31 -34 104 -14 27 -38 89 -53 138 -25
83 -27 100 -27 273 0 173 2 191 28 275 55 180 159 350 291 474 179 167 421
277 654 298 53 5 86 13 89 21 4 14 -10 14 -107 1z"/>
<path d="M1682 3448 c3 -8 31 -15 79 -19 357 -30 692 -245 868 -560 155 -278
167 -626 31 -916 -46 -100 -35 -122 13 -26 75 150 102 273 101 463 -1 124 -5
160 -27 245 -92 345 -347 620 -694 751 -121 46 -380 89 -371 62z"/>
<path d="M3370 3296 c0 -7 -9 -16 -21 -19 -16 -4 -20 -12 -17 -34 2 -23 8 -28
31 -29 26 -1 27 1 27 47 0 27 -4 49 -10 49 -5 0 -10 -6 -10 -14z m0 -51 c0
-26 -14 -33 -25 -15 -9 14 1 40 15 40 5 0 10 -11 10 -25z"/>
<path d="M3410 3300 c0 -5 5 -10 10 -10 6 0 10 5 10 10 0 6 -4 10 -10 10 -5 0
-10 -4 -10 -10z"/>
<path d="M3038 3255 c-10 -25 -13 -45 -8 -45 6 0 10 5 10 10 0 6 11 10 25 10
14 0 25 -4 25 -10 0 -5 4 -10 9 -10 6 0 3 20 -6 45 -8 25 -20 45 -27 45 -6 0
-19 -20 -28 -45z m42 -7 c0 -5 -7 -8 -15 -8 -17 0 -18 2 -9 25 5 13 8 14 15 3
5 -7 9 -16 9 -20z"/>
<path d="M3118 3288 c-9 -28 7 -73 27 -75 11 -2 14 0 8 3 -16 7 -17 54 -2 54
6 0 4 7 -5 15 -18 18 -23 19 -28 3z"/>
<path d="M3728 3288 c-9 -28 7 -73 27 -75 11 -2 14 0 8 3 -16 7 -17 54 -2 54
6 0 4 7 -5 15 -18 18 -23 19 -28 3z"/>
<path d="M3883 3284 c-4 -11 2 -23 18 -35 l24 -18 -25 -10 c-23 -9 -23 -10 -4
-10 12 -1 27 5 34 13 9 12 7 18 -9 33 -25 21 -28 38 -5 29 8 -3 12 -2 9 4 -10
16 -35 12 -42 -6z"/>
<path d="M4238 3290 c-2 -6 -13 -12 -26 -13 -18 -1 -22 -7 -22 -34 0 -18 5
-33 10 -33 6 0 10 14 10 30 0 39 27 41 32 3 2 -19 9 -29 23 -30 11 -2 14 0 8
3 -16 7 -17 54 -2 54 6 0 4 7 -5 15 -17 18 -23 19 -28 5z"/>
<path d="M4413 3293 c20 -5 21 -16 6 -44 -6 -11 -8 -25 -6 -32 5 -12 37 52 37
73 0 5 -12 9 -27 9 -17 -1 -21 -3 -10 -6z"/>
<path d="M4625 3291 c-3 -6 0 -8 8 -5 25 9 28 -12 7 -39 -27 -34 -25 -37 13
-36 24 1 27 3 9 6 -22 4 -23 6 -7 23 9 10 15 27 13 37 -4 20 -33 30 -43 14z"/>
<path d="M4699 3273 c-7 -16 -15 -31 -17 -35 -2 -5 5 -8 16 -8 11 0 23 -6 25
-12 10 -24 23 10 19 47 -5 42 -24 45 -43 8z m17 -30 c-11 -11 -17 4 -9 23 7
18 8 18 11 1 2 -10 1 -21 -2 -24z"/>
<path d="M4915 3291 c-3 -7 0 -8 9 -5 10 4 16 1 16 -9 0 -8 -6 -18 -12 -20
-10 -4 -10 -6 0 -6 6 -1 12 -7 12 -15 0 -8 -6 -17 -12 -20 -7 -3 -4 -5 7 -3
16 2 20 10 20 42 0 29 -4 41 -17 43 -9 2 -19 -2 -23 -7z"/>
<path d="M4987 3293 c-4 -3 -7 -21 -7 -40 0 -38 23 -54 46 -31 19 19 8 46 -19
51 -21 3 -21 4 3 15 23 10 23 11 4 11 -11 1 -24 -2 -27 -6z m33 -54 c0 -24
-23 -21 -28 4 -2 10 3 17 12 17 10 0 16 -9 16 -21z"/>
<path d="M5050 3275 c0 -16 6 -25 15 -25 18 0 20 -26 3 -34 -7 -3 -4 -5 7 -3
25 3 35 47 11 47 -22 0 -20 27 2 33 10 3 6 5 -10 6 -23 1 -28 -3 -28 -24z"/>
<path d="M3174 3266 c-12 -30 0 -51 31 -53 18 -1 22 1 10 4 -34 9 -41 23 -11
23 21 0 27 4 24 18 -4 22 -46 29 -54 8z m41 -6 c3 -5 -1 -10 -9 -10 -9 0 -16
5 -16 10 0 6 4 10 9 10 6 0 13 -4 16 -10z"/>
<path d="M3250 3244 c0 -19 5 -34 10 -34 6 0 10 14 10 30 0 17 5 30 10 30 6 0
10 -13 10 -30 0 -16 5 -30 11 -30 6 0 9 14 7 33 -3 27 -7 32 -30 33 -25 1 -28
-2 -28 -32z"/>
<path d="M3410 3245 c0 -19 5 -35 10 -35 6 0 10 16 10 35 0 19 -4 35 -10 35
-5 0 -10 -16 -10 -35z"/>
<path d="M3450 3243 c0 -18 5 -33 10 -33 6 0 10 14 10 30 0 17 5 30 10 30 6 0
10 -13 10 -30 0 -16 5 -30 10 -30 6 0 10 14 10 30 0 17 5 30 10 30 6 0 10 -13
10 -30 0 -16 5 -30 11 -30 6 0 9 14 7 33 -3 31 -4 32 -50 33 -48 1 -48 1 -48
-33z"/>
<path d="M3574 3266 c-12 -30 0 -51 31 -53 18 -1 22 1 10 4 -34 9 -41 23 -11
23 21 0 27 4 24 18 -4 22 -46 29 -54 8z m41 -6 c3 -5 -1 -10 -9 -10 -9 0 -16
5 -16 10 0 6 4 10 9 10 6 0 13 -4 16 -10z"/>
<path d="M3650 3244 c0 -19 5 -34 10 -34 6 0 10 14 10 30 0 17 5 30 10 30 6 0
10 -13 10 -30 0 -16 5 -30 11 -30 6 0 9 14 7 33 -3 27 -7 32 -30 33 -25 1 -28
-2 -28 -32z"/>
<path d="M3784 3266 c-11 -29 0 -51 26 -51 21 0 25 5 25 30 0 24 -5 31 -23 33
-13 2 -24 -3 -28 -12z m43 -12 c8 -21 -13 -42 -28 -27 -13 13 -5 43 11 43 6 0
13 -7 17 -16z"/>
<path d="M3952 3248 c3 -28 7 -33 31 -34 24 -1 27 2 27 32 0 19 -4 34 -10 34
-5 0 -10 -13 -10 -30 0 -16 -4 -30 -10 -30 -5 0 -10 14 -10 30 0 17 -5 30 -11
30 -6 0 -9 -14 -7 -32z"/>
<path d="M4030 3229 c0 -27 5 -49 10 -49 6 0 10 6 10 14 0 7 9 16 21 19 16 4
20 12 17 34 -2 23 -8 28 -30 29 -27 1 -28 -1 -28 -47z m45 16 c0 -10 -6 -20
-12 -22 -8 -3 -13 5 -13 22 0 17 5 25 13 23 6 -3 12 -13 12 -23z"/>
<path d="M4114 3266 c-11 -29 0 -51 26 -51 21 0 25 5 25 30 0 24 -5 31 -23 33
-13 2 -24 -3 -28 -12z m43 -12 c8 -21 -13 -42 -28 -27 -13 13 -5 43 11 43 6 0
13 -7 17 -16z"/>
<path d="M4294 3266 c-12 -30 0 -51 31 -53 18 -1 22 1 10 4 -34 9 -41 23 -11
23 21 0 27 4 24 18 -4 22 -46 29 -54 8z m41 -6 c3 -5 -1 -10 -9 -10 -9 0 -16
5 -16 10 0 6 4 10 9 10 6 0 13 -4 16 -10z"/>
<path d="M4515 3262 c4 -13 2 -29 -5 -37 -14 -17 1 -20 17 -4 8 8 13 8 17 0 4
-6 12 -11 18 -11 7 0 6 5 -2 15 -7 8 -9 23 -4 37 6 19 5 21 -8 11 -11 -10 -17
-10 -27 0 -11 10 -12 8 -6 -11z"/>
<path d="M4805 3262 c4 -13 2 -29 -5 -37 -14 -17 1 -20 17 -4 8 8 13 8 17 0 4
-6 12 -11 18 -11 7 0 6 5 -2 15 -7 8 -9 23 -4 37 6 19 5 21 -8 11 -11 -10 -17
-10 -27 0 -11 10 -12 8 -6 -11z"/>
<path d="M2274 3155 c-3 -14 -20 -35 -38 -47 -17 -13 -54 -45 -82 -73 -94 -91
-136 -125 -155 -125 -11 0 -30 -16 -44 -39 -14 -21 -36 -43 -48 -48 -12 -6
-42 -27 -65 -47 -32 -26 -53 -36 -78 -36 -32 0 -34 -3 -45 -45 -12 -46 -44
-75 -84 -75 -22 0 -19 -16 10 -54 42 -55 31 -70 -27 -37 -18 10 -44 22 -57 26
-21 6 -20 4 10 -23 34 -30 34 -30 21 -76 -6 -26 -12 -57 -12 -70 0 -22 2 -23
43 -14 23 6 74 26 114 45 39 19 90 37 112 40 34 5 42 10 47 32 8 42 19 55 50
65 16 5 45 14 64 21 82 30 181 56 190 50 11 -7 8 -60 -11 -180 -17 -110 -17
-110 -38 -91 -16 15 -19 15 -31 1 -22 -26 -1 -33 113 -38 121 -5 131 -10 140
-69 7 -48 -11 -69 -83 -99 -30 -12 -63 -29 -74 -38 -14 -13 -42 -16 -125 -16
-106 1 -106 1 -164 38 -59 39 -147 72 -147 56 0 -5 6 -9 14 -9 8 0 28 -11 43
-25 l28 -25 -94 4 c-79 3 -90 1 -71 -9 17 -9 19 -14 9 -17 -8 -3 3 -6 25 -6
21 0 41 -4 45 -9 3 -5 21 -15 40 -23 l35 -14 -28 -7 c-33 -9 -84 10 -64 23 9
5 4 8 -13 8 -15 0 -43 7 -62 15 -47 19 -60 19 -23 -1 22 -13 26 -18 15 -25 -8
-5 -21 -8 -29 -8 -10 0 -8 3 5 9 16 7 13 9 -16 9 -47 1 -107 30 -88 42 10 6 6
9 -13 9 -14 0 -28 5 -30 12 -2 6 -10 8 -17 4 -9 -6 -9 -11 -1 -21 9 -11 4 -14
-27 -17 l-38 -3 60 -29 c33 -16 73 -29 90 -28 23 0 26 -2 11 -7 -16 -6 -17 -9
-6 -16 11 -7 10 -10 -6 -16 -40 -16 3 -11 306 36 25 4 238 22 342 29 41 3 58
0 62 -9 3 -10 -10 -17 -47 -24 -59 -12 -229 -41 -238 -41 -4 0 -7 -30 -8 -67
-2 -95 -28 -325 -46 -408 -23 -107 -21 -116 18 -108 94 18 226 82 339 165 335
247 481 714 347 1110 -25 73 -100 220 -134 262 l-23 29 -15 -29 c-17 -33 -140
-154 -156 -154 -19 0 -13 9 42 63 29 29 68 72 85 96 l32 43 -36 42 c-40 47
-141 136 -155 136 -5 0 -11 -11 -15 -25z m-564 -570 c7 -9 11 -18 8 -21 -7 -7
-55 12 -63 25 -10 17 41 13 55 -4z m773 -246 c-14 -14 -119 -24 -127 -11 -3 6
1 8 11 6 10 -2 32 0 48 5 43 13 82 14 68 0z m-623 -244 c-14 -8 -19 -14 -11
-15 8 0 12 -2 9 -5 -2 -3 -19 0 -37 6 -40 14 -24 29 29 28 l35 0 -25 -14z
m-90 -51 c0 -2 -9 -4 -20 -4 -11 0 -20 4 -20 9 0 5 9 7 20 4 11 -3 20 -7 20
-9z"/>
<path d="M3183 2900 c0 -30 2 -43 4 -27 2 15 2 39 0 55 -2 15 -4 2 -4 -28z"/>
<path d="M3298 2933 c-2 -10 -1 -34 3 -53 l6 -35 2 33 c0 18 6 32 14 32 8 0 7
4 -3 10 -13 9 -13 11 0 20 13 8 13 10 -1 10 -9 0 -18 -8 -21 -17z"/>
<path d="M3032 2933 c12 -3 18 -17 21 -46 l4 -42 1 42 c2 30 7 43 20 46 9 3
-1 5 -23 5 -22 0 -32 -2 -23 -5z"/>
<path d="M3710 2920 c0 -13 7 -20 20 -20 27 0 27 -37 0 -43 -17 -4 -16 -4 2
-3 32 2 38 45 9 53 -28 7 -27 21 2 26 19 4 18 4 -5 6 -22 1 -28 -4 -28 -19z"/>
<path d="M3780 2920 c0 -13 7 -20 20 -20 27 0 27 -37 0 -43 -17 -4 -16 -4 2
-3 32 2 38 45 9 53 -28 7 -27 21 2 26 19 4 18 4 -5 6 -22 1 -28 -4 -28 -19z"/>
<path d="M3912 2903 c-1 -23 -8 -44 -14 -46 -7 -3 1 -6 17 -6 17 0 25 3 18 7
-6 4 -13 25 -16 47 l-4 40 -1 -42z"/>
<path d="M3982 2903 c-1 -23 -8 -44 -14 -46 -7 -3 1 -6 17 -6 17 0 25 3 18 7
-6 4 -13 25 -16 47 l-4 40 -1 -42z"/>
<path d="M4074 2929 c-4 -8 -3 -9 4 -5 22 13 37 -6 17 -21 -17 -12 -17 -13 -2
-13 9 0 17 -7 17 -16 0 -11 -6 -15 -20 -11 -11 3 -20 1 -20 -5 0 -5 10 -8 23
-6 19 3 22 9 22 43 0 29 -4 41 -17 43 -9 2 -20 -2 -24 -9z"/>
<path d="M4144 2929 c-4 -8 -3 -9 4 -5 22 13 37 -6 17 -21 -17 -12 -17 -13 -2
-13 9 0 17 -7 17 -16 0 -11 -6 -15 -20 -11 -11 3 -20 1 -20 -5 0 -5 10 -8 23
-6 19 3 22 9 22 43 0 29 -4 41 -17 43 -9 2 -20 -2 -24 -9z"/>
<path d="M4216 2931 c-4 -5 3 -7 14 -4 26 7 26 -18 0 -42 -28 -26 -25 -35 13
-34 23 1 26 3 10 6 -21 4 -22 6 -7 29 9 13 14 31 10 39 -6 16 -32 20 -40 6z"/>
<path d="M4284 2929 c-4 -8 -3 -9 4 -5 22 13 37 -6 17 -21 -17 -12 -17 -13 -2
-13 9 0 17 -7 17 -16 0 -11 -6 -15 -20 -11 -11 3 -20 1 -20 -5 0 -5 10 -8 23
-6 19 3 22 9 22 43 0 29 -4 41 -17 43 -9 2 -20 -2 -24 -9z"/>
<path d="M4404 2929 c-4 -8 -3 -9 4 -5 22 13 37 -6 17 -21 -17 -12 -17 -13 -2
-13 9 0 17 -7 17 -16 0 -11 -6 -15 -20 -11 -11 3 -20 1 -20 -5 0 -5 10 -8 23
-6 19 3 22 9 22 43 0 29 -4 41 -17 43 -9 2 -20 -2 -24 -9z"/>
<path d="M4474 2929 c-4 -8 -3 -9 4 -5 22 13 37 -6 17 -21 -17 -12 -17 -13 -2
-13 9 0 17 -7 17 -16 0 -11 -6 -15 -20 -11 -11 3 -20 1 -20 -5 0 -5 10 -8 23
-6 19 3 22 9 22 43 0 29 -4 41 -17 43 -9 2 -20 -2 -24 -9z"/>
<path d="M4546 2931 c-4 -5 3 -7 14 -4 26 7 26 -18 0 -42 -28 -26 -25 -35 13
-34 23 1 26 3 10 6 -21 4 -22 6 -7 29 9 13 14 31 10 39 -6 16 -32 20 -40 6z"/>
<path d="M4616 2931 c-4 -5 3 -7 14 -4 26 7 26 -18 0 -42 -28 -26 -25 -35 13
-34 23 1 26 3 10 6 -21 4 -22 6 -7 29 9 13 14 31 10 39 -6 16 -32 20 -40 6z"/>
<path d="M3661 2918 c0 -10 -7 -18 -13 -18 -9 0 -10 -3 -2 -8 6 -4 14 -14 17
-22 4 -12 6 -12 6 2 1 9 9 19 19 21 15 4 15 5 0 6 -9 0 -19 9 -21 19 -4 16 -5
16 -6 0z"/>
<path d="M3094 2895 c-8 -32 6 -48 37 -42 22 4 22 4 -3 6 -35 1 -37 21 -2 21
32 0 30 33 -3 38 -17 3 -24 -3 -29 -23z m46 5 c0 -5 -9 -10 -21 -10 -11 0 -17
5 -14 10 3 6 13 10 21 10 8 0 14 -4 14 -10z"/>
<path d="M3214 2895 c-8 -32 6 -48 37 -42 22 4 22 4 -3 6 -35 1 -37 21 -2 21
32 0 30 33 -3 38 -17 3 -24 -3 -29 -23z m46 5 c0 -5 -9 -10 -21 -10 -11 0 -17
5 -14 10 3 6 13 10 21 10 8 0 14 -4 14 -10z"/>
<path d="M3344 2906 c-11 -29 0 -51 26 -51 21 0 25 5 25 30 0 24 -5 31 -23 33
-13 2 -24 -3 -28 -12z m46 -21 c0 -25 -23 -35 -35 -15 -10 16 2 40 20 40 9 0
15 -9 15 -25z"/>
<path d="M3421 2881 c1 -36 1 -36 8 -6 8 40 38 46 44 8 4 -28 4 -28 3 2 -1 26
-5 30 -28 31 -26 1 -28 -2 -27 -35z"/>
<path d="M3504 2895 c-8 -32 6 -48 37 -42 22 4 22 4 -3 6 -35 1 -37 21 -2 21
32 0 30 33 -3 38 -17 3 -24 -3 -29 -23z m46 5 c0 -5 -9 -10 -21 -10 -11 0 -17
5 -14 10 3 6 13 10 21 10 8 0 14 -4 14 -10z"/>
<path d="M4358 2883 c7 -3 16 -2 19 1 4 3 -2 6 -13 5 -11 0 -14 -3 -6 -6z"/>
<path d="M3183 2720 c0 -30 2 -43 4 -27 2 15 2 39 0 55 -2 15 -4 2 -4 -28z"/>
<path d="M3298 2753 c-2 -10 -1 -34 3 -53 l6 -35 2 33 c0 18 6 32 14 32 8 0 7
4 -3 10 -13 9 -13 11 0 20 13 8 13 10 -1 10 -9 0 -18 -8 -21 -17z"/>
<path d="M3032 2753 c12 -3 18 -17 21 -46 l4 -42 1 42 c2 30 7 43 20 46 9 3
-1 5 -23 5 -22 0 -32 -2 -23 -5z"/>
<path d="M3710 2740 c0 -13 7 -20 20 -20 27 0 27 -37 0 -43 -17 -4 -16 -4 2
-3 32 2 38 45 9 53 -28 7 -27 21 2 26 19 4 18 4 -5 6 -22 1 -28 -4 -28 -19z"/>
<path d="M3780 2740 c0 -13 7 -20 20 -20 27 0 27 -37 0 -43 -17 -4 -16 -4 2
-3 32 2 38 45 9 53 -28 7 -27 21 2 26 19 4 18 4 -5 6 -22 1 -28 -4 -28 -19z"/>
<path d="M3912 2723 c-1 -23 -8 -44 -14 -46 -7 -3 1 -6 17 -6 17 0 25 3 18 7
-6 4 -13 25 -16 47 l-4 40 -1 -42z"/>
<path d="M3982 2723 c-1 -23 -8 -44 -14 -46 -7 -3 1 -6 17 -6 17 0 25 3 18 7
-6 4 -13 25 -16 47 l-4 40 -1 -42z"/>
<path d="M4074 2749 c-4 -8 -3 -9 4 -5 22 13 37 -6 17 -21 -17 -12 -17 -13 -2
-13 9 0 17 -7 17 -16 0 -11 -6 -15 -20 -11 -11 3 -20 1 -20 -5 0 -5 10 -8 23
-6 19 3 22 9 22 43 0 29 -4 41 -17 43 -9 2 -20 -2 -24 -9z"/>
<path d="M4144 2747 c-3 -9 -4 -28 -2 -44 2 -20 8 -28 23 -28 17 0 20 7 20 40
0 30 -4 41 -18 43 -9 2 -20 -3 -23 -11z m36 -32 c0 -24 -5 -35 -15 -35 -10 0
-15 11 -15 35 0 24 5 35 15 35 10 0 15 -11 15 -35z"/>
<path d="M4214 2747 c-3 -9 -4 -28 -2 -44 2 -20 8 -28 23 -28 17 0 20 7 20 40
0 30 -4 41 -18 43 -9 2 -20 -3 -23 -11z m36 -32 c0 -24 -5 -35 -15 -35 -10 0
-15 11 -15 35 0 24 5 35 15 35 10 0 15 -11 15 -35z"/>
<path d="M4284 2749 c-4 -8 -3 -9 4 -5 22 13 37 -6 17 -21 -17 -12 -17 -13 -2
-13 9 0 17 -7 17 -16 0 -11 -6 -15 -20 -11 -11 3 -20 1 -20 -5 0 -5 10 -8 23
-6 19 3 22 9 22 43 0 29 -4 41 -17 43 -9 2 -20 -2 -24 -9z"/>
<path d="M4409 2733 c-7 -16 -15 -31 -17 -35 -2 -5 5 -8 16 -8 11 0 22 -4 24
-9 2 -5 9 -3 16 5 7 8 8 14 2 14 -5 0 -10 14 -10 30 0 37 -13 38 -31 3z m21
-13 c0 -11 -7 -20 -15 -20 -13 0 -13 3 -3 20 7 11 14 20 15 20 2 0 3 -9 3 -20z"/>
<path d="M4488 2753 c26 -5 26 -4 8 -48 -8 -19 -13 -35 -11 -35 5 0 45 76 45
85 0 3 -15 4 -32 4 -24 -1 -27 -3 -10 -6z"/>
<path d="M4549 2733 c-7 -16 -15 -31 -17 -35 -2 -5 5 -8 16 -8 11 0 22 -4 24
-9 2 -5 9 -3 16 5 7 8 8 14 2 14 -5 0 -10 14 -10 30 0 37 -13 38 -31 3z m21
-13 c0 -11 -7 -20 -15 -20 -13 0 -13 3 -3 20 7 11 14 20 15 20 2 0 3 -9 3 -20z"/>
<path d="M4628 2753 c26 -5 26 -4 8 -48 -8 -19 -13 -35 -11 -35 5 0 45 76 45
85 0 3 -15 4 -32 4 -24 -1 -27 -3 -10 -6z"/>
<path d="M3661 2738 c0 -10 -7 -18 -13 -18 -9 0 -10 -3 -2 -8 6 -4 14 -14 17
-22 4 -12 6 -12 6 2 1 9 9 19 19 21 15 4 15 5 0 6 -9 0 -19 9 -21 19 -4 16 -5
16 -6 0z"/>
<path d="M3094 2715 c-8 -32 6 -48 37 -42 22 4 22 4 -3 6 -35 1 -37 21 -2 21
32 0 30 33 -3 38 -17 3 -24 -3 -29 -23z m46 5 c0 -5 -9 -10 -21 -10 -11 0 -17
5 -14 10 3 6 13 10 21 10 8 0 14 -4 14 -10z"/>
<path d="M3214 2715 c-8 -32 6 -48 37 -42 22 4 22 4 -3 6 -35 1 -37 21 -2 21
32 0 30 33 -3 38 -17 3 -24 -3 -29 -23z m46 5 c0 -5 -9 -10 -21 -10 -11 0 -17
5 -14 10 3 6 13 10 21 10 8 0 14 -4 14 -10z"/>
<path d="M3344 2726 c-11 -29 0 -51 26 -51 21 0 25 5 25 30 0 24 -5 31 -23 33
-13 2 -24 -3 -28 -12z m46 -21 c0 -25 -23 -35 -35 -15 -10 16 2 40 20 40 9 0
15 -9 15 -25z"/>
<path d="M3421 2701 c1 -36 1 -36 8 -6 8 40 38 46 44 8 4 -28 4 -28 3 2 -1 26
-5 30 -28 31 -26 1 -28 -2 -27 -35z"/>
<path d="M3504 2715 c-8 -32 6 -48 37 -42 22 4 22 4 -3 6 -35 1 -37 21 -2 21
32 0 30 33 -3 38 -17 3 -24 -3 -29 -23z m46 5 c0 -5 -9 -10 -21 -10 -11 0 -17
5 -14 10 3 6 13 10 21 10 8 0 14 -4 14 -10z"/>
<path d="M4358 2703 c7 -3 16 -2 19 1 4 3 -2 6 -13 5 -11 0 -14 -3 -6 -6z"/>
<path d="M1577 2673 c-13 -13 -7 -21 13 -16 11 3 20 9 20 14 0 10 -24 12 -33
2z"/>
<path d="M1377 2413 c-5 -8 8 -117 18 -160 3 -13 10 -23 16 -23 13 0 65 40 53
40 -5 1 7 14 26 30 35 30 30 42 -6 15 -21 -16 -48 -20 -39 -5 3 5 -3 15 -15
22 -29 18 -25 44 10 58 17 7 30 16 30 21 0 11 -87 12 -93 2z"/>
<path d="M3393 2360 c0 -30 2 -43 4 -27 2 15 2 39 0 55 -2 15 -4 2 -4 -28z"/>
<path d="M3830 2392 c0 -13 -7 -18 -22 -18 -19 1 -23 -4 -23 -29 0 -26 4 -30
28 -31 26 -1 27 1 27 47 0 27 -2 49 -5 49 -3 0 -5 -8 -5 -18z m-5 -47 c0 -11
-8 -21 -17 -23 -14 -3 -18 3 -18 23 0 20 4 26 18 23 9 -2 17 -12 17 -23z"/>
<path d="M5048 2393 c-2 -10 -1 -34 3 -53 l6 -35 2 33 c0 18 6 32 14 32 8 0 7
4 -3 10 -13 9 -13 11 0 20 13 8 13 10 -1 10 -9 0 -18 -8 -21 -17z"/>
<path d="M5411 2364 c-1 -49 0 -51 27 -50 23 1 27 5 27 31 0 23 -4 30 -20 30
-11 0 -23 9 -27 20 -3 12 -6 0 -7 -31z m49 -19 c0 -25 -23 -35 -35 -15 -10 16
2 40 20 40 9 0 15 -9 15 -25z"/>
<path d="M6193 2360 c0 -30 2 -43 4 -27 2 15 2 39 0 55 -2 15 -4 2 -4 -28z"/>
<path d="M6348 2393 c-2 -10 -1 -34 3 -53 l6 -35 2 33 c0 18 6 32 14 32 8 0 7
4 -3 10 -13 9 -13 11 0 20 13 8 13 10 -1 10 -9 0 -18 -8 -21 -17z"/>
<path d="M6781 2364 c-1 -49 0 -51 27 -50 23 1 27 5 27 31 0 23 -4 30 -20 30
-11 0 -23 9 -27 20 -3 12 -6 0 -7 -31z m49 -19 c0 -25 -23 -35 -35 -15 -10 16
2 40 20 40 9 0 15 -9 15 -25z"/>
<path d="M7340 2392 c0 -13 -7 -18 -22 -18 -19 1 -23 -4 -23 -29 0 -26 4 -30
28 -31 26 -1 27 1 27 47 0 27 -2 49 -5 49 -3 0 -5 -8 -5 -18z m-5 -47 c0 -11
-8 -21 -17 -23 -14 -3 -18 3 -18 23 0 20 4 26 18 23 9 -2 17 -12 17 -23z"/>
<path d="M3030 2355 c0 -43 1 -45 28 -44 23 2 24 2 5 6 -13 2 -23 11 -23 18 0
7 10 16 23 18 l22 4 -22 2 c-13 0 -23 7 -23 15 0 8 10 17 23 19 19 4 18 4 -5
6 -27 1 -28 -1 -28 -44z"/>
<path d="M3582 2384 c-7 -8 -8 -14 -2 -14 5 0 10 -13 10 -30 0 -16 3 -30 8
-30 7 0 8 78 0 85 -1 1 -9 -3 -16 -11z"/>
<path d="M4172 2384 c-7 -8 -8 -14 -2 -14 5 0 10 -13 10 -30 0 -16 3 -30 8
-30 7 0 8 78 0 85 -1 1 -9 -3 -16 -11z"/>
<path d="M4329 2390 c-22 -13 -32 -56 -19 -80 10 -20 5 -20 -407 -23 -230 -1
52 -2 627 -2 575 0 893 1 708 2 -291 3 -338 5 -338 18 0 9 -10 15 -22 16 -23
0 -23 0 -2 9 12 4 24 18 27 30 5 18 2 21 -21 18 -23 -3 -28 -9 -32 -43 l-5
-40 -72 -3 c-57 -2 -73 0 -73 11 0 8 10 13 23 13 18 -1 22 4 22 29 0 26 -4 30
-27 31 -27 1 -28 -1 -28 -43 l0 -45 -175 4 c-151 3 -177 5 -192 21 -16 16 -16
20 -3 45 12 20 24 27 45 27 25 0 30 -4 30 -25 0 -20 -5 -25 -27 -27 -20 -1
-28 3 -28 14 0 10 6 14 20 10 11 -3 20 -1 20 5 0 20 -45 3 -48 -18 -3 -19 2
-22 32 -22 30 0 37 4 42 24 11 44 -34 69 -77 44z m411 -45 c0 -25 -23 -35 -35
-15 -10 16 2 40 20 40 9 0 15 -9 15 -25z m148 13 c-6 -18 -28 -21 -28 -4 0 9
7 16 16 16 9 0 14 -5 12 -12z m2 -58 c0 -5 -7 -10 -15 -10 -8 0 -15 5 -15 10
0 6 7 10 15 10 8 0 15 -4 15 -10z"/>
<path d="M5732 2384 c-7 -8 -8 -14 -2 -14 5 0 10 -13 10 -30 0 -16 3 -30 8
-30 7 0 8 78 0 85 -1 1 -9 -3 -16 -11z"/>
<path d="M6462 2384 c-7 -8 -8 -14 -2 -14 5 0 10 -13 10 -30 0 -16 3 -30 8
-30 7 0 8 78 0 85 -1 1 -9 -3 -16 -11z"/>
<path d="M6999 2391 c-2 -6 -16 -12 -31 -13 -25 -2 -28 -6 -27 -38 l1 -35 7
30 c4 21 13 31 29 33 19 3 22 -1 22 -27 0 -17 3 -31 8 -31 4 0 6 18 5 41 -1
41 -8 59 -14 40z"/>
<path d="M3151 2341 c1 -36 1 -36 8 -6 3 17 13 30 21 30 8 0 18 -13 21 -30 l7
-30 1 33 c1 21 6 32 15 32 9 0 17 -13 19 -32 l5 -33 -2 35 c-1 35 -1 35 -48
36 l-48 1 1 -36z"/>
<path d="M3276 2371 c-3 -5 3 -7 14 -4 11 3 20 1 20 -5 0 -5 -9 -12 -21 -15
-22 -6 -22 -29 -1 -33 7 -1 8 0 2 3 -15 7 -12 23 4 23 8 0 17 -8 20 -17 2 -10
4 -2 3 17 -2 34 -27 54 -41 31z"/>
<path d="M3353 2345 c0 -22 2 -30 4 -17 2 12 2 30 0 40 -3 9 -5 -1 -4 -23z"/>
<path d="M3516 2371 c-3 -5 3 -7 14 -4 11 3 20 1 20 -5 0 -5 -9 -12 -20 -15
-30 -8 -26 -37 5 -35 22 2 26 7 23 33 -3 30 -30 47 -42 26z m29 -41 c-3 -5
-10 -10 -16 -10 -5 0 -9 5 -9 10 0 6 7 10 16 10 8 0 12 -4 9 -10z"/>
<path d="M3624 2366 c-11 -30 0 -51 29 -52 25 -1 25 -1 2 3 -33 6 -32 23 1 23
19 0 25 5 22 18 -4 22 -46 29 -54 8z m46 -6 c0 -5 -9 -10 -21 -10 -11 0 -17 5
-14 10 3 6 13 10 21 10 8 0 14 -4 14 -10z"/>
<path d="M3701 2341 c1 -36 1 -36 8 -6 3 17 13 30 21 30 8 0 18 -13 22 -30 6
-29 6 -29 5 5 -2 31 -5 35 -29 36 -26 1 -28 -2 -27 -35z"/>
<path d="M3860 2345 c0 -19 5 -35 10 -35 6 0 10 16 10 35 0 19 -4 35 -10 35
-5 0 -10 -16 -10 -35z"/>
<path d="M3901 2341 c1 -36 1 -36 8 -6 3 17 13 30 21 30 8 0 18 -13 21 -30 l7
-30 1 33 c1 21 6 32 15 32 9 0 17 -13 19 -32 l5 -33 -2 35 c-1 35 -1 35 -48
36 l-48 1 1 -36z"/>
<path d="M4014 2366 c-11 -30 0 -51 29 -52 25 -1 25 -1 2 3 -33 6 -32 23 1 23
19 0 25 5 22 18 -4 22 -46 29 -54 8z m46 -6 c0 -5 -9 -10 -21 -10 -11 0 -17 5
-14 10 3 6 13 10 21 10 8 0 14 -4 14 -10z"/>
<path d="M4091 2341 c1 -36 1 -36 8 -6 3 17 13 30 21 30 8 0 18 -13 22 -30 6
-29 6 -29 5 5 -2 31 -5 35 -29 36 -26 1 -28 -2 -27 -35z"/>
<path d="M4224 2366 c-11 -29 0 -51 26 -51 21 0 25 5 25 30 0 24 -5 31 -23 33
-13 2 -24 -3 -28 -12z m46 -21 c0 -25 -23 -35 -35 -15 -10 16 2 40 20 40 9 0
15 -9 15 -25z"/>
<path d="M4437 2373 c-4 -3 -7 -17 -7 -30 0 -26 26 -41 42 -25 8 8 5 9 -11 5
-18 -4 -21 -1 -21 22 0 22 4 26 20 22 11 -3 18 -1 14 4 -6 11 -28 12 -37 2z"/>
<path d="M4494 2366 c-11 -29 0 -51 26 -51 21 0 25 5 25 30 0 24 -5 31 -23 33
-13 2 -24 -3 -28 -12z m46 -21 c0 -25 -23 -35 -35 -15 -10 16 2 40 20 40 9 0
15 -9 15 -25z"/>
<path d="M4571 2341 c1 -36 1 -36 8 -6 3 17 13 30 21 30 8 0 18 -13 21 -30 l7
-30 1 33 c1 21 6 32 15 32 9 0 17 -13 19 -32 l5 -33 -2 35 c-1 35 -1 35 -48
36 l-48 1 1 -36z"/>
<path d="M4773 2350 c2 -31 5 -35 30 -36 25 -1 27 2 26 35 -1 36 -1 36 -8 6
-3 -17 -13 -30 -21 -30 -8 0 -18 13 -22 30 -6 29 -6 29 -5 -5z"/>
<path d="M4921 2340 c1 -27 3 -29 6 -10 2 14 11 30 20 37 13 10 13 12 -6 10
-17 -1 -21 -7 -20 -37z"/>
<path d="M4976 2371 c-3 -5 3 -7 14 -4 11 3 20 1 20 -5 0 -5 -9 -12 -20 -15
-30 -8 -26 -37 5 -35 22 2 26 7 23 33 -3 30 -30 47 -42 26z m29 -41 c-3 -5
-10 -10 -16 -10 -5 0 -9 5 -9 10 0 6 7 10 16 10 8 0 12 -4 9 -10z"/>
<path d="M5127 2373 c-4 -3 -7 -17 -7 -30 0 -26 26 -41 42 -25 8 8 5 9 -11 5
-18 -4 -21 -1 -21 22 0 22 4 26 20 22 11 -3 18 -1 14 4 -6 11 -28 12 -37 2z"/>
<path d="M5184 2366 c-11 -29 0 -51 26 -51 21 0 25 5 25 30 0 24 -5 31 -23 33
-13 2 -24 -3 -28 -12z m46 -21 c0 -25 -23 -35 -35 -15 -10 16 2 40 20 40 9 0
15 -9 15 -25z"/>
<path d="M5261 2341 c1 -36 1 -36 8 -6 3 17 13 30 21 30 8 0 18 -13 21 -30 l7
-30 1 33 c1 21 6 32 15 32 9 0 17 -13 19 -32 l5 -33 -2 35 c-1 35 -1 35 -48
36 l-48 1 1 -36z"/>
<path d="M5491 2340 c1 -27 3 -29 6 -10 2 14 11 30 20 37 13 10 13 12 -6 10
-17 -1 -21 -7 -20 -37z"/>
<path d="M5594 2355 c-8 -32 6 -48 37 -42 22 4 22 4 -3 6 -35 1 -37 21 -2 21
32 0 30 33 -3 38 -17 3 -24 -3 -29 -23z m46 5 c0 -5 -9 -10 -21 -10 -11 0 -17
5 -14 10 3 6 13 10 21 10 8 0 14 -4 14 -10z"/>
<path d="M5674 2368 c-4 -6 0 -16 9 -23 22 -16 21 -22 0 -28 -14 -4 -12 -5 5
-6 25 -1 31 26 7 35 -20 8 -19 21 3 27 15 4 15 5 0 6 -9 0 -20 -4 -24 -11z"/>
<path d="M5774 2355 c-8 -32 6 -48 37 -42 22 4 22 4 -3 6 -35 1 -37 21 -2 21
32 0 30 33 -3 38 -17 3 -24 -3 -29 -23z m46 5 c0 -5 -9 -10 -21 -10 -11 0 -17
5 -14 10 3 6 13 10 21 10 8 0 14 -4 14 -10z"/>
<path d="M5907 2373 c-4 -3 -7 -17 -7 -30 0 -26 26 -41 42 -25 8 8 5 9 -11 5
-18 -4 -21 -1 -21 22 0 22 4 26 20 22 11 -3 18 -1 14 4 -6 11 -28 12 -37 2z"/>
<path d="M5966 2371 c-3 -5 3 -7 14 -4 11 3 20 1 20 -5 0 -5 -9 -12 -21 -15
-22 -6 -22 -29 -1 -33 7 -1 8 0 2 3 -15 7 -12 23 4 23 8 0 17 -8 20 -17 2 -10
4 -2 3 17 -2 34 -27 54 -41 31z"/>
<path d="M6031 2341 c1 -36 1 -36 8 -6 8 40 38 46 44 8 4 -28 4 -28 3 2 -1 26
-5 30 -28 31 -26 1 -28 -2 -27 -35z"/>
<path d="M6116 2371 c-3 -5 3 -7 14 -4 11 3 20 1 20 -5 0 -5 -9 -12 -21 -15
-22 -6 -22 -29 -1 -33 7 -1 8 0 2 3 -15 7 -12 23 4 23 8 0 17 -8 20 -17 2 -10
4 -2 3 17 -2 34 -27 54 -41 31z"/>
<path d="M6274 2355 c-8 -32 6 -48 37 -42 22 4 22 4 -3 6 -35 1 -37 21 -2 21
32 0 30 33 -3 38 -17 3 -24 -3 -29 -23z m46 5 c0 -5 -9 -10 -21 -10 -11 0 -17
5 -14 10 3 6 13 10 21 10 8 0 14 -4 14 -10z"/>
<path d="M6384 2355 c-8 -32 6 -48 37 -42 22 4 22 4 -3 6 -35 1 -37 21 -2 21
32 0 30 33 -3 38 -17 3 -24 -3 -29 -23z m46 5 c0 -5 -9 -10 -21 -10 -11 0 -17
5 -14 10 3 6 13 10 21 10 8 0 14 -4 14 -10z"/>
<path d="M6511 2360 c-1 -34 11 -49 37 -47 18 1 22 7 21 37 l-1 35 -7 -30 c-3
-17 -13 -30 -21 -30 -8 0 -18 13 -21 30 -6 27 -7 27 -8 5z"/>
<path d="M6596 2371 c-3 -5 3 -7 14 -4 11 3 20 1 20 -5 0 -5 -9 -12 -21 -15
-22 -6 -22 -29 -1 -33 7 -1 8 0 2 3 -15 7 -12 23 4 23 8 0 17 -8 20 -17 2 -10
4 -2 3 17 -2 34 -27 54 -41 31z"/>
<path d="M6716 2371 c-3 -5 3 -7 14 -4 11 3 20 1 20 -5 0 -5 -9 -12 -21 -15
-22 -6 -22 -29 -1 -33 7 -1 8 0 2 3 -15 7 -12 23 4 23 8 0 17 -8 20 -17 2 -10
4 -2 3 17 -2 34 -27 54 -41 31z"/>
<path d="M6864 2355 c-8 -32 6 -48 37 -42 22 4 22 4 -3 6 -35 1 -37 21 -2 21
32 0 30 33 -3 38 -17 3 -24 -3 -29 -23z m46 5 c0 -5 -9 -10 -21 -10 -11 0 -17
5 -14 10 3 6 13 10 21 10 8 0 14 -4 14 -10z"/>
<path d="M7041 2360 c-1 -34 11 -49 37 -47 18 1 22 7 21 37 l-1 35 -7 -30 c-3
-17 -13 -30 -21 -30 -8 0 -18 13 -21 30 -6 27 -7 27 -8 5z"/>
<path d="M7121 2340 c1 -27 3 -29 6 -10 2 14 11 30 20 37 13 10 13 12 -6 10
-17 -1 -21 -7 -20 -37z"/>
<path d="M7176 2371 c-3 -5 3 -7 14 -4 11 3 20 1 20 -5 0 -5 -9 -12 -21 -15
-22 -6 -22 -29 -1 -33 7 -1 8 0 2 3 -15 7 -12 23 4 23 8 0 17 -8 20 -17 2 -10
4 -2 3 17 -2 34 -27 54 -41 31z"/>
<path d="M7374 2355 c-8 -32 6 -48 37 -42 22 4 22 4 -3 6 -35 1 -37 21 -2 21
32 0 30 33 -3 38 -17 3 -24 -3 -29 -23z m46 5 c0 -5 -9 -10 -21 -10 -11 0 -17
5 -14 10 3 6 13 10 21 10 8 0 14 -4 14 -10z"/>
<path d="M3108 2343 c7 -3 16 -2 19 1 4 3 -2 6 -13 5 -11 0 -14 -3 -6 -6z"/>
<path d="M5080 2320 c0 -5 5 -10 10 -10 6 0 10 5 10 10 0 6 -4 10 -10 10 -5 0
-10 -4 -10 -10z"/>
<path d="M5370 2320 c0 -5 5 -10 10 -10 6 0 10 5 10 10 0 6 -4 10 -10 10 -5 0
-10 -4 -10 -10z"/>
<path d="M1465 2243 c-28 -7 -43 -23 -22 -23 9 0 17 -5 17 -11 0 -5 -4 -8 -9
-5 -5 3 -19 -3 -32 -13 l-24 -19 36 -7 c24 -4 53 0 90 13 34 12 62 16 74 11
32 -12 137 -11 129 2 -3 6 -22 9 -40 7 -25 -3 -34 0 -34 10 0 11 -8 13 -32 9
l-33 -6 30 14 c29 14 29 14 5 14 -14 0 -46 -4 -72 -8 -37 -6 -48 -5 -48 6 0
14 -2 14 -35 6z"/>
<path d="M3092 2180 c0 -41 2 -47 7 -25 9 43 38 45 44 3 l5 -33 -2 35 c-1 28
-5 35 -21 35 -11 0 -23 9 -27 20 -3 11 -6 -4 -6 -35z"/>
<path d="M3480 2212 c0 -13 -7 -18 -22 -18 -19 1 -23 -4 -23 -29 0 -26 4 -30
28 -31 26 -1 27 1 27 47 0 27 -2 49 -5 49 -3 0 -5 -8 -5 -18z m-5 -47 c0 -11
-8 -21 -17 -23 -14 -3 -18 3 -18 23 0 20 4 26 18 23 9 -2 17 -12 17 -23z"/>
<path d="M3760 2212 c0 -13 -7 -18 -22 -18 -19 1 -23 -4 -23 -29 0 -26 4 -30
28 -31 26 -1 27 1 27 47 0 27 -2 49 -5 49 -3 0 -5 -8 -5 -18z m-5 -47 c0 -11
-8 -21 -17 -23 -14 -3 -18 3 -18 23 0 20 4 26 18 23 9 -2 17 -12 17 -23z"/>
<path d="M4350 2212 c0 -13 -7 -18 -22 -18 -19 1 -23 -4 -23 -29 0 -26 4 -30
28 -31 26 -1 27 1 27 47 0 27 -2 49 -5 49 -3 0 -5 -8 -5 -18z m-5 -47 c0 -11
-8 -21 -17 -23 -14 -3 -18 3 -18 23 0 20 4 26 18 23 9 -2 17 -12 17 -23z"/>
<path d="M5028 2213 c-2 -10 -1 -34 3 -53 l6 -35 2 33 c0 18 6 32 14 32 8 0 7
4 -3 10 -13 9 -13 11 0 20 13 8 13 10 -1 10 -9 0 -18 -8 -21 -17z"/>
<path d="M5400 2212 c0 -13 -7 -18 -22 -18 -19 1 -23 -4 -23 -29 0 -26 4 -30
28 -31 26 -1 27 1 27 47 0 27 -2 49 -5 49 -3 0 -5 -8 -5 -18z m-5 -47 c0 -11
-8 -21 -17 -23 -14 -3 -18 3 -18 23 0 20 4 26 18 23 9 -2 17 -12 17 -23z"/>
<path d="M5762 2180 c0 -41 2 -47 7 -25 9 43 38 45 44 3 l5 -33 -2 35 c-1 28
-5 35 -21 35 -11 0 -23 9 -27 20 -3 11 -6 -4 -6 -35z"/>
<path d="M6402 2180 c0 -41 2 -47 7 -25 9 43 38 45 44 3 l5 -33 -2 35 c-1 28
-5 35 -21 35 -11 0 -23 9 -27 20 -3 11 -6 -4 -6 -35z"/>
<path d="M7292 2180 c0 -41 2 -47 7 -25 9 43 38 45 44 3 l5 -33 -2 35 c-1 28
-5 35 -21 35 -11 0 -23 9 -27 20 -3 11 -6 -4 -6 -35z"/>
<path d="M4842 2204 c-7 -8 -8 -14 -2 -14 5 0 10 -13 10 -30 0 -16 3 -30 8
-30 7 0 8 78 0 85 -1 1 -9 -3 -16 -11z"/>
<path d="M5624 2207 c-3 -9 -4 -28 -2 -44 2 -20 8 -28 23 -28 11 0 20 7 21 15
0 9 -1 10 -3 3 -10 -29 -33 -13 -33 22 0 37 24 50 34 18 4 -14 4 -14 3 2 -3
24 -35 33 -43 12z"/>
<path d="M5712 2213 l28 -4 -20 -40 c-11 -21 -18 -39 -15 -39 5 0 45 75 45 85
0 3 -15 4 -32 4 -31 -2 -31 -2 -6 -6z"/>
<path d="M5844 2207 c-3 -9 -4 -28 -2 -44 2 -20 8 -28 23 -28 11 0 20 7 21 15
0 9 -1 10 -3 3 -10 -29 -33 -13 -33 22 0 37 24 50 34 18 4 -14 4 -14 3 2 -3
24 -35 33 -43 12z"/>
<path d="M5924 2207 c-3 -9 -4 -28 -2 -44 2 -20 8 -28 23 -28 11 0 20 7 21 15
0 9 -1 10 -3 3 -10 -29 -33 -13 -33 22 0 37 24 50 34 18 4 -14 4 -14 3 2 -3
24 -35 33 -43 12z"/>
<path d="M6272 2183 c-1 -23 -8 -44 -14 -46 -7 -3 1 -6 17 -6 17 0 25 3 18 7
-6 4 -13 25 -16 47 l-4 40 -1 -42z"/>
<path d="M6334 2209 c-4 -7 2 -19 14 -30 12 -9 22 -22 22 -28 0 -15 -28 -14
-33 2 -2 7 -3 6 -3 -3 1 -8 10 -15 21 -15 17 0 20 7 20 40 0 29 -4 41 -17 43
-9 2 -20 -2 -24 -9z m34 -10 c-2 -6 -8 -10 -13 -10 -5 0 -11 4 -13 10 -2 6 4
11 13 11 9 0 15 -5 13 -11z"/>
<path d="M6486 2211 c-3 -5 3 -7 14 -4 25 7 26 -12 3 -26 -17 -10 -17 -10 0
-11 25 0 21 -28 -5 -33 -20 -5 -20 -5 2 -4 22 2 25 6 25 42 0 29 -4 41 -17 43
-9 2 -19 -1 -22 -7z"/>
<path d="M6564 2207 c-3 -9 -4 -28 -2 -44 2 -20 8 -28 23 -28 11 0 20 7 21 15
0 9 -1 10 -3 3 -10 -29 -33 -13 -33 22 0 37 24 50 34 18 4 -14 4 -14 3 2 -3
24 -35 33 -43 12z"/>
<path d="M6742 2208 c-28 -28 -7 -79 33 -77 17 1 16 2 -5 8 -19 5 -25 13 -25
36 0 23 6 31 25 36 21 6 22 7 5 8 -12 1 -26 -4 -33 -11z"/>
<path d="M7082 2204 c-7 -8 -8 -14 -2 -14 5 0 10 -13 10 -30 0 -16 3 -30 8
-30 7 0 8 78 0 85 -1 1 -9 -3 -16 -11z"/>
<path d="M3037 2193 c-4 -3 -7 -17 -7 -30 0 -26 26 -41 42 -25 8 8 5 9 -11 5
-18 -4 -21 -1 -21 22 0 22 4 26 20 22 11 -3 18 -1 14 4 -6 11 -28 12 -37 2z"/>
<path d="M3176 2191 c-3 -5 3 -7 14 -4 11 3 20 1 20 -5 0 -5 -9 -12 -21 -15
-22 -6 -22 -29 -1 -33 7 -1 8 0 2 3 -15 7 -12 23 4 23 8 0 17 -8 20 -17 2 -10
4 -2 3 17 -2 34 -27 54 -41 31z"/>
<path d="M3241 2161 c1 -36 1 -36 8 -6 3 17 13 30 21 30 8 0 18 -13 21 -30 l7
-30 1 33 c1 21 6 32 15 32 9 0 17 -13 19 -32 l5 -33 -2 35 c-1 35 -1 35 -48
36 l-48 1 1 -36z"/>
<path d="M3366 2191 c-3 -5 3 -7 14 -4 11 3 20 1 20 -5 0 -5 -9 -12 -21 -15
-22 -6 -22 -29 -1 -33 7 -1 8 0 2 3 -15 7 -12 23 4 23 8 0 17 -8 20 -17 2 -10
4 -2 3 17 -2 34 -27 54 -41 31z"/>
<path d="M3514 2186 c-11 -29 0 -51 26 -51 21 0 25 5 25 30 0 24 -5 31 -23 33
-13 2 -24 -3 -28 -12z m46 -21 c0 -25 -23 -35 -35 -15 -10 16 2 40 20 40 9 0
15 -9 15 -25z"/>
<path d="M3594 2188 c-4 -6 0 -16 9 -23 22 -16 21 -22 0 -28 -14 -4 -12 -5 5
-6 25 -1 31 26 7 35 -20 8 -19 21 3 27 15 4 15 5 0 6 -9 0 -20 -4 -24 -11z"/>
<path d="M3794 2175 c-8 -32 6 -48 37 -42 22 4 22 4 -3 6 -35 1 -37 21 -2 21
32 0 30 33 -3 38 -17 3 -24 -3 -29 -23z m46 5 c0 -5 -9 -10 -21 -10 -11 0 -17
5 -14 10 3 6 13 10 21 10 8 0 14 -4 14 -10z"/>
<path d="M3934 2188 c-4 -6 0 -16 9 -23 22 -16 21 -22 0 -28 -14 -4 -12 -5 5
-6 25 -1 31 26 7 35 -20 8 -19 21 3 27 15 4 15 5 0 6 -9 0 -20 -4 -24 -11z"/>
<path d="M3994 2175 c-8 -32 6 -48 37 -42 22 4 22 4 -3 6 -35 1 -37 21 -2 21
32 0 30 33 -3 38 -17 3 -24 -3 -29 -23z m46 5 c0 -5 -9 -10 -21 -10 -11 0 -17
5 -14 10 3 6 13 10 21 10 8 0 14 -4 14 -10z"/>
<path d="M4076 2192 c-3 -5 -5 -27 -4 -50 0 -34 4 -42 19 -42 10 0 20 4 23 9
4 5 -3 7 -14 4 -11 -3 -20 0 -20 6 0 6 10 11 23 12 21 1 21 1 -3 8 -24 7 -24
7 -4 13 12 3 23 15 27 27 4 17 1 21 -18 21 -13 0 -26 -4 -29 -8z m34 -17 c0
-8 -7 -15 -15 -15 -8 0 -15 7 -15 15 0 8 7 15 15 15 8 0 15 -7 15 -15z"/>
<path d="M4141 2180 c-1 -34 11 -49 37 -47 18 1 22 7 21 37 l-1 35 -7 -30 c-3
-17 -13 -30 -21 -30 -8 0 -18 13 -21 30 -6 27 -7 27 -8 5z"/>
<path d="M4221 2161 c1 -36 1 -36 8 -6 8 40 38 46 44 8 4 -28 4 -28 3 2 -1 26
-5 30 -28 31 -26 1 -28 -2 -27 -35z"/>
<path d="M4386 2191 c-3 -5 3 -7 14 -4 11 3 20 1 20 -5 0 -5 -9 -12 -21 -15
-22 -6 -22 -29 -1 -33 7 -1 8 0 2 3 -15 7 -12 23 4 23 8 0 17 -8 20 -17 2 -10
4 -2 3 17 -2 34 -27 54 -41 31z"/>
<path d="M4516 2191 c-3 -5 3 -7 14 -4 11 3 20 1 20 -5 0 -5 -9 -12 -21 -15
-22 -6 -22 -29 -1 -33 7 -1 8 0 2 3 -15 7 -12 23 4 23 8 0 17 -8 20 -17 2 -10
4 -2 3 17 -2 34 -27 54 -41 31z"/>
<path d="M4644 2188 c-4 -6 0 -16 9 -23 22 -16 21 -22 0 -28 -14 -4 -12 -5 5
-6 25 -1 31 26 7 35 -20 8 -19 21 3 27 15 4 15 5 0 6 -9 0 -20 -4 -24 -11z"/>
<path d="M4704 2175 c-8 -32 6 -48 37 -42 22 4 22 4 -3 6 -35 1 -37 21 -2 21
32 0 30 33 -3 38 -17 3 -24 -3 -29 -23z m46 5 c0 -5 -9 -10 -21 -10 -11 0 -17
5 -14 10 3 6 13 10 21 10 8 0 14 -4 14 -10z"/>
<path d="M4778 2185 c7 -14 7 -27 1 -40 -10 -20 -10 -20 6 0 9 11 21 29 27 40
10 17 9 18 -4 8 -11 -10 -17 -10 -27 0 -11 10 -12 8 -3 -8z"/>
<path d="M4896 2191 c-3 -5 3 -7 14 -4 11 3 20 1 20 -5 0 -5 -9 -12 -21 -15
-22 -6 -22 -29 -1 -33 7 -1 8 0 2 3 -15 7 -12 23 4 23 8 0 17 -8 20 -17 2 -10
4 -2 3 17 -2 34 -27 54 -41 31z"/>
<path d="M5064 2175 c-8 -32 6 -48 37 -42 22 4 22 4 -3 6 -35 1 -37 21 -2 21
32 0 30 33 -3 38 -17 3 -24 -3 -29 -23z m46 5 c0 -5 -9 -10 -21 -10 -11 0 -17
5 -14 10 3 6 13 10 21 10 8 0 14 -4 14 -10z"/>
<path d="M5153 2165 c0 -22 2 -30 4 -17 2 12 2 30 0 40 -3 9 -5 -1 -4 -23z"/>
<path d="M5171 2160 c1 -27 3 -29 6 -10 2 14 11 30 20 37 13 10 13 12 -6 10
-17 -1 -21 -7 -20 -37z"/>
<path d="M5226 2191 c-3 -5 3 -7 14 -4 11 3 20 1 20 -5 0 -5 -9 -12 -21 -15
-22 -6 -22 -29 -1 -33 7 -1 8 0 2 3 -15 7 -12 23 4 23 8 0 17 -8 20 -17 2 -10
4 -2 3 17 -2 34 -27 54 -41 31z"/>
<path d="M5436 2191 c-3 -5 3 -7 14 -4 11 3 20 1 20 -5 0 -5 -9 -12 -21 -15
-22 -6 -22 -29 -1 -33 7 -1 8 0 2 3 -15 7 -12 23 4 23 8 0 17 -8 20 -17 2 -10
4 -2 3 17 -2 34 -27 54 -41 31z"/>
<path d="M5504 2188 c-4 -6 0 -16 9 -23 22 -16 21 -22 0 -28 -14 -4 -12 -5 5
-6 25 -1 31 26 7 35 -20 8 -19 21 3 27 15 4 15 5 0 6 -9 0 -20 -4 -24 -11z"/>
<path d="M6056 2191 c-3 -5 3 -7 14 -4 11 3 20 1 20 -5 0 -5 -9 -12 -21 -15
-22 -6 -22 -29 -1 -33 7 -1 8 0 2 3 -15 7 -12 23 4 23 8 0 17 -8 20 -17 2 -10
4 -2 3 17 -2 34 -27 54 -41 31z"/>
<path d="M6124 2188 c-4 -6 0 -16 9 -23 22 -16 21 -22 0 -28 -14 -4 -12 -5 5
-6 25 -1 31 26 7 35 -20 8 -19 21 3 27 15 4 15 5 0 6 -9 0 -20 -4 -24 -11z"/>
<path d="M6816 2191 c-3 -5 3 -7 14 -4 11 3 20 1 20 -5 0 -5 -9 -12 -21 -15
-22 -6 -22 -29 -1 -33 7 -1 8 0 2 3 -15 7 -12 23 4 23 8 0 17 -8 20 -17 2 -10
4 -2 3 17 -2 34 -27 54 -41 31z"/>
<path d="M6884 2188 c-4 -6 0 -16 9 -23 22 -16 21 -22 0 -28 -14 -4 -12 -5 5
-6 25 -1 31 26 7 35 -20 8 -19 21 3 27 15 4 15 5 0 6 -9 0 -20 -4 -24 -11z"/>
<path d="M6944 2186 c-11 -29 0 -51 26 -51 21 0 25 5 25 30 0 24 -5 31 -23 33
-13 2 -24 -3 -28 -12z m46 -21 c0 -25 -23 -35 -35 -15 -10 16 2 40 20 40 9 0
15 -9 15 -25z"/>
<path d="M7134 2175 c-8 -32 6 -48 37 -42 22 4 22 4 -3 6 -35 1 -37 21 -2 21
32 0 30 33 -3 38 -17 3 -24 -3 -29 -23z m46 5 c0 -5 -9 -10 -21 -10 -11 0 -17
5 -14 10 3 6 13 10 21 10 8 0 14 -4 14 -10z"/>
<path d="M7211 2161 c1 -36 1 -36 8 -6 8 40 38 46 44 8 4 -28 4 -28 3 2 -1 26
-5 30 -28 31 -26 1 -28 -2 -27 -35z"/>
<path d="M7376 2191 c-3 -5 3 -7 14 -4 11 3 20 1 20 -5 0 -5 -9 -12 -21 -15
-22 -6 -22 -29 -1 -33 7 -1 8 0 2 3 -15 7 -12 23 4 23 8 0 17 -8 20 -17 2 -10
4 -2 3 17 -2 34 -27 54 -41 31z"/>
<path d="M4800 2151 c0 -5 5 -13 10 -16 6 -3 10 -2 10 4 0 5 -4 13 -10 16 -5
3 -10 2 -10 -4z"/>
<path d="M6630 2140 c0 -5 5 -10 10 -10 6 0 10 5 10 10 0 6 -4 10 -10 10 -5 0
-10 -4 -10 -10z"/>
<path d="M1458 2053 c6 -2 18 -2 25 0 6 3 1 5 -13 5 -14 0 -19 -2 -12 -5z"/>
<path d="M3246 2042 c-2 -4 4 -8 14 -8 10 0 16 4 14 8 -3 4 -9 8 -14 8 -5 0
-11 -4 -14 -8z"/>
<path d="M4883 2000 c0 -30 2 -43 4 -27 2 15 2 39 0 55 -2 15 -4 2 -4 -28z"/>
<path d="M5550 2032 c0 -13 -7 -18 -22 -18 -19 1 -23 -4 -23 -29 0 -26 4 -30
28 -31 26 -1 27 1 27 47 0 27 -2 49 -5 49 -3 0 -5 -8 -5 -18z m-5 -47 c0 -11
-8 -21 -17 -23 -14 -3 -18 3 -18 23 0 20 4 26 18 23 9 -2 17 -12 17 -23z"/>
<path d="M6150 2032 c0 -13 -7 -18 -22 -18 -19 1 -23 -4 -23 -29 0 -26 4 -30
28 -31 26 -1 27 1 27 47 0 27 -2 49 -5 49 -3 0 -5 -8 -5 -18z m-5 -47 c0 -11
-8 -21 -17 -23 -14 -3 -18 3 -18 23 0 20 4 26 18 23 9 -2 17 -12 17 -23z"/>
<path d="M6378 2033 c-2 -10 -1 -34 3 -53 l6 -35 2 33 c0 18 6 32 14 32 8 0 7
4 -3 10 -13 9 -13 11 0 20 13 8 13 10 -1 10 -9 0 -18 -8 -21 -17z"/>
<path d="M6780 2032 c0 -13 -7 -18 -22 -18 -19 1 -23 -4 -23 -29 0 -26 4 -30
28 -31 26 -1 27 1 27 47 0 27 -2 49 -5 49 -3 0 -5 -8 -5 -18z m-5 -47 c0 -11
-8 -21 -17 -23 -14 -3 -18 3 -18 23 0 20 4 26 18 23 9 -2 17 -12 17 -23z"/>
<path d="M7002 2000 c0 -41 2 -47 7 -25 9 43 38 45 44 3 l5 -33 -2 35 c-1 28
-5 35 -21 35 -11 0 -23 9 -27 20 -3 11 -6 -4 -6 -35z"/>
<path d="M5022 2024 c-7 -8 -8 -14 -2 -14 5 0 10 -13 10 -30 0 -16 3 -30 8
-30 7 0 8 78 0 85 -1 1 -9 -3 -16 -11z"/>
<path d="M1480 2026 c0 -2 7 -6 15 -10 8 -3 15 -1 15 4 0 6 -7 10 -15 10 -8 0
-15 -2 -15 -4z"/>
<path d="M3031 2000 c-1 -34 11 -49 37 -47 18 1 22 7 21 37 l-1 35 -7 -30 c-3
-17 -13 -30 -21 -30 -8 0 -18 13 -21 30 -6 27 -7 27 -8 5z"/>
<path d="M3111 1980 c1 -27 3 -29 6 -10 2 14 11 30 20 37 13 10 13 12 -6 10
-17 -1 -21 -7 -20 -37z"/>
<path d="M3166 2012 c-3 -5 -5 -27 -4 -50 0 -34 4 -42 19 -42 10 0 20 4 23 9
4 5 -3 7 -14 4 -11 -3 -20 0 -20 6 0 6 10 11 23 12 21 1 21 1 -3 8 -24 7 -24
7 -4 13 12 3 23 15 27 27 4 17 1 21 -18 21 -13 0 -26 -4 -29 -8z m34 -17 c0
-8 -7 -15 -15 -15 -8 0 -15 7 -15 15 0 8 7 15 15 15 8 0 15 -7 15 -15z"/>
<path d="M3234 1995 c-8 -32 6 -48 37 -42 22 4 22 4 -3 6 -35 1 -37 21 -2 21
32 0 30 33 -3 38 -17 3 -24 -3 -29 -23z m46 5 c0 -5 -9 -10 -21 -10 -11 0 -17
5 -14 10 3 6 13 10 21 10 8 0 14 -4 14 -10z"/>
<path d="M3311 1981 c1 -36 1 -36 8 -6 8 40 38 46 44 8 4 -28 4 -28 3 2 -1 26
-5 30 -28 31 -26 1 -28 -2 -27 -35z"/>
<path d="M3397 2013 c-4 -3 -7 -17 -7 -30 0 -26 26 -41 42 -25 8 8 5 9 -11 5
-18 -4 -21 -1 -21 22 0 22 4 26 20 22 11 -3 18 -1 14 4 -6 11 -28 12 -37 2z"/>
<path d="M3463 1985 c0 -22 2 -30 4 -17 2 12 2 30 0 40 -3 9 -5 -1 -4 -23z"/>
<path d="M3496 2011 c-3 -5 3 -7 14 -4 11 3 20 1 20 -5 0 -5 -9 -12 -21 -15
-22 -6 -22 -29 -1 -33 7 -1 8 0 2 3 -15 7 -12 23 4 23 8 0 17 -8 20 -17 2 -10
4 -2 3 17 -2 34 -27 54 -41 31z"/>
<path d="M3674 2006 c-11 -29 0 -51 26 -51 21 0 25 5 25 30 0 24 -5 31 -23 33
-13 2 -24 -3 -28 -12z m46 -21 c0 -25 -23 -35 -35 -15 -10 16 2 40 20 40 9 0
15 -9 15 -25z"/>
<path d="M3751 2000 c-1 -34 11 -49 37 -47 18 1 22 7 21 37 l-1 35 -7 -30 c-3
-17 -13 -30 -21 -30 -8 0 -18 13 -21 30 -6 27 -7 27 -8 5z"/>
<path d="M3944 2008 c-4 -6 0 -16 9 -23 22 -16 21 -22 0 -28 -14 -4 -12 -5 5
-6 25 -1 31 26 7 35 -20 8 -19 21 3 27 15 4 15 5 0 6 -9 0 -20 -4 -24 -11z"/>
<path d="M4004 1995 c-8 -32 6 -48 37 -42 22 4 22 4 -3 6 -35 1 -37 21 -2 21
32 0 30 33 -3 38 -17 3 -24 -3 -29 -23z m46 5 c0 -5 -9 -10 -21 -10 -11 0 -17
5 -14 10 3 6 13 10 21 10 8 0 14 -4 14 -10z"/>
<path d="M4194 2008 c-4 -6 0 -16 9 -23 22 -16 21 -22 0 -28 -14 -4 -12 -5 5
-6 25 -1 31 26 7 35 -20 8 -19 21 3 27 15 4 15 5 0 6 -9 0 -20 -4 -24 -11z"/>
<path d="M4254 1995 c-8 -32 6 -48 37 -42 22 4 22 4 -3 6 -35 1 -37 21 -2 21
32 0 30 33 -3 38 -17 3 -24 -3 -29 -23z m46 5 c0 -5 -9 -10 -21 -10 -11 0 -17
5 -14 10 3 6 13 10 21 10 8 0 14 -4 14 -10z"/>
<path d="M4331 2000 c-1 -34 11 -49 37 -47 18 1 22 7 21 37 l-1 35 -7 -30 c-3
-17 -13 -30 -21 -30 -8 0 -18 13 -21 30 -6 27 -7 27 -8 5z"/>
<path d="M4524 1995 c-8 -32 6 -48 37 -42 22 4 22 4 -3 6 -35 1 -37 21 -2 21
32 0 30 33 -3 38 -17 3 -24 -3 -29 -23z m46 5 c0 -5 -9 -10 -21 -10 -11 0 -17
5 -14 10 3 6 13 10 21 10 8 0 14 -4 14 -10z"/>
<path d="M4641 1981 c1 -36 1 -36 8 -6 3 17 13 30 21 30 8 0 18 -13 21 -30 l7
-30 1 33 c1 21 6 32 15 32 9 0 17 -13 19 -32 l5 -33 -2 35 c-1 35 -1 35 -48
36 l-48 1 1 -36z"/>
<path d="M4766 2011 c-3 -5 3 -7 14 -4 11 3 20 1 20 -5 0 -5 -9 -12 -21 -15
-22 -6 -22 -29 -1 -33 7 -1 8 0 2 3 -15 7 -12 23 4 23 8 0 17 -8 20 -17 2 -10
4 -2 3 17 -2 34 -27 54 -41 31z"/>
<path d="M4843 1985 c0 -22 2 -30 4 -17 2 12 2 30 0 40 -3 9 -5 -1 -4 -23z"/>
<path d="M5073 1985 c0 -22 2 -30 4 -17 2 12 2 30 0 40 -3 9 -5 -1 -4 -23z"/>
<path d="M5106 1995 c8 -44 22 -53 34 -21 14 39 12 57 -4 21 l-13 -30 -11 30
-12 30 6 -30z"/>
<path d="M5174 1995 c-8 -32 6 -48 37 -42 22 4 22 4 -3 6 -35 1 -37 21 -2 21
32 0 30 33 -3 38 -17 3 -24 -3 -29 -23z m46 5 c0 -5 -9 -10 -21 -10 -11 0 -17
5 -14 10 3 6 13 10 21 10 8 0 14 -4 14 -10z"/>
<path d="M5251 1980 c1 -27 3 -29 6 -10 2 14 11 30 20 37 13 10 13 12 -6 10
-17 -1 -21 -7 -20 -37z"/>
<path d="M5414 2008 c-4 -6 0 -16 9 -23 22 -16 21 -22 0 -28 -14 -4 -12 -5 5
-6 25 -1 31 26 7 35 -20 8 -19 21 3 27 15 4 15 5 0 6 -9 0 -20 -4 -24 -11z"/>
<path d="M5473 1985 c0 -22 2 -30 4 -17 2 12 2 30 0 40 -3 9 -5 -1 -4 -23z"/>
<path d="M5584 2006 c-11 -29 0 -51 26 -51 21 0 25 5 25 30 0 24 -5 31 -23 33
-13 2 -24 -3 -28 -12z m46 -21 c0 -25 -23 -35 -35 -15 -10 16 2 40 20 40 9 0
15 -9 15 -25z"/>
<path d="M5774 1995 c-8 -32 6 -48 37 -42 22 4 22 4 -3 6 -35 1 -37 21 -2 21
32 0 30 33 -3 38 -17 3 -24 -3 -29 -23z m46 5 c0 -5 -9 -10 -21 -10 -11 0 -17
5 -14 10 3 6 13 10 21 10 8 0 14 -4 14 -10z"/>
<path d="M5851 1981 c1 -36 1 -36 8 -6 8 40 38 46 44 8 4 -28 4 -28 3 2 -1 26
-5 30 -28 31 -26 1 -28 -2 -27 -35z"/>
<path d="M5936 1995 c8 -44 22 -53 34 -21 14 39 12 57 -4 21 l-13 -30 -11 30
-12 30 6 -30z"/>
<path d="M6003 1985 c0 -22 2 -30 4 -17 2 12 2 30 0 40 -3 9 -5 -1 -4 -23z"/>
<path d="M6036 2011 c-3 -5 3 -7 14 -4 11 3 20 1 20 -5 0 -5 -9 -12 -21 -15
-22 -6 -22 -29 -1 -33 7 -1 8 0 2 3 -15 7 -12 23 4 23 8 0 17 -8 20 -17 2 -10
4 -2 3 17 -2 34 -27 54 -41 31z"/>
<path d="M6184 2006 c-11 -29 0 -51 26 -51 21 0 25 5 25 30 0 24 -5 31 -23 33
-13 2 -24 -3 -28 -12z m46 -21 c0 -25 -23 -35 -35 -15 -10 16 2 40 20 40 9 0
15 -9 15 -25z"/>
<path d="M6424 2006 c-11 -29 0 -51 26 -51 21 0 25 5 25 30 0 24 -5 31 -23 33
-13 2 -24 -3 -28 -12z m46 -21 c0 -25 -23 -35 -35 -15 -10 16 2 40 20 40 9 0
15 -9 15 -25z"/>
<path d="M6501 1980 c1 -27 3 -29 6 -10 2 14 11 30 20 37 13 10 13 12 -6 10
-17 -1 -21 -7 -20 -37z"/>
<path d="M6556 2011 c-3 -5 3 -7 14 -4 11 3 20 1 20 -5 0 -5 -9 -12 -21 -15
-22 -6 -22 -29 -1 -33 7 -1 8 0 2 3 -15 7 -12 23 4 23 8 0 17 -8 20 -17 2 -10
4 -2 3 17 -2 34 -27 54 -41 31z"/>
<path d="M6814 2006 c-11 -29 0 -51 26 -51 21 0 25 5 25 30 0 24 -5 31 -23 33
-13 2 -24 -3 -28 -12z m46 -21 c0 -25 -23 -35 -35 -15 -10 16 2 40 20 40 9 0
15 -9 15 -25z"/>
<path d="M7084 2006 c-11 -29 0 -51 26 -51 21 0 25 5 25 30 0 24 -5 31 -23 33
-13 2 -24 -3 -28 -12z m46 -21 c0 -25 -23 -35 -35 -15 -10 16 2 40 20 40 9 0
15 -9 15 -25z"/>
<path d="M7161 1980 c1 -27 3 -29 6 -10 2 14 11 30 20 37 13 10 13 12 -6 10
-17 -1 -21 -7 -20 -37z"/>
<path d="M7216 2011 c-3 -5 3 -7 14 -4 11 3 20 1 20 -5 0 -5 -9 -12 -21 -15
-22 -6 -22 -29 -1 -33 7 -1 8 0 2 3 -15 7 -12 23 4 23 8 0 17 -8 20 -17 2 -10
4 -2 3 17 -2 34 -27 54 -41 31z"/>
<path d="M7281 1980 c1 -27 3 -29 6 -10 2 14 11 30 20 37 13 10 13 12 -6 10
-17 -1 -21 -7 -20 -37z"/>
<path d="M7343 1985 c0 -22 2 -30 4 -17 2 12 2 30 0 40 -3 9 -5 -1 -4 -23z"/>
<path d="M7374 2006 c-11 -29 0 -51 26 -51 21 0 25 5 25 30 0 24 -5 31 -23 33
-13 2 -24 -3 -28 -12z m46 -21 c0 -25 -23 -35 -35 -15 -10 16 2 40 20 40 9 0
15 -9 15 -25z"/>
<path d="M1785 1992 c-31 -6 -42 -21 -25 -32 8 -5 20 -10 25 -10 6 0 3 5 -5
10 -12 8 -10 10 8 10 13 0 20 -4 17 -10 -3 -6 1 -7 10 -3 9 3 12 9 7 12 -5 3
-11 11 -13 16 -2 6 -13 9 -24 7z"/>
<path d="M1840 1990 c0 -5 5 -10 10 -10 6 0 10 5 10 10 0 6 -4 10 -10 10 -5 0
-10 -4 -10 -10z"/>
<path d="M4598 1983 c7 -3 16 -2 19 1 4 3 -2 6 -13 5 -11 0 -14 -3 -6 -6z"/>
<path d="M1697 1973 c-12 -12 -7 -22 8 -17 8 4 15 10 15 15 0 11 -14 12 -23 2z"/>
<path d="M1630 1960 c-8 -5 -12 -12 -9 -15 8 -8 39 5 39 16 0 11 -11 11 -30
-1z"/>
<path d="M1428 1903 c7 -3 16 -2 19 1 4 3 -2 6 -13 5 -11 0 -14 -3 -6 -6z"/>
<path d="M1478 1903 c6 -2 18 -2 25 0 6 3 1 5 -13 5 -14 0 -19 -2 -12 -5z"/>
<path d="M4080 1852 c0 -13 -7 -18 -22 -18 -19 1 -23 -4 -23 -29 0 -26 4 -30
28 -31 26 -1 27 1 27 47 0 27 -2 49 -5 49 -3 0 -5 -8 -5 -18z m-5 -47 c0 -11
-8 -21 -17 -23 -14 -3 -18 3 -18 23 0 20 4 26 18 23 9 -2 17 -12 17 -23z"/>
<path d="M5240 1852 c0 -13 -7 -18 -22 -18 -19 1 -23 -4 -23 -29 0 -26 4 -30
28 -31 26 -1 27 1 27 47 0 27 -2 49 -5 49 -3 0 -5 -8 -5 -18z m-5 -47 c0 -11
-8 -21 -17 -23 -14 -3 -18 3 -18 23 0 20 4 26 18 23 9 -2 17 -12 17 -23z"/>
<path d="M5698 1853 c-2 -10 -1 -34 3 -53 l6 -35 2 33 c0 18 6 32 14 32 8 0 7
4 -3 10 -13 9 -13 11 0 20 13 8 13 10 -1 10 -9 0 -18 -8 -21 -17z"/>
<path d="M3182 1844 c-7 -8 -8 -14 -2 -14 5 0 10 -13 10 -30 0 -16 3 -30 8
-30 7 0 8 78 0 85 -1 1 -9 -3 -16 -11z"/>
<path d="M3802 1844 c-7 -8 -8 -14 -2 -14 5 0 10 -13 10 -30 0 -16 3 -30 8
-30 7 0 8 78 0 85 -1 1 -9 -3 -16 -11z"/>
<path d="M4392 1844 c-7 -8 -8 -14 -2 -14 5 0 10 -13 10 -30 0 -16 3 -30 8
-30 7 0 8 78 0 85 -1 1 -9 -3 -16 -11z"/>
<path d="M5879 1851 c-2 -6 -16 -12 -31 -13 -25 -2 -28 -6 -27 -38 l1 -35 7
30 c4 21 13 31 29 33 19 3 22 -1 22 -27 0 -17 3 -31 8 -31 4 0 6 18 5 41 -1
41 -8 59 -14 40z"/>
<path d="M6272 1844 c-7 -8 -8 -14 -2 -14 5 0 10 -13 10 -30 0 -16 3 -30 8
-30 7 0 8 78 0 85 -1 1 -9 -3 -16 -11z"/>
<path d="M6982 1844 c-7 -8 -8 -14 -2 -14 5 0 10 -13 10 -30 0 -16 3 -30 8
-30 7 0 8 78 0 85 -1 1 -9 -3 -16 -11z"/>
<path d="M3036 1831 c-3 -5 3 -7 14 -4 11 3 20 1 20 -5 0 -5 -9 -12 -21 -15
-22 -6 -22 -29 -1 -33 7 -1 8 0 2 3 -15 7 -12 23 4 23 8 0 17 -8 20 -17 2 -10
4 -2 3 17 -2 34 -27 54 -41 31z"/>
<path d="M3101 1801 c1 -36 1 -36 8 -6 8 40 38 46 44 8 4 -28 4 -28 3 2 -1 26
-5 30 -28 31 -26 1 -28 -2 -27 -35z"/>
<path d="M3234 1815 c-8 -32 6 -48 37 -42 22 4 22 4 -3 6 -35 1 -37 21 -2 21
32 0 30 33 -3 38 -17 3 -24 -3 -29 -23z m46 5 c0 -5 -9 -10 -21 -10 -11 0 -17
5 -14 10 3 6 13 10 21 10 8 0 14 -4 14 -10z"/>
<path d="M3311 1800 c1 -27 3 -29 6 -10 2 14 11 30 20 37 13 10 13 12 -6 10
-17 -1 -21 -7 -20 -37z"/>
<path d="M3373 1805 c0 -22 2 -30 4 -17 2 12 2 30 0 40 -3 9 -5 -1 -4 -23z"/>
<path d="M3404 1826 c-11 -29 0 -51 26 -51 21 0 25 5 25 30 0 24 -5 31 -23 33
-13 2 -24 -3 -28 -12z m46 -21 c0 -25 -23 -35 -35 -15 -10 16 2 40 20 40 9 0
15 -9 15 -25z"/>
<path d="M3481 1800 c1 -27 3 -29 6 -10 2 14 11 30 20 37 13 10 13 12 -6 10
-17 -1 -21 -7 -20 -37z"/>
<path d="M3531 1801 c1 -36 1 -36 8 -6 3 17 13 30 21 30 8 0 18 -13 21 -30 l7
-30 1 33 c1 21 6 32 15 32 9 0 17 -13 19 -32 l5 -33 -2 35 c-1 35 -1 35 -48
36 l-48 1 1 -36z"/>
<path d="M3654 1815 c-8 -32 6 -48 37 -42 22 4 22 4 -3 6 -35 1 -37 21 -2 21
32 0 30 33 -3 38 -17 3 -24 -3 -29 -23z m46 5 c0 -5 -9 -10 -21 -10 -11 0 -17
5 -14 10 3 6 13 10 21 10 8 0 14 -4 14 -10z"/>
<path d="M3721 1801 c1 -36 1 -36 8 -6 8 40 38 46 44 8 4 -28 4 -28 3 2 -1 26
-5 30 -28 31 -26 1 -28 -2 -27 -35z"/>
<path d="M3854 1815 c-8 -32 6 -48 37 -42 22 4 22 4 -3 6 -35 1 -37 21 -2 21
32 0 30 33 -3 38 -17 3 -24 -3 -29 -23z m46 5 c0 -5 -9 -10 -21 -10 -11 0 -17
5 -14 10 3 6 13 10 21 10 8 0 14 -4 14 -10z"/>
<path d="M4104 1815 c-8 -32 6 -48 37 -42 22 4 22 4 -3 6 -35 1 -37 21 -2 21
32 0 30 33 -3 38 -17 3 -24 -3 -29 -23z m46 5 c0 -5 -9 -10 -21 -10 -11 0 -17
5 -14 10 3 6 13 10 21 10 8 0 14 -4 14 -10z"/>
<path d="M4184 1828 c-4 -6 0 -16 9 -23 22 -16 21 -22 0 -28 -14 -4 -12 -5 5
-6 25 -1 31 26 7 35 -20 8 -19 21 3 27 15 4 15 5 0 6 -9 0 -20 -4 -24 -11z"/>
<path d="M4247 1833 c-4 -3 -7 -17 -7 -30 0 -26 26 -41 42 -25 8 8 5 9 -11 5
-18 -4 -21 -1 -21 22 0 22 4 26 20 22 11 -3 18 -1 14 4 -6 11 -28 12 -37 2z"/>
<path d="M4301 1800 c1 -27 3 -29 6 -10 2 14 11 30 20 37 13 10 13 12 -6 10
-17 -1 -21 -7 -20 -37z"/>
<path d="M4363 1805 c0 -22 2 -30 4 -17 2 12 2 30 0 40 -3 9 -5 -1 -4 -23z"/>
<path d="M4434 1826 c-11 -29 0 -51 26 -51 21 0 25 5 25 30 0 24 -5 31 -23 33
-13 2 -24 -3 -28 -12z m46 -21 c0 -25 -23 -35 -35 -15 -10 16 2 40 20 40 9 0
15 -9 15 -25z"/>
<path d="M4651 1800 c1 -27 3 -29 6 -10 2 14 11 30 20 37 13 10 13 12 -6 10
-17 -1 -21 -7 -20 -37z"/>
<path d="M4704 1815 c-8 -32 6 -48 37 -42 22 4 22 4 -3 6 -35 1 -37 21 -2 21
32 0 30 33 -3 38 -17 3 -24 -3 -29 -23z m46 5 c0 -5 -9 -10 -21 -10 -11 0 -17
5 -14 10 3 6 13 10 21 10 8 0 14 -4 14 -10z"/>
<path d="M4787 1833 c-4 -3 -7 -17 -7 -30 0 -26 26 -41 42 -25 8 8 5 9 -11 5
-18 -4 -21 -1 -21 22 0 22 4 26 20 22 11 -3 18 -1 14 4 -6 11 -28 12 -37 2z"/>
<path d="M4844 1826 c-11 -29 0 -51 26 -51 21 0 25 5 25 30 0 24 -5 31 -23 33
-13 2 -24 -3 -28 -12z m46 -21 c0 -25 -23 -35 -35 -15 -10 16 2 40 20 40 9 0
15 -9 15 -25z"/>
<path d="M4921 1801 c1 -36 1 -36 8 -6 3 17 13 30 21 30 8 0 18 -13 21 -30 l7
-30 1 33 c1 21 6 32 15 32 9 0 17 -13 19 -32 l5 -33 -2 35 c-1 35 -1 35 -48
36 l-48 1 1 -36z"/>
<path d="M5034 1815 c-8 -32 6 -48 37 -42 22 4 22 4 -3 6 -35 1 -37 21 -2 21
32 0 30 33 -3 38 -17 3 -24 -3 -29 -23z m46 5 c0 -5 -9 -10 -21 -10 -11 0 -17
5 -14 10 3 6 13 10 21 10 8 0 14 -4 14 -10z"/>
<path d="M5111 1801 c1 -36 1 -36 8 -6 8 40 38 46 44 8 4 -28 4 -28 3 2 -1 26
-5 30 -28 31 -26 1 -28 -2 -27 -35z"/>
<path d="M5276 1831 c-3 -5 3 -7 14 -4 11 3 20 1 20 -5 0 -5 -9 -12 -21 -15
-22 -6 -22 -29 -1 -33 7 -1 8 0 2 3 -15 7 -12 23 4 23 8 0 17 -8 20 -17 2 -10
4 -2 3 17 -2 34 -27 54 -41 31z"/>
<path d="M5341 1801 c1 -36 1 -36 8 -6 3 17 13 30 21 30 8 0 18 -13 21 -30 l7
-30 1 33 c1 21 6 32 15 32 9 0 17 -13 19 -32 l5 -33 -2 35 c-1 35 -1 35 -48
36 l-48 1 1 -36z"/>
<path d="M5464 1826 c-11 -29 0 -51 26 -51 21 0 25 5 25 30 0 24 -5 31 -23 33
-13 2 -24 -3 -28 -12z m46 -21 c0 -25 -23 -35 -35 -15 -10 16 2 40 20 40 9 0
15 -9 15 -25z"/>
<path d="M5544 1828 c-4 -6 0 -16 9 -23 22 -16 21 -22 0 -28 -14 -4 -12 -5 5
-6 25 -1 31 26 7 35 -20 8 -19 21 3 27 15 4 15 5 0 6 -9 0 -20 -4 -24 -11z"/>
<path d="M5744 1826 c-11 -29 0 -51 26 -51 21 0 25 5 25 30 0 24 -5 31 -23 33
-13 2 -24 -3 -28 -12z m46 -21 c0 -25 -23 -35 -35 -15 -10 16 2 40 20 40 9 0
15 -9 15 -25z"/>
<path d="M5924 1815 c-8 -32 6 -48 37 -42 22 4 22 4 -3 6 -35 1 -37 21 -2 21
32 0 30 33 -3 38 -17 3 -24 -3 -29 -23z m46 5 c0 -5 -9 -10 -21 -10 -11 0 -17
5 -14 10 3 6 13 10 21 10 8 0 14 -4 14 -10z"/>
<path d="M6001 1801 c1 -36 1 -36 8 -6 3 17 13 30 21 30 8 0 18 -13 21 -30 l7
-30 1 33 c1 21 6 32 15 32 9 0 17 -13 19 -32 l5 -33 -2 35 c-1 35 -1 35 -48
36 l-48 1 1 -36z"/>
<path d="M6114 1815 c-8 -32 6 -48 37 -42 22 4 22 4 -3 6 -35 1 -37 21 -2 21
32 0 30 33 -3 38 -17 3 -24 -3 -29 -23z m46 5 c0 -5 -9 -10 -21 -10 -11 0 -17
5 -14 10 3 6 13 10 21 10 8 0 14 -4 14 -10z"/>
<path d="M6191 1801 c1 -36 1 -36 8 -6 8 40 38 46 44 8 4 -28 4 -28 3 2 -1 26
-5 30 -28 31 -26 1 -28 -2 -27 -35z"/>
<path d="M6314 1815 c-8 -32 6 -48 37 -42 22 4 22 4 -3 6 -35 1 -37 21 -2 21
32 0 30 33 -3 38 -17 3 -24 -3 -29 -23z m46 5 c0 -5 -9 -10 -21 -10 -11 0 -17
5 -14 10 3 6 13 10 21 10 8 0 14 -4 14 -10z"/>
<path d="M6494 1826 c-10 -26 1 -51 21 -51 11 0 23 -9 27 -20 3 -12 6 0 7 30
1 47 -1 51 -24 53 -15 1 -28 -4 -31 -12z m41 -21 c0 -11 -8 -21 -17 -23 -14
-3 -18 3 -18 23 0 20 4 26 18 23 9 -2 17 -12 17 -23z"/>
<path d="M6571 1820 c-1 -34 11 -49 37 -47 18 1 22 7 21 37 l-1 35 -7 -30 c-3
-17 -13 -30 -21 -30 -8 0 -18 13 -21 30 -6 27 -7 27 -8 5z"/>
<path d="M6654 1815 c-8 -32 6 -48 37 -42 22 4 22 4 -3 6 -35 1 -37 21 -2 21
32 0 30 33 -3 38 -17 3 -24 -3 -29 -23z m46 5 c0 -5 -9 -10 -21 -10 -11 0 -17
5 -14 10 3 6 13 10 21 10 8 0 14 -4 14 -10z"/>
<path d="M6824 1815 c-8 -32 6 -48 37 -42 22 4 22 4 -3 6 -35 1 -37 21 -2 21
32 0 30 33 -3 38 -17 3 -24 -3 -29 -23z m46 5 c0 -5 -9 -10 -21 -10 -11 0 -17
5 -14 10 3 6 13 10 21 10 8 0 14 -4 14 -10z"/>
<path d="M6901 1801 c1 -36 1 -36 8 -6 8 40 38 46 44 8 4 -28 4 -28 3 2 -1 26
-5 30 -28 31 -26 1 -28 -2 -27 -35z"/>
<path d="M7031 1800 c1 -27 3 -29 6 -10 2 14 11 30 20 37 13 10 13 12 -6 10
-17 -1 -21 -7 -20 -37z"/>
<path d="M7074 1815 c-8 -32 6 -48 37 -42 22 4 22 4 -3 6 -35 1 -37 21 -2 21
32 0 30 33 -3 38 -17 3 -24 -3 -29 -23z m46 5 c0 -5 -9 -10 -21 -10 -11 0 -17
5 -14 10 3 6 13 10 21 10 8 0 14 -4 14 -10z"/>
<path d="M7254 1815 c-8 -32 6 -48 37 -42 22 4 22 4 -3 6 -35 1 -37 21 -2 21
32 0 30 33 -3 38 -17 3 -24 -3 -29 -23z m46 5 c0 -5 -9 -10 -21 -10 -11 0 -17
5 -14 10 3 6 13 10 21 10 8 0 14 -4 14 -10z"/>
<path d="M7331 1801 c1 -36 1 -36 8 -6 3 17 13 30 21 30 8 0 18 -13 21 -30 l7
-30 1 33 c1 21 6 32 15 32 9 0 17 -13 19 -32 l5 -33 -2 35 c-1 35 -1 35 -48
36 l-48 1 1 -36z"/>
<path d="M697 1796 c26 -46 143 -174 205 -225 502 -414 1243 -342 1641 159 33
41 54 76 48 78 -6 2 -22 -9 -34 -25 -110 -141 -199 -221 -329 -299 -374 -221
-837 -214 -1198 20 -78 51 -220 182 -277 257 -20 27 -43 49 -51 49 -8 0 -10
-5 -5 -14z"/>
<path d="M4516 1773 c-6 -14 -5 -15 5 -6 7 7 10 15 7 18 -3 3 -9 -2 -12 -12z"/>
<path d="M4633 1640 c0 -30 2 -43 4 -27 2 15 2 39 0 55 -2 15 -4 2 -4 -28z"/>
<path d="M4730 1672 c0 -13 -7 -18 -22 -18 -19 1 -23 -4 -23 -29 0 -26 4 -30
28 -31 26 -1 27 1 27 47 0 27 -2 49 -5 49 -3 0 -5 -8 -5 -18z m-5 -47 c0 -11
-8 -21 -17 -23 -14 -3 -18 3 -18 23 0 20 4 26 18 23 9 -2 17 -12 17 -23z"/>
<path d="M5220 1672 c0 -13 -7 -18 -22 -18 -19 1 -23 -4 -23 -29 0 -26 4 -30
28 -31 26 -1 27 1 27 47 0 27 -2 49 -5 49 -3 0 -5 -8 -5 -18z m-5 -47 c0 -11
-8 -21 -17 -23 -14 -3 -18 3 -18 23 0 20 4 26 18 23 9 -2 17 -12 17 -23z"/>
<path d="M5983 1640 c0 -30 2 -43 4 -27 2 15 2 39 0 55 -2 15 -4 2 -4 -28z"/>
<path d="M3252 1664 c-7 -8 -8 -14 -2 -14 5 0 10 -13 10 -30 0 -16 3 -30 8
-30 7 0 8 78 0 85 -1 1 -9 -3 -16 -11z"/>
<path d="M3372 1664 c-7 -8 -8 -14 -2 -14 5 0 10 -13 10 -30 0 -16 3 -30 8
-30 7 0 8 78 0 85 -1 1 -9 -3 -16 -11z"/>
<path d="M4222 1668 c-28 -28 -7 -79 33 -77 17 1 16 2 -5 8 -19 5 -25 13 -25
36 0 23 6 31 25 36 21 6 22 7 5 8 -12 1 -26 -4 -33 -11z"/>
<path d="M4452 1664 c-7 -8 -8 -14 -2 -14 5 0 10 -13 10 -30 0 -16 3 -30 8
-30 7 0 8 78 0 85 -1 1 -9 -3 -16 -11z"/>
<path d="M4897 1674 c-4 -4 -7 -12 -7 -18 0 -6 5 -4 10 4 6 9 10 10 10 3 0 -6
3 -18 6 -27 4 -11 1 -16 -10 -16 -9 0 -16 6 -16 13 0 8 -4 7 -10 -3 -5 -8 -9
-22 -9 -30 0 -10 2 -11 6 -2 6 15 53 16 53 0 0 -6 2 -9 5 -6 6 5 -14 68 -25
81 -3 4 -9 4 -13 1z"/>
<path d="M4962 1664 c-7 -8 -8 -14 -2 -14 5 0 10 -13 10 -30 0 -16 3 -30 8
-30 7 0 8 78 0 85 -1 1 -9 -3 -16 -11z"/>
<path d="M5572 1664 c-7 -8 -8 -14 -2 -14 5 0 10 -13 10 -30 0 -16 3 -30 8
-30 7 0 8 78 0 85 -1 1 -9 -3 -16 -11z"/>
<path d="M5902 1668 c-28 -28 -7 -79 33 -77 17 1 16 2 -5 8 -19 5 -25 13 -25
36 0 23 6 31 25 36 21 6 22 7 5 8 -12 1 -26 -4 -33 -11z"/>
<path d="M6212 1664 c-7 -8 -8 -14 -2 -14 5 0 10 -13 10 -30 0 -16 3 -30 8
-30 7 0 8 78 0 85 -1 1 -9 -3 -16 -11z"/>
<path d="M3037 1653 c-4 -3 -7 -17 -7 -30 0 -26 26 -41 42 -25 8 8 5 9 -11 5
-18 -4 -21 -1 -21 22 0 22 4 26 20 22 11 -3 18 -1 14 4 -6 11 -28 12 -37 2z"/>
<path d="M3094 1646 c-11 -29 0 -51 26 -51 21 0 25 5 25 30 0 24 -5 31 -23 33
-13 2 -24 -3 -28 -12z m46 -21 c0 -25 -23 -35 -35 -15 -10 16 2 40 20 40 9 0
15 -9 15 -25z"/>
<path d="M3171 1621 c1 -36 1 -36 8 -6 8 40 38 46 44 8 4 -28 4 -28 3 2 -1 26
-5 30 -28 31 -26 1 -28 -2 -27 -35z"/>
<path d="M3306 1651 c-3 -5 3 -7 14 -4 11 3 20 1 20 -5 0 -5 -9 -12 -21 -15
-22 -6 -22 -29 -1 -33 7 -1 8 0 2 3 -15 7 -12 23 4 23 8 0 17 -8 20 -17 2 -10
4 -2 3 17 -2 34 -27 54 -41 31z"/>
<path d="M3424 1646 c-11 -29 0 -51 26 -51 21 0 25 5 25 30 0 24 -5 31 -23 33
-13 2 -24 -3 -28 -12z m46 -21 c0 -25 -23 -35 -35 -15 -10 16 2 40 20 40 9 0
15 -9 15 -25z"/>
<path d="M3537 1653 c-4 -3 -7 -17 -7 -30 0 -26 26 -41 42 -25 8 8 5 9 -11 5
-18 -4 -21 -1 -21 22 0 22 4 26 20 22 11 -3 18 -1 14 4 -6 11 -28 12 -37 2z"/>
<path d="M3594 1646 c-11 -29 0 -51 26 -51 21 0 25 5 25 30 0 24 -5 31 -23 33
-13 2 -24 -3 -28 -12z m46 -21 c0 -25 -23 -35 -35 -15 -10 16 2 40 20 40 9 0
15 -9 15 -25z"/>
<path d="M3671 1621 c1 -36 1 -36 8 -6 3 17 13 30 21 30 8 0 18 -13 21 -30 l7
-30 1 33 c1 21 6 32 15 32 9 0 17 -13 19 -32 l5 -33 -2 35 c-1 35 -1 35 -48
36 l-48 1 1 -36z"/>
<path d="M3831 1621 c1 -36 1 -36 8 -6 8 40 38 46 44 8 4 -28 4 -28 3 2 -1 26
-5 30 -28 31 -26 1 -28 -2 -27 -35z"/>
<path d="M3914 1646 c-11 -29 0 -51 26 -51 21 0 25 5 25 30 0 24 -5 31 -23 33
-13 2 -24 -3 -28 -12z m46 -21 c0 -25 -23 -35 -35 -15 -10 16 2 40 20 40 9 0
15 -9 15 -25z"/>
<path d="M3994 1648 c-4 -6 0 -16 9 -23 22 -16 21 -22 0 -28 -14 -4 -12 -5 5
-6 25 -1 31 26 7 35 -20 8 -19 21 3 27 15 4 15 5 0 6 -9 0 -20 -4 -24 -11z"/>
<path d="M4054 1648 c-4 -6 0 -16 9 -23 22 -16 21 -22 0 -28 -14 -4 -12 -5 5
-6 25 -1 31 26 7 35 -20 8 -19 21 3 27 15 4 15 5 0 6 -9 0 -20 -4 -24 -11z"/>
<path d="M4116 1651 c-3 -5 3 -7 14 -4 11 3 20 1 20 -5 0 -5 -9 -12 -21 -15
-22 -6 -22 -29 -1 -33 7 -1 8 0 2 3 -15 7 -12 23 4 23 8 0 17 -8 20 -17 2 -10
4 -2 3 17 -2 34 -27 54 -41 31z"/>
<path d="M4294 1635 c-8 -32 6 -48 37 -42 22 4 22 4 -3 6 -35 1 -37 21 -2 21
32 0 30 33 -3 38 -17 3 -24 -3 -29 -23z m46 5 c0 -5 -9 -10 -21 -10 -11 0 -17
5 -14 10 3 6 13 10 21 10 8 0 14 -4 14 -10z"/>
<path d="M4371 1621 c1 -36 1 -36 8 -6 8 40 38 46 44 8 4 -28 4 -28 3 2 -1 26
-5 30 -28 31 -26 1 -28 -2 -27 -35z"/>
<path d="M4501 1620 c1 -27 3 -29 6 -10 2 14 11 30 20 37 13 10 13 12 -6 10
-17 -1 -21 -7 -20 -37z"/>
<path d="M4556 1651 c-3 -5 3 -7 14 -4 11 3 20 1 20 -5 0 -5 -9 -12 -21 -15
-22 -6 -22 -29 -1 -33 7 -1 8 0 2 3 -15 7 -12 23 4 23 8 0 17 -8 20 -17 2 -10
4 -2 3 17 -2 34 -27 54 -41 31z"/>
<path d="M4764 1635 c-8 -32 6 -48 37 -42 22 4 22 4 -3 6 -35 1 -37 21 -2 21
32 0 30 33 -3 38 -17 3 -24 -3 -29 -23z m46 5 c0 -5 -9 -10 -21 -10 -11 0 -17
5 -14 10 3 6 13 10 21 10 8 0 14 -4 14 -10z"/>
<path d="M5014 1635 c-8 -32 6 -48 37 -42 22 4 22 4 -3 6 -35 1 -37 21 -2 21
32 0 30 33 -3 38 -17 3 -24 -3 -29 -23z m46 5 c0 -5 -9 -10 -21 -10 -11 0 -17
5 -14 10 3 6 13 10 21 10 8 0 14 -4 14 -10z"/>
<path d="M5091 1621 c1 -36 1 -36 8 -6 8 40 38 46 44 8 4 -28 4 -28 3 2 -1 26
-5 30 -28 31 -26 1 -28 -2 -27 -35z"/>
<path d="M5263 1625 c0 -22 2 -30 4 -17 2 12 2 30 0 40 -3 9 -5 -1 -4 -23z"/>
<path d="M5291 1621 c1 -36 1 -36 8 -6 3 17 13 30 21 30 8 0 18 -13 21 -30 l7
-30 1 33 c1 21 6 32 15 32 9 0 17 -13 19 -32 l5 -33 -2 35 c-1 35 -1 35 -48
36 l-48 1 1 -36z"/>
<path d="M5414 1635 c-8 -32 6 -48 37 -42 22 4 22 4 -3 6 -35 1 -37 21 -2 21
32 0 30 33 -3 38 -17 3 -24 -3 -29 -23z m46 5 c0 -5 -9 -10 -21 -10 -11 0 -17
5 -14 10 3 6 13 10 21 10 8 0 14 -4 14 -10z"/>
<path d="M5491 1621 c1 -36 1 -36 8 -6 8 40 38 46 44 8 4 -28 4 -28 3 2 -1 26
-5 30 -28 31 -26 1 -28 -2 -27 -35z"/>
<path d="M5624 1646 c-11 -29 0 -51 26 -51 21 0 25 5 25 30 0 24 -5 31 -23 33
-13 2 -24 -3 -28 -12z m46 -21 c0 -25 -23 -35 -35 -15 -10 16 2 40 20 40 9 0
15 -9 15 -25z"/>
<path d="M5726 1651 c-3 -5 3 -7 14 -4 11 3 20 1 20 -5 0 -5 -9 -12 -21 -15
-22 -6 -22 -29 -1 -33 7 -1 8 0 2 3 -15 7 -12 23 4 23 8 0 17 -8 20 -17 2 -10
4 -2 3 17 -2 34 -27 54 -41 31z"/>
<path d="M5794 1646 c-11 -29 0 -51 26 -51 21 0 25 5 25 30 0 24 -5 31 -23 33
-13 2 -24 -3 -28 -12z m46 -21 c0 -25 -23 -35 -35 -15 -10 16 2 40 20 40 9 0
15 -9 15 -25z"/>
<path d="M6023 1625 c0 -22 2 -30 4 -17 2 12 2 30 0 40 -3 9 -5 -1 -4 -23z"/>
<path d="M6054 1635 c-8 -32 6 -48 37 -42 22 4 22 4 -3 6 -35 1 -37 21 -2 21
32 0 30 33 -3 38 -17 3 -24 -3 -29 -23z m46 5 c0 -5 -9 -10 -21 -10 -11 0 -17
5 -14 10 3 6 13 10 21 10 8 0 14 -4 14 -10z"/>
<path d="M6131 1621 c1 -36 1 -36 8 -6 8 40 38 46 44 8 4 -28 4 -28 3 2 -1 26
-5 30 -28 31 -26 1 -28 -2 -27 -35z"/>
<path d="M6264 1635 c-8 -32 6 -48 37 -42 22 4 22 4 -3 6 -35 1 -37 21 -2 21
32 0 30 33 -3 38 -17 3 -24 -3 -29 -23z m46 5 c0 -5 -9 -10 -21 -10 -11 0 -17
5 -14 10 3 6 13 10 21 10 8 0 14 -4 14 -10z"/>
<path d="M6340 1600 c0 -5 5 -10 10 -10 6 0 10 5 10 10 0 6 -4 10 -10 10 -5 0
-10 -4 -10 -10z"/>
<path d="M3984 1278 l-20 -63 -82 -3 c-64 -2 -82 0 -82 11 0 8 10 13 23 13 18
-1 22 4 22 29 0 26 -4 30 -27 31 -26 1 -28 -1 -28 -42 l0 -43 -102 -4 c-57 -1
361 -3 927 -3 567 1 887 2 713 3 -273 3 -318 5 -318 18 0 9 -10 15 -22 16 -23
0 -23 0 -2 9 12 4 24 18 27 30 5 18 2 21 -21 18 -23 -3 -28 -9 -32 -43 l-5
-40 -72 -3 c-57 -2 -73 0 -73 11 0 8 10 13 23 13 18 -1 22 4 22 29 0 26 -4 30
-27 31 -26 1 -28 -1 -28 -42 l0 -44 -385 0 -385 0 24 65 c13 36 20 65 17 65
-4 0 -16 -28 -27 -62 -17 -55 -23 -63 -47 -66 l-27 -3 24 65 c13 36 20 66 17
66 -4 0 -16 -28 -27 -62z m-144 -13 c0 -25 -23 -35 -35 -15 -10 16 2 40 20 40
9 0 15 -9 15 -25z m1010 0 c0 -25 -23 -35 -35 -15 -10 16 2 40 20 40 9 0 15
-9 15 -25z m148 13 c-6 -18 -28 -21 -28 -4 0 9 7 16 16 16 9 0 14 -5 12 -12z
m2 -58 c0 -5 -7 -10 -15 -10 -8 0 -15 5 -15 10 0 6 7 10 15 10 8 0 15 -4 15
-10z"/>
<path d="M3231 1284 c-1 -49 0 -51 27 -50 23 1 27 5 27 31 0 23 -4 30 -20 30
-11 0 -23 9 -27 20 -3 12 -6 0 -7 -31z m49 -19 c0 -25 -23 -35 -35 -15 -10 16
2 40 20 40 9 0 15 -9 15 -25z"/>
<path d="M3612 1280 c0 -41 2 -47 7 -25 3 17 13 30 21 30 8 0 18 -13 22 -30 6
-29 6 -29 5 5 -2 28 -6 35 -22 35 -11 0 -23 9 -27 20 -3 11 -6 -4 -6 -35z"/>
<path d="M5158 1313 c-2 -10 -1 -34 3 -53 l6 -35 2 33 c0 18 6 32 14 32 8 0 7
4 -3 10 -13 9 -13 11 0 20 13 8 13 10 -1 10 -9 0 -18 -8 -21 -17z"/>
<path d="M5531 1284 c-1 -49 0 -51 27 -50 23 1 27 5 27 31 0 23 -4 30 -20 30
-11 0 -23 9 -27 20 -3 12 -6 0 -7 -31z m49 -19 c0 -25 -23 -35 -35 -15 -10 16
2 40 20 40 9 0 15 -9 15 -25z"/>
<path d="M5906 1315 c-9 -26 -7 -32 5 -12 6 10 9 21 6 23 -2 3 -7 -2 -11 -11z"/>
<path d="M5933 1315 c-3 -9 -3 -18 -1 -21 3 -3 8 4 11 16 6 23 -1 27 -10 5z"/>
<path d="M6917 1311 c-4 -17 -3 -21 5 -13 5 5 8 16 6 23 -3 8 -7 3 -11 -10z"/>
<path d="M3031 1310 c0 -8 4 -24 9 -35 5 -13 9 -14 9 -5 0 8 -4 24 -9 35 -5
13 -9 14 -9 5z"/>
<path d="M3076 1294 c-4 -15 -5 -29 -1 -32 3 -3 5 2 5 12 0 9 5 14 10 11 6 -3
10 1 10 9 0 27 -18 27 -24 0z"/>
<path d="M3317 1313 c-13 -13 -7 -32 13 -38 27 -9 25 -33 -2 -38 l-23 -4 23
-2 c32 -2 41 29 14 47 -28 18 -29 36 -2 29 11 -3 18 -1 14 4 -6 11 -28 12 -37
2z"/>
<path d="M3422 1304 c-7 -8 -8 -14 -2 -14 5 0 10 -13 10 -30 0 -16 3 -30 8
-30 7 0 8 78 0 85 -1 1 -9 -3 -16 -11z"/>
<path d="M3692 1304 c-7 -8 -8 -14 -2 -14 5 0 10 -13 10 -30 0 -16 3 -30 8
-30 7 0 8 78 0 85 -1 1 -9 -3 -16 -11z"/>
<path d="M3742 1304 c-7 -8 -8 -14 -2 -14 5 0 10 -13 10 -30 0 -16 3 -30 8
-30 7 0 8 78 0 85 -1 1 -9 -3 -16 -11z"/>
<path d="M5977 1314 c-4 -4 -7 -12 -7 -18 0 -6 5 -4 10 4 6 9 10 10 10 3 0 -6
3 -18 6 -27 4 -11 1 -16 -10 -16 -9 0 -16 6 -16 13 0 8 -4 7 -10 -3 -5 -8 -9
-22 -9 -30 0 -10 2 -11 6 -2 6 15 53 16 53 0 0 -6 2 -9 5 -6 6 5 -14 68 -25
81 -3 4 -9 4 -13 1z"/>
<path d="M6401 1273 c1 -27 4 -38 6 -25 5 28 29 29 38 1 4 -11 9 -18 12 -16 2
3 0 14 -6 25 -8 15 -8 21 1 24 21 7 0 38 -27 38 -23 0 -25 -3 -24 -47z m47 25
c-7 -19 -38 -22 -38 -4 0 10 9 16 21 16 12 0 19 -5 17 -12z"/>
<path d="M6622 1304 c-7 -8 -8 -14 -2 -14 5 0 10 -13 10 -30 0 -16 3 -30 8
-30 7 0 8 78 0 85 -1 1 -9 -3 -16 -11z"/>
<path d="M6762 1304 c-7 -8 -8 -14 -2 -14 5 0 10 -13 10 -30 0 -16 3 -30 8
-30 7 0 8 78 0 85 -1 1 -9 -3 -16 -11z"/>
<path d="M3126 1275 c-6 -22 -9 -26 -17 -14 -7 12 -9 11 -9 -3 0 -29 20 -30
30 -2 6 15 9 32 7 38 -2 6 -7 -2 -11 -19z"/>
<path d="M3154 1275 c-8 -32 6 -48 37 -42 22 4 22 4 -3 6 -35 1 -37 21 -2 21
32 0 30 33 -3 38 -17 3 -24 -3 -29 -23z m46 5 c0 -5 -9 -10 -21 -10 -11 0 -17
5 -14 10 3 6 13 10 21 10 8 0 14 -4 14 -10z"/>
<path d="M3393 1265 c0 -22 2 -30 4 -17 2 12 2 30 0 40 -3 9 -5 -1 -4 -23z"/>
<path d="M3474 1275 c-8 -32 6 -48 37 -42 22 4 22 4 -3 6 -35 1 -37 21 -2 21
32 0 30 33 -3 38 -17 3 -24 -3 -29 -23z m46 5 c0 -5 -9 -10 -21 -10 -11 0 -17
5 -14 10 3 6 13 10 21 10 8 0 14 -4 14 -10z"/>
<path d="M3874 1288 c-4 -6 0 -16 9 -23 22 -16 21 -22 0 -28 -14 -4 -12 -5 5
-6 25 -1 31 26 7 35 -20 8 -19 21 3 27 15 4 15 5 0 6 -9 0 -20 -4 -24 -11z"/>
<path d="M3930 1290 c0 -5 5 -10 10 -10 6 0 10 5 10 10 0 6 -4 10 -10 10 -5 0
-10 -4 -10 -10z"/>
<path d="M4094 1288 c-4 -6 0 -16 9 -23 22 -16 21 -22 0 -28 -14 -4 -12 -5 5
-6 25 -1 31 26 7 35 -20 8 -19 21 3 27 15 4 15 5 0 6 -9 0 -20 -4 -24 -11z"/>
<path d="M4154 1286 c-11 -30 0 -51 29 -52 25 -1 25 -1 2 3 -33 6 -32 23 1 23
19 0 25 5 22 18 -4 22 -46 29 -54 8z m46 -6 c0 -5 -9 -10 -21 -10 -11 0 -17 5
-14 10 3 6 13 10 21 10 8 0 14 -4 14 -10z"/>
<path d="M4237 1293 c-4 -3 -7 -17 -7 -30 0 -26 26 -41 42 -25 8 8 5 9 -11 5
-18 -4 -21 -1 -21 22 0 22 4 26 20 22 11 -3 18 -1 14 4 -6 11 -28 12 -37 2z"/>
<path d="M4293 1270 c2 -31 5 -35 30 -36 25 -1 27 2 26 35 -1 36 -1 36 -8 6
-3 -17 -13 -30 -21 -30 -8 0 -18 13 -22 30 -6 29 -6 29 -5 -5z"/>
<path d="M4371 1260 c1 -27 3 -29 6 -10 2 14 11 30 20 37 13 10 13 12 -6 10
-17 -1 -21 -7 -20 -37z"/>
<path d="M4424 1286 c-11 -30 0 -51 29 -52 25 -1 25 -1 2 3 -33 6 -32 23 1 23
19 0 25 5 22 18 -4 22 -46 29 -54 8z m46 -6 c0 -5 -9 -10 -21 -10 -11 0 -17 5
-14 10 3 6 13 10 21 10 8 0 14 -4 14 -10z"/>
<path d="M4547 1293 c-4 -3 -7 -17 -7 -30 0 -26 26 -41 42 -25 8 8 5 9 -11 5
-18 -4 -21 -1 -21 22 0 22 4 26 20 22 11 -3 18 -1 14 4 -6 11 -28 12 -37 2z"/>
<path d="M4604 1286 c-11 -29 0 -51 26 -51 21 0 25 5 25 30 0 24 -5 31 -23 33
-13 2 -24 -3 -28 -12z m46 -21 c0 -25 -23 -35 -35 -15 -10 16 2 40 20 40 9 0
15 -9 15 -25z"/>
<path d="M4681 1261 c1 -36 1 -36 8 -6 3 17 13 30 21 30 8 0 18 -13 21 -30 l7
-30 1 33 c1 21 6 32 15 32 9 0 17 -13 19 -32 l5 -33 -2 35 c-1 35 -1 35 -48
36 l-48 1 1 -36z"/>
<path d="M4883 1270 c2 -31 5 -35 30 -36 25 -1 27 2 26 35 -1 36 -1 36 -8 6
-3 -17 -13 -30 -21 -30 -8 0 -18 13 -22 30 -6 29 -6 29 -5 -5z"/>
<path d="M5031 1260 c1 -27 3 -29 6 -10 2 14 11 30 20 37 13 10 13 12 -6 10
-17 -1 -21 -7 -20 -37z"/>
<path d="M5086 1291 c-3 -5 3 -7 14 -4 11 3 20 1 20 -5 0 -5 -9 -12 -20 -15
-30 -8 -26 -37 5 -35 22 2 26 7 23 33 -3 30 -30 47 -42 26z m29 -41 c-3 -5
-10 -10 -16 -10 -5 0 -9 5 -9 10 0 6 7 10 16 10 8 0 12 -4 9 -10z"/>
<path d="M5237 1293 c-4 -3 -7 -17 -7 -30 0 -26 26 -41 42 -25 8 8 5 9 -11 5
-18 -4 -21 -1 -21 22 0 22 4 26 20 22 11 -3 18 -1 14 4 -6 11 -28 12 -37 2z"/>
<path d="M5294 1286 c-11 -29 0 -51 26 -51 21 0 25 5 25 30 0 24 -5 31 -23 33
-13 2 -24 -3 -28 -12z m46 -21 c0 -25 -23 -35 -35 -15 -10 16 2 40 20 40 9 0
15 -9 15 -25z"/>
<path d="M5371 1261 c1 -36 1 -36 8 -6 3 17 13 30 21 30 8 0 18 -13 21 -30 l7
-30 1 33 c1 21 6 32 15 32 9 0 17 -13 19 -32 l5 -33 -2 35 c-1 35 -1 35 -48
36 l-48 1 1 -36z"/>
<path d="M5611 1260 c1 -27 3 -29 6 -10 2 14 11 30 20 37 13 10 13 12 -6 10
-17 -1 -21 -7 -20 -37z"/>
<path d="M5684 1275 c-8 -32 6 -48 37 -42 22 4 22 4 -3 6 -35 1 -37 21 -2 21
32 0 30 33 -3 38 -17 3 -24 -3 -29 -23z m46 5 c0 -5 -9 -10 -21 -10 -11 0 -17
5 -14 10 3 6 13 10 21 10 8 0 14 -4 14 -10z"/>
<path d="M5761 1261 c1 -36 1 -36 8 -6 3 17 13 30 21 30 8 0 18 -13 21 -30 l7
-30 1 33 c1 21 6 32 15 32 9 0 17 -13 19 -32 l5 -33 -2 35 c-1 35 -1 35 -48
36 l-48 1 1 -36z"/>
<path d="M6047 1293 c-4 -3 -7 -17 -7 -30 0 -26 26 -41 42 -25 8 8 5 9 -11 5
-18 -4 -21 -1 -21 22 0 22 4 26 20 22 11 -3 18 -1 14 4 -6 11 -28 12 -37 2z"/>
<path d="M6104 1275 c-8 -32 6 -48 37 -42 22 4 22 4 -3 6 -35 1 -37 21 -2 21
32 0 30 33 -3 38 -17 3 -24 -3 -29 -23z m46 5 c0 -5 -9 -10 -21 -10 -11 0 -17
5 -14 10 3 6 13 10 21 10 8 0 14 -4 14 -10z"/>
<path d="M6184 1288 c-4 -6 0 -16 9 -23 22 -16 21 -22 0 -28 -14 -4 -12 -5 5
-6 25 -1 31 26 7 35 -20 8 -19 21 3 27 15 4 15 5 0 6 -9 0 -20 -4 -24 -11z"/>
<path d="M6244 1288 c-4 -6 0 -16 9 -23 22 -16 21 -22 0 -28 -14 -4 -12 -5 5
-6 25 -1 31 26 7 35 -20 8 -19 21 3 27 15 4 15 5 0 6 -9 0 -20 -4 -24 -11z"/>
<path d="M6304 1286 c-11 -29 0 -51 26 -51 21 0 25 5 25 30 0 24 -5 31 -23 33
-13 2 -24 -3 -28 -12z m46 -21 c0 -25 -23 -35 -35 -15 -10 16 2 40 20 40 9 0
15 -9 15 -25z"/>
<path d="M6484 1275 c-8 -32 6 -48 37 -42 22 4 22 4 -3 6 -35 1 -37 21 -2 21
32 0 30 33 -3 38 -17 3 -24 -3 -29 -23z m46 5 c0 -5 -9 -10 -21 -10 -11 0 -17
5 -14 10 3 6 13 10 21 10 8 0 14 -4 14 -10z"/>
<path d="M6564 1288 c-4 -6 0 -16 9 -23 22 -16 21 -22 0 -28 -14 -4 -12 -5 5
-6 25 -1 31 26 7 35 -20 8 -19 21 3 27 15 4 15 5 0 6 -9 0 -20 -4 -24 -11z"/>
<path d="M6671 1260 c1 -27 3 -29 6 -10 2 14 11 30 20 37 13 10 13 12 -6 10
-17 -1 -21 -7 -20 -37z"/>
<path d="M6733 1265 c0 -22 2 -30 4 -17 2 12 2 30 0 40 -3 9 -5 -1 -4 -23z"/>
<path d="M6814 1286 c-11 -29 0 -51 26 -51 21 0 25 5 25 30 0 24 -5 31 -23 33
-13 2 -24 -3 -28 -12z m46 -21 c0 -25 -23 -35 -35 -15 -10 16 2 40 20 40 9 0
15 -9 15 -25z"/>
<path d="M3050 1240 c0 -5 5 -10 10 -10 6 0 10 5 10 10 0 6 -4 10 -10 10 -5 0
-10 -4 -10 -10z"/>
<path d="M3930 1240 c0 -5 5 -10 10 -10 6 0 10 5 10 10 0 6 -4 10 -10 10 -5 0
-10 -4 -10 -10z"/>
<path d="M4500 1240 c0 -5 5 -10 10 -10 6 0 10 5 10 10 0 6 -4 10 -10 10 -5 0
-10 -4 -10 -10z"/>
<path d="M5190 1240 c0 -5 5 -10 10 -10 6 0 10 5 10 10 0 6 -4 10 -10 10 -5 0
-10 -4 -10 -10z"/>
<path d="M5490 1240 c0 -5 5 -10 10 -10 6 0 10 5 10 10 0 6 -4 10 -10 10 -5 0
-10 -4 -10 -10z"/>
<path d="M0 125 l0 -25 4000 0 4000 0 0 25 0 25 -4000 0 -4000 0 0 -25z"/>
</g>
</svg>
