<?xml version="1.0" standalone="no"?>
<!DOCTYPE svg PUBLIC "-//W3C//DTD SVG 20010904//EN"
 "http://www.w3.org/TR/2001/REC-SVG-20010904/DTD/svg10.dtd">
<svg version="1.0" xmlns="http://www.w3.org/2000/svg"
 width="819.000000pt" height="460.000000pt" viewBox="0 0 819.000000 460.000000"
 preserveAspectRatio="xMidYMid meet">

<g transform="translate(0.000000,460.000000) scale(0.100000,-0.100000)"
fill="#000000" stroke="none">
<path d="M3600 4396 c0 -34 -1 -35 -33 -29 -23 3 -37 0 -46 -11 -17 -21 -18
-91 -1 -111 14 -17 56 -20 66 -4 4 8 9 8 17 0 23 -23 27 -8 27 89 0 82 -3 100
-15 100 -10 0 -15 -10 -15 -34z m-12 -58 c31 -31 -2 -100 -38 -78 -18 11 -17
69 1 81 19 12 23 11 37 -3z"/>
<path d="M3675 4420 c-7 -12 2 -30 16 -30 12 0 12 27 0 35 -5 3 -12 1 -16 -5z"/>
<path d="M7600 4351 l0 -80 54 -30 54 -31 51 31 51 32 0 78 0 79 -105 0 -105
0 0 -79z m82 -11 c3 -19 0 -30 -7 -30 -7 0 -10 11 -7 30 2 17 5 30 7 30 2 0 5
-13 7 -30z m58 -5 c0 -18 -4 -22 -20 -18 -23 6 -24 7 -8 32 15 24 28 18 28
-14z"/>
<path d="M7715 4340 c-3 -5 -1 -10 4 -10 6 0 11 5 11 10 0 6 -2 10 -4 10 -3 0
-8 -4 -11 -10z"/>
<path d="M2952 4334 c-18 -47 -32 -90 -32 -95 0 -20 28 -7 34 16 5 21 12 25
45 25 33 0 40 -4 45 -25 4 -14 13 -25 21 -25 20 0 20 2 -13 100 -22 66 -33 86
-49 88 -17 3 -25 -11 -51 -84z m62 22 c3 -13 9 -31 12 -40 5 -13 -1 -16 -26
-16 -25 0 -31 3 -26 16 3 9 9 27 12 40 3 13 10 24 14 24 4 0 11 -11 14 -24z"/>
<path d="M3110 4385 c0 -8 -4 -15 -10 -15 -5 0 -10 -7 -10 -15 0 -8 5 -15 10
-15 6 0 10 -22 10 -49 0 -35 4 -51 16 -55 27 -10 44 -7 44 9 0 8 -6 14 -12 13
-9 -2 -14 12 -16 40 -2 33 0 42 12 42 9 0 16 7 16 15 0 8 -7 15 -15 15 -8 0
-15 7 -15 15 0 8 -7 15 -15 15 -8 0 -15 -7 -15 -15z"/>
<path d="M4300 4385 c0 -8 -4 -15 -10 -15 -5 0 -10 -7 -10 -15 0 -8 5 -15 10
-15 6 0 10 -22 10 -49 0 -35 4 -51 16 -55 27 -10 44 -7 44 9 0 8 -6 14 -12 13
-9 -2 -14 12 -16 40 -2 33 0 42 12 42 9 0 16 7 16 15 0 8 -7 15 -15 15 -8 0
-15 7 -15 15 0 8 -7 15 -15 15 -8 0 -15 -7 -15 -15z"/>
<path d="M3223 4362 c-20 -13 -32 -58 -24 -89 9 -32 45 -49 85 -39 38 9 32 26
-8 19 -28 -4 -36 -1 -45 16 -11 20 -9 21 33 21 53 0 62 10 44 47 -13 29 -59
42 -85 25z m57 -16 c0 -2 3 -11 6 -20 5 -13 -1 -16 -30 -16 -34 0 -36 2 -26
20 9 17 50 30 50 16z"/>
<path d="M3350 4300 c0 -56 3 -70 15 -70 11 0 15 12 15 50 0 38 4 52 18 59 28
15 42 -6 42 -61 0 -36 4 -48 15 -48 12 0 15 13 15 58 0 32 -5 63 -12 70 -15
15 -51 15 -66 0 -9 -9 -12 -9 -12 0 0 7 -7 12 -15 12 -12 0 -15 -14 -15 -70z"/>
<path d="M3670 4300 c0 -56 3 -70 15 -70 12 0 15 14 15 70 0 56 -3 70 -15 70
-12 0 -15 -14 -15 -70z"/>
<path d="M3740 4300 c0 -56 3 -70 15 -70 11 0 15 12 15 50 0 38 4 52 18 59 28
15 42 -6 42 -61 0 -36 4 -48 15 -48 11 0 15 12 15 49 0 49 18 79 40 66 5 -3
10 -31 10 -61 0 -42 3 -54 15 -54 13 0 15 11 13 61 -3 71 -22 94 -59 71 -15
-10 -24 -11 -32 -3 -15 15 -50 14 -65 -1 -9 -9 -12 -9 -12 0 0 7 -7 12 -15 12
-12 0 -15 -14 -15 -70z"/>
<path d="M4003 4362 c-20 -13 -32 -58 -24 -89 9 -32 45 -49 85 -39 38 9 32 26
-8 19 -28 -4 -36 -1 -45 16 -11 20 -9 21 33 21 53 0 62 10 44 47 -13 29 -59
42 -85 25z m57 -16 c0 -2 3 -11 6 -20 5 -13 -1 -16 -30 -16 -34 0 -36 2 -26
20 9 17 50 30 50 16z"/>
<path d="M4130 4300 c0 -56 3 -70 15 -70 11 0 15 12 15 50 0 38 4 52 18 59 28
15 42 -6 42 -61 0 -36 4 -48 15 -48 12 0 15 13 15 58 0 32 -5 63 -12 70 -15
15 -51 15 -66 0 -9 -9 -12 -9 -12 0 0 7 -7 12 -15 12 -12 0 -15 -14 -15 -70z"/>
<path d="M4405 4350 c-24 -27 -24 -89 1 -107 19 -14 62 -17 80 -5 38 25 40
103 4 122 -30 16 -65 12 -85 -10z m75 -19 c13 -26 13 -43 -3 -65 -17 -23 -53
-14 -60 15 -14 53 39 94 63 50z"/>
<path d="M1053 4319 c-52 -33 -37 -55 17 -24 23 12 30 11 78 -16 l52 -30 0 25
c0 18 -5 26 -17 26 -10 0 -33 9 -51 20 -40 24 -39 24 -79 -1z"/>
<path d="M960 4254 c0 -14 4 -23 10 -19 6 3 28 -4 49 -16 38 -21 71 -21 71 1
0 5 -8 10 -17 10 -10 0 -36 11 -58 25 -50 31 -55 31 -55 -1z"/>
<path d="M1080 4260 c0 -14 48 -35 58 -26 8 9 -26 36 -45 36 -7 0 -13 -5 -13
-10z"/>
<path d="M1132 4194 c-29 -18 -58 -34 -65 -34 -6 0 -30 11 -52 25 -46 28 -55
30 -55 12 0 -14 83 -67 106 -67 24 0 134 71 134 86 0 20 -9 17 -68 -22z"/>
<path d="M218 4139 c-26 -15 -24 -75 3 -89 16 -9 26 -8 47 6 16 11 22 19 14
22 -7 2 -18 -1 -26 -7 -9 -7 -16 -7 -24 1 -29 29 1 75 32 49 17 -14 29 -2 15
16 -13 15 -37 16 -61 2z"/>
<path d="M928 4138 c-7 -20 3 -88 13 -88 5 0 9 12 10 28 0 15 2 37 3 50 3 23
-19 31 -26 10z"/>
<path d="M1390 4115 l0 -25 3305 0 3305 0 0 25 0 25 -3305 0 -3305 0 0 -25z"/>
<path d="M854 4114 c-18 -14 -18 -15 6 -9 l25 6 -22 -17 c-35 -25 -29 -44 12
-44 30 0 35 3 35 24 0 14 -7 32 -16 40 -19 19 -16 19 -40 0z m26 -44 c0 -5 -4
-10 -10 -10 -5 0 -10 5 -10 10 0 6 5 10 10 10 6 0 10 -4 10 -10z"/>
<path d="M307 4114 c-14 -14 -7 -53 12 -63 26 -14 54 8 49 40 -2 17 -10 25
-28 27 -14 2 -29 0 -33 -4z m39 -40 c-5 -13 -10 -14 -18 -6 -6 6 -8 18 -4 28
5 13 10 14 18 6 6 -6 8 -18 4 -28z"/>
<path d="M390 4085 c0 -19 5 -35 10 -35 6 0 10 11 10 24 0 14 4 27 9 31 12 7
25 -31 16 -45 -3 -5 -2 -10 3 -10 5 0 12 14 16 31 7 35 26 30 26 -7 0 -13 5
-24 11 -24 6 0 9 14 7 33 -3 31 -4 32 -55 35 l-53 2 0 -35z"/>
<path d="M520 4071 c0 -28 5 -51 10 -51 6 0 10 6 10 14 0 8 10 16 23 18 17 2
22 10 22 33 0 27 -4 30 -32 33 l-33 3 0 -50z m46 3 c-5 -13 -10 -14 -18 -6 -6
6 -8 18 -4 28 5 13 10 14 18 6 6 -6 8 -18 4 -28z"/>
<path d="M610 4085 c0 -33 2 -35 35 -35 33 0 35 2 35 35 0 24 -5 35 -15 35 -9
0 -15 -9 -15 -25 0 -14 -4 -25 -10 -25 -5 0 -10 11 -10 25 0 14 -4 25 -10 25
-5 0 -10 -16 -10 -35z"/>
<path d="M695 4109 c-13 -20 5 -59 28 -60 21 -1 21 -1 -3 -9 -23 -7 -23 -8 -6
-15 30 -13 51 8 54 54 3 41 3 41 -32 41 -19 0 -38 -5 -41 -11z m45 -19 c0 -11
-4 -20 -9 -20 -14 0 -23 18 -16 30 10 17 25 11 25 -10z"/>
<path d="M780 4085 c0 -24 5 -35 15 -35 9 0 15 9 15 25 0 14 5 25 10 25 6 0
10 5 10 10 0 6 -11 10 -25 10 -22 0 -25 -4 -25 -35z"/>
<path d="M2276 3571 c-3 -4 4 -7 14 -6 27 2 33 10 10 12 -11 1 -22 -2 -24 -6z"/>
<path d="M2526 3571 c-3 -4 4 -7 14 -6 27 2 33 10 10 12 -11 1 -22 -2 -24 -6z"/>
<path d="M3150 3566 c0 -7 -9 -16 -21 -19 -15 -4 -20 -12 -17 -28 2 -12 9 -24
16 -25 7 -1 8 0 2 3 -15 7 -12 43 4 43 8 0 17 -12 19 -27 2 -17 5 -10 6 20 0
26 -1 47 -4 47 -3 0 -5 -6 -5 -14z"/>
<path d="M4030 3566 c0 -7 -9 -16 -21 -19 -15 -4 -20 -12 -17 -28 2 -12 9 -24
16 -25 7 -1 8 0 2 3 -15 7 -12 43 4 43 8 0 17 -12 19 -27 2 -17 5 -10 6 20 0
26 -1 47 -4 47 -3 0 -5 -6 -5 -14z"/>
<path d="M4196 3571 c-3 -4 4 -7 14 -6 27 2 33 10 10 12 -11 1 -22 -2 -24 -6z"/>
<path d="M4420 3566 c0 -7 -9 -16 -21 -19 -15 -4 -20 -12 -17 -28 2 -12 9 -24
16 -25 7 -1 8 0 2 3 -15 7 -12 43 4 43 8 0 17 -12 19 -27 2 -17 5 -10 6 20 0
26 -1 47 -4 47 -3 0 -5 -6 -5 -14z"/>
<path d="M4860 3566 c0 -7 -9 -16 -21 -19 -15 -4 -20 -12 -17 -28 2 -12 9 -24
16 -25 7 -1 8 0 2 3 -15 7 -12 43 4 43 8 0 17 -12 19 -27 2 -17 5 -10 6 20 0
26 -1 47 -4 47 -3 0 -5 -6 -5 -14z"/>
<path d="M5000 3566 c0 -7 -9 -16 -21 -19 -15 -4 -20 -12 -17 -28 2 -12 9 -24
16 -25 7 -1 8 0 2 3 -15 7 -12 43 4 43 8 0 17 -12 19 -27 2 -17 5 -10 6 20 0
26 -1 47 -4 47 -3 0 -5 -6 -5 -14z"/>
<path d="M5180 3566 c0 -7 -9 -16 -21 -19 -15 -4 -20 -12 -17 -28 2 -12 9 -24
16 -25 7 -1 8 0 2 3 -15 7 -12 43 4 43 8 0 17 -12 19 -27 2 -17 5 -10 6 20 0
26 -1 47 -4 47 -3 0 -5 -6 -5 -14z"/>
<path d="M6030 3566 c0 -7 -9 -16 -21 -19 -15 -4 -20 -12 -17 -28 2 -12 9 -24
16 -25 7 -1 8 0 2 3 -15 7 -12 43 4 43 8 0 17 -12 19 -27 2 -17 5 -10 6 20 0
26 -1 47 -4 47 -3 0 -5 -6 -5 -14z"/>
<path d="M6612 3535 c0 -35 2 -43 7 -26 9 35 29 37 34 4 5 -28 5 -28 3 2 0 19
-6 30 -16 30 -8 0 -18 9 -22 20 -3 12 -6 -1 -6 -30z"/>
<path d="M6830 3566 c0 -7 -9 -16 -21 -19 -15 -4 -20 -12 -17 -28 2 -12 9 -24
16 -25 7 -1 8 0 2 3 -15 7 -12 43 4 43 8 0 17 -12 19 -27 2 -17 5 -10 6 20 0
26 -1 47 -4 47 -3 0 -5 -6 -5 -14z"/>
<path d="M723 3530 c0 -25 2 -35 4 -22 2 12 2 32 0 45 -2 12 -4 2 -4 -23z"/>
<path d="M751 3528 c2 -42 2 -42 8 -10 l6 34 18 -31 c25 -43 37 -39 36 12 -1
38 -2 39 -8 12 l-7 -30 -18 28 c-26 38 -36 34 -35 -15z"/>
<path d="M852 3561 c-8 -5 -12 -21 -10 -37 2 -23 9 -30 28 -31 25 -3 25 -3 3
7 -13 5 -23 18 -23 30 0 12 9 24 23 30 12 5 15 9 7 9 -8 0 -21 -3 -28 -8z"/>
<path d="M913 3530 c0 -25 2 -35 4 -22 2 12 2 32 0 45 -2 12 -4 2 -4 -23z"/>
<path d="M940 3530 c0 -39 1 -41 28 -38 24 3 27 7 27 38 0 31 -3 35 -27 38
-27 3 -28 1 -28 -38z m45 0 c0 -16 -6 -26 -17 -28 -14 -3 -18 3 -18 28 0 25 4
31 18 28 11 -2 17 -12 17 -28z"/>
<path d="M1030 3530 c0 -37 2 -40 28 -39 23 2 24 2 5 6 -27 5 -31 30 -5 36 16
4 16 5 0 6 -26 2 -22 19 5 24 19 4 18 4 -5 6 -26 1 -28 -2 -28 -39z"/>
<path d="M1091 3528 c2 -42 2 -42 8 -10 l6 34 18 -31 c25 -43 37 -39 36 12 -1
38 -2 39 -8 12 l-7 -30 -18 28 c-26 38 -36 34 -35 -15z"/>
<path d="M1178 3563 c6 -2 12 -20 12 -39 0 -19 5 -34 10 -34 6 0 10 15 10 34
0 19 6 37 13 39 6 3 -4 5 -23 5 -19 0 -29 -2 -22 -5z"/>
<path d="M1240 3530 c0 -37 2 -40 28 -39 23 2 24 2 5 6 -27 5 -31 30 -5 36 16
4 16 5 0 6 -26 2 -22 19 5 24 19 4 18 4 -5 6 -26 1 -28 -2 -28 -39z"/>
<path d="M1313 3554 c-4 -10 0 -20 10 -26 22 -12 22 -25 0 -31 -14 -4 -13 -5
3 -6 30 -1 38 26 14 41 -25 16 -25 25 -2 31 16 4 16 5 -1 6 -10 0 -20 -6 -24
-15z"/>
<path d="M1461 3545 c-1 -39 12 -58 35 -53 14 2 19 12 20 38 l1 35 -4 -33 c-6
-46 -36 -40 -44 8 -6 34 -6 34 -8 5z"/>
<path d="M1868 3557 c-7 -19 6 -60 20 -63 7 -1 8 0 2 3 -12 6 -13 40 -1 45 5
2 3 8 -4 15 -10 9 -14 9 -17 0z"/>
<path d="M6173 3563 c9 -2 25 -2 35 0 9 3 1 5 -18 5 -19 0 -27 -2 -17 -5z"/>
<path d="M6366 3554 c-4 -9 -4 -19 -1 -22 3 -3 5 0 5 7 0 7 5 9 10 6 17 -10
11 -25 -10 -25 -11 0 -20 -4 -20 -9 0 -5 9 -7 21 -4 12 4 25 0 31 -8 8 -11 8
-10 4 4 -3 11 -9 30 -12 43 -7 28 -19 31 -28 8z"/>
<path d="M7228 3557 c-7 -19 6 -60 20 -63 7 -1 8 0 2 3 -12 6 -13 40 -1 45 5
2 3 8 -4 15 -10 9 -14 9 -17 0z"/>
<path d="M1542 3520 c0 -19 2 -27 5 -17 2 9 2 25 0 35 -3 9 -5 1 -5 -18z"/>
<path d="M1567 3542 c6 -4 13 -18 16 -32 4 -25 4 -25 6 3 1 34 18 36 24 2 4
-23 4 -23 3 2 -1 23 -6 28 -31 30 -16 1 -25 -1 -18 -5z"/>
<path d="M1660 3541 l25 -7 -24 -6 c-28 -8 -23 -32 8 -36 19 -3 22 0 19 25 -2
22 -9 28 -28 30 l-25 2 25 -8z m20 -31 c0 -5 -7 -10 -15 -10 -8 0 -15 5 -15
10 0 6 7 10 15 10 8 0 15 -4 15 -10z"/>
<path d="M1801 3516 c1 -28 2 -29 8 -7 9 34 29 37 34 6 4 -24 4 -24 3 2 -1 22
-6 28 -23 29 -19 1 -23 -4 -22 -30z"/>
<path d="M1914 3535 c-9 -23 3 -45 23 -44 17 1 17 2 1 6 -10 2 -18 9 -18 14 0
5 8 9 18 10 14 0 14 2 -3 8 l-20 8 20 5 c17 5 17 6 2 7 -10 0 -20 -6 -23 -14z"/>
<path d="M1971 3516 c1 -21 3 -25 6 -11 3 11 9 25 14 31 5 7 3 11 -6 11 -10 0
-15 -10 -14 -31z"/>
<path d="M2021 3516 c1 -21 3 -25 6 -11 3 11 9 25 14 31 5 7 3 11 -6 11 -10 0
-15 -10 -14 -31z"/>
<path d="M2073 3526 c1 -17 9 -31 17 -33 10 -3 11 -2 4 4 -7 4 -14 19 -17 33
-4 22 -5 21 -4 -4z"/>
<path d="M2112 3520 c0 -19 2 -27 5 -17 2 9 2 25 0 35 -3 9 -5 1 -5 -18z"/>
<path d="M2143 3510 c0 -25 2 -35 4 -22 2 12 2 32 0 45 -2 12 -4 2 -4 -23z"/>
<path d="M2160 3546 c0 -2 7 -7 16 -10 8 -3 12 -2 9 4 -6 10 -25 14 -25 6z"/>
<path d="M2214 3535 c-4 -8 -3 -23 2 -32 4 -10 6 -21 6 -25 -3 -15 16 -8 22 7
3 9 0 15 -9 15 -21 0 -19 38 3 43 16 4 16 5 -1 6 -10 0 -20 -6 -23 -14z"/>
<path d="M2290 3541 l25 -7 -24 -6 c-28 -8 -23 -32 8 -36 19 -3 22 0 19 25 -2
22 -9 28 -28 30 l-25 2 25 -8z m20 -31 c0 -5 -7 -10 -15 -10 -8 0 -15 5 -15
10 0 6 7 10 15 10 8 0 15 -4 15 -10z"/>
<path d="M2344 3535 c-13 -32 23 -63 40 -36 4 5 -3 7 -14 4 -16 -4 -20 0 -20
17 0 17 4 21 20 17 11 -3 18 -1 14 4 -8 14 -34 11 -40 -6z"/>
<path d="M2461 3516 c1 -28 2 -29 8 -7 9 34 29 37 34 6 4 -24 4 -24 3 2 -1 22
-6 28 -23 29 -19 1 -23 -4 -22 -30z"/>
<path d="M2540 3541 l25 -7 -24 -6 c-28 -8 -23 -32 8 -36 19 -3 22 0 19 25 -2
22 -9 28 -28 30 l-25 2 25 -8z m20 -31 c0 -5 -7 -10 -15 -10 -8 0 -15 5 -15
10 0 6 7 10 15 10 8 0 15 -4 15 -10z"/>
<path d="M2594 3535 c-13 -32 23 -63 40 -36 4 5 -3 7 -14 4 -16 -4 -20 0 -20
17 0 17 4 21 20 17 11 -3 18 -1 14 4 -8 14 -34 11 -40 -6z"/>
<path d="M2713 3510 c0 -25 2 -35 4 -22 2 12 2 32 0 45 -2 12 -4 2 -4 -23z"/>
<path d="M2730 3546 c0 -2 7 -7 16 -10 8 -3 12 -2 9 4 -6 10 -25 14 -25 6z"/>
<path d="M2830 3541 l25 -7 -24 -6 c-28 -8 -23 -32 8 -36 19 -3 22 0 19 25 -2
22 -9 28 -28 30 l-25 2 25 -8z m20 -31 c0 -5 -7 -10 -15 -10 -8 0 -15 5 -15
10 0 6 7 10 15 10 8 0 15 -4 15 -10z"/>
<path d="M2881 3516 c1 -28 2 -29 8 -7 9 34 29 37 34 6 4 -24 4 -24 3 2 -1 22
-6 28 -23 29 -19 1 -23 -4 -22 -30z"/>
<path d="M2954 3535 c-9 -23 3 -45 23 -44 17 1 17 2 1 6 -10 2 -18 9 -18 14 0
5 8 9 18 10 14 0 14 2 -3 8 l-20 8 20 5 c17 5 17 6 2 7 -10 0 -20 -6 -23 -14z"/>
<path d="M3060 3541 l25 -7 -24 -6 c-28 -8 -23 -32 8 -36 19 -3 22 0 19 25 -2
22 -9 28 -28 30 l-25 2 25 -8z m20 -31 c0 -5 -7 -10 -15 -10 -8 0 -15 5 -15
10 0 6 7 10 15 10 8 0 15 -4 15 -10z"/>
<path d="M3190 3541 l25 -7 -24 -6 c-28 -8 -23 -32 8 -36 19 -3 22 0 19 25 -2
22 -9 28 -28 30 l-25 2 25 -8z m20 -31 c0 -5 -7 -10 -15 -10 -8 0 -15 5 -15
10 0 6 7 10 15 10 8 0 15 -4 15 -10z"/>
<path d="M3294 3535 c-9 -23 3 -45 23 -44 17 1 17 2 1 6 -10 2 -18 9 -18 14 0
5 8 9 18 10 14 0 14 2 -3 8 l-20 8 20 5 c17 5 17 6 2 7 -10 0 -20 -6 -23 -14z"/>
<path d="M3404 3535 c-13 -32 23 -63 40 -36 4 5 -3 7 -14 4 -16 -4 -20 0 -20
17 0 17 4 21 20 17 11 -3 18 -1 14 4 -8 14 -34 11 -40 -6z"/>
<path d="M3473 3526 c1 -17 9 -31 17 -33 10 -3 11 -2 4 4 -7 4 -14 19 -17 33
-4 22 -5 21 -4 -4z"/>
<path d="M3512 3520 c0 -19 2 -27 5 -17 2 9 2 25 0 35 -3 9 -5 1 -5 -18z"/>
<path d="M3593 3526 c1 -17 9 -31 17 -33 10 -3 11 -2 4 4 -7 4 -14 19 -17 33
-4 22 -5 21 -4 -4z"/>
<path d="M3632 3520 c0 -19 2 -27 5 -17 2 9 2 25 0 35 -3 9 -5 1 -5 -18z"/>
<path d="M3662 3520 c0 -19 2 -27 5 -17 2 9 2 25 0 35 -3 9 -5 1 -5 -18z"/>
<path d="M3687 3542 c6 -4 13 -18 16 -32 4 -25 4 -25 6 3 1 34 18 36 24 2 4
-23 4 -23 3 2 -1 23 -6 28 -31 30 -16 1 -25 -1 -18 -5z"/>
<path d="M3780 3541 l25 -7 -24 -6 c-28 -8 -23 -32 8 -36 19 -3 22 0 19 25 -2
22 -9 28 -28 30 l-25 2 25 -8z m20 -31 c0 -5 -7 -10 -15 -10 -8 0 -15 5 -15
10 0 6 7 10 15 10 8 0 15 -4 15 -10z"/>
<path d="M3881 3516 c1 -21 3 -25 6 -11 3 11 9 25 14 31 5 7 3 11 -6 11 -10 0
-15 -10 -14 -31z"/>
<path d="M3934 3535 c-9 -23 3 -45 23 -44 17 1 17 2 1 6 -10 2 -18 9 -18 14 0
5 8 9 18 10 14 0 14 2 -3 8 l-20 8 20 5 c17 5 17 6 2 7 -10 0 -20 -6 -23 -14z"/>
<path d="M4063 3526 c1 -17 9 -31 17 -33 10 -3 11 -2 4 4 -7 4 -14 19 -17 33
-4 22 -5 21 -4 -4z"/>
<path d="M4102 3520 c0 -19 2 -27 5 -17 2 9 2 25 0 35 -3 9 -5 1 -5 -18z"/>
<path d="M4134 3535 c-4 -8 -3 -23 2 -32 4 -10 6 -21 6 -25 -3 -15 16 -8 22 7
3 9 0 15 -9 15 -21 0 -19 38 3 43 16 4 16 5 -1 6 -10 0 -20 -6 -23 -14z"/>
<path d="M4210 3541 l25 -7 -24 -6 c-28 -8 -23 -32 8 -36 19 -3 22 0 19 25 -2
22 -9 28 -28 30 l-25 2 25 -8z m20 -31 c0 -5 -7 -10 -15 -10 -8 0 -15 5 -15
10 0 6 7 10 15 10 8 0 15 -4 15 -10z"/>
<path d="M4264 3535 c-13 -32 23 -63 40 -36 4 5 -3 7 -14 4 -16 -4 -20 0 -20
17 0 17 4 21 20 17 11 -3 18 -1 14 4 -8 14 -34 11 -40 -6z"/>
<path d="M4460 3541 l25 -7 -24 -6 c-28 -8 -23 -32 8 -36 19 -3 22 0 19 25 -2
22 -9 28 -28 30 l-25 2 25 -8z m20 -31 c0 -5 -7 -10 -15 -10 -8 0 -15 5 -15
10 0 6 7 10 15 10 8 0 15 -4 15 -10z"/>
<path d="M4564 3535 c-8 -20 2 -45 18 -44 10 0 10 2 1 6 -18 7 -16 43 1 43 10
0 16 -13 19 -37 l4 -38 1 43 c2 36 -1 42 -18 42 -11 0 -23 -7 -26 -15z"/>
<path d="M4633 3526 c1 -17 9 -31 17 -33 10 -3 11 -2 4 4 -7 4 -14 19 -17 33
-4 22 -5 21 -4 -4z"/>
<path d="M4672 3520 c0 -19 2 -27 5 -17 2 9 2 25 0 35 -3 9 -5 1 -5 -18z"/>
<path d="M4710 3541 l25 -7 -24 -6 c-28 -8 -23 -32 8 -36 19 -3 22 0 19 25 -2
22 -9 28 -28 30 l-25 2 25 -8z m20 -31 c0 -5 -7 -10 -15 -10 -8 0 -15 5 -15
10 0 6 7 10 15 10 8 0 15 -4 15 -10z"/>
<path d="M4910 3541 l25 -7 -24 -6 c-28 -8 -23 -32 8 -36 19 -3 22 0 19 25 -2
22 -9 28 -28 30 l-25 2 25 -8z m20 -31 c0 -5 -7 -10 -15 -10 -8 0 -15 5 -15
10 0 6 7 10 15 10 8 0 15 -4 15 -10z"/>
<path d="M5034 3535 c-9 -23 3 -45 23 -44 17 1 17 2 1 6 -10 2 -18 9 -18 14 0
5 8 9 18 10 14 0 14 2 -3 8 l-20 8 20 5 c17 5 17 6 2 7 -10 0 -20 -6 -23 -14z"/>
<path d="M5214 3535 c-9 -23 3 -45 23 -44 17 1 17 2 1 6 -10 2 -18 9 -18 14 0
5 8 9 18 10 14 0 14 2 -3 8 l-20 8 20 5 c17 5 17 6 2 7 -10 0 -20 -6 -23 -14z"/>
<path d="M5323 3526 c1 -17 9 -31 17 -33 10 -3 11 -2 4 4 -7 4 -14 19 -17 33
-4 22 -5 21 -4 -4z"/>
<path d="M5362 3520 c0 -19 2 -27 5 -17 2 9 2 25 0 35 -3 9 -5 1 -5 -18z"/>
<path d="M5392 3520 c0 -19 2 -27 5 -17 2 9 2 25 0 35 -3 9 -5 1 -5 -18z"/>
<path d="M5417 3542 c6 -4 13 -18 16 -32 4 -25 4 -25 6 3 1 34 18 36 24 2 4
-23 4 -23 3 2 -1 23 -6 28 -31 30 -16 1 -25 -1 -18 -5z"/>
<path d="M5540 3536 c0 -8 8 -17 18 -21 16 -7 15 -8 -3 -15 -19 -8 -19 -9 3
-9 26 -1 30 24 5 34 -17 7 -16 8 2 15 19 8 19 9 -2 9 -13 1 -23 -5 -23 -13z"/>
<path d="M5604 3535 c-9 -23 3 -45 23 -44 17 1 17 2 1 6 -10 2 -18 9 -18 14 0
5 8 9 18 10 14 0 14 2 -3 8 l-20 8 20 5 c17 5 17 6 2 7 -10 0 -20 -6 -23 -14z"/>
<path d="M5661 3516 c1 -21 3 -25 6 -11 3 11 9 25 14 31 5 7 3 11 -6 11 -10 0
-15 -10 -14 -31z"/>
<path d="M5745 3539 c-4 -6 -5 -12 -2 -15 2 -3 7 2 10 11 7 17 1 20 -8 4z"/>
<path d="M5814 3535 c-4 -8 -3 -23 2 -32 4 -10 6 -21 6 -25 -3 -15 16 -8 22 7
3 9 0 15 -9 15 -21 0 -19 38 3 43 16 4 16 5 -1 6 -10 0 -20 -6 -23 -14z"/>
<path d="M5874 3535 c-13 -32 23 -63 40 -36 4 5 -3 7 -14 4 -16 -4 -20 0 -20
17 0 17 4 21 20 17 11 -3 18 -1 14 4 -8 14 -34 11 -40 -6z"/>
<path d="M6064 3535 c-9 -23 3 -45 23 -44 17 1 17 2 1 6 -10 2 -18 9 -18 14 0
5 8 9 18 10 14 0 14 2 -3 8 l-20 8 20 5 c17 5 17 6 2 7 -10 0 -20 -6 -23 -14z"/>
<path d="M6478 3543 c7 -3 16 -2 19 1 4 3 -2 6 -13 5 -11 0 -14 -3 -6 -6z"/>
<path d="M6530 3541 l25 -7 -24 -6 c-28 -8 -23 -32 8 -36 19 -3 22 0 19 25 -2
22 -9 28 -28 30 l-25 2 25 -8z m20 -31 c0 -5 -7 -10 -15 -10 -8 0 -15 5 -15
10 0 6 7 10 15 10 8 0 15 -4 15 -10z"/>
<path d="M6690 3541 l25 -7 -24 -6 c-28 -8 -23 -32 8 -36 19 -3 22 0 19 25 -2
22 -9 28 -28 30 l-25 2 25 -8z m20 -31 c0 -5 -7 -10 -15 -10 -8 0 -15 5 -15
10 0 6 7 10 15 10 8 0 15 -4 15 -10z"/>
<path d="M6864 3535 c-9 -23 3 -45 23 -44 17 1 17 2 1 6 -10 2 -18 9 -18 14 0
5 8 9 18 10 14 0 14 2 -3 8 l-20 8 20 5 c17 5 17 6 2 7 -10 0 -20 -6 -23 -14z"/>
<path d="M6973 3526 c1 -17 9 -31 17 -33 10 -3 11 -2 4 4 -7 4 -14 19 -17 33
-4 22 -5 21 -4 -4z"/>
<path d="M7012 3520 c0 -19 2 -27 5 -17 2 9 2 25 0 35 -3 9 -5 1 -5 -18z"/>
<path d="M7042 3520 c0 -19 2 -27 5 -17 2 9 2 25 0 35 -3 9 -5 1 -5 -18z"/>
<path d="M7067 3542 c6 -4 13 -18 16 -32 4 -25 4 -25 6 3 1 34 18 36 24 2 4
-23 4 -23 3 2 -1 23 -6 28 -31 30 -16 1 -25 -1 -18 -5z"/>
<path d="M7274 3535 c-9 -23 3 -45 23 -44 17 1 17 2 1 6 -10 2 -18 9 -18 14 0
5 8 9 18 10 14 0 14 2 -3 8 l-20 8 20 5 c17 5 17 6 2 7 -10 0 -20 -6 -23 -14z"/>
<path d="M7332 3520 c0 -19 2 -27 5 -17 2 9 2 25 0 35 -3 9 -5 1 -5 -18z"/>
<path d="M7357 3542 c6 -4 13 -18 16 -32 4 -25 4 -25 6 3 1 34 18 36 24 2 4
-23 4 -23 3 2 -1 23 -6 28 -31 30 -16 1 -25 -1 -18 -5z"/>
<path d="M3356 3515 c-9 -26 -7 -32 5 -12 6 10 9 21 6 23 -2 3 -7 -2 -11 -11z"/>
<path d="M2170 3500 c-9 -6 -10 -10 -3 -10 6 0 15 5 18 10 8 12 4 12 -15 0z"/>
<path d="M2740 3500 c-9 -6 -10 -10 -3 -10 6 0 15 5 18 10 8 12 4 12 -15 0z"/>
<path d="M5720 3500 c0 -5 5 -10 10 -10 6 0 10 5 10 10 0 6 -4 10 -10 10 -5 0
-10 -4 -10 -10z"/>
<path d="M600 3326 c0 -7 -9 -16 -21 -19 -15 -4 -20 -12 -17 -28 2 -12 9 -24
16 -25 7 -1 8 0 2 3 -15 7 -12 43 4 43 8 0 17 -12 19 -27 2 -17 5 -10 6 20 0
26 -1 47 -4 47 -3 0 -5 -6 -5 -14z"/>
<path d="M1306 3331 c-3 -4 4 -7 14 -6 27 2 33 10 10 12 -11 1 -22 -2 -24 -6z"/>
<path d="M1940 3326 c0 -7 -9 -16 -21 -19 -15 -4 -20 -12 -17 -28 2 -12 9 -24
16 -25 7 -1 8 0 2 3 -15 7 -12 43 4 43 8 0 17 -12 19 -27 2 -17 5 -10 6 20 0
26 -1 47 -4 47 -3 0 -5 -6 -5 -14z"/>
<path d="M2136 3331 c-3 -4 4 -7 14 -6 27 2 33 10 10 12 -11 1 -22 -2 -24 -6z"/>
<path d="M3453 3295 c0 -27 2 -38 4 -22 2 15 2 37 0 50 -2 12 -4 0 -4 -28z"/>
<path d="M4300 3326 c0 -7 -9 -16 -21 -19 -15 -4 -20 -12 -17 -28 2 -12 9 -24
16 -25 7 -1 8 0 2 3 -15 7 -12 43 4 43 8 0 17 -12 19 -27 2 -17 5 -10 6 20 0
26 -1 47 -4 47 -3 0 -5 -6 -5 -14z"/>
<path d="M5652 3295 c0 -35 2 -43 7 -26 9 35 29 37 34 4 5 -28 5 -28 3 2 0 19
-6 30 -16 30 -8 0 -18 9 -22 20 -3 12 -6 -1 -6 -30z"/>
<path d="M6270 3326 c0 -7 -9 -16 -21 -19 -15 -4 -20 -12 -17 -28 2 -12 9 -24
16 -25 7 -1 8 0 2 3 -15 7 -12 43 4 43 8 0 17 -12 19 -27 2 -17 5 -10 6 20 0
26 -1 47 -4 47 -3 0 -5 -6 -5 -14z"/>
<path d="M6610 3326 c0 -7 -9 -16 -21 -19 -15 -4 -20 -12 -17 -28 2 -12 9 -24
16 -25 7 -1 8 0 2 3 -15 7 -12 43 4 43 8 0 17 -12 19 -27 2 -17 5 -10 6 20 0
26 -1 47 -4 47 -3 0 -5 -6 -5 -14z"/>
<path d="M2478 3317 c-7 -19 6 -60 20 -63 7 -1 8 0 2 3 -12 6 -13 40 -1 45 5
2 3 8 -4 15 -10 9 -14 9 -17 0z"/>
<path d="M3238 3317 c-7 -19 6 -60 20 -63 7 -1 8 0 2 3 -12 6 -13 40 -1 45 5
2 3 8 -4 15 -10 9 -14 9 -17 0z"/>
<path d="M4458 3317 c-7 -19 6 -60 20 -63 7 -1 8 0 2 3 -12 6 -13 40 -1 45 5
2 3 8 -4 15 -10 9 -14 9 -17 0z"/>
<path d="M7328 3317 c-7 -19 6 -60 20 -63 7 -1 8 0 2 3 -12 6 -13 40 -1 45 5
2 3 8 -4 15 -10 9 -14 9 -17 0z"/>
<path d="M634 3295 c-9 -23 3 -45 23 -44 17 1 17 2 1 6 -10 2 -18 9 -18 14 0
5 8 9 18 10 14 0 14 2 -3 8 l-20 8 20 5 c17 5 17 6 2 7 -10 0 -20 -6 -23 -14z"/>
<path d="M734 3295 c-9 -23 3 -45 23 -44 17 1 17 2 1 6 -10 2 -18 13 -18 23 0
10 8 21 18 23 16 4 16 5 -1 6 -10 0 -20 -6 -23 -14z"/>
<path d="M794 3295 c-13 -32 23 -63 40 -36 4 5 -3 7 -14 4 -16 -4 -20 0 -20
17 0 17 4 21 20 17 11 -3 18 -1 14 4 -8 14 -34 11 -40 -6z"/>
<path d="M861 3276 c1 -28 2 -29 8 -7 9 34 29 37 34 6 4 -24 4 -24 3 2 -1 22
-6 28 -23 29 -19 1 -23 -4 -22 -30z"/>
<path d="M938 3303 c7 -3 16 -2 19 1 4 3 -2 6 -13 5 -11 0 -14 -3 -6 -6z"/>
<path d="M1017 3303 c-4 -3 -7 -12 -7 -20 0 -20 28 -15 40 7 9 17 8 20 -8 20
-10 0 -22 -3 -25 -7z m23 -13 c0 -5 -4 -10 -10 -10 -5 0 -10 5 -10 10 0 6 5
10 10 10 6 0 10 -4 10 -10z"/>
<path d="M1073 3286 c1 -17 9 -31 17 -33 10 -3 11 -2 4 4 -7 4 -14 19 -17 33
-4 22 -5 21 -4 -4z"/>
<path d="M1112 3280 c0 -19 2 -27 5 -17 2 9 2 25 0 35 -3 9 -5 1 -5 -18z"/>
<path d="M1141 3276 c1 -21 3 -25 6 -11 3 11 9 25 14 31 5 7 3 11 -6 11 -10 0
-15 -10 -14 -31z"/>
<path d="M1200 3301 l25 -7 -24 -6 c-28 -8 -23 -32 8 -36 19 -3 22 0 19 25 -2
22 -9 28 -28 30 l-25 2 25 -8z m20 -31 c0 -5 -7 -10 -15 -10 -8 0 -15 5 -15
10 0 6 7 10 15 10 8 0 15 -4 15 -10z"/>
<path d="M1254 3295 c-4 -8 -3 -23 2 -32 4 -10 6 -21 6 -25 -3 -15 16 -8 22 7
3 9 0 15 -9 15 -21 0 -19 38 3 43 16 4 16 5 -1 6 -10 0 -20 -6 -23 -14z"/>
<path d="M1320 3301 l25 -7 -24 -6 c-28 -8 -23 -32 8 -36 19 -3 22 0 19 25 -2
22 -9 28 -28 30 l-25 2 25 -8z m20 -31 c0 -5 -7 -10 -15 -10 -8 0 -15 5 -15
10 0 6 7 10 15 10 8 0 15 -4 15 -10z"/>
<path d="M1374 3295 c-13 -32 23 -63 40 -36 4 5 -3 7 -14 4 -16 -4 -20 0 -20
17 0 17 4 21 20 17 11 -3 18 -1 14 4 -8 14 -34 11 -40 -6z"/>
<path d="M1484 3295 c-8 -20 2 -45 18 -44 10 0 10 2 1 6 -18 7 -16 43 1 43 10
0 16 -13 19 -37 l4 -38 1 43 c2 36 -1 42 -18 42 -11 0 -23 -7 -26 -15z"/>
<path d="M1553 3286 c1 -17 9 -31 17 -33 10 -3 11 -2 4 4 -7 4 -14 19 -17 33
-4 22 -5 21 -4 -4z"/>
<path d="M1592 3280 c0 -19 2 -27 5 -17 2 9 2 25 0 35 -3 9 -5 1 -5 -18z"/>
<path d="M1624 3295 c-9 -23 3 -45 23 -44 17 1 17 2 1 6 -10 2 -18 9 -18 14 0
5 8 9 18 10 14 0 14 2 -3 8 l-20 8 20 5 c17 5 17 6 2 7 -10 0 -20 -6 -23 -14z"/>
<path d="M1740 3301 l25 -7 -24 -6 c-28 -8 -23 -32 8 -36 19 -3 22 0 19 25 -2
22 -9 28 -28 30 l-25 2 25 -8z m20 -31 c0 -5 -7 -10 -15 -10 -8 0 -15 5 -15
10 0 6 7 10 15 10 8 0 15 -4 15 -10z"/>
<path d="M1831 3276 c1 -28 2 -29 8 -7 9 34 29 37 34 6 4 -24 4 -24 3 2 -1 22
-6 28 -23 29 -19 1 -23 -4 -22 -30z"/>
<path d="M1980 3301 l25 -7 -24 -6 c-28 -8 -23 -32 8 -36 19 -3 22 0 19 25 -2
22 -9 28 -28 30 l-25 2 25 -8z m20 -31 c0 -5 -7 -10 -15 -10 -8 0 -15 5 -15
10 0 6 7 10 15 10 8 0 15 -4 15 -10z"/>
<path d="M2071 3276 c1 -28 2 -29 8 -7 9 34 29 37 34 6 4 -24 4 -24 3 2 -1 22
-6 28 -23 29 -19 1 -23 -4 -22 -30z"/>
<path d="M2150 3301 l25 -7 -24 -6 c-28 -8 -23 -32 8 -36 19 -3 22 0 19 25 -2
22 -9 28 -28 30 l-25 2 25 -8z m20 -31 c0 -5 -7 -10 -15 -10 -8 0 -15 5 -15
10 0 6 7 10 15 10 8 0 15 -4 15 -10z"/>
<path d="M2204 3295 c-13 -32 23 -63 40 -36 4 5 -3 7 -14 4 -16 -4 -20 0 -20
17 0 17 4 21 20 17 11 -3 18 -1 14 4 -8 14 -34 11 -40 -6z"/>
<path d="M2330 3301 l25 -7 -24 -6 c-28 -8 -23 -32 8 -36 19 -3 22 0 19 25 -2
22 -9 28 -28 30 l-25 2 25 -8z m20 -31 c0 -5 -7 -10 -15 -10 -8 0 -15 5 -15
10 0 6 7 10 15 10 8 0 15 -4 15 -10z"/>
<path d="M2388 3303 c7 -3 16 -2 19 1 4 3 -2 6 -13 5 -11 0 -14 -3 -6 -6z"/>
<path d="M2424 3295 c-9 -23 3 -45 23 -44 17 1 17 2 1 6 -10 2 -18 9 -18 14 0
5 8 9 18 10 14 0 14 2 -3 8 l-20 8 20 5 c17 5 17 6 2 7 -10 0 -20 -6 -23 -14z"/>
<path d="M2524 3295 c-13 -32 23 -63 40 -36 4 5 -3 7 -14 4 -16 -4 -20 0 -20
17 0 17 4 21 20 17 11 -3 18 -1 14 4 -8 14 -34 11 -40 -6z"/>
<path d="M2593 3286 c1 -17 9 -31 17 -33 10 -3 11 -2 4 4 -7 4 -14 19 -17 33
-4 22 -5 21 -4 -4z"/>
<path d="M2632 3280 c0 -19 2 -27 5 -17 2 9 2 25 0 35 -3 9 -5 1 -5 -18z"/>
<path d="M2704 3295 c-13 -32 23 -63 40 -36 4 5 -3 7 -14 4 -16 -4 -20 0 -20
17 0 17 4 21 20 17 11 -3 18 -1 14 4 -8 14 -34 11 -40 -6z"/>
<path d="M2810 3296 c0 -8 8 -17 18 -21 16 -7 15 -8 -3 -15 -19 -8 -19 -9 3
-9 26 -1 30 24 5 34 -17 7 -16 8 2 15 19 8 19 9 -2 9 -13 1 -23 -5 -23 -13z"/>
<path d="M2874 3295 c-9 -23 3 -45 23 -44 17 1 17 2 1 6 -10 2 -18 9 -18 14 0
5 8 9 18 10 14 0 14 2 -3 8 l-20 8 20 5 c17 5 17 6 2 7 -10 0 -20 -6 -23 -14z"/>
<path d="M2931 3276 c1 -21 3 -25 6 -11 3 11 9 25 14 31 5 7 3 11 -6 11 -10 0
-15 -10 -14 -31z"/>
<path d="M3015 3299 c-4 -6 -5 -12 -2 -15 2 -3 7 2 10 11 7 17 1 20 -8 4z"/>
<path d="M3074 3295 c-4 -8 -3 -23 2 -32 4 -10 6 -21 6 -25 -3 -15 16 -8 22 7
3 9 0 15 -9 15 -21 0 -19 38 3 43 16 4 16 5 -1 6 -10 0 -20 -6 -23 -14z"/>
<path d="M3134 3295 c-13 -32 23 -63 40 -36 4 5 -3 7 -14 4 -16 -4 -20 0 -20
17 0 17 4 21 20 17 11 -3 18 -1 14 4 -8 14 -34 11 -40 -6z"/>
<path d="M3300 3301 l25 -7 -24 -6 c-28 -8 -23 -32 8 -36 19 -3 22 0 19 25 -2
22 -9 28 -28 30 l-25 2 25 -8z m20 -31 c0 -5 -7 -10 -15 -10 -8 0 -15 5 -15
10 0 6 7 10 15 10 8 0 15 -4 15 -10z"/>
<path d="M3352 3280 c0 -19 2 -27 5 -17 2 9 2 25 0 35 -3 9 -5 1 -5 -18z"/>
<path d="M3377 3302 c6 -4 13 -18 16 -32 4 -25 4 -25 6 3 1 34 18 36 24 2 4
-23 4 -23 3 2 -1 23 -6 28 -31 30 -16 1 -25 -1 -18 -5z"/>
<path d="M3470 3306 c0 -2 7 -7 16 -10 8 -3 12 -2 9 4 -6 10 -25 14 -25 6z"/>
<path d="M3524 3295 c-9 -23 3 -45 23 -44 17 1 17 2 1 6 -10 2 -18 9 -18 14 0
5 8 9 18 10 14 0 14 2 -3 8 l-20 8 20 5 c17 5 17 6 2 7 -10 0 -20 -6 -23 -14z"/>
<path d="M3582 3280 c0 -19 2 -27 5 -17 2 9 2 25 0 35 -3 9 -5 1 -5 -18z"/>
<path d="M3607 3302 c6 -4 13 -18 16 -32 4 -25 4 -25 6 3 1 34 18 36 24 2 4
-23 4 -23 3 2 -1 23 -6 28 -31 30 -16 1 -25 -1 -18 -5z"/>
<path d="M3734 3295 c-9 -23 3 -45 23 -44 17 1 17 2 1 6 -10 2 -18 9 -18 14 0
5 8 9 18 10 14 0 14 2 -3 8 l-20 8 20 5 c17 5 17 6 2 7 -10 0 -20 -6 -23 -14z"/>
<path d="M3833 3286 c1 -17 9 -31 17 -33 10 -3 11 -2 4 4 -7 4 -14 19 -17 33
-4 22 -5 21 -4 -4z"/>
<path d="M3872 3280 c0 -19 2 -27 5 -17 2 9 2 25 0 35 -3 9 -5 1 -5 -18z"/>
<path d="M3912 3280 c0 -19 2 -27 5 -17 2 9 2 25 0 35 -3 9 -5 1 -5 -18z"/>
<path d="M3937 3302 c6 -4 13 -18 16 -32 4 -25 4 -25 6 3 1 34 18 36 24 2 4
-23 4 -23 3 2 -1 23 -6 28 -31 30 -16 1 -25 -1 -18 -5z"/>
<path d="M4091 3276 c1 -28 2 -29 8 -7 9 34 29 37 34 6 4 -24 4 -24 3 2 -1 22
-6 28 -23 29 -19 1 -23 -4 -22 -30z"/>
<path d="M4164 3295 c-9 -23 3 -45 23 -44 17 1 17 2 1 6 -10 2 -18 13 -18 23
0 10 8 21 18 23 16 4 16 5 -1 6 -10 0 -20 -6 -23 -14z"/>
<path d="M4334 3295 c-9 -23 3 -45 23 -44 17 1 17 2 1 6 -10 2 -18 9 -18 14 0
5 8 9 18 10 14 0 14 2 -3 8 l-20 8 20 5 c17 5 17 6 2 7 -10 0 -20 -6 -23 -14z"/>
<path d="M4391 3276 c1 -28 2 -29 8 -7 9 34 29 37 34 6 4 -24 4 -24 3 2 -1 22
-6 28 -23 29 -19 1 -23 -4 -22 -30z"/>
<path d="M4504 3295 c-9 -23 3 -45 23 -44 17 1 17 2 1 6 -10 2 -18 9 -18 14 0
5 8 9 18 10 14 0 14 2 -3 8 l-20 8 20 5 c17 5 17 6 2 7 -10 0 -20 -6 -23 -14z"/>
<path d="M4633 3270 c0 -25 2 -35 4 -22 2 12 2 32 0 45 -2 12 -4 2 -4 -23z"/>
<path d="M4650 3306 c0 -2 7 -7 16 -10 8 -3 12 -2 9 4 -6 10 -25 14 -25 6z"/>
<path d="M4704 3295 c-13 -32 23 -63 40 -36 4 5 -3 7 -14 4 -16 -4 -20 0 -20
17 0 17 4 21 20 17 11 -3 18 -1 14 4 -8 14 -34 11 -40 -6z"/>
<path d="M4771 3276 c1 -21 3 -25 6 -11 3 11 9 25 14 31 5 7 3 11 -6 11 -10 0
-15 -10 -14 -31z"/>
<path d="M4864 3295 c-9 -23 3 -45 23 -44 17 1 17 2 1 6 -10 2 -18 9 -18 14 0
5 8 9 18 10 14 0 14 2 -3 8 l-20 8 20 5 c17 5 17 6 2 7 -10 0 -20 -6 -23 -14z"/>
<path d="M4984 3295 c-9 -23 3 -45 23 -44 17 1 17 2 1 6 -10 2 -18 9 -18 14 0
5 8 9 18 10 14 0 14 2 -3 8 l-20 8 20 5 c17 5 17 6 2 7 -10 0 -20 -6 -23 -14z"/>
<path d="M5052 3280 c0 -19 2 -27 5 -17 2 9 2 25 0 35 -3 9 -5 1 -5 -18z"/>
<path d="M5077 3302 c6 -4 13 -18 16 -32 4 -25 4 -25 6 3 1 34 18 36 24 2 4
-23 4 -23 3 2 -1 23 -6 28 -31 30 -16 1 -25 -1 -18 -5z"/>
<path d="M5153 3270 c0 -25 2 -35 4 -22 2 12 2 32 0 45 -2 12 -4 2 -4 -23z"/>
<path d="M5170 3306 c0 -2 7 -7 16 -10 8 -3 12 -2 9 4 -6 10 -25 14 -25 6z"/>
<path d="M5264 3295 c-13 -32 23 -63 40 -36 4 5 -3 7 -14 4 -16 -4 -20 0 -20
17 0 17 4 21 20 17 11 -3 18 -1 14 4 -8 14 -34 11 -40 -6z"/>
<path d="M5420 3301 l25 -7 -24 -6 c-28 -8 -23 -32 8 -36 19 -3 22 0 19 25 -2
22 -9 28 -28 30 l-25 2 25 -8z m20 -31 c0 -5 -7 -10 -15 -10 -8 0 -15 5 -15
10 0 6 7 10 15 10 8 0 15 -4 15 -10z"/>
<path d="M5518 3303 c7 -3 16 -2 19 1 4 3 -2 6 -13 5 -11 0 -14 -3 -6 -6z"/>
<path d="M5570 3301 l25 -7 -24 -6 c-28 -8 -23 -32 8 -36 19 -3 22 0 19 25 -2
22 -9 28 -28 30 l-25 2 25 -8z m20 -31 c0 -5 -7 -10 -15 -10 -8 0 -15 5 -15
10 0 6 7 10 15 10 8 0 15 -4 15 -10z"/>
<path d="M5730 3301 l25 -7 -24 -6 c-28 -8 -23 -32 8 -36 19 -3 22 0 19 25 -2
22 -9 28 -28 30 l-25 2 25 -8z m20 -31 c0 -5 -7 -10 -15 -10 -8 0 -15 5 -15
10 0 6 7 10 15 10 8 0 15 -4 15 -10z"/>
<path d="M5824 3295 c-9 -23 3 -45 23 -44 17 1 17 2 1 6 -10 2 -18 9 -18 14 0
5 8 9 18 10 14 0 14 2 -3 8 l-20 8 20 5 c17 5 17 6 2 7 -10 0 -20 -6 -23 -14z"/>
<path d="M5882 3280 c0 -19 2 -27 5 -17 2 9 2 25 0 35 -3 9 -5 1 -5 -18z"/>
<path d="M5907 3302 c6 -4 13 -18 16 -32 4 -25 4 -25 6 3 1 34 18 36 24 2 4
-23 4 -23 3 2 -1 23 -6 28 -31 30 -16 1 -25 -1 -18 -5z"/>
<path d="M6023 3286 c1 -17 9 -31 17 -33 10 -3 11 -2 4 4 -7 4 -14 19 -17 33
-4 22 -5 21 -4 -4z"/>
<path d="M6062 3280 c0 -19 2 -27 5 -17 2 9 2 25 0 35 -3 9 -5 1 -5 -18z"/>
<path d="M6092 3280 c0 -19 2 -27 5 -17 2 9 2 25 0 35 -3 9 -5 1 -5 -18z"/>
<path d="M6117 3302 c6 -4 13 -18 16 -32 4 -25 4 -25 6 3 1 34 18 36 24 2 4
-23 4 -23 3 2 -1 23 -6 28 -31 30 -16 1 -25 -1 -18 -5z"/>
<path d="M6340 3296 c0 -8 8 -17 18 -21 16 -7 15 -8 -3 -15 -19 -8 -19 -9 3
-9 26 -1 30 24 5 34 -17 7 -16 8 2 15 19 8 19 9 -2 9 -13 1 -23 -5 -23 -13z"/>
<path d="M6404 3295 c-9 -23 3 -45 23 -44 17 1 17 2 1 6 -10 2 -18 13 -18 23
0 10 8 21 18 23 16 4 16 5 -1 6 -10 0 -20 -6 -23 -14z"/>
<path d="M6464 3295 c-13 -32 23 -63 40 -36 4 5 -3 7 -14 4 -16 -4 -20 0 -20
17 0 17 4 21 20 17 11 -3 18 -1 14 4 -8 14 -34 11 -40 -6z"/>
<path d="M6644 3295 c-9 -23 3 -45 23 -44 17 1 17 2 1 6 -10 2 -18 9 -18 14 0
5 8 9 18 10 14 0 14 2 -3 8 l-20 8 20 5 c17 5 17 6 2 7 -10 0 -20 -6 -23 -14z"/>
<path d="M6743 3286 c1 -17 9 -31 17 -33 10 -3 11 -2 4 4 -7 4 -14 19 -17 33
-4 22 -5 21 -4 -4z"/>
<path d="M6782 3280 c0 -19 2 -27 5 -17 2 9 2 25 0 35 -3 9 -5 1 -5 -18z"/>
<path d="M6812 3280 c0 -19 2 -27 5 -17 2 9 2 25 0 35 -3 9 -5 1 -5 -18z"/>
<path d="M6837 3302 c6 -4 13 -18 16 -32 4 -25 4 -25 6 3 1 34 18 36 24 2 4
-23 4 -23 3 2 -1 23 -6 28 -31 30 -16 1 -25 -1 -18 -5z"/>
<path d="M6954 3295 c-9 -23 3 -45 23 -44 17 1 17 2 1 6 -10 2 -18 13 -18 23
0 10 8 21 18 23 16 4 16 5 -1 6 -10 0 -20 -6 -23 -14z"/>
<path d="M7014 3295 c-13 -32 23 -63 40 -36 4 5 -3 7 -14 4 -16 -4 -20 0 -20
17 0 17 4 21 20 17 11 -3 18 -1 14 4 -8 14 -34 11 -40 -6z"/>
<path d="M7081 3276 c1 -28 2 -29 8 -7 9 34 29 37 34 6 4 -24 4 -24 3 2 -1 22
-6 28 -23 29 -19 1 -23 -4 -22 -30z"/>
<path d="M7193 3286 c1 -17 9 -31 17 -33 10 -3 11 -2 4 4 -7 4 -14 19 -17 33
-4 22 -5 21 -4 -4z"/>
<path d="M7232 3280 c0 -19 2 -27 5 -17 2 9 2 25 0 35 -3 9 -5 1 -5 -18z"/>
<path d="M7261 3276 c1 -28 2 -29 8 -7 9 34 29 37 34 6 4 -24 4 -24 3 2 -1 22
-6 28 -23 29 -19 1 -23 -4 -22 -30z"/>
<path d="M7374 3295 c-13 -32 23 -63 40 -36 4 5 -3 7 -14 4 -16 -4 -20 0 -20
17 0 17 4 21 20 17 11 -3 18 -1 14 4 -8 14 -34 11 -40 -6z"/>
<path d="M4926 3274 c-9 -24 -7 -31 4 -14 9 13 11 13 20 0 11 -17 13 -10 4 14
-3 9 -10 16 -14 16 -4 0 -11 -7 -14 -16z"/>
<path d="M2990 3260 c0 -5 5 -10 10 -10 6 0 10 5 10 10 0 6 -4 10 -10 10 -5 0
-10 -4 -10 -10z"/>
<path d="M3480 3260 c-9 -6 -10 -10 -3 -10 6 0 15 5 18 10 8 12 4 12 -15 0z"/>
<path d="M4660 3260 c-9 -6 -10 -10 -3 -10 6 0 15 5 18 10 8 12 4 12 -15 0z"/>
<path d="M5180 3260 c-9 -6 -10 -10 -3 -10 6 0 15 5 18 10 8 12 4 12 -15 0z"/>
<path d="M1030 3251 c23 -7 23 -8 5 -13 l-20 -5 20 1 c29 1 25 21 -5 23 l-25
2 25 -8z"/>
<path d="M852 3055 c0 -35 2 -43 7 -26 9 35 29 37 34 4 5 -28 5 -28 3 2 0 19
-6 30 -16 30 -8 0 -18 9 -22 20 -3 12 -6 -1 -6 -30z"/>
<path d="M1030 3086 c0 -7 -9 -16 -21 -19 -15 -4 -20 -12 -17 -28 2 -12 9 -24
16 -25 7 -1 8 0 2 3 -15 7 -12 43 4 43 8 0 17 -12 19 -27 2 -17 5 -10 6 20 0
26 -1 47 -4 47 -3 0 -5 -6 -5 -14z"/>
<path d="M564 3055 c-9 -23 3 -45 23 -44 17 1 17 2 1 6 -10 2 -18 9 -18 14 0
5 8 9 18 10 14 0 14 2 -3 8 l-20 8 20 5 c17 5 17 6 2 7 -10 0 -20 -6 -23 -14z"/>
<path d="M620 3056 c0 -8 8 -17 18 -21 16 -7 15 -8 -3 -15 -19 -8 -19 -9 3 -9
26 -1 30 24 5 34 -17 7 -16 8 2 15 19 8 19 9 -2 9 -13 1 -23 -5 -23 -13z"/>
<path d="M683 3030 c0 -25 2 -35 4 -22 2 12 2 32 0 45 -2 12 -4 2 -4 -23z"/>
<path d="M700 3066 c0 -2 7 -7 16 -10 8 -3 12 -2 9 4 -6 10 -25 14 -25 6z"/>
<path d="M754 3055 c-9 -23 3 -45 23 -44 17 1 17 2 1 6 -10 2 -18 9 -18 14 0
5 8 9 18 10 14 0 14 2 -3 8 l-20 8 20 5 c17 5 17 6 2 7 -10 0 -20 -6 -23 -14z"/>
<path d="M940 3061 l25 -7 -24 -6 c-28 -8 -23 -32 8 -36 19 -3 22 0 19 25 -2
22 -9 28 -28 30 l-25 2 25 -8z m20 -31 c0 -5 -7 -10 -15 -10 -8 0 -15 5 -15
10 0 6 7 10 15 10 8 0 15 -4 15 -10z"/>
<path d="M1064 3055 c-13 -32 23 -63 40 -36 4 5 -3 7 -14 4 -16 -4 -20 0 -20
17 0 17 4 21 20 17 11 -3 18 -1 14 4 -8 14 -34 11 -40 -6z"/>
<path d="M710 3020 c-9 -6 -10 -10 -3 -10 6 0 15 5 18 10 8 12 4 12 -15 0z"/>
<path d="M1246 2631 c-3 -4 4 -7 14 -6 27 2 33 10 10 12 -11 1 -22 -2 -24 -6z"/>
<path d="M1616 2611 c-3 -4 4 -7 14 -6 27 2 33 10 10 12 -11 1 -22 -2 -24 -6z"/>
<path d="M2270 2616 c0 -2 7 -7 16 -10 8 -3 12 -2 9 4 -6 10 -25 14 -25 6z"/>
<path d="M2550 2606 c0 -7 -9 -16 -21 -19 -15 -4 -20 -12 -17 -28 2 -12 9 -24
16 -25 7 -1 8 0 2 3 -15 7 -12 43 4 43 8 0 17 -12 19 -27 2 -17 5 -10 6 20 0
26 -1 47 -4 47 -3 0 -5 -6 -5 -14z"/>
<path d="M2980 2606 c0 -7 -9 -16 -21 -19 -15 -4 -20 -12 -17 -28 2 -12 9 -24
16 -25 7 -1 8 0 2 3 -15 7 -12 43 4 43 8 0 17 -12 19 -27 2 -17 5 -10 6 20 0
26 -1 47 -4 47 -3 0 -5 -6 -5 -14z"/>
<path d="M3796 2611 c-3 -4 4 -7 14 -6 27 2 33 10 10 12 -11 1 -22 -2 -24 -6z"/>
<path d="M4550 2606 c0 -7 -9 -16 -21 -19 -15 -4 -20 -12 -17 -28 2 -12 9 -24
16 -25 7 -1 8 0 2 3 -15 7 -12 43 4 43 8 0 17 -12 19 -27 2 -17 5 -10 6 20 0
26 -1 47 -4 47 -3 0 -5 -6 -5 -14z"/>
<path d="M5670 2606 c0 -7 -9 -16 -21 -19 -15 -4 -20 -12 -17 -28 2 -12 9 -24
16 -25 7 -1 8 0 2 3 -15 7 -12 43 4 43 8 0 17 -12 19 -27 2 -17 5 -10 6 20 0
26 -1 47 -4 47 -3 0 -5 -6 -5 -14z"/>
<path d="M6050 2606 c0 -7 -9 -16 -21 -19 -15 -4 -20 -12 -17 -28 2 -12 9 -24
16 -25 7 -1 8 0 2 3 -15 7 -12 43 4 43 8 0 17 -12 19 -27 2 -17 5 -10 6 20 0
26 -1 47 -4 47 -3 0 -5 -6 -5 -14z"/>
<path d="M6732 2575 c0 -35 2 -43 7 -26 9 35 29 37 34 4 5 -28 5 -28 3 2 0 19
-6 30 -16 30 -8 0 -18 9 -22 20 -3 12 -6 -1 -6 -30z"/>
<path d="M721 2568 c1 -24 4 -33 6 -20 5 27 23 29 30 2 3 -11 10 -20 15 -20 5
0 6 5 2 11 -4 7 -7 25 -6 40 1 24 -3 29 -24 29 -22 0 -24 -4 -23 -42z m39 22
c0 -5 -7 -10 -15 -10 -8 0 -15 5 -15 10 0 6 7 10 15 10 8 0 15 -4 15 -10z"/>
<path d="M790 2570 c0 -37 2 -40 28 -39 23 2 24 2 5 6 -27 5 -31 30 -5 36 16
4 16 5 0 6 -26 2 -22 19 5 24 19 4 18 4 -5 6 -26 1 -28 -2 -28 -39z"/>
<path d="M862 2601 c-8 -4 -12 -21 -10 -37 2 -24 8 -30 38 -34 l36 -6 -6 40
c-5 42 -28 57 -58 37z m43 -31 c0 -16 -6 -26 -18 -28 -19 -4 -32 20 -23 44 9
25 41 13 41 -16z"/>
<path d="M953 2575 c2 -36 5 -40 27 -40 22 0 25 4 27 40 l1 40 -6 -35 c-4 -22
-13 -35 -22 -35 -9 0 -18 13 -22 35 l-6 35 1 -40z"/>
<path d="M1033 2570 c0 -25 2 -35 4 -22 2 12 2 32 0 45 -2 12 -4 2 -4 -23z"/>
<path d="M1073 2594 c-4 -10 0 -20 10 -26 22 -12 22 -25 0 -31 -14 -4 -13 -5
3 -6 30 -1 38 26 14 41 -25 16 -25 25 -2 31 16 4 16 5 -1 6 -10 0 -20 -6 -24
-15z"/>
<path d="M1133 2570 c0 -25 2 -35 4 -22 2 12 2 32 0 45 -2 12 -4 2 -4 -23z"/>
<path d="M1173 2603 c-18 -7 -16 -62 2 -69 8 -4 12 -10 9 -15 -3 -5 -1 -9 3
-9 5 0 13 8 20 18 9 16 8 18 -11 18 -31 -1 -35 41 -4 53 13 6 16 10 8 10 -8
-1 -21 -3 -27 -6z"/>
<path d="M1242 2601 c-8 -4 -12 -21 -10 -37 3 -25 7 -29 33 -29 28 0 30 3 30
35 0 27 -4 36 -20 38 -11 1 -26 -2 -33 -7z m43 -31 c0 -29 -32 -41 -41 -16 -9
24 4 48 23 44 12 -2 18 -12 18 -28z"/>
<path d="M1320 2570 c0 -37 2 -40 28 -39 23 2 24 2 5 6 -27 5 -31 30 -5 36 16
4 16 5 0 6 -26 2 -22 19 5 24 19 4 18 4 -5 6 -26 1 -28 -2 -28 -39z"/>
<path d="M1393 2594 c-4 -10 0 -20 10 -26 22 -12 22 -25 0 -31 -14 -4 -13 -5
3 -6 30 -1 38 26 14 41 -25 16 -25 25 -2 31 16 4 16 5 -1 6 -10 0 -20 -6 -24
-15z"/>
<path d="M1555 2600 c-8 -12 12 -40 28 -40 6 0 2 7 -9 15 -16 13 -17 16 -4 25
9 6 10 10 3 10 -6 0 -15 -5 -18 -10z"/>
<path d="M2088 2597 c-7 -19 6 -60 20 -63 7 -1 8 0 2 3 -12 6 -13 40 -1 45 5
2 3 8 -4 15 -10 9 -14 9 -17 0z"/>
<path d="M2768 2597 c-7 -19 6 -60 20 -63 7 -1 8 0 2 3 -12 6 -13 40 -1 45 5
2 3 8 -4 15 -10 9 -14 9 -17 0z"/>
<path d="M3278 2597 c-7 -19 6 -60 20 -63 7 -1 8 0 2 3 -12 6 -13 40 -1 45 5
2 3 8 -4 15 -10 9 -14 9 -17 0z"/>
<path d="M5178 2597 c-7 -19 6 -60 20 -63 7 -1 8 0 2 3 -12 6 -13 40 -1 45 5
2 3 8 -4 15 -10 9 -14 9 -17 0z"/>
<path d="M6208 2597 c-7 -19 6 -60 20 -63 7 -1 8 0 2 3 -12 6 -13 40 -1 45 5
2 3 8 -4 15 -10 9 -14 9 -17 0z"/>
<path d="M6558 2597 c-7 -19 6 -60 20 -63 7 -1 8 0 2 3 -12 6 -13 40 -1 45 5
2 3 8 -4 15 -10 9 -14 9 -17 0z"/>
<path d="M1630 2581 l25 -7 -24 -6 c-28 -8 -23 -32 8 -36 19 -3 22 0 19 25 -2
22 -9 28 -28 30 l-25 2 25 -8z m20 -31 c0 -5 -7 -10 -15 -10 -8 0 -15 5 -15
10 0 6 7 10 15 10 8 0 15 -4 15 -10z"/>
<path d="M1684 2575 c-13 -32 23 -63 40 -36 4 5 -3 7 -14 4 -16 -4 -20 0 -20
17 0 17 4 21 20 17 11 -3 18 -1 14 4 -8 14 -34 11 -40 -6z"/>
<path d="M1810 2576 c0 -8 8 -17 18 -21 16 -7 15 -8 -3 -15 -19 -8 -19 -9 3
-9 26 -1 30 24 5 34 -17 7 -16 8 2 15 19 8 19 9 -2 9 -13 1 -23 -5 -23 -13z"/>
<path d="M1874 2575 c-13 -32 23 -63 40 -36 4 5 -3 7 -14 4 -16 -4 -20 0 -20
17 0 17 4 21 20 17 11 -3 18 -1 14 4 -8 14 -34 11 -40 -6z"/>
<path d="M2004 2575 c-9 -23 3 -45 23 -44 17 1 17 2 1 6 -10 2 -18 13 -18 23
0 10 8 21 18 23 16 4 16 5 -1 6 -10 0 -20 -6 -23 -14z"/>
<path d="M2150 2581 l25 -7 -24 -6 c-28 -8 -23 -32 8 -36 19 -3 22 0 19 25 -2
22 -9 28 -28 30 l-25 2 25 -8z m20 -31 c0 -5 -7 -10 -15 -10 -8 0 -15 5 -15
10 0 6 7 10 15 10 8 0 15 -4 15 -10z"/>
<path d="M2204 2575 c-4 -8 -3 -23 2 -32 4 -10 6 -21 6 -25 -3 -15 16 -8 22 7
3 9 0 15 -9 15 -21 0 -19 38 3 43 16 4 16 5 -1 6 -10 0 -20 -6 -23 -14z"/>
<path d="M2264 2575 c-13 -32 23 -63 40 -36 4 5 -3 7 -14 4 -16 -4 -20 0 -20
17 0 17 4 21 20 17 11 -3 18 -1 14 4 -8 14 -34 11 -40 -6z"/>
<path d="M2334 2575 c-9 -23 3 -45 23 -44 17 1 17 2 1 6 -10 2 -18 9 -18 14 0
5 8 9 18 10 14 0 14 2 -3 8 l-20 8 20 5 c17 5 17 6 2 7 -10 0 -20 -6 -23 -14z"/>
<path d="M2390 2576 c0 -8 8 -17 18 -21 16 -7 15 -8 -3 -15 -19 -8 -19 -9 3
-9 26 -1 30 24 5 34 -17 7 -16 8 2 15 19 8 19 9 -2 9 -13 1 -23 -5 -23 -13z"/>
<path d="M2584 2575 c-9 -23 3 -45 23 -44 17 1 17 2 1 6 -10 2 -18 9 -18 14 0
5 8 9 18 10 14 0 14 2 -3 8 l-20 8 20 5 c17 5 17 6 2 7 -10 0 -20 -6 -23 -14z"/>
<path d="M2720 2581 l25 -7 -24 -6 c-28 -8 -23 -32 8 -36 19 -3 22 0 19 25 -2
22 -9 28 -28 30 l-25 2 25 -8z m20 -31 c0 -5 -7 -10 -15 -10 -8 0 -15 5 -15
10 0 6 7 10 15 10 8 0 15 -4 15 -10z"/>
<path d="M2814 2575 c-9 -23 3 -45 23 -44 17 1 17 2 1 6 -10 2 -18 9 -18 14 0
5 8 9 18 10 14 0 14 2 -3 8 l-20 8 20 5 c17 5 17 6 2 7 -10 0 -20 -6 -23 -14z"/>
<path d="M2871 2556 c1 -28 2 -29 8 -7 9 34 29 37 34 6 4 -24 4 -24 3 2 -1 22
-6 28 -23 29 -19 1 -23 -4 -22 -30z"/>
<path d="M3052 2560 c0 -19 2 -27 5 -17 2 9 2 25 0 35 -3 9 -5 1 -5 -18z"/>
<path d="M3077 2582 c6 -4 13 -18 16 -32 4 -25 4 -25 6 3 1 34 18 36 24 2 4
-23 4 -23 3 2 -1 23 -6 28 -31 30 -16 1 -25 -1 -18 -5z"/>
<path d="M3154 2575 c-9 -23 3 -45 23 -44 17 1 17 2 1 6 -10 2 -18 9 -18 14 0
5 8 9 18 10 14 0 14 2 -3 8 l-20 8 20 5 c17 5 17 6 2 7 -10 0 -20 -6 -23 -14z"/>
<path d="M3211 2556 c1 -28 2 -29 8 -7 9 34 29 37 34 6 4 -24 4 -24 3 2 -1 22
-6 28 -23 29 -19 1 -23 -4 -22 -30z"/>
<path d="M3324 2575 c-13 -32 23 -63 40 -36 4 5 -3 7 -14 4 -16 -4 -20 0 -20
17 0 17 4 21 20 17 11 -3 18 -1 14 4 -8 14 -34 11 -40 -6z"/>
<path d="M3454 2575 c-8 -20 2 -45 18 -44 10 0 10 2 1 6 -18 7 -16 43 1 43 10
0 16 -13 19 -37 l4 -38 1 43 c2 36 -1 42 -18 42 -11 0 -23 -7 -26 -15z"/>
<path d="M3523 2566 c1 -17 9 -31 17 -33 10 -3 11 -2 4 4 -7 4 -14 19 -17 33
-4 22 -5 21 -4 -4z"/>
<path d="M3562 2560 c0 -19 2 -27 5 -17 2 9 2 25 0 35 -3 9 -5 1 -5 -18z"/>
<path d="M3594 2575 c-9 -23 3 -45 23 -44 17 1 17 2 1 6 -10 2 -18 9 -18 14 0
5 8 9 18 10 14 0 14 2 -3 8 l-20 8 20 5 c17 5 17 6 2 7 -10 0 -20 -6 -23 -14z"/>
<path d="M3721 2556 c1 -28 2 -29 8 -7 9 34 29 37 34 6 4 -24 4 -24 3 2 -1 22
-6 28 -23 29 -19 1 -23 -4 -22 -30z"/>
<path d="M3810 2581 l25 -7 -24 -6 c-28 -8 -23 -32 8 -36 19 -3 22 0 19 25 -2
22 -9 28 -28 30 l-25 2 25 -8z m20 -31 c0 -5 -7 -10 -15 -10 -8 0 -15 5 -15
10 0 6 7 10 15 10 8 0 15 -4 15 -10z"/>
<path d="M3864 2575 c-13 -32 23 -63 40 -36 4 5 -3 7 -14 4 -16 -4 -20 0 -20
17 0 17 4 21 20 17 11 -3 18 -1 14 4 -8 14 -34 11 -40 -6z"/>
<path d="M3990 2576 c0 -8 8 -17 18 -21 16 -7 15 -8 -3 -15 -19 -8 -19 -9 3
-9 26 -1 30 24 5 34 -17 7 -16 8 2 15 19 8 19 9 -2 9 -13 1 -23 -5 -23 -13z"/>
<path d="M4054 2575 c-9 -23 3 -45 23 -44 17 1 17 2 1 6 -10 2 -18 9 -18 14 0
5 8 9 18 10 14 0 14 2 -3 8 l-20 8 20 5 c17 5 17 6 2 7 -10 0 -20 -6 -23 -14z"/>
<path d="M4174 2575 c-9 -23 3 -45 23 -44 17 1 17 2 1 6 -10 2 -18 9 -18 14 0
5 8 9 18 10 14 0 14 2 -3 8 l-20 8 20 5 c17 5 17 6 2 7 -10 0 -20 -6 -23 -14z"/>
<path d="M4231 2556 c1 -28 2 -29 8 -7 9 34 29 37 34 6 4 -24 4 -24 3 2 -1 22
-6 28 -23 29 -19 1 -23 -4 -22 -30z"/>
<path d="M4304 2575 c-8 -20 2 -45 18 -44 10 0 10 2 1 6 -18 7 -16 43 1 43 10
0 16 -13 19 -37 l4 -38 1 43 c2 36 -1 42 -18 42 -11 0 -23 -7 -26 -15z"/>
<path d="M4373 2566 c1 -17 9 -31 17 -33 10 -3 11 -2 4 4 -7 4 -14 19 -17 33
-4 22 -5 21 -4 -4z"/>
<path d="M4412 2560 c0 -19 2 -27 5 -17 2 9 2 25 0 35 -3 9 -5 1 -5 -18z"/>
<path d="M4460 2581 l25 -7 -24 -6 c-28 -8 -23 -32 8 -36 19 -3 22 0 19 25 -2
22 -9 28 -28 30 l-25 2 25 -8z m20 -31 c0 -5 -7 -10 -15 -10 -8 0 -15 5 -15
10 0 6 7 10 15 10 8 0 15 -4 15 -10z"/>
<path d="M4581 2556 c1 -21 3 -25 6 -11 3 11 9 25 14 31 5 7 3 11 -6 11 -10 0
-15 -10 -14 -31z"/>
<path d="M4650 2581 l25 -7 -24 -6 c-28 -8 -23 -32 8 -36 19 -3 22 0 19 25 -2
22 -9 28 -28 30 l-25 2 25 -8z m20 -31 c0 -5 -7 -10 -15 -10 -8 0 -15 5 -15
10 0 6 7 10 15 10 8 0 15 -4 15 -10z"/>
<path d="M4702 2560 c0 -19 2 -27 5 -17 2 9 2 25 0 35 -3 9 -5 1 -5 -18z"/>
<path d="M4727 2582 c6 -4 13 -18 16 -32 4 -25 4 -25 6 3 1 34 18 36 24 2 4
-23 4 -23 3 2 -1 23 -6 28 -31 30 -16 1 -25 -1 -18 -5z"/>
<path d="M4861 2556 c1 -28 2 -29 8 -7 9 34 29 37 34 6 4 -24 4 -24 3 2 -1 22
-6 28 -23 29 -19 1 -23 -4 -22 -30z"/>
<path d="M4950 2581 l25 -7 -24 -6 c-28 -8 -23 -32 8 -36 19 -3 22 0 19 25 -2
22 -9 28 -28 30 l-25 2 25 -8z m20 -31 c0 -5 -7 -10 -15 -10 -8 0 -15 5 -15
10 0 6 7 10 15 10 8 0 15 -4 15 -10z"/>
<path d="M5064 2575 c-9 -23 3 -45 23 -44 17 1 17 2 1 6 -10 2 -18 13 -18 23
0 10 8 21 18 23 16 4 16 5 -1 6 -10 0 -20 -6 -23 -14z"/>
<path d="M5130 2581 l25 -7 -24 -6 c-28 -8 -23 -32 8 -36 19 -3 22 0 19 25 -2
22 -9 28 -28 30 l-25 2 25 -8z m20 -31 c0 -5 -7 -10 -15 -10 -8 0 -15 5 -15
10 0 6 7 10 15 10 8 0 15 -4 15 -10z"/>
<path d="M5224 2575 c-9 -23 3 -45 23 -44 17 1 17 2 1 6 -10 2 -18 9 -18 14 0
5 8 9 18 10 14 0 14 2 -3 8 l-20 8 20 5 c17 5 17 6 2 7 -10 0 -20 -6 -23 -14z"/>
<path d="M5287 2583 c-4 -3 -7 -12 -7 -20 0 -20 28 -15 40 7 9 17 8 20 -8 20
-10 0 -22 -3 -25 -7z m23 -13 c0 -5 -4 -10 -10 -10 -5 0 -10 5 -10 10 0 6 5
10 10 10 6 0 10 -4 10 -10z"/>
<path d="M5344 2575 c-13 -32 23 -63 40 -36 4 5 -3 7 -14 4 -16 -4 -20 0 -20
17 0 17 4 21 20 17 11 -3 18 -1 14 4 -8 14 -34 11 -40 -6z"/>
<path d="M5411 2556 c1 -21 3 -25 6 -11 3 11 9 25 14 31 5 7 3 11 -6 11 -10 0
-15 -10 -14 -31z"/>
<path d="M5520 2581 l25 -7 -24 -6 c-28 -8 -23 -32 8 -36 19 -3 22 0 19 25 -2
22 -9 28 -28 30 l-25 2 25 -8z m20 -31 c0 -5 -7 -10 -15 -10 -8 0 -15 5 -15
10 0 6 7 10 15 10 8 0 15 -4 15 -10z"/>
<path d="M5704 2575 c-9 -23 3 -45 23 -44 17 1 17 2 1 6 -10 2 -18 9 -18 14 0
5 8 9 18 10 14 0 14 2 -3 8 l-20 8 20 5 c17 5 17 6 2 7 -10 0 -20 -6 -23 -14z"/>
<path d="M5861 2556 c1 -28 2 -29 8 -7 9 34 29 37 34 6 4 -24 4 -24 3 2 -1 22
-6 28 -23 29 -19 1 -23 -4 -22 -30z"/>
<path d="M5924 2575 c-9 -23 3 -45 23 -44 17 1 17 2 1 6 -10 2 -18 13 -18 23
0 10 8 21 18 23 16 4 16 5 -1 6 -10 0 -20 -6 -23 -14z"/>
<path d="M6084 2575 c-9 -23 3 -45 23 -44 17 1 17 2 1 6 -10 2 -18 9 -18 14 0
5 8 9 18 10 14 0 14 2 -3 8 l-20 8 20 5 c17 5 17 6 2 7 -10 0 -20 -6 -23 -14z"/>
<path d="M6141 2556 c1 -28 2 -29 8 -7 9 34 29 37 34 6 4 -24 4 -24 3 2 -1 22
-6 28 -23 29 -19 1 -23 -4 -22 -30z"/>
<path d="M6254 2575 c-9 -23 3 -45 23 -44 17 1 17 2 1 6 -10 2 -18 9 -18 14 0
5 8 9 18 10 14 0 14 2 -3 8 l-20 8 20 5 c17 5 17 6 2 7 -10 0 -20 -6 -23 -14z"/>
<path d="M6310 2576 c0 -8 8 -17 18 -21 16 -7 15 -8 -3 -15 -19 -8 -19 -9 3
-9 26 -1 30 24 5 34 -17 7 -16 8 2 15 19 8 19 9 -2 9 -13 1 -23 -5 -23 -13z"/>
<path d="M6434 2575 c-9 -23 3 -45 23 -44 17 1 17 2 1 6 -10 2 -18 9 -18 14 0
5 8 9 18 10 14 0 14 2 -3 8 l-20 8 20 5 c17 5 17 6 2 7 -10 0 -20 -6 -23 -14z"/>
<path d="M6604 2575 c-9 -23 3 -45 23 -44 17 1 17 2 1 6 -10 2 -18 9 -18 14 0
5 8 9 18 10 14 0 14 2 -3 8 l-20 8 20 5 c17 5 17 6 2 7 -10 0 -20 -6 -23 -14z"/>
<path d="M6661 2556 c1 -28 2 -29 8 -7 9 34 29 37 34 6 4 -24 4 -24 3 2 -1 22
-6 28 -23 29 -19 1 -23 -4 -22 -30z"/>
<path d="M6820 2581 l25 -7 -24 -6 c-28 -8 -23 -32 8 -36 19 -3 22 0 19 25 -2
22 -9 28 -28 30 l-25 2 25 -8z m20 -31 c0 -5 -7 -10 -15 -10 -8 0 -15 5 -15
10 0 6 7 10 15 10 8 0 15 -4 15 -10z"/>
<path d="M6872 2560 c0 -19 2 -27 5 -17 2 9 2 25 0 35 -3 9 -5 1 -5 -18z"/>
<path d="M6897 2582 c6 -4 13 -18 16 -32 4 -25 4 -25 6 3 1 34 18 36 24 2 4
-23 4 -23 3 2 -1 23 -6 28 -31 30 -16 1 -25 -1 -18 -5z"/>
<path d="M7044 2575 c-9 -23 3 -45 23 -44 17 1 17 2 1 6 -10 2 -18 9 -18 14 0
5 8 9 18 10 14 0 14 2 -3 8 l-20 8 20 5 c17 5 17 6 2 7 -10 0 -20 -6 -23 -14z"/>
<path d="M7100 2576 c0 -8 8 -17 18 -21 16 -7 15 -8 -3 -15 -19 -8 -19 -9 3
-9 26 -1 30 24 5 34 -17 7 -16 8 2 15 19 8 19 9 -2 9 -13 1 -23 -5 -23 -13z"/>
<path d="M7168 2583 c7 -3 16 -2 19 1 4 3 -2 6 -13 5 -11 0 -14 -3 -6 -6z"/>
<path d="M7204 2575 c-13 -32 23 -63 40 -36 4 5 -3 7 -14 4 -16 -4 -20 0 -20
17 0 17 4 21 20 17 11 -3 18 -1 14 4 -8 14 -34 11 -40 -6z"/>
<path d="M7271 2556 c1 -21 3 -25 6 -11 3 11 9 25 14 31 5 7 3 11 -6 11 -10 0
-15 -10 -14 -31z"/>
<path d="M7324 2575 c-4 -8 -3 -23 2 -32 4 -10 6 -21 6 -25 -3 -15 16 -8 22 7
3 9 0 15 -9 15 -21 0 -19 38 3 43 16 4 16 5 -1 6 -10 0 -20 -6 -23 -14z"/>
<path d="M7384 2575 c-13 -32 23 -63 40 -36 4 5 -3 7 -14 4 -16 -4 -20 0 -20
17 0 17 4 21 20 17 11 -3 18 -1 14 4 -8 14 -34 11 -40 -6z"/>
<path d="M1565 2540 c-19 -8 -19 -9 3 -9 12 -1 22 4 22 9 0 6 -1 10 -2 9 -2 0
-12 -4 -23 -9z"/>
<path d="M5300 2531 c23 -7 23 -8 5 -13 l-20 -5 20 1 c29 1 25 21 -5 23 l-25
2 25 -8z"/>
<path d="M1460 2366 c0 -7 -9 -16 -21 -19 -15 -4 -20 -12 -17 -28 2 -12 9 -24
16 -25 7 -1 8 0 2 3 -15 7 -12 43 4 43 8 0 17 -12 19 -27 2 -17 5 -10 6 20 0
26 -1 47 -4 47 -3 0 -5 -6 -5 -14z"/>
<path d="M2432 2335 c0 -35 2 -43 7 -26 9 35 29 37 34 4 5 -28 5 -28 3 2 0 19
-6 30 -16 30 -8 0 -18 9 -22 20 -3 12 -6 -1 -6 -30z"/>
<path d="M3640 2366 c0 -7 -9 -16 -21 -19 -15 -4 -20 -12 -17 -28 2 -12 9 -24
16 -25 7 -1 8 0 2 3 -15 7 -12 43 4 43 8 0 17 -12 19 -27 2 -17 5 -10 6 20 0
26 -1 47 -4 47 -3 0 -5 -6 -5 -14z"/>
<path d="M3770 2366 c0 -7 -9 -16 -21 -19 -15 -4 -20 -12 -17 -28 2 -12 9 -24
16 -25 7 -1 8 0 2 3 -15 7 -12 43 4 43 8 0 17 -12 19 -27 2 -17 5 -10 6 20 0
26 -1 47 -4 47 -3 0 -5 -6 -5 -14z"/>
<path d="M3970 2366 c0 -7 -9 -16 -21 -19 -15 -4 -20 -12 -17 -28 2 -12 9 -24
16 -25 7 -1 8 0 2 3 -15 7 -12 43 4 43 8 0 17 -12 19 -27 2 -17 5 -10 6 20 0
26 -1 47 -4 47 -3 0 -5 -6 -5 -14z"/>
<path d="M5270 2366 c0 -7 -9 -16 -21 -19 -15 -4 -20 -12 -17 -28 2 -12 9 -24
16 -25 7 -1 8 0 2 3 -15 7 -12 43 4 43 8 0 17 -12 19 -27 2 -17 5 -10 6 20 0
26 -1 47 -4 47 -3 0 -5 -6 -5 -14z"/>
<path d="M5400 2366 c0 -7 -9 -16 -21 -19 -15 -4 -20 -12 -17 -28 2 -12 9 -24
16 -25 7 -1 8 0 2 3 -15 7 -12 43 4 43 8 0 17 -12 19 -27 2 -17 5 -10 6 20 0
26 -1 47 -4 47 -3 0 -5 -6 -5 -14z"/>
<path d="M6740 2366 c0 -7 -9 -16 -21 -19 -15 -4 -20 -12 -17 -28 2 -12 9 -24
16 -25 7 -1 8 0 2 3 -15 7 -12 43 4 43 8 0 17 -12 19 -27 2 -17 5 -10 6 20 0
26 -1 47 -4 47 -3 0 -5 -6 -5 -14z"/>
<path d="M7070 2366 c0 -7 -9 -16 -21 -19 -15 -4 -20 -12 -17 -28 2 -12 9 -24
16 -25 7 -1 8 0 2 3 -15 7 -12 43 4 43 8 0 17 -12 19 -27 2 -17 5 -10 6 20 0
26 -1 47 -4 47 -3 0 -5 -6 -5 -14z"/>
<path d="M758 2357 c-7 -19 6 -60 20 -63 7 -1 8 0 2 3 -12 6 -13 40 -1 45 5 2
3 8 -4 15 -10 9 -14 9 -17 0z"/>
<path d="M1318 2358 c-3 -7 -2 -24 2 -38 5 -20 13 -25 44 -28 36 -2 37 -1 34
25 -2 23 -9 29 -33 31 -16 2 -33 8 -36 14 -4 6 -8 4 -11 -4z m55 -28 c-13 -5
-23 -14 -23 -20 0 -5 -4 -10 -10 -10 -5 0 -10 9 -10 20 0 16 6 20 33 19 29 0
30 -1 10 -9z m17 -20 c0 -5 -7 -10 -15 -10 -8 0 -15 5 -15 10 0 6 7 10 15 10
8 0 15 -4 15 -10z"/>
<path d="M1828 2357 c-7 -19 6 -60 20 -63 7 -1 8 0 2 3 -12 6 -13 40 -1 45 5
2 3 8 -4 15 -10 9 -14 9 -17 0z"/>
<path d="M2007 2363 c-2 -4 -3 -21 -3 -38 1 -23 6 -30 21 -30 16 0 20 7 20 35
0 24 -5 36 -17 38 -9 2 -18 -1 -21 -5z m33 -13 c0 -5 -7 -10 -15 -10 -8 0 -15
5 -15 10 0 6 7 10 15 10 8 0 15 -4 15 -10z m0 -41 c0 -5 -7 -9 -15 -9 -15 0
-20 12 -9 23 8 8 24 -1 24 -14z"/>
<path d="M2208 2357 c-7 -19 6 -60 20 -63 7 -1 8 0 2 3 -12 6 -13 40 -1 45 5
2 3 8 -4 15 -10 9 -14 9 -17 0z"/>
<path d="M4758 2357 c-7 -19 6 -60 20 -63 7 -1 8 0 2 3 -12 6 -13 40 -1 45 5
2 3 8 -4 15 -10 9 -14 9 -17 0z"/>
<path d="M4996 2354 c-4 -9 -4 -19 -1 -22 3 -3 5 0 5 7 0 7 5 9 10 6 17 -10
11 -25 -10 -25 -11 0 -20 -4 -20 -9 0 -5 9 -7 21 -4 12 4 25 0 31 -8 8 -11 8
-10 4 4 -3 11 -9 30 -12 43 -7 28 -19 31 -28 8z"/>
<path d="M5048 2357 c-7 -19 6 -60 20 -63 7 -1 8 0 2 3 -12 6 -13 40 -1 45 5
2 3 8 -4 15 -10 9 -14 9 -17 0z"/>
<path d="M6548 2357 c-7 -19 6 -60 20 -63 7 -1 8 0 2 3 -12 6 -13 40 -1 45 5
2 3 8 -4 15 -10 9 -14 9 -17 0z"/>
<path d="M7238 2357 c-7 -19 6 -60 20 -63 7 -1 8 0 2 3 -12 6 -13 40 -1 45 5
2 3 8 -4 15 -10 9 -14 9 -17 0z"/>
<path d="M2333 2325 c0 -22 2 -30 4 -17 2 12 2 30 0 40 -3 9 -5 -1 -4 -23z"/>
<path d="M564 2335 c-9 -23 3 -45 23 -44 17 1 17 2 1 6 -10 2 -18 13 -18 23 0
10 8 21 18 23 16 4 16 5 -1 6 -10 0 -20 -6 -23 -14z"/>
<path d="M624 2335 c-13 -32 23 -63 40 -36 4 5 -3 7 -14 4 -16 -4 -20 0 -20
17 0 17 4 21 20 17 11 -3 18 -1 14 4 -8 14 -34 11 -40 -6z"/>
<path d="M691 2316 c1 -28 2 -29 8 -7 9 34 29 37 34 6 4 -24 4 -24 3 2 -1 22
-6 28 -23 29 -19 1 -23 -4 -22 -30z"/>
<path d="M802 2320 c0 -19 2 -27 5 -17 2 9 2 25 0 35 -3 9 -5 1 -5 -18z"/>
<path d="M831 2316 c1 -28 2 -29 8 -7 9 34 29 37 34 6 4 -24 4 -24 3 2 -1 22
-6 28 -23 29 -19 1 -23 -4 -22 -30z"/>
<path d="M903 2326 c1 -17 9 -31 17 -33 10 -3 11 -2 4 4 -7 4 -14 19 -17 33
-4 22 -5 21 -4 -4z"/>
<path d="M942 2320 c0 -19 2 -27 5 -17 2 9 2 25 0 35 -3 9 -5 1 -5 -18z"/>
<path d="M974 2335 c-13 -32 23 -63 40 -36 4 5 -3 7 -14 4 -16 -4 -20 0 -20
17 0 17 4 21 20 17 11 -3 18 -1 14 4 -8 14 -34 11 -40 -6z"/>
<path d="M1182 2320 c0 -19 2 -27 5 -17 2 9 2 25 0 35 -3 9 -5 1 -5 -18z"/>
<path d="M1207 2342 c6 -4 13 -18 16 -32 4 -25 4 -25 6 3 1 34 18 36 24 2 4
-23 4 -23 3 2 -1 23 -6 28 -31 30 -16 1 -25 -1 -18 -5z"/>
<path d="M1494 2335 c-13 -32 23 -63 40 -36 4 5 -3 7 -14 4 -16 -4 -20 0 -20
17 0 17 4 21 20 17 11 -3 18 -1 14 4 -8 14 -34 11 -40 -6z"/>
<path d="M1640 2341 l25 -7 -24 -6 c-28 -8 -23 -32 8 -36 19 -3 22 0 19 25 -2
22 -9 28 -28 30 l-25 2 25 -8z m20 -31 c0 -5 -7 -10 -15 -10 -8 0 -15 5 -15
10 0 6 7 10 15 10 8 0 15 -4 15 -10z"/>
<path d="M1780 2341 l25 -7 -24 -6 c-28 -8 -23 -32 8 -36 19 -3 22 0 19 25 -2
22 -9 28 -28 30 l-25 2 25 -8z m20 -31 c0 -5 -7 -10 -15 -10 -8 0 -15 5 -15
10 0 6 7 10 15 10 8 0 15 -4 15 -10z"/>
<path d="M1874 2335 c-9 -23 3 -45 23 -44 17 1 17 2 1 6 -10 2 -18 9 -18 14 0
5 8 9 18 10 14 0 14 2 -3 8 l-20 8 20 5 c17 5 17 6 2 7 -10 0 -20 -6 -23 -14z"/>
<path d="M2072 2325 c0 -16 2 -22 5 -12 2 9 2 23 0 30 -3 6 -5 -1 -5 -18z"/>
<path d="M2114 2335 c-13 -32 23 -63 40 -36 4 5 -3 7 -14 4 -16 -4 -20 0 -20
17 0 17 4 21 20 17 11 -3 18 -1 14 4 -8 14 -34 11 -40 -6z"/>
<path d="M2254 2335 c-13 -32 23 -63 40 -36 4 5 -3 7 -14 4 -16 -4 -20 0 -20
17 0 17 4 21 20 17 11 -3 18 -1 14 4 -8 14 -34 11 -40 -6z"/>
<path d="M2504 2335 c-13 -32 23 -63 40 -36 4 5 -3 7 -14 4 -16 -4 -20 0 -20
17 0 17 4 21 20 17 11 -3 18 -1 14 4 -8 14 -34 11 -40 -6z"/>
<path d="M2571 2316 c1 -21 3 -25 6 -11 3 11 9 25 14 31 5 7 3 11 -6 11 -10 0
-15 -10 -14 -31z"/>
<path d="M2640 2341 l25 -7 -24 -6 c-28 -8 -23 -32 8 -36 19 -3 22 0 19 25 -2
22 -9 28 -28 30 l-25 2 25 -8z m20 -31 c0 -5 -7 -10 -15 -10 -8 0 -15 5 -15
10 0 6 7 10 15 10 8 0 15 -4 15 -10z"/>
<path d="M2680 2336 c0 -8 8 -17 18 -21 16 -7 15 -8 -3 -15 -19 -8 -19 -9 3
-9 26 -1 30 24 5 34 -17 7 -16 8 2 15 19 8 19 9 -2 9 -13 1 -23 -5 -23 -13z"/>
<path d="M2900 2336 c0 -8 8 -17 18 -21 16 -7 15 -8 -3 -15 -19 -8 -19 -9 3
-9 26 -1 30 24 5 34 -17 7 -16 8 2 15 19 8 19 9 -2 9 -13 1 -23 -5 -23 -13z"/>
<path d="M2964 2335 c-9 -23 3 -45 23 -44 17 1 17 2 1 6 -10 2 -18 9 -18 14 0
5 8 9 18 10 14 0 14 2 -3 8 l-20 8 20 5 c17 5 17 6 2 7 -10 0 -20 -6 -23 -14z"/>
<path d="M3022 2320 c0 -19 2 -27 5 -17 2 9 2 25 0 35 -3 9 -5 1 -5 -18z"/>
<path d="M3047 2342 c6 -4 13 -18 16 -32 4 -25 4 -25 6 3 1 34 18 36 24 2 4
-23 4 -23 3 2 -1 23 -6 28 -31 30 -16 1 -25 -1 -18 -5z"/>
<path d="M3191 2316 c1 -28 2 -29 8 -7 9 34 29 37 34 6 4 -24 4 -24 3 2 -1 22
-6 28 -23 29 -19 1 -23 -4 -22 -30z"/>
<path d="M3264 2335 c-9 -23 3 -45 23 -44 17 1 17 2 1 6 -10 2 -18 9 -18 14 0
5 8 9 18 10 14 0 14 2 -3 8 l-20 8 20 5 c17 5 17 6 2 7 -10 0 -20 -6 -23 -14z"/>
<path d="M3324 2335 c-9 -23 3 -45 23 -44 17 1 17 2 1 6 -10 2 -18 13 -18 23
0 10 8 21 18 23 16 4 16 5 -1 6 -10 0 -20 -6 -23 -14z"/>
<path d="M3384 2335 c-9 -23 3 -45 23 -44 17 1 17 2 1 6 -10 2 -18 9 -18 14 0
5 8 9 18 10 14 0 14 2 -3 8 l-20 8 20 5 c17 5 17 6 2 7 -10 0 -20 -6 -23 -14z"/>
<path d="M3440 2336 c0 -8 8 -17 18 -21 16 -7 15 -8 -3 -15 -19 -8 -19 -9 3
-9 26 -1 30 24 5 34 -17 7 -16 8 2 15 19 8 19 9 -2 9 -13 1 -23 -5 -23 -13z"/>
<path d="M3500 2336 c0 -8 8 -17 18 -21 16 -7 15 -8 -3 -15 -19 -8 -19 -9 3
-9 26 -1 30 24 5 34 -17 7 -16 8 2 15 19 8 19 9 -2 9 -13 1 -23 -5 -23 -13z"/>
<path d="M3680 2341 l25 -7 -24 -6 c-28 -8 -23 -32 8 -36 19 -3 22 0 19 25 -2
22 -9 28 -28 30 l-25 2 25 -8z m20 -31 c0 -5 -7 -10 -15 -10 -8 0 -15 5 -15
10 0 6 7 10 15 10 8 0 15 -4 15 -10z"/>
<path d="M3804 2335 c-9 -23 3 -45 23 -44 17 1 17 2 1 6 -10 2 -18 9 -18 14 0
5 8 9 18 10 14 0 14 2 -3 8 l-20 8 20 5 c17 5 17 6 2 7 -10 0 -20 -6 -23 -14z"/>
<path d="M4004 2335 c-9 -23 3 -45 23 -44 17 1 17 2 1 6 -10 2 -18 9 -18 14 0
5 8 9 18 10 14 0 14 2 -3 8 l-20 8 20 5 c17 5 17 6 2 7 -10 0 -20 -6 -23 -14z"/>
<path d="M4133 2310 c0 -25 2 -35 4 -22 2 12 2 32 0 45 -2 12 -4 2 -4 -23z"/>
<path d="M4150 2346 c0 -2 7 -7 16 -10 8 -3 12 -2 9 4 -6 10 -25 14 -25 6z"/>
<path d="M4250 2341 l25 -7 -24 -6 c-28 -8 -23 -32 8 -36 19 -3 22 0 19 25 -2
22 -9 28 -28 30 l-25 2 25 -8z m20 -31 c0 -5 -7 -10 -15 -10 -8 0 -15 5 -15
10 0 6 7 10 15 10 8 0 15 -4 15 -10z"/>
<path d="M4301 2316 c1 -28 2 -29 8 -7 9 34 29 37 34 6 4 -24 4 -24 3 2 -1 22
-6 28 -23 29 -19 1 -23 -4 -22 -30z"/>
<path d="M4374 2335 c-9 -23 3 -45 23 -44 17 1 17 2 1 6 -10 2 -18 9 -18 14 0
5 8 9 18 10 14 0 14 2 -3 8 l-20 8 20 5 c17 5 17 6 2 7 -10 0 -20 -6 -23 -14z"/>
<path d="M4480 2341 l25 -7 -24 -6 c-28 -8 -23 -32 8 -36 19 -3 22 0 19 25 -2
22 -9 28 -28 30 l-25 2 25 -8z m20 -31 c0 -5 -7 -10 -15 -10 -8 0 -15 5 -15
10 0 6 7 10 15 10 8 0 15 -4 15 -10z"/>
<path d="M4532 2320 c0 -19 2 -27 5 -17 2 9 2 25 0 35 -3 9 -5 1 -5 -18z"/>
<path d="M4557 2342 c6 -4 13 -18 16 -32 4 -25 4 -25 6 3 1 34 18 36 24 2 4
-23 4 -23 3 2 -1 23 -6 28 -31 30 -16 1 -25 -1 -18 -5z"/>
<path d="M4634 2335 c-9 -23 3 -45 23 -44 17 1 17 2 1 6 -10 2 -18 9 -18 14 0
5 8 9 18 10 14 0 14 2 -3 8 l-20 8 20 5 c17 5 17 6 2 7 -10 0 -20 -6 -23 -14z"/>
<path d="M4691 2316 c1 -28 2 -29 8 -7 9 34 29 37 34 6 4 -24 4 -24 3 2 -1 22
-6 28 -23 29 -19 1 -23 -4 -22 -30z"/>
<path d="M4804 2335 c-13 -32 23 -63 40 -36 4 5 -3 7 -14 4 -16 -4 -20 0 -20
17 0 17 4 21 20 17 11 -3 18 -1 14 4 -8 14 -34 11 -40 -6z"/>
<path d="M5165 2339 c-4 -6 -5 -12 -2 -15 2 -3 7 2 10 11 7 17 1 20 -8 4z"/>
<path d="M5320 2341 l25 -7 -24 -6 c-28 -8 -23 -32 8 -36 19 -3 22 0 19 25 -2
22 -9 28 -28 30 l-25 2 25 -8z m20 -31 c0 -5 -7 -10 -15 -10 -8 0 -15 5 -15
10 0 6 7 10 15 10 8 0 15 -4 15 -10z"/>
<path d="M5434 2335 c-9 -23 3 -45 23 -44 17 1 17 2 1 6 -10 2 -18 9 -18 14 0
5 8 9 18 10 14 0 14 2 -3 8 l-20 8 20 5 c17 5 17 6 2 7 -10 0 -20 -6 -23 -14z"/>
<path d="M5490 2336 c0 -8 8 -17 18 -21 16 -7 15 -8 -3 -15 -19 -8 -19 -9 3
-9 26 -1 30 24 5 34 -17 7 -16 8 2 15 19 8 19 9 -2 9 -13 1 -23 -5 -23 -13z"/>
<path d="M5610 2336 c0 -8 8 -17 18 -21 16 -7 15 -8 -3 -15 -19 -8 -19 -9 3
-9 26 -1 30 24 5 34 -17 7 -16 8 2 15 19 8 19 9 -2 9 -13 1 -23 -5 -23 -13z"/>
<path d="M5674 2335 c-9 -23 3 -45 23 -44 17 1 17 2 1 6 -10 2 -18 9 -18 14 0
5 8 9 18 10 14 0 14 2 -3 8 l-20 8 20 5 c17 5 17 6 2 7 -10 0 -20 -6 -23 -14z"/>
<path d="M5734 2335 c-8 -20 2 -45 18 -44 10 0 10 2 1 6 -18 7 -16 43 1 43 10
0 16 -13 19 -37 l4 -38 1 43 c2 36 -1 42 -18 42 -11 0 -23 -7 -26 -15z"/>
<path d="M5803 2326 c1 -17 9 -31 17 -33 10 -3 11 -2 4 4 -7 4 -14 19 -17 33
-4 22 -5 21 -4 -4z"/>
<path d="M5842 2320 c0 -19 2 -27 5 -17 2 9 2 25 0 35 -3 9 -5 1 -5 -18z"/>
<path d="M5874 2335 c-9 -23 3 -45 23 -44 17 1 17 2 1 6 -10 2 -18 9 -18 14 0
5 8 9 18 10 14 0 14 2 -3 8 l-20 8 20 5 c17 5 17 6 2 7 -10 0 -20 -6 -23 -14z"/>
<path d="M5931 2316 c1 -28 2 -29 8 -7 9 34 29 37 34 6 4 -24 4 -24 3 2 -1 22
-6 28 -23 29 -19 1 -23 -4 -22 -30z"/>
<path d="M6004 2335 c-9 -23 3 -45 23 -44 17 1 17 2 1 6 -10 2 -18 13 -18 23
0 10 8 21 18 23 16 4 16 5 -1 6 -10 0 -20 -6 -23 -14z"/>
<path d="M6120 2341 l25 -7 -24 -6 c-28 -8 -23 -32 8 -36 19 -3 22 0 19 25 -2
22 -9 28 -28 30 l-25 2 25 -8z m20 -31 c0 -5 -7 -10 -15 -10 -8 0 -15 5 -15
10 0 6 7 10 15 10 8 0 15 -4 15 -10z"/>
<path d="M6190 2336 c0 -8 8 -17 18 -21 16 -7 15 -8 -3 -15 -19 -8 -19 -9 3
-9 26 -1 30 24 5 34 -17 7 -16 8 2 15 19 8 19 9 -2 9 -13 1 -23 -5 -23 -13z"/>
<path d="M6324 2335 c-9 -23 3 -45 23 -44 17 1 17 2 1 6 -10 2 -18 9 -18 14 0
5 8 9 18 10 14 0 14 2 -3 8 l-20 8 20 5 c17 5 17 6 2 7 -10 0 -20 -6 -23 -14z"/>
<path d="M6481 2316 c1 -28 2 -29 8 -7 9 34 29 37 34 6 4 -24 4 -24 3 2 -1 22
-6 28 -23 29 -19 1 -23 -4 -22 -30z"/>
<path d="M6594 2335 c-9 -23 3 -45 23 -44 17 1 17 2 1 6 -10 2 -18 9 -18 14 0
5 8 9 18 10 14 0 14 2 -3 8 l-20 8 20 5 c17 5 17 6 2 7 -10 0 -20 -6 -23 -14z"/>
<path d="M6651 2316 c1 -21 3 -25 6 -11 3 11 9 25 14 31 5 7 3 11 -6 11 -10 0
-15 -10 -14 -31z"/>
<path d="M6774 2335 c-9 -23 3 -45 23 -44 17 1 17 2 1 6 -10 2 -18 9 -18 14 0
5 8 9 18 10 14 0 14 2 -3 8 l-20 8 20 5 c17 5 17 6 2 7 -10 0 -20 -6 -23 -14z"/>
<path d="M6833 2310 c0 -25 2 -35 4 -22 2 12 2 32 0 45 -2 12 -4 2 -4 -23z"/>
<path d="M6850 2346 c0 -2 7 -7 16 -10 8 -3 12 -2 9 4 -6 10 -25 14 -25 6z"/>
<path d="M6904 2335 c-9 -23 3 -45 23 -44 17 1 17 2 1 6 -10 2 -18 9 -18 14 0
5 8 9 18 10 14 0 14 2 -3 8 l-20 8 20 5 c17 5 17 6 2 7 -10 0 -20 -6 -23 -14z"/>
<path d="M6961 2316 c1 -28 2 -29 8 -7 9 34 29 37 34 6 4 -24 4 -24 3 2 -1 22
-6 28 -23 29 -19 1 -23 -4 -22 -30z"/>
<path d="M7114 2335 c-9 -23 3 -45 23 -44 17 1 17 2 1 6 -10 2 -18 9 -18 14 0
5 8 9 18 10 14 0 14 2 -3 8 l-20 8 20 5 c17 5 17 6 2 7 -10 0 -20 -6 -23 -14z"/>
<path d="M7171 2316 c1 -28 2 -29 8 -7 9 34 29 37 34 6 4 -24 4 -24 3 2 -1 22
-6 28 -23 29 -19 1 -23 -4 -22 -30z"/>
<path d="M7284 2335 c-9 -23 3 -45 23 -44 17 1 17 2 1 6 -10 2 -18 9 -18 14 0
5 8 9 18 10 14 0 14 2 -3 8 l-20 8 20 5 c17 5 17 6 2 7 -10 0 -20 -6 -23 -14z"/>
<path d="M7340 2336 c0 -8 8 -17 18 -21 16 -7 15 -8 -3 -15 -19 -8 -19 -9 3
-9 26 -1 30 24 5 34 -17 7 -16 8 2 15 19 8 19 9 -2 9 -13 1 -23 -5 -23 -13z"/>
<path d="M4160 2300 c-9 -6 -10 -10 -3 -10 6 0 15 5 18 10 8 12 4 12 -15 0z"/>
<path d="M5140 2300 c0 -5 5 -10 10 -10 6 0 10 5 10 10 0 6 -4 10 -10 10 -5 0
-10 -4 -10 -10z"/>
<path d="M6860 2300 c-9 -6 -10 -10 -3 -10 6 0 15 5 18 10 8 12 4 12 -15 0z"/>
<path d="M1020 2126 c0 -7 -9 -16 -21 -19 -15 -4 -20 -12 -17 -28 2 -12 9 -24
16 -25 7 -1 8 0 2 3 -15 7 -12 43 4 43 8 0 17 -12 19 -27 2 -17 5 -10 6 20 0
26 -1 47 -4 47 -3 0 -5 -6 -5 -14z"/>
<path d="M1893 2095 c0 -27 2 -38 4 -22 2 15 2 37 0 50 -2 12 -4 0 -4 -28z"/>
<path d="M2850 2136 c0 -2 7 -7 16 -10 8 -3 12 -2 9 4 -6 10 -25 14 -25 6z"/>
<path d="M4860 2126 c0 -7 -9 -16 -21 -19 -15 -4 -20 -12 -17 -28 2 -12 9 -24
16 -25 7 -1 8 0 2 3 -15 7 -12 43 4 43 8 0 17 -12 19 -27 2 -17 5 -10 6 20 0
26 -1 47 -4 47 -3 0 -5 -6 -5 -14z"/>
<path d="M5230 2126 c0 -7 -9 -16 -21 -19 -15 -4 -20 -12 -17 -28 2 -12 9 -24
16 -25 7 -1 8 0 2 3 -15 7 -12 43 4 43 8 0 17 -12 19 -27 2 -17 5 -10 6 20 0
26 -1 47 -4 47 -3 0 -5 -6 -5 -14z"/>
<path d="M5716 2131 c-3 -4 4 -7 14 -6 27 2 33 10 10 12 -11 1 -22 -2 -24 -6z"/>
<path d="M5970 2126 c0 -7 -9 -16 -21 -19 -15 -4 -20 -12 -17 -28 2 -12 9 -24
16 -25 7 -1 8 0 2 3 -15 7 -12 43 4 43 8 0 17 -12 19 -27 2 -17 5 -10 6 20 0
26 -1 47 -4 47 -3 0 -5 -6 -5 -14z"/>
<path d="M6236 2131 c-3 -4 4 -7 14 -6 27 2 33 10 10 12 -11 1 -22 -2 -24 -6z"/>
<path d="M6950 2126 c0 -7 -9 -16 -21 -19 -15 -4 -20 -12 -17 -28 2 -12 9 -24
16 -25 7 -1 8 0 2 3 -15 7 -12 43 4 43 8 0 17 -12 19 -27 2 -17 5 -10 6 20 0
26 -1 47 -4 47 -3 0 -5 -6 -5 -14z"/>
<path d="M868 2117 c-7 -19 6 -60 20 -63 7 -1 8 0 2 3 -12 6 -13 40 -1 45 5 2
3 8 -4 15 -10 9 -14 9 -17 0z"/>
<path d="M1498 2117 c-7 -19 6 -60 20 -63 7 -1 8 0 2 3 -12 6 -13 40 -1 45 5
2 3 8 -4 15 -10 9 -14 9 -17 0z"/>
<path d="M2598 2117 c-7 -19 6 -60 20 -63 7 -1 8 0 2 3 -12 6 -13 40 -1 45 5
2 3 8 -4 15 -10 9 -14 9 -17 0z"/>
<path d="M3998 2117 c-7 -19 6 -60 20 -63 7 -1 8 0 2 3 -12 6 -13 40 -1 45 5
2 3 8 -4 15 -10 9 -14 9 -17 0z"/>
<path d="M5668 2117 c-7 -19 6 -60 20 -63 7 -1 8 0 2 3 -12 6 -13 40 -1 45 5
2 3 8 -4 15 -10 9 -14 9 -17 0z"/>
<path d="M6638 2117 c-7 -19 6 -60 20 -63 7 -1 8 0 2 3 -12 6 -13 40 -1 45 5
2 3 8 -4 15 -10 9 -14 9 -17 0z"/>
<path d="M6798 2117 c-7 -19 6 -60 20 -63 7 -1 8 0 2 3 -12 6 -13 40 -1 45 5
2 3 8 -4 15 -10 9 -14 9 -17 0z"/>
<path d="M564 2095 c-9 -23 3 -45 23 -44 17 1 17 2 1 6 -10 2 -18 9 -18 14 0
5 8 9 18 10 14 0 14 2 -3 8 l-20 8 20 5 c17 5 17 6 2 7 -10 0 -20 -6 -23 -14z"/>
<path d="M684 2095 c-9 -23 3 -45 23 -44 17 1 17 2 1 6 -10 2 -18 9 -18 14 0
5 8 9 18 10 14 0 14 2 -3 8 l-20 8 20 5 c17 5 17 6 2 7 -10 0 -20 -6 -23 -14z"/>
<path d="M744 2095 c-9 -23 3 -45 23 -44 17 1 17 2 1 6 -10 2 -18 13 -18 23 0
10 8 21 18 23 16 4 16 5 -1 6 -10 0 -20 -6 -23 -14z"/>
<path d="M803 2086 c1 -17 9 -31 17 -33 10 -3 11 -2 4 4 -7 4 -14 19 -17 33
-4 22 -5 21 -4 -4z"/>
<path d="M842 2080 c0 -19 2 -27 5 -17 2 9 2 25 0 35 -3 9 -5 1 -5 -18z"/>
<path d="M930 2101 l25 -7 -24 -6 c-28 -8 -23 -32 8 -36 19 -3 22 0 19 25 -2
22 -9 28 -28 30 l-25 2 25 -8z m20 -31 c0 -5 -7 -10 -15 -10 -8 0 -15 5 -15
10 0 6 7 10 15 10 8 0 15 -4 15 -10z"/>
<path d="M1070 2101 l25 -7 -24 -6 c-28 -8 -23 -32 8 -36 19 -3 22 0 19 25 -2
22 -9 28 -28 30 l-25 2 25 -8z m20 -31 c0 -5 -7 -10 -15 -10 -8 0 -15 5 -15
10 0 6 7 10 15 10 8 0 15 -4 15 -10z"/>
<path d="M1170 2096 c0 -8 8 -17 18 -21 16 -7 15 -8 -3 -15 -19 -8 -19 -9 3
-9 26 -1 30 24 5 34 -17 7 -16 8 2 15 19 8 19 9 -2 9 -13 1 -23 -5 -23 -13z"/>
<path d="M1234 2095 c-9 -23 3 -45 23 -44 17 1 17 2 1 6 -10 2 -18 9 -18 14 0
5 8 9 18 10 14 0 14 2 -3 8 l-20 8 20 5 c17 5 17 6 2 7 -10 0 -20 -6 -23 -14z"/>
<path d="M1292 2080 c0 -19 2 -27 5 -17 2 9 2 25 0 35 -3 9 -5 1 -5 -18z"/>
<path d="M1317 2102 c6 -4 13 -18 16 -32 4 -25 4 -25 6 3 1 34 18 36 24 2 4
-23 4 -23 3 2 -1 23 -6 28 -31 30 -16 1 -25 -1 -18 -5z"/>
<path d="M1444 2095 c-9 -23 3 -45 23 -44 17 1 17 2 1 6 -10 2 -18 9 -18 14 0
5 8 9 18 10 14 0 14 2 -3 8 l-20 8 20 5 c17 5 17 6 2 7 -10 0 -20 -6 -23 -14z"/>
<path d="M1560 2101 l25 -7 -24 -6 c-28 -8 -23 -32 8 -36 19 -3 22 0 19 25 -2
22 -9 28 -28 30 l-25 2 25 -8z m20 -31 c0 -5 -7 -10 -15 -10 -8 0 -15 5 -15
10 0 6 7 10 15 10 8 0 15 -4 15 -10z"/>
<path d="M1613 2070 c0 -25 2 -35 4 -22 2 12 2 32 0 45 -2 12 -4 2 -4 -23z"/>
<path d="M1630 2106 c0 -2 7 -7 16 -10 8 -3 12 -2 9 4 -6 10 -25 14 -25 6z"/>
<path d="M1700 2101 l25 -7 -24 -6 c-28 -8 -23 -32 8 -36 19 -3 22 0 19 25 -2
22 -9 28 -28 30 l-25 2 25 -8z m20 -31 c0 -5 -7 -10 -15 -10 -8 0 -15 5 -15
10 0 6 7 10 15 10 8 0 15 -4 15 -10z"/>
<path d="M1750 2096 c0 -8 8 -17 18 -21 16 -7 15 -8 -3 -15 -19 -8 -19 -9 3
-9 26 -1 30 24 5 34 -17 7 -16 8 2 15 19 8 19 9 -2 9 -13 1 -23 -5 -23 -13z"/>
<path d="M1910 2106 c0 -2 7 -7 16 -10 8 -3 12 -2 9 4 -6 10 -25 14 -25 6z"/>
<path d="M1964 2095 c-9 -23 3 -45 23 -44 17 1 17 2 1 6 -10 2 -18 9 -18 14 0
5 8 9 18 10 14 0 14 2 -3 8 l-20 8 20 5 c17 5 17 6 2 7 -10 0 -20 -6 -23 -14z"/>
<path d="M2022 2080 c0 -19 2 -27 5 -17 2 9 2 25 0 35 -3 9 -5 1 -5 -18z"/>
<path d="M2047 2102 c6 -4 13 -18 16 -32 4 -25 4 -25 6 3 1 34 18 36 24 2 4
-23 4 -23 3 2 -1 23 -6 28 -31 30 -16 1 -25 -1 -18 -5z"/>
<path d="M2174 2095 c-9 -23 3 -45 23 -44 17 1 17 2 1 6 -10 2 -18 13 -18 23
0 10 8 21 18 23 16 4 16 5 -1 6 -10 0 -20 -6 -23 -14z"/>
<path d="M2234 2095 c-13 -32 23 -63 40 -36 4 5 -3 7 -14 4 -16 -4 -20 0 -20
17 0 17 4 21 20 17 11 -3 18 -1 14 4 -8 14 -34 11 -40 -6z"/>
<path d="M2312 2080 c0 -19 2 -27 5 -17 2 9 2 25 0 35 -3 9 -5 1 -5 -18z"/>
<path d="M2337 2102 c6 -4 13 -18 16 -32 4 -25 4 -25 6 3 1 34 18 36 24 2 4
-23 4 -23 3 2 -1 23 -6 28 -31 30 -16 1 -25 -1 -18 -5z"/>
<path d="M2414 2095 c-13 -32 23 -63 40 -36 4 5 -3 7 -14 4 -16 -4 -20 0 -20
17 0 17 4 21 20 17 11 -3 18 -1 14 4 -8 14 -34 11 -40 -6z"/>
<path d="M2550 2101 l25 -7 -24 -6 c-28 -8 -23 -32 8 -36 19 -3 22 0 19 25 -2
22 -9 28 -28 30 l-25 2 25 -8z m20 -31 c0 -5 -7 -10 -15 -10 -8 0 -15 5 -15
10 0 6 7 10 15 10 8 0 15 -4 15 -10z"/>
<path d="M2643 2086 c1 -17 9 -31 17 -33 10 -3 11 -2 4 4 -7 4 -14 19 -17 33
-4 22 -5 21 -4 -4z"/>
<path d="M2682 2080 c0 -19 2 -27 5 -17 2 9 2 25 0 35 -3 9 -5 1 -5 -18z"/>
<path d="M2730 2101 l25 -7 -24 -6 c-28 -8 -23 -32 8 -36 19 -3 22 0 19 25 -2
22 -9 28 -28 30 l-25 2 25 -8z m20 -31 c0 -5 -7 -10 -15 -10 -8 0 -15 5 -15
10 0 6 7 10 15 10 8 0 15 -4 15 -10z"/>
<path d="M2784 2095 c-4 -8 -3 -23 2 -32 4 -10 6 -21 6 -25 -3 -15 16 -8 22 7
3 9 0 15 -9 15 -21 0 -19 38 3 43 16 4 16 5 -1 6 -10 0 -20 -6 -23 -14z"/>
<path d="M2844 2095 c-13 -32 23 -63 40 -36 4 5 -3 7 -14 4 -16 -4 -20 0 -20
17 0 17 4 21 20 17 11 -3 18 -1 14 4 -8 14 -34 11 -40 -6z"/>
<path d="M2914 2095 c-9 -23 3 -45 23 -44 17 1 17 2 1 6 -10 2 -18 9 -18 14 0
5 8 9 18 10 14 0 14 2 -3 8 l-20 8 20 5 c17 5 17 6 2 7 -10 0 -20 -6 -23 -14z"/>
<path d="M2970 2096 c0 -8 8 -17 18 -21 16 -7 15 -8 -3 -15 -19 -8 -19 -9 3
-9 26 -1 30 24 5 34 -17 7 -16 8 2 15 19 8 19 9 -2 9 -13 1 -23 -5 -23 -13z"/>
<path d="M3084 2095 c-8 -20 2 -45 18 -44 10 0 10 2 1 6 -18 7 -16 43 1 43 10
0 16 -13 19 -37 l4 -38 1 43 c2 36 -1 42 -18 42 -11 0 -23 -7 -26 -15z"/>
<path d="M3153 2086 c1 -17 9 -31 17 -33 10 -3 11 -2 4 4 -7 4 -14 19 -17 33
-4 22 -5 21 -4 -4z"/>
<path d="M3192 2080 c0 -19 2 -27 5 -17 2 9 2 25 0 35 -3 9 -5 1 -5 -18z"/>
<path d="M3224 2095 c-9 -23 3 -45 23 -44 17 1 17 2 1 6 -10 2 -18 9 -18 14 0
5 8 9 18 10 14 0 14 2 -3 8 l-20 8 20 5 c17 5 17 6 2 7 -10 0 -20 -6 -23 -14z"/>
<path d="M3333 2070 c0 -25 2 -35 4 -22 2 12 2 32 0 45 -2 12 -4 2 -4 -23z"/>
<path d="M3350 2106 c0 -2 7 -7 16 -10 8 -3 12 -2 9 4 -6 10 -25 14 -25 6z"/>
<path d="M3414 2095 c-9 -23 3 -45 23 -44 17 1 17 2 1 6 -10 2 -18 9 -18 14 0
5 8 9 18 10 14 0 14 2 -3 8 l-20 8 20 5 c17 5 17 6 2 7 -10 0 -20 -6 -23 -14z"/>
<path d="M3530 2101 l25 -7 -24 -6 c-28 -8 -23 -32 8 -36 19 -3 22 0 19 25 -2
22 -9 28 -28 30 l-25 2 25 -8z m20 -31 c0 -5 -7 -10 -15 -10 -8 0 -15 5 -15
10 0 6 7 10 15 10 8 0 15 -4 15 -10z"/>
<path d="M3620 2096 c0 -8 8 -17 18 -21 16 -7 15 -8 -3 -15 -19 -8 -19 -9 3
-9 26 -1 30 24 5 34 -17 7 -16 8 2 15 19 8 19 9 -2 9 -13 1 -23 -5 -23 -13z"/>
<path d="M3683 2086 c1 -17 9 -31 17 -33 10 -3 11 -2 4 4 -7 4 -14 19 -17 33
-4 22 -5 21 -4 -4z"/>
<path d="M3722 2080 c0 -19 2 -27 5 -17 2 9 2 25 0 35 -3 9 -5 1 -5 -18z"/>
<path d="M3770 2101 l25 -7 -24 -6 c-28 -8 -23 -32 8 -36 19 -3 22 0 19 25 -2
22 -9 28 -28 30 l-25 2 25 -8z m20 -31 c0 -5 -7 -10 -15 -10 -8 0 -15 5 -15
10 0 6 7 10 15 10 8 0 15 -4 15 -10z"/>
<path d="M3871 2076 c1 -28 2 -29 8 -7 9 34 29 37 34 6 4 -24 4 -24 3 2 -1 22
-6 28 -23 29 -19 1 -23 -4 -22 -30z"/>
<path d="M3950 2101 l25 -7 -24 -6 c-28 -8 -23 -32 8 -36 19 -3 22 0 19 25 -2
22 -9 28 -28 30 l-25 2 25 -8z m20 -31 c0 -5 -7 -10 -15 -10 -8 0 -15 5 -15
10 0 6 7 10 15 10 8 0 15 -4 15 -10z"/>
<path d="M4043 2086 c1 -17 9 -31 17 -33 10 -3 11 -2 4 4 -7 4 -14 19 -17 33
-4 22 -5 21 -4 -4z"/>
<path d="M4082 2080 c0 -19 2 -27 5 -17 2 9 2 25 0 35 -3 9 -5 1 -5 -18z"/>
<path d="M4111 2076 c1 -21 3 -25 6 -11 3 11 9 25 14 31 5 7 3 11 -6 11 -10 0
-15 -10 -14 -31z"/>
<path d="M4164 2095 c-9 -23 3 -45 23 -44 17 1 17 2 1 6 -10 2 -18 9 -18 14 0
5 8 9 18 10 14 0 14 2 -3 8 l-20 8 20 5 c17 5 17 6 2 7 -10 0 -20 -6 -23 -14z"/>
<path d="M4220 2106 c0 -2 7 -6 15 -10 8 -3 15 -1 15 4 0 6 -7 10 -15 10 -8 0
-15 -2 -15 -4z"/>
<path d="M4290 2101 l25 -7 -24 -6 c-28 -8 -23 -32 8 -36 19 -3 22 0 19 25 -2
22 -9 28 -28 30 l-25 2 25 -8z m20 -31 c0 -5 -7 -10 -15 -10 -8 0 -15 5 -15
10 0 6 7 10 15 10 8 0 15 -4 15 -10z"/>
<path d="M4394 2095 c-9 -23 3 -45 23 -44 17 1 17 2 1 6 -10 2 -18 9 -18 14 0
5 8 9 18 10 14 0 14 2 -3 8 l-20 8 20 5 c17 5 17 6 2 7 -10 0 -20 -6 -23 -14z"/>
<path d="M4501 2076 c1 -21 3 -25 6 -11 3 11 9 25 14 31 5 7 3 11 -6 11 -10 0
-15 -10 -14 -31z"/>
<path d="M4590 2096 c0 -8 8 -17 18 -21 16 -7 15 -8 -3 -15 -19 -8 -19 -9 3
-9 26 -1 30 24 5 34 -17 7 -16 8 2 15 19 8 19 9 -2 9 -13 1 -23 -5 -23 -13z"/>
<path d="M4644 2095 c-9 -23 3 -45 23 -44 17 1 17 2 1 6 -10 2 -18 13 -18 23
0 10 8 21 18 23 16 4 16 5 -1 6 -10 0 -20 -6 -23 -14z"/>
<path d="M4704 2095 c-13 -32 23 -63 40 -36 4 5 -3 7 -14 4 -16 -4 -20 0 -20
17 0 17 4 21 20 17 11 -3 18 -1 14 4 -8 14 -34 11 -40 -6z"/>
<path d="M4894 2095 c-9 -23 3 -45 23 -44 17 1 17 2 1 6 -10 2 -18 9 -18 14 0
5 8 9 18 10 14 0 14 2 -3 8 l-20 8 20 5 c17 5 17 6 2 7 -10 0 -20 -6 -23 -14z"/>
<path d="M4952 2080 c0 -19 2 -27 5 -17 2 9 2 25 0 35 -3 9 -5 1 -5 -18z"/>
<path d="M4977 2102 c6 -4 13 -18 16 -32 4 -25 4 -25 6 3 1 34 18 36 24 2 4
-23 4 -23 3 2 -1 23 -6 28 -31 30 -16 1 -25 -1 -18 -5z"/>
<path d="M5070 2101 l25 -7 -24 -6 c-28 -8 -23 -32 8 -36 19 -3 22 0 19 25 -2
22 -9 28 -28 30 l-25 2 25 -8z m20 -31 c0 -5 -7 -10 -15 -10 -8 0 -15 5 -15
10 0 6 7 10 15 10 8 0 15 -4 15 -10z"/>
<path d="M5121 2076 c1 -28 2 -29 8 -7 9 34 29 37 34 6 4 -24 4 -24 3 2 -1 22
-6 28 -23 29 -19 1 -23 -4 -22 -30z"/>
<path d="M5264 2095 c-9 -23 3 -45 23 -44 17 1 17 2 1 6 -10 2 -18 9 -18 14 0
5 8 9 18 10 14 0 14 2 -3 8 l-20 8 20 5 c17 5 17 6 2 7 -10 0 -20 -6 -23 -14z"/>
<path d="M5322 2080 c0 -19 2 -27 5 -17 2 9 2 25 0 35 -3 9 -5 1 -5 -18z"/>
<path d="M5347 2102 c6 -4 13 -18 16 -32 4 -25 4 -25 6 3 1 34 18 36 24 2 4
-23 4 -23 3 2 -1 23 -6 28 -31 30 -16 1 -25 -1 -18 -5z"/>
<path d="M5487 2103 c-4 -3 -7 -12 -7 -20 0 -20 28 -15 40 7 9 17 8 20 -8 20
-10 0 -22 -3 -25 -7z m23 -13 c0 -5 -4 -10 -10 -10 -5 0 -10 5 -10 10 0 6 5
10 10 10 6 0 10 -4 10 -10z"/>
<path d="M5554 2095 c-9 -23 3 -45 23 -44 17 1 17 2 1 6 -10 2 -18 9 -18 14 0
5 8 9 18 10 14 0 14 2 -3 8 l-20 8 20 5 c17 5 17 6 2 7 -10 0 -20 -6 -23 -14z"/>
<path d="M5610 2096 c0 -8 8 -17 18 -21 16 -7 15 -8 -3 -15 -19 -8 -19 -9 3
-9 26 -1 30 24 5 34 -17 7 -16 8 2 15 19 8 19 9 -2 9 -13 1 -23 -5 -23 -13z"/>
<path d="M5730 2101 l25 -7 -24 -6 c-28 -8 -23 -32 8 -36 19 -3 22 0 19 25 -2
22 -9 28 -28 30 l-25 2 25 -8z m20 -31 c0 -5 -7 -10 -15 -10 -8 0 -15 5 -15
10 0 6 7 10 15 10 8 0 15 -4 15 -10z"/>
<path d="M5784 2095 c-13 -32 23 -63 40 -36 4 5 -3 7 -14 4 -16 -4 -20 0 -20
17 0 17 4 21 20 17 11 -3 18 -1 14 4 -8 14 -34 11 -40 -6z"/>
<path d="M6004 2095 c-9 -23 3 -45 23 -44 17 1 17 2 1 6 -10 2 -18 9 -18 14 0
5 8 9 18 10 14 0 14 2 -3 8 l-20 8 20 5 c17 5 17 6 2 7 -10 0 -20 -6 -23 -14z"/>
<path d="M6095 2099 c-4 -6 -5 -12 -2 -15 2 -3 7 2 10 11 7 17 1 20 -8 4z"/>
<path d="M6124 2095 c-9 -23 3 -45 23 -44 17 1 17 2 1 6 -10 2 -18 9 -18 14 0
5 8 9 18 10 14 0 14 2 -3 8 l-20 8 20 5 c17 5 17 6 2 7 -10 0 -20 -6 -23 -14z"/>
<path d="M6181 2076 c1 -21 3 -25 6 -11 3 11 9 25 14 31 5 7 3 11 -6 11 -10 0
-15 -10 -14 -31z"/>
<path d="M6250 2101 l25 -7 -24 -6 c-28 -8 -23 -32 8 -36 19 -3 22 0 19 25 -2
22 -9 28 -28 30 l-25 2 25 -8z m20 -31 c0 -5 -7 -10 -15 -10 -8 0 -15 5 -15
10 0 6 7 10 15 10 8 0 15 -4 15 -10z"/>
<path d="M6304 2095 c-13 -32 23 -63 40 -36 4 5 -3 7 -14 4 -16 -4 -20 0 -20
17 0 17 4 21 20 17 11 -3 18 -1 14 4 -8 14 -34 11 -40 -6z"/>
<path d="M6420 2096 c0 -8 8 -17 18 -21 16 -7 15 -8 -3 -15 -19 -8 -19 -9 3
-9 26 -1 30 24 5 34 -17 7 -16 8 2 15 19 8 19 9 -2 9 -13 1 -23 -5 -23 -13z"/>
<path d="M6484 2095 c-9 -23 3 -45 23 -44 17 1 17 2 1 6 -10 2 -18 9 -18 14 0
5 8 9 18 10 14 0 14 2 -3 8 l-20 8 20 5 c17 5 17 6 2 7 -10 0 -20 -6 -23 -14z"/>
<path d="M6541 2076 c1 -21 3 -25 6 -11 3 11 9 25 14 31 5 7 3 11 -6 11 -10 0
-15 -10 -14 -31z"/>
<path d="M6681 2076 c1 -21 3 -25 6 -11 3 11 9 25 14 31 5 7 3 11 -6 11 -10 0
-15 -10 -14 -31z"/>
<path d="M6750 2101 l25 -7 -24 -6 c-28 -8 -23 -32 8 -36 19 -3 22 0 19 25 -2
22 -9 28 -28 30 l-25 2 25 -8z m20 -31 c0 -5 -7 -10 -15 -10 -8 0 -15 5 -15
10 0 6 7 10 15 10 8 0 15 -4 15 -10z"/>
<path d="M6860 2101 l25 -7 -24 -6 c-28 -8 -23 -32 8 -36 19 -3 22 0 19 25 -2
22 -9 28 -28 30 l-25 2 25 -8z m20 -31 c0 -5 -7 -10 -15 -10 -8 0 -15 5 -15
10 0 6 7 10 15 10 8 0 15 -4 15 -10z"/>
<path d="M6990 2101 l25 -7 -24 -6 c-28 -8 -23 -32 8 -36 19 -3 22 0 19 25 -2
22 -9 28 -28 30 l-25 2 25 -8z m20 -31 c0 -5 -7 -10 -15 -10 -8 0 -15 5 -15
10 0 6 7 10 15 10 8 0 15 -4 15 -10z"/>
<path d="M7030 2096 c0 -8 8 -17 18 -21 16 -7 15 -8 -3 -15 -19 -8 -19 -9 3
-9 26 -1 30 24 5 34 -17 7 -16 8 2 15 19 8 19 9 -2 9 -13 1 -23 -5 -23 -13z"/>
<path d="M7144 2095 c-9 -23 3 -45 23 -44 17 1 17 2 1 6 -10 2 -18 13 -18 23
0 10 8 21 18 23 16 4 16 5 -1 6 -10 0 -20 -6 -23 -14z"/>
<path d="M7204 2095 c-13 -32 23 -63 40 -36 4 5 -3 7 -14 4 -16 -4 -20 0 -20
17 0 17 4 21 20 17 11 -3 18 -1 14 4 -8 14 -34 11 -40 -6z"/>
<path d="M7272 2080 c0 -19 2 -27 5 -17 2 9 2 25 0 35 -3 9 -5 1 -5 -18z"/>
<path d="M7297 2102 c6 -4 13 -18 16 -32 4 -25 4 -25 6 3 1 34 18 36 24 2 4
-23 4 -23 3 2 -1 23 -6 28 -31 30 -16 1 -25 -1 -18 -5z"/>
<path d="M7374 2095 c-13 -32 23 -63 40 -36 4 5 -3 7 -14 4 -16 -4 -20 0 -20
17 0 17 4 21 20 17 11 -3 18 -1 14 4 -8 14 -34 11 -40 -6z"/>
<path d="M626 2074 c-9 -24 -7 -31 4 -14 9 13 11 13 20 0 11 -17 13 -10 4 14
-3 9 -10 16 -14 16 -4 0 -11 -7 -14 -16z"/>
<path d="M4227 2073 c-14 -13 -7 -23 16 -22 17 1 18 2 4 6 -9 2 -15 9 -12 14
7 10 1 12 -8 2z"/>
<path d="M1640 2060 c-9 -6 -10 -10 -3 -10 6 0 15 5 18 10 8 12 4 12 -15 0z"/>
<path d="M1920 2060 c-9 -6 -10 -10 -3 -10 6 0 15 5 18 10 8 12 4 12 -15 0z"/>
<path d="M3360 2060 c-9 -6 -10 -10 -3 -10 6 0 15 5 18 10 8 12 4 12 -15 0z"/>
<path d="M6070 2060 c0 -5 5 -10 10 -10 6 0 10 5 10 10 0 6 -4 10 -10 10 -5 0
-10 -4 -10 -10z"/>
<path d="M5500 2051 c23 -7 23 -8 5 -13 l-20 -5 20 1 c29 1 25 21 -5 23 l-25
2 25 -8z"/>
<path d="M1216 1891 c-3 -4 4 -7 14 -6 27 2 33 10 10 12 -11 1 -22 -2 -24 -6z"/>
<path d="M1900 1886 c0 -7 -9 -16 -21 -19 -15 -4 -20 -12 -17 -28 2 -12 9 -24
16 -25 7 -1 8 0 2 3 -15 7 -12 43 4 43 8 0 17 -12 19 -27 2 -17 5 -10 6 20 0
26 -1 47 -4 47 -3 0 -5 -6 -5 -14z"/>
<path d="M2920 1886 c0 -7 -9 -16 -21 -19 -15 -4 -20 -12 -17 -28 2 -12 9 -24
16 -25 7 -1 8 0 2 3 -15 7 -12 43 4 43 8 0 17 -12 19 -27 2 -17 5 -10 6 20 0
26 -1 47 -4 47 -3 0 -5 -6 -5 -14z"/>
<path d="M3510 1896 c0 -2 7 -7 16 -10 8 -3 12 -2 9 4 -6 10 -25 14 -25 6z"/>
<path d="M4060 1886 c0 -7 -9 -16 -21 -19 -15 -4 -20 -12 -17 -28 2 -12 9 -24
16 -25 7 -1 8 0 2 3 -15 7 -12 43 4 43 8 0 17 -12 19 -27 2 -17 5 -10 6 20 0
26 -1 47 -4 47 -3 0 -5 -6 -5 -14z"/>
<path d="M4540 1886 c0 -7 -9 -16 -21 -19 -15 -4 -20 -12 -17 -28 2 -12 9 -24
16 -25 7 -1 8 0 2 3 -15 7 -12 43 4 43 8 0 17 -12 19 -27 2 -17 5 -10 6 20 0
26 -1 47 -4 47 -3 0 -5 -6 -5 -14z"/>
<path d="M4740 1886 c0 -7 -9 -16 -21 -19 -15 -4 -20 -12 -17 -28 2 -12 9 -24
16 -25 7 -1 8 0 2 3 -15 7 -12 43 4 43 8 0 17 -12 19 -27 2 -17 5 -10 6 20 0
26 -1 47 -4 47 -3 0 -5 -6 -5 -14z"/>
<path d="M5310 1886 c0 -7 -9 -16 -21 -19 -15 -4 -20 -12 -17 -28 2 -12 9 -24
16 -25 7 -1 8 0 2 3 -15 7 -12 43 4 43 8 0 17 -12 19 -27 2 -17 5 -10 6 20 0
26 -1 47 -4 47 -3 0 -5 -6 -5 -14z"/>
<path d="M5561 1859 c-1 -42 1 -46 22 -45 30 1 39 56 8 56 -11 0 -22 8 -24 18
-3 9 -5 -4 -6 -29z m39 -19 c0 -21 -15 -27 -25 -10 -7 12 2 30 16 30 5 0 9 -9
9 -20z"/>
<path d="M6050 1886 c0 -7 -9 -16 -21 -19 -15 -4 -20 -12 -17 -28 2 -12 9 -24
16 -25 7 -1 8 0 2 3 -15 7 -12 43 4 43 8 0 17 -12 19 -27 2 -17 5 -10 6 20 0
26 -1 47 -4 47 -3 0 -5 -6 -5 -14z"/>
<path d="M561 1848 c1 -24 3 -35 6 -25 2 9 11 17 18 17 8 0 16 4 19 9 4 5 -3
7 -14 4 -14 -4 -20 0 -20 12 0 12 6 16 20 12 11 -3 18 -1 14 4 -3 5 -14 9 -25
9 -16 0 -19 -7 -18 -42z"/>
<path d="M848 1877 c-7 -19 6 -60 20 -63 7 -1 8 0 2 3 -12 6 -13 40 -1 45 5 2
3 8 -4 15 -10 9 -14 9 -17 0z"/>
<path d="M2468 1877 c-7 -19 6 -60 20 -63 7 -1 8 0 2 3 -12 6 -13 40 -1 45 5
2 3 8 -4 15 -10 9 -14 9 -17 0z"/>
<path d="M3031 1848 c1 -24 3 -35 6 -25 5 19 14 22 29 7 6 -6 10 1 9 23 0 25
-5 33 -22 35 -21 3 -23 0 -22 -40z m39 17 c0 -8 -7 -15 -15 -15 -8 0 -15 7
-15 15 0 8 7 15 15 15 8 0 15 -7 15 -15z"/>
<path d="M5752 1874 c-7 -8 -8 -14 -2 -14 5 0 10 -11 10 -25 0 -14 3 -25 8
-25 7 0 8 68 0 75 -1 1 -9 -3 -16 -11z"/>
<path d="M6180 1876 c-20 -25 -8 -61 20 -63 25 -3 25 -3 3 7 -13 5 -23 18 -23
30 0 12 9 24 23 30 15 6 17 9 6 9 -9 1 -22 -6 -29 -13z"/>
<path d="M631 1836 c1 -21 3 -25 6 -11 3 11 9 25 14 31 5 7 3 11 -6 11 -10 0
-15 -10 -14 -31z"/>
<path d="M684 1855 c-13 -32 23 -63 40 -36 4 5 -3 7 -14 4 -16 -4 -20 0 -20
17 0 17 4 21 20 17 11 -3 18 -1 14 4 -8 14 -34 11 -40 -6z"/>
<path d="M794 1855 c-9 -23 3 -45 23 -44 17 1 17 2 1 6 -10 2 -18 9 -18 14 0
5 8 9 18 10 14 0 14 2 -3 8 l-20 8 20 5 c17 5 17 6 2 7 -10 0 -20 -6 -23 -14z"/>
<path d="M894 1855 c-13 -32 23 -63 40 -36 4 5 -3 7 -14 4 -16 -4 -20 0 -20
17 0 17 4 21 20 17 11 -3 18 -1 14 4 -8 14 -34 11 -40 -6z"/>
<path d="M960 1856 c0 -8 8 -17 18 -21 16 -7 15 -8 -3 -15 -19 -8 -19 -9 3 -9
26 -1 30 24 5 34 -17 7 -16 8 2 15 19 8 19 9 -2 9 -13 1 -23 -5 -23 -13z"/>
<path d="M1044 1855 c-9 -23 3 -45 23 -44 17 1 17 2 1 6 -10 2 -18 9 -18 14 0
5 8 9 18 10 14 0 14 2 -3 8 l-20 8 20 5 c17 5 17 6 2 7 -10 0 -20 -6 -23 -14z"/>
<path d="M1141 1836 c1 -28 2 -29 8 -7 9 34 29 37 34 6 4 -24 4 -24 3 2 -1 22
-6 28 -23 29 -19 1 -23 -4 -22 -30z"/>
<path d="M1230 1861 l25 -7 -24 -6 c-28 -8 -23 -32 8 -36 19 -3 22 0 19 25 -2
22 -9 28 -28 30 l-25 2 25 -8z m20 -31 c0 -5 -7 -10 -15 -10 -8 0 -15 5 -15
10 0 6 7 10 15 10 8 0 15 -4 15 -10z"/>
<path d="M1284 1855 c-13 -32 23 -63 40 -36 4 5 -3 7 -14 4 -16 -4 -20 0 -20
17 0 17 4 21 20 17 11 -3 18 -1 14 4 -8 14 -34 11 -40 -6z"/>
<path d="M1370 1856 c0 -8 8 -17 18 -21 16 -7 15 -8 -3 -15 -19 -8 -19 -9 3
-9 26 -1 30 24 5 34 -17 7 -16 8 2 15 19 8 19 9 -2 9 -13 1 -23 -5 -23 -13z"/>
<path d="M1434 1855 c-9 -23 3 -45 23 -44 17 1 17 2 1 6 -10 2 -18 9 -18 14 0
5 8 9 18 10 14 0 14 2 -3 8 l-20 8 20 5 c17 5 17 6 2 7 -10 0 -20 -6 -23 -14z"/>
<path d="M1524 1855 c-9 -23 3 -45 23 -44 17 1 17 2 1 6 -10 2 -18 9 -18 14 0
5 8 9 18 10 14 0 14 2 -3 8 l-20 8 20 5 c17 5 17 6 2 7 -10 0 -20 -6 -23 -14z"/>
<path d="M1581 1836 c1 -28 2 -29 8 -7 9 34 29 37 34 6 4 -24 4 -24 3 2 -1 22
-6 28 -23 29 -19 1 -23 -4 -22 -30z"/>
<path d="M1654 1855 c-8 -20 2 -45 18 -44 10 0 10 2 1 6 -18 7 -16 43 1 43 10
0 16 -13 19 -37 l4 -38 1 43 c2 36 -1 42 -18 42 -11 0 -23 -7 -26 -15z"/>
<path d="M1723 1846 c1 -17 9 -31 17 -33 10 -3 11 -2 4 4 -7 4 -14 19 -17 33
-4 22 -5 21 -4 -4z"/>
<path d="M1762 1840 c0 -19 2 -27 5 -17 2 9 2 25 0 35 -3 9 -5 1 -5 -18z"/>
<path d="M1810 1861 l25 -7 -24 -6 c-28 -8 -23 -32 8 -36 19 -3 22 0 19 25 -2
22 -9 28 -28 30 l-25 2 25 -8z m20 -31 c0 -5 -7 -10 -15 -10 -8 0 -15 5 -15
10 0 6 7 10 15 10 8 0 15 -4 15 -10z"/>
<path d="M1931 1836 c1 -21 3 -25 6 -11 3 11 9 25 14 31 5 7 3 11 -6 11 -10 0
-15 -10 -14 -31z"/>
<path d="M2000 1861 l25 -7 -24 -6 c-28 -8 -23 -32 8 -36 19 -3 22 0 19 25 -2
22 -9 28 -28 30 l-25 2 25 -8z m20 -31 c0 -5 -7 -10 -15 -10 -8 0 -15 5 -15
10 0 6 7 10 15 10 8 0 15 -4 15 -10z"/>
<path d="M2052 1840 c0 -19 2 -27 5 -17 2 9 2 25 0 35 -3 9 -5 1 -5 -18z"/>
<path d="M2077 1862 c6 -4 13 -18 16 -32 4 -25 4 -25 6 3 1 34 18 36 24 2 4
-23 4 -23 3 2 -1 23 -6 28 -31 30 -16 1 -25 -1 -18 -5z"/>
<path d="M2171 1836 c1 -28 2 -29 8 -7 9 34 29 37 34 6 4 -24 4 -24 3 2 -1 22
-6 28 -23 29 -19 1 -23 -4 -22 -30z"/>
<path d="M2260 1861 l25 -7 -24 -6 c-28 -8 -23 -32 8 -36 19 -3 22 0 19 25 -2
22 -9 28 -28 30 l-25 2 25 -8z m20 -31 c0 -5 -7 -10 -15 -10 -8 0 -15 5 -15
10 0 6 7 10 15 10 8 0 15 -4 15 -10z"/>
<path d="M2344 1855 c-9 -23 3 -45 23 -44 17 1 17 2 1 6 -10 2 -18 13 -18 23
0 10 8 21 18 23 16 4 16 5 -1 6 -10 0 -20 -6 -23 -14z"/>
<path d="M2420 1861 l25 -7 -24 -6 c-28 -8 -23 -32 8 -36 19 -3 22 0 19 25 -2
22 -9 28 -28 30 l-25 2 25 -8z m20 -31 c0 -5 -7 -10 -15 -10 -8 0 -15 5 -15
10 0 6 7 10 15 10 8 0 15 -4 15 -10z"/>
<path d="M2514 1855 c-9 -23 3 -45 23 -44 17 1 17 2 1 6 -10 2 -18 9 -18 14 0
5 8 9 18 10 14 0 14 2 -3 8 l-20 8 20 5 c17 5 17 6 2 7 -10 0 -20 -6 -23 -14z"/>
<path d="M2577 1863 c-4 -3 -7 -12 -7 -20 0 -20 28 -15 40 7 9 17 8 20 -8 20
-10 0 -22 -3 -25 -7z m23 -13 c0 -5 -4 -10 -10 -10 -5 0 -10 5 -10 10 0 6 5
10 10 10 6 0 10 -4 10 -10z"/>
<path d="M2634 1855 c-13 -32 23 -63 40 -36 4 5 -3 7 -14 4 -16 -4 -20 0 -20
17 0 17 4 21 20 17 11 -3 18 -1 14 4 -8 14 -34 11 -40 -6z"/>
<path d="M2701 1836 c1 -21 3 -25 6 -11 3 11 9 25 14 31 5 7 3 11 -6 11 -10 0
-15 -10 -14 -31z"/>
<path d="M2810 1861 l25 -7 -24 -6 c-28 -8 -23 -32 8 -36 19 -3 22 0 19 25 -2
22 -9 28 -28 30 l-25 2 25 -8z m20 -31 c0 -5 -7 -10 -15 -10 -8 0 -15 5 -15
10 0 6 7 10 15 10 8 0 15 -4 15 -10z"/>
<path d="M2954 1855 c-9 -23 3 -45 23 -44 17 1 17 2 1 6 -10 2 -18 9 -18 14 0
5 8 9 18 10 14 0 14 2 -3 8 l-20 8 20 5 c17 5 17 6 2 7 -10 0 -20 -6 -23 -14z"/>
<path d="M3104 1855 c-9 -23 3 -45 23 -44 17 1 17 2 1 6 -10 2 -18 9 -18 14 0
5 8 9 18 10 14 0 14 2 -3 8 l-20 8 20 5 c17 5 17 6 2 7 -10 0 -20 -6 -23 -14z"/>
<path d="M3164 1855 c-8 -20 2 -45 18 -44 10 0 10 2 1 6 -18 7 -16 43 1 43 10
0 16 -13 19 -37 l4 -38 1 43 c2 36 -1 42 -18 42 -11 0 -23 -7 -26 -15z"/>
<path d="M3233 1846 c1 -17 9 -31 17 -33 10 -3 11 -2 4 4 -7 4 -14 19 -17 33
-4 22 -5 21 -4 -4z"/>
<path d="M3272 1840 c0 -19 2 -27 5 -17 2 9 2 25 0 35 -3 9 -5 1 -5 -18z"/>
<path d="M3340 1856 c0 -8 8 -17 18 -21 16 -7 15 -8 -3 -15 -19 -8 -19 -9 3
-9 26 -1 30 24 5 34 -17 7 -16 8 2 15 19 8 19 9 -2 9 -13 1 -23 -5 -23 -13z"/>
<path d="M3444 1855 c-4 -8 -3 -23 2 -32 4 -10 6 -21 6 -25 -3 -15 16 -8 22 7
3 9 0 15 -9 15 -21 0 -19 38 3 43 16 4 16 5 -1 6 -10 0 -20 -6 -23 -14z"/>
<path d="M3504 1855 c-13 -32 23 -63 40 -36 4 5 -3 7 -14 4 -16 -4 -20 0 -20
17 0 17 4 21 20 17 11 -3 18 -1 14 4 -8 14 -34 11 -40 -6z"/>
<path d="M3574 1855 c-9 -23 3 -45 23 -44 17 1 17 2 1 6 -10 2 -18 9 -18 14 0
5 8 9 18 10 14 0 14 2 -3 8 l-20 8 20 5 c17 5 17 6 2 7 -10 0 -20 -6 -23 -14z"/>
<path d="M3630 1856 c0 -8 8 -17 18 -21 16 -7 15 -8 -3 -15 -19 -8 -19 -9 3
-9 26 -1 30 24 5 34 -17 7 -16 8 2 15 19 8 19 9 -2 9 -13 1 -23 -5 -23 -13z"/>
<path d="M3748 1863 c7 -3 16 -2 19 1 4 3 -2 6 -13 5 -11 0 -14 -3 -6 -6z"/>
<path d="M3824 1855 c-9 -23 3 -45 23 -44 17 1 17 2 1 6 -10 2 -18 13 -18 23
0 10 8 21 18 23 16 4 16 5 -1 6 -10 0 -20 -6 -23 -14z"/>
<path d="M3900 1861 l25 -7 -24 -6 c-28 -8 -23 -32 8 -36 19 -3 22 0 19 25 -2
22 -9 28 -28 30 l-25 2 25 -8z m20 -31 c0 -5 -7 -10 -15 -10 -8 0 -15 5 -15
10 0 6 7 10 15 10 8 0 15 -4 15 -10z"/>
<path d="M3951 1836 c1 -28 2 -29 8 -7 9 34 29 37 34 6 4 -24 4 -24 3 2 -1 22
-6 28 -23 29 -19 1 -23 -4 -22 -30z"/>
<path d="M4094 1855 c-13 -32 23 -63 40 -36 4 5 -3 7 -14 4 -16 -4 -20 0 -20
17 0 17 4 21 20 17 11 -3 18 -1 14 4 -8 14 -34 11 -40 -6z"/>
<path d="M4184 1855 c-9 -23 3 -45 23 -44 17 1 17 2 1 6 -10 2 -18 9 -18 14 0
5 8 9 18 10 14 0 14 2 -3 8 l-20 8 20 5 c17 5 17 6 2 7 -10 0 -20 -6 -23 -14z"/>
<path d="M4304 1855 c-9 -23 3 -45 23 -44 17 1 17 2 1 6 -10 2 -18 13 -18 23
0 10 8 21 18 23 16 4 16 5 -1 6 -10 0 -20 -6 -23 -14z"/>
<path d="M4403 1846 c1 -17 9 -31 17 -33 10 -3 11 -2 4 4 -7 4 -14 19 -17 33
-4 22 -5 21 -4 -4z"/>
<path d="M4442 1840 c0 -19 2 -27 5 -17 2 9 2 25 0 35 -3 9 -5 1 -5 -18z"/>
<path d="M4472 1840 c0 -19 2 -27 5 -17 2 9 2 25 0 35 -3 9 -5 1 -5 -18z"/>
<path d="M4590 1861 l25 -7 -24 -6 c-28 -8 -23 -32 8 -36 19 -3 22 0 19 25 -2
22 -9 28 -28 30 l-25 2 25 -8z m20 -31 c0 -5 -7 -10 -15 -10 -8 0 -15 5 -15
10 0 6 7 10 15 10 8 0 15 -4 15 -10z"/>
<path d="M4630 1856 c0 -8 8 -17 18 -21 16 -7 15 -8 -3 -15 -19 -8 -19 -9 3
-9 26 -1 30 24 5 34 -17 7 -16 8 2 15 19 8 19 9 -2 9 -13 1 -23 -5 -23 -13z"/>
<path d="M4774 1855 c-13 -32 23 -63 40 -36 4 5 -3 7 -14 4 -16 -4 -20 0 -20
17 0 17 4 21 20 17 11 -3 18 -1 14 4 -8 14 -34 11 -40 -6z"/>
<path d="M4864 1855 c-9 -23 3 -45 23 -44 17 1 17 2 1 6 -10 2 -18 9 -18 14 0
5 8 9 18 10 14 0 14 2 -3 8 l-20 8 20 5 c17 5 17 6 2 7 -10 0 -20 -6 -23 -14z"/>
<path d="M4920 1856 c0 -8 8 -17 18 -21 16 -7 15 -8 -3 -15 -19 -8 -19 -9 3
-9 26 -1 30 24 5 34 -17 7 -16 8 2 15 19 8 19 9 -2 9 -13 1 -23 -5 -23 -13z"/>
<path d="M4984 1855 c-9 -23 3 -45 23 -44 17 1 17 2 1 6 -10 2 -18 13 -18 23
0 10 8 21 18 23 16 4 16 5 -1 6 -10 0 -20 -6 -23 -14z"/>
<path d="M5044 1855 c-13 -32 23 -63 40 -36 4 5 -3 7 -14 4 -16 -4 -20 0 -20
17 0 17 4 21 20 17 11 -3 18 -1 14 4 -8 14 -34 11 -40 -6z"/>
<path d="M5113 1830 c0 -25 2 -35 4 -22 2 12 2 32 0 45 -2 12 -4 2 -4 -23z"/>
<path d="M5130 1866 c0 -2 7 -7 16 -10 8 -3 12 -2 9 4 -6 10 -25 14 -25 6z"/>
<path d="M5184 1855 c-13 -32 23 -63 40 -36 4 5 -3 7 -14 4 -16 -4 -20 0 -20
17 0 17 4 21 20 17 11 -3 18 -1 14 4 -8 14 -34 11 -40 -6z"/>
<path d="M5344 1855 c-9 -23 3 -45 23 -44 17 1 17 2 1 6 -10 2 -18 9 -18 14 0
5 8 9 18 10 14 0 14 2 -3 8 l-20 8 20 5 c17 5 17 6 2 7 -10 0 -20 -6 -23 -14z"/>
<path d="M5444 1855 c-8 -20 2 -45 18 -44 10 0 10 2 1 6 -7 2 -13 14 -13 25 0
14 5 18 16 14 8 -3 12 -2 9 4 -9 15 -25 12 -31 -5z"/>
<path d="M5494 1856 c-9 -24 4 -48 23 -44 12 2 18 12 18 28 0 29 -32 41 -41
16z m36 -16 c0 -11 -7 -20 -15 -20 -8 0 -15 9 -15 20 0 11 7 20 15 20 8 0 15
-9 15 -20z"/>
<path d="M5634 1856 c-10 -25 3 -46 28 -45 23 0 23 0 -2 11 l-25 11 23 5 c13
2 21 9 19 15 -6 19 -36 20 -43 3z m33 -2 c-3 -3 -12 -4 -19 -1 -8 3 -5 6 6 6
11 1 17 -2 13 -5z"/>
<path d="M5701 1836 c1 -21 3 -25 6 -11 3 11 9 25 14 31 5 7 3 11 -6 11 -10 0
-15 -10 -14 -31z"/>
<path d="M5804 1840 c1 -19 7 -25 24 -26 18 -1 22 4 21 30 -1 28 -2 29 -8 7
-9 -33 -29 -38 -34 -9 -4 21 -4 21 -3 -2z"/>
<path d="M5871 1836 c1 -21 3 -25 6 -11 3 11 9 25 14 31 5 7 3 11 -6 11 -10 0
-15 -10 -14 -31z"/>
<path d="M5935 1860 c17 -7 17 -9 3 -9 -26 -1 -24 -41 2 -41 16 0 20 7 20 30
0 25 -4 30 -22 29 -22 0 -22 -1 -3 -9z m15 -30 c0 -5 -4 -10 -10 -10 -5 0 -10
5 -10 10 0 6 5 10 10 10 6 0 10 -4 10 -10z"/>
<path d="M6100 1861 l25 -7 -24 -6 c-28 -8 -23 -32 8 -36 19 -3 22 0 19 25 -2
22 -9 28 -28 30 l-25 2 25 -8z m20 -31 c0 -5 -7 -10 -15 -10 -8 0 -15 5 -15
10 0 6 7 10 15 10 8 0 15 -4 15 -10z"/>
<path d="M6244 1855 c-13 -32 23 -63 40 -36 4 5 -3 7 -14 4 -16 -4 -20 0 -20
17 0 17 4 21 20 17 11 -3 18 -1 14 4 -8 14 -34 11 -40 -6z"/>
<path d="M6312 1840 c0 -19 2 -27 5 -17 2 9 2 25 0 35 -3 9 -5 1 -5 -18z"/>
<path d="M6337 1862 c6 -4 13 -18 16 -32 4 -25 4 -25 6 3 1 34 18 36 24 2 4
-23 4 -23 3 2 -1 23 -6 28 -31 30 -16 1 -25 -1 -18 -5z"/>
<path d="M6413 1830 c0 -25 2 -35 4 -22 2 12 2 32 0 45 -2 12 -4 2 -4 -23z"/>
<path d="M6430 1866 c0 -2 7 -7 16 -10 8 -3 12 -2 9 4 -6 10 -25 14 -25 6z"/>
<path d="M6483 1846 c1 -17 9 -31 17 -33 10 -3 11 -2 4 4 -7 4 -14 19 -17 33
-4 22 -5 21 -4 -4z"/>
<path d="M6522 1840 c0 -19 2 -27 5 -17 2 9 2 25 0 35 -3 9 -5 1 -5 -18z"/>
<path d="M6557 1863 c-4 -3 -7 -12 -7 -20 0 -20 28 -15 40 7 9 17 8 20 -8 20
-10 0 -22 -3 -25 -7z m23 -13 c0 -5 -4 -10 -10 -10 -5 0 -10 5 -10 10 0 6 5
10 10 10 6 0 10 -4 10 -10z"/>
<path d="M6611 1836 c1 -21 3 -25 6 -11 3 11 9 25 14 31 5 7 3 11 -6 11 -10 0
-15 -10 -14 -31z"/>
<path d="M6680 1861 l25 -7 -24 -6 c-28 -8 -23 -32 8 -36 19 -3 22 0 19 25 -2
22 -9 28 -28 30 l-25 2 25 -8z m20 -31 c0 -5 -7 -10 -15 -10 -8 0 -15 5 -15
10 0 6 7 10 15 10 8 0 15 -4 15 -10z"/>
<path d="M6738 1863 c7 -3 16 -2 19 1 4 3 -2 6 -13 5 -11 0 -14 -3 -6 -6z"/>
<path d="M4246 1834 c-9 -24 -7 -31 4 -14 9 13 11 13 20 0 11 -17 13 -10 4 14
-3 9 -10 16 -14 16 -4 0 -11 -7 -14 -16z"/>
<path d="M5140 1820 c-9 -6 -10 -10 -3 -10 6 0 15 5 18 10 8 12 4 12 -15 0z"/>
<path d="M6440 1820 c-9 -6 -10 -10 -3 -10 6 0 15 5 18 10 8 12 4 12 -15 0z"/>
<path d="M2590 1811 c23 -7 23 -8 5 -13 l-20 -5 20 1 c29 1 25 21 -5 23 l-25
2 25 -8z"/>
<path d="M6570 1811 c23 -7 23 -8 5 -13 l-20 -5 20 1 c29 1 25 21 -5 23 l-25
2 25 -8z"/>
<path d="M3703 1127 c-73 -56 -132 -105 -132 -108 -2 -14 112 -154 124 -153 7
1 78 53 159 115 l146 114 0 67 0 68 -82 0 -83 -1 -132 -102z m-43 -93 c0 -17
-22 -14 -28 4 -2 7 3 12 12 12 9 0 16 -7 16 -16z m-30 -19 c0 -8 -7 -15 -15
-15 -16 0 -20 12 -8 23 11 12 23 8 23 -8z"/>
<path d="M2953 900 c-42 -17 -38 -81 7 -95 27 -9 70 19 70 45 0 20 -33 61 -47
59 -5 0 -18 -4 -30 -9z m47 -51 c0 -16 -6 -19 -27 -16 -27 4 -41 32 -16 32 6
0 15 3 19 7 11 11 24 -1 24 -23z"/>
<path d="M3820 802 c-13 -5 -13 -92 0 -92 6 0 10 -7 10 -17 0 -15 1 -15 18 0
11 10 36 17 61 17 l42 0 -3 43 -3 42 -57 5 c-32 3 -62 4 -68 2z"/>
<path d="M2964 709 c-3 -6 -2 -15 4 -21 13 -13 55 -6 58 10 1 7 0 8 -3 2 -6
-14 -53 -13 -53 1 0 6 7 9 15 6 8 -4 17 -2 20 3 4 6 -3 10 -14 10 -11 0 -23
-5 -27 -11z"/>
<path d="M3080 633 c-28 -10 -59 -46 -70 -78 -28 -85 66 -170 150 -135 58 24
87 99 59 151 -15 29 -29 13 -18 -20 8 -22 7 -36 -5 -59 -8 -16 -13 -32 -11
-34 3 -3 -1 -5 -7 -6 -7 -1 -30 -5 -50 -8 -32 -5 -41 -2 -68 24 -58 59 -23
142 60 142 29 0 40 4 38 13 -5 13 -53 20 -78 10z"/>
<path d="M3756 525 c4 -8 11 -15 16 -15 6 0 5 6 -2 15 -7 8 -14 15 -16 15 -2
0 -1 -7 2 -15z"/>
<path d="M3315 445 c-16 -15 -25 -36 -25 -55 0 -32 38 -80 62 -80 7 0 4 6 -7
12 -30 16 -45 39 -45 70 0 63 78 90 125 43 14 -13 25 -20 25 -15 0 17 -53 50
-82 50 -17 0 -39 -10 -53 -25z"/>
<path d="M3531 413 l-1 -63 80 0 80 0 -1 63 c0 34 -3 55 -6 47 -11 -30 -47
-60 -73 -60 -26 0 -62 30 -73 60 -3 8 -6 -13 -6 -47z"/>
<path d="M3418 338 c-15 -15 -23 -28 -19 -28 9 0 56 49 50 53 -2 1 -16 -10
-31 -25z"/>
<path d="M0 125 l0 -25 4000 0 4000 0 0 25 0 25 -4000 0 -4000 0 0 -25z"/>
</g>
</svg>
