<?xml version="1.0" standalone="no"?>
<!DOCTYPE svg PUBLIC "-//W3C//DTD SVG 20010904//EN"
 "http://www.w3.org/TR/2001/REC-SVG-20010904/DTD/svg10.dtd">
<svg version="1.0" xmlns="http://www.w3.org/2000/svg"
 width="819.000000pt" height="460.000000pt" viewBox="0 0 819.000000 460.000000"
 preserveAspectRatio="xMidYMid meet">

<g transform="translate(0.000000,460.000000) scale(0.100000,-0.100000)"
fill="#000000" stroke="none">
<path d="M0 4533 c0 -49 5 -72 17 -87 17 -20 17 -20 1 -7 -17 13 -18 8 -18
-71 0 -53 5 -89 12 -97 10 -11 10 -13 1 -7 -25 14 -13 -18 20 -53 31 -32 21
-35 -15 -3 -17 14 -18 -14 -18 -581 0 -524 2 -597 15 -597 8 0 15 -4 15 -10 0
-5 -8 -10 -17 -10 -17 -1 -17 -1 -1 -11 22 -12 24 -49 3 -49 -13 0 -15 -51
-15 -395 0 -283 3 -401 12 -414 10 -16 17 -17 47 -9 20 6 41 14 46 18 6 5 10
-4 11 -23 0 -18 9 -58 18 -89 11 -32 16 -68 12 -82 -5 -20 -3 -24 9 -20 11 5
15 -1 15 -25 0 -17 -4 -31 -10 -31 -5 0 -7 -6 -4 -14 8 -20 -23 -28 -41 -10
-8 9 -15 20 -15 26 0 6 -3 8 -6 5 -9 -8 -44 11 -44 24 0 6 9 7 21 4 19 -6 21
-4 16 14 -4 18 -3 20 8 11 11 -9 12 -7 8 10 -3 11 -14 25 -23 30 -10 6 -21 23
-25 40 -6 29 -7 29 -31 14 -13 -9 -24 -21 -24 -26 0 -6 6 -5 15 2 25 21 31
-17 8 -48 -17 -23 -20 -44 -21 -142 -1 -132 -19 -106 150 -236 131 -100 370
-244 407 -244 6 0 33 33 61 72 87 126 121 168 136 168 22 0 14 -18 -70 -144
-75 -112 -79 -119 -61 -132 21 -16 45 -18 45 -5 0 5 13 23 30 41 16 17 29 35
29 38 -3 22 3 32 21 32 28 0 25 -25 -9 -88 -34 -60 -39 -54 77 -96 85 -30 86
-30 79 -12 -3 8 1 22 9 33 9 10 12 11 8 3 -5 -10 -1 -9 14 4 12 10 19 23 16
27 -6 11 -15 12 -11 2 1 -5 -3 -9 -8 -11 -6 -1 -11 9 -13 24 -3 22 -1 25 17
19 12 -4 21 -2 21 4 0 6 -8 11 -17 11 -15 0 -16 2 -3 10 8 5 30 10 49 10 22 0
40 8 52 22 21 24 24 38 8 38 -6 0 -8 7 -5 16 4 12 2 15 -9 10 -9 -3 -15 0 -15
9 0 19 -28 34 -51 28 -11 -3 -19 0 -19 6 0 6 8 8 18 4 9 -3 14 -3 10 2 -4 4
-3 14 3 21 7 8 6 14 -2 19 -6 4 -15 1 -20 -6 -7 -11 -9 -12 -9 -1 0 8 9 16 20
19 15 4 19 11 15 24 -4 11 -2 19 4 19 6 0 10 -5 9 -11 -2 -6 3 -13 10 -14 7
-2 8 -1 2 2 -5 2 -8 9 -4 14 7 12 61 12 68 0 3 -5 22 -12 41 -15 44 -9 63 7
57 47 -3 20 -1 28 6 23 6 -3 14 -1 18 5 4 7 3 9 -4 5 -16 -9 -24 9 -16 39 4
18 13 25 33 26 24 2 24 2 3 6 -32 6 -25 37 9 41 30 3 49 -26 27 -40 -7 -4 -8
-8 -3 -8 6 0 12 -13 13 -30 2 -26 -1 -30 -25 -30 -29 0 -29 -6 2 -12 11 -1 23
-12 26 -23 3 -12 12 -19 22 -17 9 2 17 -2 17 -8 0 -6 -10 -10 -22 -8 -21 3
-23 -1 -23 -37 -2 -92 -17 -194 -31 -199 -8 -3 -16 0 -19 7 -3 12 -17 67 -19
77 -1 3 -5 11 -9 18 -5 6 -6 16 -2 21 3 5 1 12 -5 16 -5 3 -10 19 -10 36 0 28
-1 29 -50 29 -37 0 -52 -4 -57 -16 -3 -8 -12 -13 -20 -10 -8 4 -11 1 -7 -5 3
-6 19 -9 34 -5 25 4 28 2 32 -25 3 -17 -1 -36 -8 -43 -8 -9 -9 -18 -2 -31 7
-12 7 -16 0 -11 -6 4 -16 -2 -21 -13 -14 -26 -14 -31 4 -31 26 0 16 -15 -17
-28 -17 -6 -28 -15 -25 -19 4 -4 -3 -13 -15 -20 -21 -11 -22 -12 -3 -13 15 0
17 -2 6 -9 -8 -6 -11 -16 -6 -31 6 -19 4 -22 -9 -17 -23 9 -20 -2 8 -28 36
-33 307 -86 508 -98 l66 -4 -9 26 c-6 14 -10 27 -10 29 4 13 -3 27 -24 46 -26
25 -28 30 -40 110 -7 42 -5 46 13 46 12 0 24 5 28 11 4 7 -2 9 -17 7 -19 -2
-24 2 -23 18 0 13 -7 21 -19 21 -23 2 -33 10 -23 20 4 4 20 2 36 -4 18 -7 32
-8 36 -2 3 5 2 9 -3 8 -22 -3 -53 15 -53 33 0 10 -7 30 -16 44 -15 23 -15 26
0 43 13 14 18 42 21 106 3 61 9 92 19 104 11 12 16 37 16 73 0 84 3 88 70 88
33 0 62 -4 65 -10 3 -5 8 -40 10 -77 2 -38 11 -90 19 -117 11 -33 14 -66 10
-102 -6 -48 -5 -54 12 -54 16 0 17 -2 4 -10 -13 -8 -13 -11 3 -22 13 -10 17
-23 14 -51 -2 -20 -6 -39 -9 -43 -3 -3 -25 -6 -49 -6 -36 0 -40 -2 -21 -9 12
-5 22 -11 22 -15 0 -3 -7 -4 -15 0 -8 3 -15 0 -15 -5 0 -6 9 -9 20 -6 11 3 20
1 20 -4 0 -4 8 -6 17 -3 15 5 15 4 3 -4 -8 -6 -17 -9 -21 -6 -4 2 -10 -2 -13
-8 -5 -10 -7 -10 -12 0 -8 17 -21 15 -21 -3 0 -8 7 -15 14 -15 8 0 12 -4 9 -9
-9 -14 55 -81 76 -81 10 0 18 -5 18 -11 0 -7 -7 -8 -17 -4 -11 4 -7 -5 11 -24
17 -17 35 -31 40 -31 16 0 50 -64 37 -68 -24 -8 -9 -17 32 -20 77 -5 350 34
329 47 -6 3 13 6 41 7 99 2 393 102 587 199 118 59 141 75 134 87 -4 6 -10 5
-14 -3 -7 -10 -12 -10 -23 0 -9 7 -18 8 -21 3 -3 -5 -16 -8 -28 -6 -79 11 -98
16 -93 24 3 5 -7 17 -21 27 -20 13 -29 14 -32 5 -2 -6 -11 -12 -20 -12 -15 0
-15 2 -2 10 11 7 3 10 -30 10 -33 0 -41 -3 -30 -10 11 -7 3 -10 -29 -10 -24 0
-41 -3 -38 -7 4 -3 38 -5 76 -4 60 2 70 0 74 -16 3 -11 5 -7 7 12 1 26 3 27
10 10 5 -11 9 -14 9 -7 1 7 5 11 11 7 5 -3 7 -12 4 -20 -4 -8 -10 -13 -14 -10
-5 3 -12 0 -16 -6 -5 -9 -11 -7 -21 6 -7 11 -13 14 -13 8 0 -6 -9 -13 -20 -16
-11 -3 -18 -2 -15 2 5 10 -62 8 -71 -2 -13 -13 -22 -7 -28 18 -4 14 -11 25
-16 25 -6 0 -10 4 -10 9 0 4 11 6 25 3 15 -2 25 0 25 8 0 7 -8 9 -19 5 -16 -5
-19 -1 -18 15 1 11 7 20 15 20 7 0 11 -4 7 -9 -3 -6 12 -8 37 -5 24 2 72 4
107 4 41 -1 67 3 72 11 6 10 11 10 24 -1 13 -11 20 -11 42 1 21 11 27 11 30 2
7 -20 60 -16 75 6 10 14 19 16 36 10 12 -5 22 -12 22 -16 0 -15 55 -30 79 -21
26 9 184 127 251 185 l44 40 -32 17 c-57 29 -212 76 -253 76 -26 0 -42 -5 -45
-15 -4 -8 -16 -15 -28 -14 -11 0 -15 3 -8 6 6 2 12 11 12 19 0 8 9 14 19 14
28 0 52 11 45 21 -3 5 0 9 5 9 6 0 11 -4 11 -10 0 -5 5 -10 11 -10 5 0 7 5 4
10 -3 6 0 10 7 10 9 0 9 3 -2 10 -10 6 -3 8 25 4 l40 -5 -23 20 c-20 17 -20
20 -5 19 10 0 25 2 34 6 12 5 18 1 23 -16 8 -33 8 -39 -7 -37 -6 1 -27 1 -45
0 -40 -1 -33 -21 7 -21 16 0 50 -9 77 -19 27 -11 70 -27 97 -37 26 -9 47 -21
47 -26 0 -5 -9 -4 -19 2 -11 5 -23 10 -28 10 -4 -1 5 -8 21 -16 28 -16 29 -15
72 27 24 24 44 49 44 56 0 7 9 17 20 23 11 6 18 15 15 21 -4 5 -2 8 4 7 13 -4
131 121 131 138 0 7 3 14 8 16 11 5 72 81 72 90 0 5 -3 7 -7 7 -5 -1 -23 -1
-40 0 -55 2 -37 21 20 21 l52 0 47 73 c64 99 192 347 179 347 -15 0 -14 27 2
33 9 4 8 8 -3 16 -12 9 -10 11 13 11 17 0 27 5 27 15 0 8 -7 15 -15 15 -8 0
-15 5 -15 11 0 5 -4 7 -10 4 -5 -3 -10 -1 -10 4 0 15 23 14 38 -1 16 -16 20
-10 48 66 l24 66 -55 0 -55 0 0 45 0 45 69 0 69 0 11 50 c6 28 11 55 11 60 0
6 -35 10 -77 10 l-78 0 -3 113 c-2 61 -5 126 -7 143 -3 26 0 33 18 38 31 8 34
8 51 -10 22 -22 20 -31 -11 -46 -26 -12 -28 -18 -31 -81 -2 -54 1 -67 13 -67
17 0 18 7 5 70 -8 45 2 76 22 64 5 -3 15 -1 23 6 11 9 17 6 30 -13 10 -16 22
-23 35 -20 27 7 62 48 58 68 -3 14 -8 13 -41 -9 -69 -47 -77 -3 -10 57 22 20
46 37 52 37 6 0 11 9 11 20 0 33 -26 23 -81 -30 -29 -27 -55 -50 -59 -50 -4 0
-14 8 -23 18 -14 16 -12 22 33 77 41 51 54 60 82 61 55 2 58 3 58 24 0 14 -6
19 -22 18 -26 -1 -42 6 -360 154 -131 61 -238 116 -238 121 0 6 3 7 7 4 3 -4
13 -1 21 6 12 9 14 9 8 0 -4 -8 10 -21 44 -37 45 -22 68 -25 171 -28 74 -1
113 -6 103 -11 -9 -5 -55 -7 -102 -4 -79 4 -84 3 -57 -9 17 -7 50 -14 75 -15
45 -2 45 -2 10 -8 l-35 -7 50 -16 c28 -8 54 -13 59 -10 10 6 37 9 171 21 73 7
80 8 35 10 -52 1 -53 2 -37 19 16 15 19 15 28 2 8 -13 11 -13 23 3 7 9 18 17
25 17 6 0 11 18 11 45 0 36 -4 45 -17 46 -11 0 -13 3 -5 6 16 6 15 33 -2 33
-7 0 -16 9 -19 20 -3 11 -12 20 -20 20 -20 0 -18 71 3 87 35 27 -4 246 -80
453 -16 45 -30 83 -30 86 0 2 898 4 1995 4 l1995 0 0 30 0 30 -4000 0 -4000 0
0 -67z m2195 -4 c4 -5 6 -37 6 -69 0 -46 3 -60 15 -60 10 0 14 13 14 50 0 28
5 50 10 50 6 0 10 -4 10 -10 0 -5 9 -10 20 -10 16 0 20 -7 20 -35 0 -24 5 -35
15 -35 8 0 15 8 15 18 1 15 2 15 13 1 7 -8 20 -18 30 -22 11 -4 17 -17 17 -37
0 -20 5 -30 15 -30 8 0 15 5 15 12 0 18 48 -31 107 -110 120 -161 184 -331
209 -554 l6 -58 -59 -2 -58 -1 60 -7 c77 -8 53 -19 -50 -23 l-80 -3 87 -2 86
-2 7 -31 c4 -17 3 -35 -2 -40 -4 -4 -44 -10 -88 -12 l-80 -3 83 -2 82 -2 0
-27 c0 -46 -11 -52 -95 -56 l-80 -3 83 -2 c86 -2 87 -2 73 -52 -6 -23 -13 -26
-71 -31 l-65 -6 63 -1 c34 -1 62 -4 62 -7 0 -3 -7 -21 -14 -40 -14 -33 -18
-35 -68 -37 l-53 -2 48 -3 c51 -4 52 -5 36 -52 -8 -24 -17 -31 -37 -32 -17 -1
-21 -3 -9 -6 23 -6 21 -24 -8 -67 -14 -20 -25 -39 -25 -42 0 -8 -83 -113 -123
-156 l-35 -38 -90 0 -91 0 -3 -72 -3 -73 -65 1 -65 2 55 -7 55 -7 -75 -37
c-41 -20 -79 -37 -86 -37 -6 0 -24 -6 -40 -14 -30 -15 -146 -27 -138 -15 2 4
-1 9 -7 11 -7 2 -12 45 -14 118 -3 147 -5 156 -20 95 l-13 -50 -1 59 c-1 48 2
57 14 52 11 -4 15 2 15 22 0 17 -3 22 -8 15 -6 -9 -17 -10 -41 -3 -38 11 -53
9 -63 -5 -5 -6 -12 -4 -18 5 -6 9 -6 18 0 24 6 6 9 28 9 51 l-2 40 -6 -40 c-4
-24 -11 -39 -19 -38 -15 4 -16 -9 0 -25 9 -9 9 -15 0 -24 -20 -20 -33 9 -30
62 l3 45 -37 3 c-29 2 -38 -1 -38 -12 0 -20 17 -30 24 -14 2 7 3 2 1 -12 -2
-14 -4 -38 -4 -55 -1 -20 -4 -26 -10 -17 -10 16 -21 -16 -21 -60 0 -21 -4 -25
-20 -21 -14 4 -20 0 -20 -11 0 -9 8 -16 20 -16 11 0 19 -3 19 -7 -4 -25 4 -33
31 -33 17 0 30 -4 30 -10 0 -5 -14 -10 -31 -10 -19 0 -28 -4 -23 -11 4 -7 -1
-9 -15 -5 -55 16 -64 15 -32 -1 39 -21 49 -38 26 -47 -9 -3 -14 -2 -11 3 13
20 -113 28 -143 9 -15 -9 -17 -17 -11 -40 7 -23 5 -30 -13 -39 -16 -9 -22 -9
-25 0 -2 6 -12 11 -23 11 -26 0 -99 30 -99 41 0 5 30 9 68 9 43 0 62 4 53 9
-8 5 -40 7 -72 4 -83 -6 -75 14 8 23 60 6 64 8 43 19 -19 10 -26 10 -38 -1
-18 -19 -32 -18 -32 2 0 9 9 18 21 21 14 4 19 12 16 24 -5 17 1 19 49 19 50 0
55 2 66 28 11 26 12 26 15 5 3 -13 11 -23 19 -23 10 0 14 8 12 23 -3 19 -10
22 -53 24 -43 3 -92 7 -117 12 -4 0 -9 56 -11 124 l-3 122 -2 -127 c-2 -106
-5 -128 -17 -128 -8 0 -15 5 -15 10 0 6 -8 11 -17 11 -17 1 -17 2 0 6 18 5 23
42 8 59 -5 5 -11 24 -13 43 -2 19 -9 36 -15 39 -10 3 -13 -13 -13 -56 l0 -60
-39 -4 c-52 -5 -61 -1 -61 26 0 15 -6 22 -19 22 -11 0 -17 -4 -15 -8 8 -13
-16 -9 -53 9 -30 14 -34 20 -31 45 3 15 1 28 -4 28 -4 0 -8 -12 -8 -26 0 -24
-2 -25 -37 -19 -21 3 -46 8 -55 11 -14 4 -18 -1 -18 -22 0 -23 -2 -25 -16 -13
-17 14 -74 94 -74 103 0 12 142 5 175 -8 35 -15 47 -12 39 8 -3 7 8 19 23 26
l28 14 -37 10 c-25 6 -38 15 -38 27 0 34 -29 85 -57 99 -15 8 -39 25 -52 38
-31 29 -53 25 -58 -10 -3 -20 1 -28 12 -28 8 0 15 -5 15 -11 0 -5 5 -7 10 -4
6 3 10 -5 10 -19 0 -13 6 -26 13 -29 9 -3 9 -9 -1 -26 -10 -18 -11 -26 -1 -37
11 -13 7 -15 -31 -10 -24 2 -46 10 -50 16 -4 6 -15 10 -25 8 -23 -4 -88 135
-79 171 3 14 -1 27 -11 35 -8 6 -22 35 -30 65 -13 49 -12 54 4 58 11 3 16 13
15 31 -1 15 -2 37 -3 50 0 13 -7 22 -17 22 -11 0 -14 -6 -9 -20 4 -12 2 -20
-6 -20 -9 0 -10 37 -6 153 8 191 12 210 44 204 22 -4 22 -3 8 13 -26 29 -19
50 18 51 31 2 31 2 4 6 -26 4 -28 7 -21 36 11 50 23 77 34 77 6 0 8 5 5 10 -3
6 -1 10 5 10 6 0 8 4 5 10 -8 13 28 81 91 170 62 90 191 215 276 271 l61 39
533 0 c345 -1 535 -4 539 -11z m1100 -61 c4 -40 11 -109 14 -153 l7 -80 7 120
c9 136 13 158 30 149 8 -5 8 -2 0 7 -18 19 -16 24 11 27 22 1 23 -2 25 -60 2
-84 11 -88 11 -5 0 38 4 67 10 67 8 0 17 -156 11 -192 0 -5 5 -8 13 -8 8 0 17
-6 19 -12 3 -7 6 38 6 101 1 63 3 112 5 110 3 -2 7 -47 10 -99 2 -52 5 -98 5
-102 2 -15 20 -8 24 10 3 9 5 -10 6 -42 1 -54 0 -58 -13 -41 -8 11 -12 23 -10
27 6 10 -10 11 -19 1 -4 -3 -3 -11 2 -17 12 -16 23 -208 11 -201 -6 3 -10 -5
-10 -19 0 -13 -5 -47 -11 -74 -11 -46 -14 -50 -47 -56 -38 -6 -52 -1 -52 17 0
7 4 6 11 -3 9 -13 10 -13 6 0 -2 9 -14 14 -28 13 -13 -1 -18 1 -11 3 14 6 17
34 3 34 -5 0 -12 -6 -14 -12 -4 -8 -6 -7 -6 4 -1 9 7 19 17 21 13 4 13 5 -4 6
-17 1 -25 13 -39 64 -24 86 -98 268 -146 354 -21 40 -39 81 -39 93 0 19 6 20
89 20 l89 0 7 -72z m315 42 c-4 -3 -7 -38 -8 -77 l-1 -73 42 -2 42 -1 -37 -4
c-36 -4 -38 -6 -38 -39 l0 -34 60 0 60 0 0 132 c0 72 2 129 4 127 3 -3 14
-173 16 -241 0 -15 10 -18 60 -18 l60 0 0 131 c0 84 4 128 10 124 6 -4 10 -58
10 -130 l0 -124 28 -4 c15 -2 -69 -5 -185 -6 l-213 -1 2 98 2 97 3 -92 4 -93
29 0 c28 0 30 3 30 35 0 29 -4 35 -22 36 l-23 2 23 4 c20 4 23 10 22 41 -1 20
-2 61 -1 90 1 45 3 51 15 40 8 -7 10 -15 6 -18z m-83 -27 c-3 -10 -5 -2 -5 17
0 19 2 27 5 18 2 -10 2 -26 0 -35z m140 -15 c-2 -13 -4 -3 -4 22 0 25 2 35 4
23 2 -13 2 -33 0 -45z m310 -150 c-3 -8 -6 -5 -6 6 -1 11 2 17 5 13 3 -3 4
-12 1 -19z m-3900 -55 c-3 -10 -5 -2 -5 17 0 19 2 27 5 18 2 -10 2 -26 0 -35z
m3900 15 c-3 -8 -6 -5 -6 6 -1 11 2 17 5 13 3 -3 4 -12 1 -19z m-450 -65 c-3
-10 -5 -2 -5 17 0 19 2 27 5 18 2 -10 2 -26 0 -35z m83 12 l0 -35 60 0 60 0 0
35 c0 19 5 35 10 35 6 0 10 -16 10 -35 l0 -35 65 0 65 0 2 38 c1 20 4 1 7 -43
6 -79 6 -80 36 -86 l30 -7 -33 -1 c-32 -1 -33 -3 -32 -38 3 -65 0 -127 -6
-121 -3 3 -5 42 -5 87 l0 81 -29 0 -30 0 -2 -87 -2 -88 -3 83 -4 82 -32 1
c-52 1 -2 17 56 18 47 1 47 1 47 36 l0 35 -65 0 -65 0 -1 -42 c0 -24 0 -80 1
-125 1 -53 -3 -83 -9 -83 -7 0 -11 30 -11 80 l0 80 -59 0 -60 0 -3 -32 -4 -33
-8 30 c-5 17 -14 33 -20 37 -8 5 -7 8 2 8 7 0 12 15 12 40 0 34 -3 40 -22 41
l-23 2 23 4 c18 4 22 11 22 39 0 19 5 34 10 34 6 0 10 -16 10 -35z m367 13
c-3 -8 -6 -5 -6 6 -1 11 2 17 5 13 3 -3 4 -12 1 -19z m-467 -54 c0 -13 -4 -24
-10 -24 -5 0 -10 14 -10 31 0 17 4 28 10 24 6 -3 10 -17 10 -31z m462 -150
c-6 -11 -11 -13 -16 -5 -4 6 -2 11 3 11 7 0 12 29 13 73 l2 72 3 -68 c2 -37 0
-74 -5 -83z m-446 79 c-10 -26 -18 -8 -9 23 5 21 8 24 11 11 2 -10 1 -25 -2
-34z m31 -19 c-3 -3 -12 -4 -19 -1 -8 3 -5 6 6 6 11 1 17 -2 13 -5z m121 -91
c-1 -65 -2 -70 -7 -33 -6 44 -3 110 5 110 2 0 3 -35 2 -77z m366 -12 c2 -28 0
-54 -5 -57 -5 -3 -9 23 -9 57 0 74 9 74 14 0z m-549 19 c-4 -12 -9 -19 -12
-17 -3 3 -2 15 2 27 4 12 9 19 12 17 3 -3 2 -15 -2 -27z m25 -67 l-51 -78 31
-8 c41 -11 38 -17 -7 -11 -24 3 -42 -1 -53 -11 -16 -14 -18 -14 -23 0 -4 8 -2
15 3 15 18 0 58 50 65 80 4 16 11 30 17 30 6 0 7 7 4 16 -3 8 -2 13 3 10 4 -3
18 9 31 26 46 63 30 7 -20 -69z m452 47 c-4 -3 -10 -9 -13 -13 -3 -5 -8 2 -11
16 -4 22 -3 24 13 14 10 -6 15 -14 11 -17z m-362 -32 c0 -16 -4 -28 -10 -28
-5 0 -10 19 -10 43 0 31 3 38 10 27 5 -8 10 -27 10 -42z m-77 -30 c-4 -7 -6
-26 -4 -42 1 -15 -1 -26 -6 -23 -16 10 -4 77 13 77 3 0 2 -6 -3 -12z m72 -58
c1 -21 -3 -36 -7 -34 -5 3 -8 23 -6 45 2 48 12 41 13 -11z m145 30 c0 -11 -4
-20 -9 -20 -6 0 -9 9 -8 20 1 11 5 20 9 20 4 0 8 -9 8 -20z m137 -12 c-3 -7
-5 -2 -5 12 0 14 2 19 5 13 2 -7 2 -19 0 -25z m-472 -7 c3 -5 2 -12 -3 -15 -5
-3 -9 1 -9 9 0 17 3 19 12 6z m562 -23 c-3 -8 -6 -5 -6 6 -1 11 2 17 5 13 3
-3 4 -12 1 -19z m-204 -15 c-7 -2 -19 -2 -25 0 -7 3 -2 5 12 5 14 0 19 -2 13
-5z m-218 -23 c3 -5 -1 -10 -9 -10 -9 0 -16 5 -16 10 0 6 4 10 9 10 6 0 13 -4
16 -10z m262 -12 c-3 -8 -6 -5 -6 6 -1 11 2 17 5 13 3 -3 4 -12 1 -19z m-17
-41 c42 -3 41 -4 -12 -5 -49 -2 -56 0 -51 14 3 9 8 11 12 6 4 -6 27 -12 51
-15z m-374 -20 c-20 -15 -37 -102 -30 -153 4 -29 3 -35 -5 -24 -6 8 -11 29
-12 45 l-1 30 -8 -30 c-7 -27 -8 -25 -9 18 -1 46 13 65 22 30 3 -11 5 -6 6 11
1 21 -3 27 -14 22 -8 -3 -15 -2 -15 3 0 5 10 12 23 16 l22 7 -25 8 -25 8 27 1
c17 1 32 9 39 23 8 15 14 19 17 10 2 -7 -3 -19 -12 -25z m213 0 c-9 -9 -200
-16 -195 -8 3 5 49 9 103 10 53 1 95 0 92 -2z m-91 -44 c-21 -2 -57 -2 -80 0
-24 2 -7 4 37 4 44 0 63 -2 43 -4z m165 0 c-7 -2 -21 -2 -30 0 -10 3 -4 5 12
5 17 0 24 -2 18 -5z m300 0 c-18 -2 -48 -2 -65 0 -18 2 -4 4 32 4 36 0 50 -2
33 -4z m-543 -44 c0 -5 4 -8 8 -5 4 3 25 1 45 -3 26 -6 41 -5 54 5 10 7 39 14
65 14 38 0 48 -4 53 -20 5 -15 11 -18 23 -11 9 4 31 11 48 14 26 5 33 2 37
-13 2 -10 0 -23 -5 -28 -6 -6 -10 -29 -10 -51 1 -36 -2 -41 -22 -41 -31 0 -37
-9 -25 -32 6 -11 9 -21 7 -23 -6 -6 -58 7 -53 14 2 4 -22 3 -53 -1 -31 -5 -76
-11 -99 -13 -23 -2 -60 -13 -84 -25 -59 -31 -71 -17 -58 70 19 126 20 135 24
148 5 15 45 16 45 1z m360 -13 c0 -3 -4 -8 -10 -11 -5 -3 -10 -1 -10 4 0 6 5
11 10 11 6 0 10 -2 10 -4z m59 -22 c21 -15 23 -22 19 -99 -1 -46 -6 -86 -9
-89 -11 -11 -39 6 -39 23 0 12 2 13 9 3 6 -10 10 -4 15 18 8 43 0 53 -40 46
l-33 -7 3 47 c2 32 9 51 21 60 24 18 26 17 54 -2z m83 -100 c-14 -30 -29 -54
-33 -54 -3 0 -7 32 -8 70 l-2 70 35 -16 34 -17 -26 -53z m98 20 c17 -9 28 -19
23 -23 -5 -3 -30 -36 -56 -73 -27 -38 -52 -68 -56 -68 -18 0 -32 30 -25 52 10
34 65 128 73 128 5 0 23 -7 41 -16z m-688 -46 c-10 -22 -11 -21 -11 12 -1 26
2 31 11 22 8 -8 8 -17 0 -34z m468 -38 c0 -5 -5 -10 -11 -10 -5 0 -7 5 -4 10
3 6 8 10 11 10 2 0 4 -4 4 -10z m-474 -68 c-14 -14 -16 -14 -16 -1 0 20 23 44
29 28 2 -6 -4 -18 -13 -27z m111 -19 c-3 -3 -11 -2 -17 2 -9 6 -9 10 1 16 14
8 27 -7 16 -18z m237 -45 c14 3 16 -1 11 -17 -6 -19 -2 -21 46 -21 29 0 49 -3
45 -7 -3 -4 -27 -6 -51 -4 -42 2 -45 0 -45 -23 0 -14 -6 -28 -12 -33 -8 -5 1
-10 27 -14 l40 -6 -37 -2 c-36 -1 -38 -2 -38 -36 l0 -35 65 0 65 0 0 35 c0 26
-4 35 -17 36 -17 1 -17 2 0 6 14 4 17 16 17 74 0 52 3 69 14 69 34 0 41 -30
45 -211 l3 -179 -96 0 c-53 0 -96 -4 -96 -8 0 -5 -13 -9 -30 -9 -16 0 -30 4
-30 9 0 4 9 8 20 8 17 0 20 7 20 40 0 38 -2 40 -30 40 -28 0 -30 -3 -32 -37
l-1 -38 -4 38 c-4 33 -7 37 -34 37 -27 0 -29 -3 -30 -37 -1 -21 -3 -29 -6 -18
-2 11 -6 30 -9 43 -3 16 -12 22 -30 22 -21 0 -23 -3 -14 -19 13 -25 13 -61 0
-61 -5 0 -10 16 -10 35 0 32 -2 35 -31 35 -30 0 -31 -1 -27 -40 3 -31 0 -40
-12 -41 -8 -1 -1 -5 15 -10 23 -6 19 -7 -19 -4 -27 3 -81 5 -119 5 -55 0 -68
3 -59 12 7 7 43 11 97 10 l86 -1 -3 37 c-3 34 -5 37 -35 37 -31 0 -33 2 -33
37 0 34 -3 38 -25 38 -23 0 -25 -4 -26 -42 0 -33 -2 -38 -9 -22 -4 11 -6 32
-3 47 4 22 11 27 34 27 26 0 29 3 29 35 0 29 -4 35 -22 36 l-23 2 23 4 c17 4
22 11 22 38 0 18 -6 35 -12 38 -10 3 -10 7 1 20 11 14 16 15 29 5 9 -7 13 -8
9 -2 -8 14 20 54 39 54 8 0 14 -4 14 -10 0 -5 13 -10 29 -10 17 0 33 5 36 10
3 6 15 10 26 10 16 0 19 -7 19 -50 0 -27 5 -50 10 -50 6 0 10 -28 10 -65 l0
-65 30 0 30 0 0 75 0 75 -32 2 -33 1 33 4 c30 4 32 7 34 46 l1 42 4 -42 c4
-40 6 -43 34 -43 28 0 29 2 30 48 1 40 2 43 8 17 5 -22 12 -29 25 -27z m-167
-20 c-3 -7 -5 -2 -5 12 0 14 2 19 5 13 2 -7 2 -19 0 -25z m46 -105 c-7 -2 -19
-2 -25 0 -7 3 -2 5 12 5 14 0 19 -2 13 -5z m177 -49 c0 -8 -5 -12 -10 -9 -6 4
-8 11 -5 16 9 14 15 11 15 -7z m-443 -100 c-3 -3 -12 -4 -19 -1 -8 3 -5 6 6 6
11 1 17 -2 13 -5z m701 -91 c-16 -2 -40 -2 -55 0 -16 2 -3 4 27 4 30 0 43 -2
28 -4z m-498 -32 c14 -26 13 -29 -9 -41 -15 -7 -23 -6 -35 6 -12 12 -13 20 -6
35 14 24 36 24 50 0z m328 12 c-21 -2 -55 -2 -75 0 -21 2 -4 4 37 4 41 0 58
-2 38 -4z m150 0 c-10 -2 -28 -2 -40 0 -13 2 -5 4 17 4 22 1 32 -1 23 -4z m65
0 c-7 -2 -21 -2 -30 0 -10 3 -4 5 12 5 17 0 24 -2 18 -5z m-685 -24 c2 -5 17
-9 33 -9 27 0 29 -2 29 -41 l0 -41 -122 3 -123 4 -3 -115 c-2 -76 -7 -117 -15
-122 -9 -6 -9 -8 1 -8 7 0 12 -14 12 -34 0 -26 -5 -35 -22 -40 -42 -11 -48 -7
-48 30 0 28 3 35 15 30 22 -8 33 22 30 84 -3 78 -3 77 -25 83 -11 3 -20 11
-20 17 0 7 7 10 15 6 8 -3 15 -1 15 3 0 5 -5 11 -11 13 -9 3 30 90 68 151 7
12 167 -1 171 -14z m500 -41 l3 -48 -125 0 c-107 0 -126 2 -126 16 0 8 5 12
10 9 6 -3 10 1 10 10 0 11 4 13 13 8 6 -4 32 -9 57 -9 25 -1 50 -3 55 -4 6 -1
27 -2 48 -1 30 1 37 5 37 21 0 13 -10 24 -26 30 -27 11 -142 3 -181 -11 -19
-7 -23 -5 -23 12 0 19 6 19 123 17 l122 -3 3 -47z m-3001 20 c-3 -8 -6 -5 -6
6 -1 11 2 17 5 13 3 -3 4 -12 1 -19z m73 7 c0 -8 -4 -15 -10 -15 -5 0 -10 7
-10 15 0 8 5 15 10 15 6 0 10 -7 10 -15z m223 -42 c-7 -2 -19 -2 -25 0 -7 3
-2 5 12 5 14 0 19 -2 13 -5z m437 -36 c19 -3 16 -5 -12 -6 -30 -1 -36 2 -31
15 3 9 8 11 12 6 3 -6 17 -12 31 -15z m147 17 c-3 -3 -12 -4 -19 -1 -8 3 -5 6
6 6 11 1 17 -2 13 -5z m-637 -39 c0 -8 -4 -15 -10 -15 -5 0 -7 7 -4 15 4 8 8
15 10 15 2 0 4 -7 4 -15z m-36 -4 c4 -5 -3 -7 -14 -4 -23 6 -26 13 -6 13 8 0
17 -4 20 -9z m143 -68 c-3 -10 -5 -4 -5 12 0 17 2 24 5 18 2 -7 2 -21 0 -30z
m-1045 -43 c-6 -43 -12 -37 -12 13 0 25 4 37 8 29 5 -7 7 -26 4 -42z m3675 35
c18 -19 10 -47 -12 -40 -8 3 -22 7 -31 10 -12 4 -14 8 -5 19 6 7 8 16 4 19 -3
4 1 7 11 7 10 0 24 -7 33 -15z m-2723 -14 c4 -5 -3 -7 -14 -4 -23 6 -26 13 -6
13 8 0 17 -4 20 -9z m606 -16 c0 -8 -4 -15 -10 -15 -5 0 -10 7 -10 15 0 8 5
15 10 15 6 0 10 -7 10 -15z m-1583 -138 c-2 -23 -3 -1 -3 48 0 50 1 68 3 42 2
-26 2 -67 0 -90z m3306 114 c13 -1 17 -10 17 -39 0 -51 -14 -62 -77 -62 -46 0
-52 2 -46 18 4 9 11 20 17 24 7 5 5 8 -5 8 -9 0 -20 7 -23 16 -3 8 -2 12 4 9
6 -3 10 3 10 15 0 19 4 20 43 16 23 -3 50 -5 60 -5z m-1982 -47 c11 -10 19
-28 19 -41 0 -22 -3 -24 -42 -21 -34 2 -43 7 -42 21 1 9 -2 17 -7 17 -5 0 -9
13 -9 29 0 28 1 29 31 21 18 -5 40 -17 50 -26z m109 26 c0 -5 -5 -10 -11 -10
-5 0 -7 5 -4 10 3 6 8 10 11 10 2 0 4 -4 4 -10z m100 -10 c6 -11 8 -20 6 -20
-3 0 -10 9 -16 20 -6 11 -8 20 -6 20 3 0 10 -9 16 -20z m1400 11 c0 -5 9 -11
20 -14 32 -8 24 -30 -9 -25 -17 2 -28 1 -25 -4 3 -4 0 -8 -5 -8 -6 0 -11 6
-12 13 0 6 -2 20 -4 30 -2 11 3 17 16 17 10 0 19 -4 19 -9z m679 -7 c11 -10 5
-54 -7 -54 -7 0 -11 4 -7 9 3 5 0 13 -6 17 -8 4 -9 3 -5 -4 4 -7 1 -12 -6 -12
-7 -1 -2 -7 12 -16 24 -14 24 -14 -15 -8 -45 7 -58 14 -29 14 18 1 18 1 2 11
-21 12 -24 39 -5 39 8 0 7 4 -3 11 -11 7 -4 8 25 3 22 -4 42 -8 44 -10z m117
-19 c0 -17 -3 -36 -9 -42 -10 -14 -66 -18 -68 -5 -1 4 -3 24 -4 45 l-4 38 42
-3 c39 -3 42 -6 43 -33z m-2086 9 c0 -8 -4 -12 -10 -9 -5 3 -10 10 -10 16 0 5
5 9 10 9 6 0 10 -7 10 -16z m-270 2 c0 -2 -7 -7 -16 -10 -8 -3 -12 -2 -9 4 6
10 25 14 25 6z m1520 -35 c0 -24 3 -28 20 -24 17 5 20 0 20 -31 0 -42 -10 -45
-70 -19 -44 20 -51 37 -19 53 11 7 18 14 15 17 -7 7 13 33 25 33 5 0 9 -13 9
-29z m595 19 c3 -6 -1 -7 -9 -4 -18 7 -21 14 -7 14 6 0 13 -4 16 -10z m-25
-30 c0 -6 -10 -10 -22 -9 -13 0 -17 3 -10 6 10 4 10 8 0 21 -12 13 -10 14 10
3 12 -6 22 -16 22 -21z m-1820 10 c0 -5 -4 -10 -10 -10 -5 0 -10 5 -10 10 0 6
5 10 10 10 6 0 10 -4 10 -10z m-263 -32 c-3 -8 -6 -5 -6 6 -1 11 2 17 5 13 3
-3 4 -12 1 -19z m123 -18 c0 -5 -4 -10 -9 -10 -6 0 -13 5 -16 10 -3 6 1 10 9
10 9 0 16 -4 16 -10z m1950 -10 c0 -5 -8 -10 -17 -10 -15 0 -16 2 -3 10 19 12
20 12 20 0z m46 -7 c0 -10 -5 -21 -11 -25 -6 -5 -5 -8 3 -8 6 0 12 -5 12 -11
0 -6 -7 -8 -16 -5 -8 3 -12 2 -9 -3 8 -14 -12 -23 -35 -16 -13 4 -20 15 -20
31 0 20 5 24 29 24 16 0 31 6 35 15 7 20 14 19 12 -2z m116 -25 c3 -33 0 -40
-18 -44 -13 -3 -31 -4 -41 -2 -22 4 -30 47 -11 59 10 7 10 9 1 9 -7 0 -13 5
-13 10 0 6 17 10 39 9 38 -3 39 -4 43 -41z m104 33 c6 -1 9 -14 6 -31 -2 -16
-8 -27 -13 -24 -5 3 -9 1 -9 -5 0 -5 6 -12 13 -14 6 -3 -1 -6 -18 -6 -16 0
-35 3 -40 7 -9 6 -12 55 -6 76 0 3 13 3 29 1 15 -2 32 -4 38 -4z m-866 -21 c0
-5 -17 -10 -37 -10 -28 0 -34 3 -23 10 20 13 60 13 60 0z m411 -14 c-9 -11 -8
-15 5 -20 13 -5 15 -9 6 -18 -7 -7 -12 -25 -12 -41 0 -15 -3 -26 -8 -23 -4 2
-7 20 -6 39 2 28 -1 34 -13 30 -13 -5 -13 -2 -4 15 9 17 22 28 40 31 2 1 -2
-5 -8 -13z m34 4 c3 -5 1 -10 -4 -10 -6 0 -11 5 -11 10 0 6 2 10 4 10 3 0 8
-4 11 -10z m-367 -97 c-3 -88 -3 -88 -30 -91 -25 -3 -28 0 -28 26 0 16 -7 36
-17 43 -15 13 -13 15 13 20 l29 7 -31 1 c-19 1 -41 11 -57 27 l-26 26 -26 -26
c-14 -14 -33 -26 -42 -26 -12 0 -6 12 22 40 39 40 39 40 117 40 l79 0 -3 -87z
m43 50 c-9 -16 -10 -14 -11 12 0 21 3 26 11 18 8 -8 8 -16 0 -30z m515 -33
c21 0 18 -40 -3 -41 -17 -1 -17 -2 0 -6 20 -5 23 -23 3 -23 -21 0 -39 27 -33
49 3 11 2 22 -2 24 -3 2 0 2 7 0 8 -1 20 -3 28 -3z m107 0 c13 0 17 -8 17 -33
0 -32 -2 -34 -40 -35 l-40 -2 0 41 c0 38 2 41 23 35 12 -3 30 -6 40 -6z m105
1 c11 -7 11 -9 -2 -14 -9 -4 -16 -14 -16 -24 -1 -15 -4 -15 -20 6 -11 12 -17
27 -14 32 7 11 35 11 52 0z m-911 -17 c-3 -3 -12 -4 -19 -1 -8 3 -5 6 6 6 11
1 17 -2 13 -5z m-77 -25 c0 -17 -3 -19 -14 -10 -11 10 -16 8 -24 -6 -6 -10
-14 -14 -19 -10 -8 9 31 47 48 47 5 0 9 -10 9 -21z m-2430 -30 c0 -4 -7 -6
-15 -3 -8 4 -15 10 -15 15 0 4 7 6 15 3 8 -4 15 -10 15 -15z m2746 -7 c1 -12
-1 -20 -5 -16 -3 3 -6 11 -6 17 0 7 -8 11 -18 11 -9 -1 -17 3 -17 8 0 5 10 8
23 6 15 -2 22 -10 23 -26z m-288 -19 c-2 -13 -13 -18 -36 -18 -37 0 -42 12 -9
25 35 14 49 12 45 -7z m98 -30 c-1 -1 -12 1 -25 4 -23 6 -23 7 -5 20 16 12 19
11 25 -4 4 -10 6 -19 5 -20z m-222 1 c11 -27 7 -71 -8 -83 -11 -9 -13 -2 -14
44 0 53 10 71 22 39z m302 -56 c-8 -83 -26 -100 -26 -25 0 31 -4 57 -9 57 -5
0 -11 7 -15 15 -4 11 2 15 26 15 l31 0 -7 -62z m174 58 c0 -11 -19 -15 -25 -6
-3 5 1 10 9 10 9 0 16 -2 16 -4z m307 -12 c-3 -3 -12 -4 -19 -1 -8 3 -5 6 6 6
11 1 17 -2 13 -5z m180 -16 c-3 -8 -6 -5 -6 6 -1 11 2 17 5 13 3 -3 4 -12 1
-19z m-765 0 c-9 -9 -15 -9 -24 0 -9 9 -7 12 12 12 19 0 21 -3 12 -12z m446
-10 c20 -20 14 -36 -13 -34 -26 1 -29 5 -19 30 7 19 16 20 32 4z m239 -30 c-3
-7 -5 -2 -5 12 0 14 2 19 5 13 2 -7 2 -19 0 -25z m-232 -26 c-3 -3 -11 0 -18
7 -9 10 -8 11 6 5 10 -3 15 -9 12 -12z m-625 -12 c0 -5 -5 -10 -11 -10 -5 0
-7 5 -4 10 3 6 8 10 11 10 2 0 4 -4 4 -10z m388 -77 c16 -35 15 -53 -2 -53
-18 0 -22 6 -31 48 -8 41 14 44 33 5z m-638 -25 c8 -3 24 -35 35 -72 21 -70
30 -76 74 -52 l25 14 -31 15 c-17 9 -33 23 -37 32 -5 13 5 15 62 13 38 -1 74
2 80 6 17 10 15 -1 -7 -32 -28 -39 -37 -92 -16 -92 8 0 18 -6 21 -14 4 -10 16
-12 45 -9 32 5 39 3 39 -11 0 -12 -10 -16 -42 -17 -24 0 -37 -3 -29 -6 11 -5
11 -7 0 -14 -10 -6 -7 -8 8 -6 12 0 19 6 15 12 -3 5 2 4 11 -3 9 -8 21 -11 27
-7 6 4 10 -7 10 -29 0 -26 -4 -34 -14 -30 -8 3 -17 0 -21 -5 -3 -6 -10 -9 -15
-6 -5 3 -12 1 -15 -5 -5 -8 -11 -7 -21 1 -10 8 -14 8 -14 0 0 -6 -5 -11 -11
-11 -5 0 -7 6 -3 13 6 9 4 9 -7 1 -8 -6 -25 -11 -38 -12 -13 0 -26 -3 -29 -7
-8 -8 31 -34 42 -28 5 4 6 1 2 -6 -4 -6 -11 -9 -16 -6 -5 3 -11 1 -15 -5 -7
-12 -85 -9 -85 3 0 5 -5 5 -10 2 -6 -4 -8 -10 -6 -14 3 -4 -11 -6 -32 -4 -20
2 -71 5 -112 8 -41 3 -76 9 -78 15 -2 5 -13 10 -25 10 -20 0 -20 0 -1 -15 18
-14 18 -14 -6 -16 -14 -1 -28 -1 -32 -1 -3 1 -9 -5 -12 -13 -4 -12 5 -15 47
-15 45 0 58 -5 87 -31 l35 -30 -63 5 c-40 4 -74 13 -92 26 -15 11 -33 20 -39
20 -6 0 -11 5 -11 10 0 16 -27 11 -34 -6 -8 -20 2 -33 12 -17 6 9 11 7 19 -6
10 -15 7 -17 -18 -13 -21 3 -29 10 -29 24 0 11 -5 16 -10 13 -6 -4 -8 -15 -5
-24 3 -12 0 -18 -10 -18 -9 0 -14 5 -12 12 3 6 -5 12 -16 13 -18 1 -19 -1 -7
-9 18 -13 5 -8 -32 10 -26 13 -28 20 -30 75 -3 91 1 149 12 160 6 6 10 23 10
38 0 23 4 28 25 28 18 0 25 -6 26 -20 1 -11 3 -24 4 -30 1 -5 3 -14 4 -20 0
-5 5 -10 10 -10 14 0 30 56 24 80 -7 26 0 31 92 66 39 15 74 31 80 35 5 5 19
9 32 9 21 0 22 -2 11 -26 -8 -17 -8 -28 -2 -32 6 -4 13 -15 17 -24 4 -13 1
-18 -11 -18 -15 0 -15 -2 -2 -10 8 -5 42 -9 75 -9 43 0 54 3 40 9 -11 5 -15 9
-10 10 6 0 2 6 -7 14 -11 8 -18 30 -20 57 -2 36 0 44 14 43 13 -1 16 5 13 28
l-4 30 22 -19 c12 -11 29 -22 37 -25z m-5 32 c3 -5 -1 -10 -9 -10 -9 0 -16 5
-16 10 0 6 4 10 9 10 6 0 13 -4 16 -10z m166 -40 c49 0 69 -4 69 -13 0 -9 -25
-13 -85 -15 -81 -2 -85 -1 -85 19 0 15 4 19 16 15 9 -3 47 -6 85 -6z m714 -10
c-3 -4 0 -11 5 -13 6 -3 5 -4 -1 -3 -7 1 -13 10 -15 19 -1 9 2 15 7 11 5 -3 7
-9 4 -14z m-341 -57 c-9 -7 -20 -10 -25 -8 -4 3 -11 0 -15 -6 -4 -8 -3 -9 4
-5 7 4 12 3 12 -3 0 -5 -10 -11 -22 -13 -13 -2 -22 -9 -20 -16 1 -6 -4 -12
-10 -12 -9 0 -8 -4 2 -10 8 -5 11 -10 5 -10 -5 0 -3 -5 5 -10 12 -8 9 -10 -12
-10 -15 0 -30 5 -33 10 -3 6 -2 10 4 10 6 0 8 19 4 50 l-6 50 62 -2 c53 -2 60
-4 45 -15z m-172 -28 c4 -16 1 -25 -8 -25 -7 0 -11 8 -9 18 2 9 4 20 4 25 2
15 9 6 13 -18z m389 11 c3 -33 8 -64 14 -92 5 -21 3 -34 -6 -39 -9 -6 -10 -3
-5 10 3 10 0 27 -7 39 -8 12 -17 37 -21 57 -5 28 -3 36 9 36 8 0 15 -5 16 -11z
m-167 -11 c-4 -10 0 -15 14 -15 19 0 39 -16 31 -25 -2 -2 -30 -6 -61 -10 -69
-9 -75 3 -20 39 45 30 43 29 36 11z m-510 -6 c-4 -8 1 -9 17 -5 20 6 21 5 6
-4 -19 -12 -41 -4 -32 11 4 5 8 9 11 9 3 0 2 -5 -2 -11z m291 -65 c0 -16 5
-32 10 -36 6 -4 1 -8 -11 -8 -17 0 -21 7 -22 41 -1 28 2 39 11 36 6 -2 12 -17
12 -33z m-1843 -5 c2 -7 -6 -32 -19 -58 -12 -25 -22 -53 -22 -61 1 -13 1 -13
6 0 3 8 17 26 31 40 13 14 22 21 20 15 -2 -5 -10 -25 -17 -42 -7 -18 -17 -33
-23 -33 -5 0 -7 -4 -4 -9 4 -5 0 -12 -6 -14 -7 -3 -3 -6 10 -6 13 -1 21 3 18
7 -3 5 1 9 9 9 17 0 17 -3 9 -35 -6 -19 -11 -22 -32 -17 -26 6 -62 -17 -62
-42 0 -19 23 -16 50 7 32 28 38 25 11 -4 -16 -17 -36 -25 -68 -28 l-45 -3 7
50 c9 75 28 130 45 130 14 0 33 28 50 78 10 28 25 36 32 16z m2338 -10 c0 -11
-4 -18 -10 -14 -5 3 -7 12 -3 20 7 21 13 19 13 -6z m-1515 -44 c7 -11 15 -67
19 -125 3 -58 8 -119 12 -136 3 -19 2 -34 -5 -38 -16 -10 -14 -36 3 -36 17 0
49 -47 41 -60 -3 -5 0 -7 7 -5 9 4 14 -2 14 -15 0 -18 -6 -20 -70 -19 -64 1
-72 4 -100 33 -17 18 -41 39 -53 47 -13 9 -24 24 -25 35 -3 31 14 84 27 84 6
0 12 7 12 15 0 8 -3 15 -7 15 -17 0 -7 110 20 211 9 34 14 38 48 41 26 2 38
-1 41 -12 2 -8 9 -23 16 -35z m1195 45 c-20 -13 -40 -13 -40 0 0 6 12 10 28
10 21 0 24 -2 12 -10z m-70 -25 l25 -14 -32 -1 c-23 0 -33 5 -33 15 0 18 8 18
40 0z m323 -35 c6 -23 6 -24 -28 -8 -18 8 -22 14 -13 20 21 13 35 9 41 -12z
m-1356 -57 c-2 -16 -4 -5 -4 22 0 28 2 40 4 28 2 -13 2 -35 0 -50z m937 51
c19 -18 21 -60 4 -70 -7 -5 -8 -3 -4 5 6 8 2 11 -10 9 -20 -3 -31 29 -20 58 7
18 11 18 30 -2z m-2764 -18 c0 -11 -19 -15 -25 -6 -3 5 1 10 9 10 9 0 16 -2
16 -4z m580 -41 c-1 -21 -44 -77 -70 -89 -40 -19 -64 -36 -50 -36 22 -1 -30
-39 -53 -40 -10 0 -16 -4 -13 -9 10 -15 -38 -49 -59 -41 -17 6 -16 8 10 14 19
5 25 10 17 15 -9 5 -1 19 26 48 31 32 45 40 65 36 21 -4 27 -1 32 20 4 14 2
34 -3 44 -9 14 -5 24 19 49 27 28 33 30 55 20 14 -6 24 -19 24 -31z m-87 13
c-24 -24 -37 -21 -27 6 3 9 16 16 27 16 l21 0 -21 -22z m444 -1 c0 -8 -6 -14
-13 -14 -7 0 -10 6 -7 14 3 7 8 13 12 13 4 0 8 -6 8 -13z m123 -26 c0 -3 -11
-7 -25 -7 -26 -2 -34 11 -12 19 14 5 37 -2 37 -12z m1740 -56 c0 -8 -6 -13
-12 -11 -7 1 -10 1 -5 -1 4 -3 5 -9 1 -14 -3 -5 0 -8 6 -7 16 4 22 -34 8 -43
-9 -6 -8 -12 1 -23 7 -9 18 -13 24 -9 6 4 7 1 2 -6 -5 -9 -15 -5 -36 15 -19
18 -29 23 -29 13 0 -8 -3 -10 -8 -4 -4 6 -13 10 -19 11 -7 1 -22 2 -34 3 -15
1 -19 6 -15 17 3 8 2 12 -4 9 -11 -7 -14 8 -4 18 9 8 35 -4 29 -13 -3 -5 0
-12 6 -15 7 -5 9 1 7 16 -2 16 -13 26 -35 33 -60 17 -38 31 42 28 56 -3 75 -7
75 -17z m-973 -57 c-3 -7 -5 -2 -5 12 0 14 2 19 5 13 2 -7 2 -19 0 -25z m503
22 c0 -6 -23 -9 -52 -8 l-53 1 50 7 c28 4 51 8 53 8 1 1 2 -2 2 -8z m-2193
-26 c-3 -3 -12 -4 -19 -1 -8 3 -5 6 6 6 11 1 17 -2 13 -5z m1783 -4 c0 -5 -7
-10 -16 -10 -8 0 -12 5 -9 10 3 6 10 10 16 10 5 0 9 -4 9 -10z m939 -14 c17
-20 -8 -39 -31 -22 -13 10 -15 15 -6 24 15 15 23 15 37 -2z m-442 -2 c-3 -3
-12 -4 -19 -1 -8 3 -5 6 6 6 11 1 17 -2 13 -5z m-1489 -20 c15 -15 14 -16 -8
-9 -14 4 -31 10 -37 12 -7 3 -13 -2 -13 -10 0 -8 -12 -16 -27 -19 -43 -6 -63
2 -63 23 0 17 8 19 66 19 47 0 70 -5 82 -16z m220 -39 c0 -31 -5 -45 -14 -45
-17 0 -19 43 -4 71 16 29 19 24 18 -26z m-548 25 c0 -5 -5 -10 -11 -10 -5 0
-7 5 -4 10 3 6 8 10 11 10 2 0 4 -4 4 -10z m1230 -41 c0 -16 -4 -28 -9 -25 -8
5 -3 56 5 56 2 0 4 -14 4 -31z m159 12 c19 -6 37 -8 42 -6 4 3 10 1 13 -4 3
-5 23 -7 43 -5 28 3 33 2 18 -5 -15 -7 -8 -9 28 -9 27 0 51 -3 54 -6 4 -3 13
0 21 7 13 9 14 9 8 0 -4 -8 -2 -13 4 -13 6 0 9 -4 6 -8 -2 -4 5 -9 16 -9 12
-1 24 -7 28 -13 4 -6 11 -10 16 -9 20 3 35 -1 30 -10 -3 -5 -88 -8 -187 -6
-147 2 -184 5 -193 17 -6 8 -23 18 -39 22 l-27 6 27 34 c27 35 31 35 92 17z
m538 -37 c-3 -3 -12 -4 -19 -1 -8 3 -5 6 6 6 11 1 17 -2 13 -5z m-206 -21 c13
-16 12 -17 -3 -4 -10 7 -18 15 -18 17 0 8 8 3 21 -13z m-1160 -40 c8 -16 18
-31 24 -35 6 -5 6 -8 -1 -8 -6 0 -16 -12 -23 -26 -16 -36 -25 -23 -27 41 -2
61 6 69 27 28z m956 -28 c43 2 57 6 55 16 -1 9 3 7 12 -4 10 -13 15 -15 18 -5
4 10 9 10 23 -2 11 -9 16 -10 11 -2 -4 6 -2 12 3 12 6 0 11 -4 11 -9 0 -5 12
-11 28 -13 15 -2 -30 -5 -100 -5 -75 -1 -128 3 -128 8 0 6 -8 6 -19 -1 -25
-13 -41 -13 -21 0 13 9 13 10 0 11 -8 0 -4 4 10 8 16 5 28 3 32 -4 5 -8 30
-11 65 -10z m176 8 c-7 -2 -19 -2 -25 0 -7 3 -2 5 12 5 14 0 19 -2 13 -5z
m-1685 -24 c-7 -5 -21 -9 -32 -9 -15 0 -16 3 -7 14 7 8 21 12 32 9 16 -5 18
-8 7 -14z m1122 -19 c0 -5 -7 -10 -16 -10 -8 0 -12 5 -9 10 3 6 10 10 16 10 5
0 9 -4 9 -10z m-205 -10 c-3 -5 -15 -10 -25 -10 -10 0 -22 5 -25 10 -4 6 7 10
25 10 18 0 29 -4 25 -10z m290 -30 c3 -5 -1 -10 -10 -10 -9 0 -13 5 -10 10 3
6 8 10 10 10 2 0 7 -4 10 -10z m-665 -44 c0 -6 -4 -17 -9 -25 -6 -9 -10 -4
-13 17 -3 22 -1 29 9 25 7 -3 13 -10 13 -17z m366 2 c4 -7 3 -8 -5 -4 -6 4
-18 2 -26 -4 -12 -10 -15 -9 -15 4 0 18 35 22 46 4z m282 -105 c-10 -2 -26 -2
-35 0 -10 3 -2 5 17 5 19 0 27 -2 18 -5z"/>
<path d="M2250 4435 c0 -24 5 -35 15 -35 10 0 15 11 15 35 0 24 -5 35 -15 35
-10 0 -15 -11 -15 -35z"/>
<path d="M2297 4393 c-14 -13 -7 -63 8 -63 10 0 15 11 15 35 0 33 -8 43 -23
28z"/>
<path d="M2340 4365 c0 -24 5 -35 15 -35 10 0 15 11 15 35 0 24 -5 35 -15 35
-10 0 -15 -11 -15 -35z"/>
<path d="M2200 4355 c0 -24 5 -35 15 -35 10 0 15 11 15 35 0 24 -5 35 -15 35
-10 0 -15 -11 -15 -35z"/>
<path d="M2250 4354 c0 -45 24 -42 28 4 2 24 -1 32 -12 32 -12 0 -16 -10 -16
-36z"/>
<path d="M2380 4295 c0 -24 5 -35 15 -35 10 0 15 11 15 35 0 24 -5 35 -15 35
-10 0 -15 -11 -15 -35z"/>
<path d="M2290 4285 c0 -24 5 -35 15 -35 10 0 15 11 15 35 0 24 -5 35 -15 35
-10 0 -15 -11 -15 -35z"/>
<path d="M2340 4284 c0 -45 24 -42 28 4 2 24 -1 32 -12 32 -12 0 -16 -10 -16
-36z"/>
<path d="M2200 4274 c0 -45 24 -42 28 4 2 24 -1 32 -12 32 -12 0 -16 -10 -16
-36z"/>
<path d="M2250 4280 c0 -20 5 -30 15 -30 10 0 15 10 15 30 0 20 -5 30 -15 30
-10 0 -15 -10 -15 -30z"/>
<path d="M2380 4205 c0 -24 5 -35 15 -35 10 0 15 11 15 35 0 24 -5 35 -15 35
-10 0 -15 -11 -15 -35z"/>
<path d="M2290 4195 c0 -24 5 -35 15 -35 10 0 15 11 15 35 0 24 -5 35 -15 35
-10 0 -15 -11 -15 -35z"/>
<path d="M2340 4195 c0 -26 3 -33 15 -29 9 4 15 19 15 35 0 19 -5 29 -15 29
-10 0 -15 -11 -15 -35z"/>
<path d="M2200 4184 c0 -45 24 -42 28 4 2 24 -1 32 -12 32 -12 0 -16 -10 -16
-36z"/>
<path d="M2250 4190 c0 -20 5 -30 15 -30 10 0 15 10 15 30 0 20 -5 30 -15 30
-10 0 -15 -10 -15 -30z"/>
<path d="M2380 4125 c0 -24 5 -35 15 -35 10 0 15 11 15 35 0 24 -5 35 -15 35
-10 0 -15 -11 -15 -35z"/>
<path d="M2263 4143 c-19 -7 -17 -63 2 -63 10 0 15 11 15 35 0 19 -1 35 -2 34
-2 0 -9 -3 -15 -6z"/>
<path d="M2290 4115 c0 -24 5 -35 15 -35 10 0 15 11 15 35 0 24 -5 35 -15 35
-10 0 -15 -11 -15 -35z"/>
<path d="M2340 4120 c0 -20 5 -30 15 -30 10 0 15 10 15 30 0 20 -5 30 -15 30
-10 0 -15 -10 -15 -30z"/>
<path d="M2200 4110 c0 -20 5 -30 15 -30 10 0 15 10 15 30 0 20 -5 30 -15 30
-10 0 -15 -10 -15 -30z"/>
<path d="M2353 4063 c-19 -7 -17 -63 2 -63 10 0 15 11 15 35 0 19 -1 35 -2 34
-2 0 -9 -3 -15 -6z"/>
<path d="M2380 4035 c0 -24 5 -35 15 -35 10 0 15 11 15 35 0 24 -5 35 -15 35
-10 0 -15 -11 -15 -35z"/>
<path d="M2250 4025 c0 -24 5 -35 15 -35 10 0 15 11 15 35 0 24 -5 35 -15 35
-10 0 -15 -11 -15 -35z"/>
<path d="M2290 4025 c0 -26 3 -33 15 -29 9 4 15 19 15 35 0 19 -5 29 -15 29
-10 0 -15 -11 -15 -35z"/>
<path d="M2200 4020 c0 -20 5 -30 15 -30 10 0 15 10 15 30 0 20 -5 30 -15 30
-10 0 -15 -10 -15 -30z"/>
<path d="M2347 3983 c-14 -13 -7 -63 8 -63 10 0 15 11 15 35 0 33 -8 43 -23
28z"/>
<path d="M2380 3955 c0 -24 5 -35 15 -35 10 0 15 11 15 35 0 24 -5 35 -15 35
-10 0 -15 -11 -15 -35z"/>
<path d="M2250 3945 c0 -24 5 -35 15 -35 10 0 15 11 15 35 0 24 -5 35 -15 35
-10 0 -15 -11 -15 -35z"/>
<path d="M2290 3950 c0 -20 5 -30 15 -30 10 0 15 10 15 30 0 20 -5 30 -15 30
-10 0 -15 -10 -15 -30z"/>
<path d="M2200 3938 c0 -18 5 -28 15 -28 10 0 15 10 15 28 0 19 -5 29 -15 29
-10 0 -15 -10 -15 -29z"/>
<path d="M2425 3941 c-3 -12 -4 -25 -1 -29 3 -5 -14 -9 -37 -8 -23 0 -63 -1
-90 -2 l-47 -2 0 -47 c0 -27 -1 -59 -2 -72 -2 -16 2 -25 15 -27 15 -2 17 7 18
69 1 40 4 60 6 45 3 -19 10 -28 22 -28 14 0 17 6 13 25 -2 15 0 25 7 25 6 0
11 -11 11 -24 0 -15 7 -26 18 -29 16 -4 16 -5 0 -6 -18 -1 -19 -5 -22 -58 -1
-23 -7 -29 -31 -34 -16 -3 25 -8 93 -10 l122 -4 0 37 c0 20 6 39 13 41 10 4
10 6 0 6 -16 1 -17 53 -1 69 9 9 4 13 -20 18 -21 4 -37 16 -45 32 -16 33 -34
38 -42 13z m25 -86 c0 -8 -2 -15 -4 -15 -2 0 -6 7 -10 15 -3 8 -1 15 4 15 6 0
10 -7 10 -15z m48 -50 c-1 -62 -18 -57 -18 6 0 29 4 48 10 44 5 -3 9 -26 8
-50z m-85 28 c-7 -2 -19 -2 -25 0 -7 3 -2 5 12 5 14 0 19 -2 13 -5z m42 -52
c3 -5 2 -12 -3 -15 -5 -3 -9 1 -9 9 0 17 3 19 12 6z"/>
<path d="M2200 3865 c0 -37 24 -50 32 -17 6 27 -2 52 -18 52 -9 0 -14 -11 -14
-35z"/>
<path d="M2153 3883 c9 -2 15 -9 12 -14 -10 -15 1 -10 15 6 11 13 8 15 -16 14
-17 -1 -22 -3 -11 -6z"/>
<path d="M2051 3805 c-1 -27 -4 -60 -7 -72 -5 -17 -2 -23 10 -23 12 0 16 7 14
27 -2 22 1 28 17 28 14 0 21 8 23 25 2 19 0 21 -7 11 -7 -11 -10 -8 -14 15
l-4 29 -2 -32 c0 -18 -6 -33 -12 -33 -5 0 -8 4 -5 8 3 5 1 22 -4 38 -7 26 -8
24 -9 -21z"/>
<path d="M2168 3821 c-4 -12 -11 -20 -17 -16 -7 4 -8 -1 -4 -12 6 -16 5 -16
-10 -4 -9 7 -17 9 -17 3 0 -17 25 -21 44 -7 10 8 16 23 14 37 l-3 23 -7 -24z"/>
<path d="M646 3814 c-3 -9 -2 -23 4 -32 7 -14 9 -10 10 16 0 35 -5 41 -14 16z"/>
<path d="M2294 3816 c-8 -22 -1 -59 14 -64 8 -2 12 9 12 37 0 40 -15 55 -26
27z"/>
<path d="M2203 3800 c3 -10 0 -21 -7 -24 -7 -3 -7 -5 2 -5 7 -1 10 -6 7 -11
-5 -8 -11 -8 -20 0 -11 9 -12 7 -8 -9 6 -24 12 -25 36 -7 23 17 24 76 1 76
-11 0 -15 -6 -11 -20z"/>
<path d="M2092 3751 c-8 -5 -12 -17 -9 -27 5 -18 5 -17 12 2 7 22 42 27 38 5
-2 -6 3 -11 11 -11 9 0 12 7 9 20 -6 21 -37 27 -61 11z"/>
<path d="M2210 3729 c0 -5 5 -7 10 -4 6 3 10 8 10 11 0 2 -4 4 -10 4 -5 0 -10
-5 -10 -11z"/>
<path d="M670 3725 c0 -5 5 -17 10 -25 5 -8 10 -10 10 -5 0 6 -5 17 -10 25 -5
8 -10 11 -10 5z"/>
<path d="M2388 3703 c17 -2 47 -2 65 0 17 2 3 4 -33 4 -36 0 -50 -2 -32 -4z"/>
<path d="M2516 3695 c4 -8 8 -15 10 -15 2 0 4 7 4 15 0 8 -4 15 -10 15 -5 0
-7 -7 -4 -15z"/>
<path d="M2265 3673 c-161 -9 -215 -16 -209 -24 3 -5 50 -9 104 -7 82 2 102
-1 118 -15 20 -19 42 -23 42 -8 0 13 21 19 104 30 111 16 106 31 -9 29 -55 -1
-122 -3 -150 -5z"/>
<path d="M780 3640 c0 -19 7 -33 20 -40 18 -10 20 -8 20 24 0 22 -6 36 -16 40
-23 9 -24 8 -24 -24z"/>
<path d="M770 3512 c0 -10 6 -24 12 -30 10 -10 10 -17 0 -32 -6 -11 -12 -23
-12 -27 0 -5 4 -2 9 6 8 12 12 12 25 2 19 -16 36 -6 38 22 0 12 4 2 7 -23 l6
-45 11 43 11 42 -47 30 c-55 35 -60 36 -60 12z m50 -63 c0 -11 -4 -17 -10 -14
-5 3 -10 13 -10 21 0 8 5 14 10 14 6 0 10 -9 10 -21z"/>
<path d="M2158 3407 l-23 -8 24 -20 c13 -11 30 -18 38 -15 9 4 13 -3 14 -22
l1 -27 8 25 8 25 1 -27 c1 -17 7 -28 15 -28 8 0 17 12 19 28 l4 27 2 -27 c2
-40 29 -36 34 5 l4 32 1 -32 c2 -38 28 -46 35 -10 4 22 4 22 6 0 1 -17 7 -21
32 -21 38 1 46 18 23 53 -17 26 -17 27 2 24 14 -3 20 -14 22 -42 3 -33 6 -37
30 -36 22 1 23 2 6 6 -16 3 -23 13 -26 39 -4 33 -2 36 26 42 l31 6 -35 7 c-19
4 -69 5 -110 1 -41 -4 -96 -5 -122 -2 -26 3 -57 2 -70 -3z"/>
<path d="M1200 3222 c0 -93 -3 -112 -15 -112 -17 0 -22 -65 -5 -75 6 -4 9 -1
8 7 -2 8 9 14 30 16 26 3 32 7 32 28 0 17 -6 24 -18 24 -17 0 -19 11 -21 107
-1 59 -4 109 -7 112 -2 2 -4 -46 -4 -107z"/>
<path d="M2140 3306 c0 -9 40 -13 46 -5 3 5 -6 9 -20 9 -14 0 -26 -2 -26 -4z"/>
<path d="M2230 3265 c0 -24 5 -35 15 -35 10 0 15 11 15 35 0 24 -5 35 -15 35
-10 0 -15 -11 -15 -35z"/>
<path d="M2270 3265 c0 -24 5 -35 15 -35 10 0 15 11 15 35 0 24 -5 35 -15 35
-10 0 -15 -11 -15 -35z"/>
<path d="M2310 3265 c0 -24 5 -35 15 -35 10 0 15 11 15 35 0 24 -5 35 -15 35
-10 0 -15 -11 -15 -35z"/>
<path d="M2350 3265 c0 -32 2 -35 30 -35 28 0 30 3 30 35 0 34 -13 47 -23 23
-4 -10 -6 -10 -6 0 -1 6 -8 12 -16 12 -10 0 -15 -11 -15 -35z"/>
<path d="M2433 3265 c0 -22 2 -30 4 -17 2 12 2 30 0 40 -3 9 -5 -1 -4 -23z"/>
<path d="M1804 3244 c-16 -26 -21 -29 -32 -18 -6 7 -12 18 -12 24 0 13 -37 13
-45 1 -5 -9 167 -131 185 -131 5 0 16 -10 24 -22 12 -17 16 -19 16 -6 0 9 -30
34 -70 58 -72 44 -81 57 -54 84 8 9 14 22 11 29 -2 7 -12 -1 -23 -19z"/>
<path d="M2230 3175 c0 -35 0 -35 -47 -36 -27 -1 -40 -3 -30 -6 9 -2 17 -5 17
-6 1 -1 3 -19 6 -39 5 -36 4 -38 -23 -39 -28 -1 -28 -1 -3 -8 21 -6 25 -13 26
-44 l1 -37 -56 -2 c-54 -1 -55 -2 -11 -6 25 -2 70 2 100 9 30 7 63 12 73 10 9
-1 17 4 17 11 0 9 2 10 8 1 4 -6 34 -13 67 -14 l60 -3 3 34 c2 19 9 38 15 42
9 6 9 8 0 8 -8 0 -13 13 -13 33 0 18 6 39 13 46 10 10 9 11 -5 6 -13 -5 -18
-22 -21 -73 l-3 -67 -2 67 -2 67 -32 4 -33 4 33 1 c30 2 32 5 32 37 0 46 -27
48 -33 3 l-4 -33 -1 33 c-1 21 -7 32 -17 32 -11 0 -15 -12 -15 -47 0 -25 -3
-43 -7 -39 -4 4 -6 25 -4 46 2 32 -1 40 -14 40 -13 0 -16 -8 -14 -40 2 -21 0
-42 -4 -46 -4 -4 -7 14 -7 39 0 35 -4 47 -15 47 -19 0 -21 -66 -2 -73 10 -4
10 -6 0 -6 -9 -1 -13 -22 -13 -73 0 -39 -3 -69 -6 -66 -3 4 -5 35 -5 69 0 39
-5 66 -12 71 -9 6 -9 8 1 8 7 0 12 14 12 35 0 24 -5 35 -15 35 -10 0 -15 -11
-15 -35z m2 -83 c1 -21 0 -51 -3 -67 -5 -24 -7 -19 -10 25 l-2 55 -4 -45 c-6
-66 -20 -69 -22 -5 -2 61 3 75 24 75 8 0 14 -15 17 -38z"/>
<path d="M2433 3175 c0 -22 2 -30 4 -17 2 12 2 30 0 40 -3 9 -5 -1 -4 -23z"/>
<path d="M810 3135 c0 -8 7 -15 15 -15 8 0 15 4 15 9 0 5 -7 11 -15 15 -9 3
-15 0 -15 -9z"/>
<path d="M1100 3035 c0 -27 2 -46 5 -43 8 8 9 77 2 85 -4 3 -7 -15 -7 -42z"/>
<path d="M1200 3040 c0 -5 9 -10 21 -10 11 0 17 5 14 10 -3 6 -13 10 -21 10
-8 0 -14 -4 -14 -10z"/>
<path d="M1325 3010 c-3 -5 -1 -10 4 -10 6 0 11 5 11 10 0 6 -2 10 -4 10 -3 0
-8 -4 -11 -10z"/>
<path d="M1758 2993 c6 -2 18 -2 25 0 6 3 1 5 -13 5 -14 0 -19 -2 -12 -5z"/>
<path d="M898 2983 c7 -3 16 -2 19 1 4 3 -2 6 -13 5 -11 0 -14 -3 -6 -6z"/>
<path d="M1310 2930 c0 -27 4 -50 9 -50 4 0 9 23 10 50 0 28 -4 50 -9 50 -6 0
-10 -22 -10 -50z"/>
<path d="M1130 2930 c0 -22 3 -40 8 -40 4 0 6 18 4 40 -2 22 -6 40 -8 40 -2 0
-4 -18 -4 -40z"/>
<path d="M1343 2905 c0 -33 2 -45 4 -27 2 18 2 45 0 60 -2 15 -4 0 -4 -33z"/>
<path d="M1978 2953 c18 -2 45 -2 60 0 15 2 0 4 -33 4 -33 0 -45 -2 -27 -4z"/>
<path d="M2258 2943 c29 -2 74 -2 100 0 26 2 2 3 -53 3 -55 0 -76 -1 -47 -3z"/>
<path d="M1490 2878 c0 -19 2 -20 10 -8 13 19 13 30 0 30 -5 0 -10 -10 -10
-22z"/>
<path d="M1541 2871 c-1 -24 2 -32 9 -25 7 7 7 19 1 35 -9 23 -10 22 -10 -10z"/>
<path d="M2153 2873 c9 -2 23 -2 30 0 6 3 -1 5 -18 5 -16 0 -22 -2 -12 -5z"/>
<path d="M1310 2860 c0 -5 5 -10 10 -10 6 0 10 5 10 10 0 6 -4 10 -10 10 -5 0
-10 -4 -10 -10z"/>
<path d="M1920 2861 c0 -5 5 -13 10 -16 6 -3 10 -2 10 4 0 5 -4 13 -10 16 -5
3 -10 2 -10 -4z"/>
<path d="M1480 2804 c0 -29 25 -33 33 -5 3 13 -1 21 -14 24 -15 4 -19 0 -19
-19z"/>
<path d="M2148 2783 c7 -3 16 -2 19 1 4 3 -2 6 -13 5 -11 0 -14 -3 -6 -6z"/>
<path d="M1353 2753 c9 -2 17 -9 17 -14 0 -5 7 -9 15 -9 8 0 15 7 15 15 0 10
-10 15 -32 14 -18 -1 -25 -3 -15 -6z"/>
<path d="M1480 2734 c0 -8 5 -12 10 -9 6 3 10 10 10 16 0 5 -4 9 -10 9 -5 0
-10 -7 -10 -16z"/>
<path d="M1924 2699 c-8 -14 11 -18 46 -10 l35 8 -38 4 c-21 3 -40 2 -43 -2z"/>
<path d="M1924 2618 c-3 -4 0 -8 6 -8 6 0 9 -4 6 -8 -2 -4 11 -6 30 -4 18 2
32 8 29 12 -7 11 -65 18 -71 8z"/>
<path d="M3391 4374 c0 -11 3 -14 6 -6 3 7 2 16 -1 19 -3 4 -6 -2 -5 -13z"/>
<path d="M3451 4224 c0 -11 3 -14 6 -6 3 7 2 16 -1 19 -3 4 -6 -2 -5 -13z"/>
<path d="M3610 4143 l0 -38 60 3 60 4 0 34 0 34 -60 0 -60 0 0 -37z"/>
<path d="M3600 3610 c-7 -5 -8 -15 -1 -33 9 -23 16 -27 51 -27 35 0 40 3 40
23 0 12 -4 27 -8 34 -8 12 -63 15 -82 3z"/>
<path d="M3458 3271 c9 -5 11 -17 6 -34 -5 -21 -2 -27 10 -27 12 0 16 10 16
35 0 30 -3 35 -22 35 -16 0 -19 -3 -10 -9z"/>
<path d="M3630 3246 c0 -28 4 -35 23 -39 l22 -4 -22 -2 c-19 -1 -23 -7 -23
-36 0 -32 2 -35 30 -35 l30 0 0 75 0 75 -30 0 c-28 0 -30 -3 -30 -34z m50 -82
c0 -2 -7 -4 -15 -4 -8 0 -15 4 -15 10 0 5 7 7 15 4 8 -4 15 -8 15 -10z"/>
<path d="M3379 3193 c0 -5 -2 -15 -4 -24 -1 -9 1 -23 6 -30 6 -10 9 -2 9 24 0
20 -2 37 -5 37 -3 0 -5 -3 -6 -7z"/>
<path d="M3450 3165 c0 -28 4 -35 20 -35 16 0 20 7 20 35 0 28 -4 35 -20 35
-16 0 -20 -7 -20 -35z"/>
<path d="M3560 3085 c0 -32 2 -35 30 -35 28 0 30 3 30 35 0 32 -2 35 -30 35
-28 0 -30 -3 -30 -35z"/>
<path d="M3630 3085 c0 -32 2 -35 30 -35 28 0 30 3 30 35 0 32 -2 35 -30 35
-28 0 -30 -3 -30 -35z"/>
<path d="M3708 3085 l4 -35 64 0 64 0 0 35 0 35 -68 0 -68 0 4 -35z"/>
<path d="M3360 3085 c0 -21 5 -25 30 -25 25 0 30 4 30 25 0 21 -5 25 -30 25
-25 0 -30 -4 -30 -25z"/>
<path d="M3430 3083 c0 -24 4 -28 30 -29 27 -1 30 2 30 27 0 26 -4 29 -30 29
-26 0 -30 -4 -30 -27z"/>
<path d="M3700 3005 l0 -35 70 0 70 0 0 35 0 35 -70 0 -70 0 0 -35z"/>
<path d="M3471 2650 c-1 -8 -4 -26 -7 -40 -5 -19 -4 -22 5 -14 7 6 11 24 8 40
-2 16 -5 22 -6 14z"/>
<path d="M3768 2633 c7 -3 16 -2 19 1 4 3 -2 6 -13 5 -11 0 -14 -3 -6 -6z"/>
<path d="M3875 2630 c3 -5 8 -10 11 -10 2 0 4 5 4 10 0 6 -5 10 -11 10 -5 0
-7 -4 -4 -10z"/>
<path d="M3755 2520 c3 -5 8 -10 11 -10 2 0 4 5 4 10 0 6 -5 10 -11 10 -5 0
-7 -4 -4 -10z"/>
<path d="M2313 1963 c9 -2 23 -2 30 0 6 3 -1 5 -18 5 -16 0 -22 -2 -12 -5z"/>
<path d="M2270 1795 c0 -21 18 -37 36 -33 18 5 18 5 -1 13 -11 5 -23 13 -27
19 -5 7 -8 7 -8 1z"/>
<path d="M998 1759 c-9 -12 -14 -27 -12 -34 3 -7 0 -16 -5 -20 -6 -3 -9 -11
-5 -16 3 -5 10 -7 15 -3 5 3 7 10 4 15 -4 5 3 9 15 9 12 0 18 5 15 10 -3 6 -1
10 5 10 14 0 9 42 -5 47 -5 1 -18 -7 -27 -18z"/>
<path d="M1888 1773 c7 -3 16 -2 19 1 4 3 -2 6 -13 5 -11 0 -14 -3 -6 -6z"/>
<path d="M1835 1630 c-3 -5 -1 -10 4 -10 6 0 11 5 11 10 0 6 -2 10 -4 10 -3 0
-8 -4 -11 -10z"/>
<path d="M1860 1626 c0 -9 50 -12 62 -5 8 6 -1 9 -24 9 -21 0 -38 -2 -38 -4z"/>
<path d="M1934 1452 c4 -3 14 -7 22 -8 9 -1 13 0 10 4 -4 3 -14 7 -22 8 -9 1
-13 0 -10 -4z"/>
<path d="M2905 1700 c3 -5 10 -10 16 -10 5 0 9 5 9 10 0 6 -7 10 -16 10 -8 0
-12 -4 -9 -10z"/>
<path d="M2912 1668 c6 -18 58 -30 58 -13 0 7 -10 15 -22 19 -33 8 -40 7 -36
-6z"/>
<path d="M7600 4351 l0 -80 54 -30 54 -31 51 31 51 32 0 78 0 79 -105 0 -105
0 0 -79z m112 -11 c3 -19 0 -30 -7 -30 -7 0 -10 11 -7 30 2 17 5 30 7 30 2 0
5 -13 7 -30z"/>
<path d="M4021 3623 c-9 -19 -6 -23 23 -33 18 -6 57 -11 87 -13 54 -2 54 -2
57 30 l3 31 -80 4 c-74 3 -81 1 -90 -19z"/>
<path d="M4120 3154 l0 -46 -35 4 c-19 2 -35 0 -35 -5 0 -4 -7 -4 -16 1 -29
16 -54 3 -54 -29 0 -25 4 -29 29 -29 20 0 31 6 34 18 4 16 5 16 6 0 1 -14 10
-18 40 -18 l38 0 13 63 c6 34 14 68 16 75 2 7 -5 12 -16 12 -17 0 -20 -7 -20
-46z"/>
<path d="M4023 3172 c0 -12 5 -22 9 -22 11 0 10 12 -2 30 -7 12 -9 10 -7 -8z"/>
<path d="M4076 3173 c-12 -12 -6 -43 9 -43 8 0 15 9 15 19 0 21 -13 34 -24 24z"/>
<path d="M125 1910 c-3 -5 1 -10 9 -10 9 0 16 5 16 10 0 6 -4 10 -9 10 -6 0
-13 -4 -16 -10z"/>
<path d="M1545 1790 c3 -5 8 -10 11 -10 2 0 4 5 4 10 0 6 -5 10 -11 10 -5 0
-7 -4 -4 -10z"/>
<path d="M5406 1675 c-9 -14 -13 -25 -8 -25 10 0 42 33 42 43 0 15 -19 5 -34
-18z"/>
<path d="M5665 1680 c-4 -6 -3 -16 3 -22 6 -6 12 -6 17 2 4 6 3 16 -3 22 -6 6
-12 6 -17 -2z"/>
<path d="M7135 1680 c-4 -6 -3 -16 3 -22 6 -6 12 -6 17 2 4 6 3 16 -3 22 -6 6
-12 6 -17 -2z"/>
<path d="M4642 1673 c-20 -8 -33 -50 -23 -76 5 -12 30 -33 55 -46 55 -29 67
-55 37 -84 -18 -19 -25 -20 -61 -10 -42 11 -54 1 -21 -17 45 -24 105 -6 121
36 14 37 -2 64 -56 94 -52 30 -64 51 -43 77 9 11 24 14 52 10 26 -4 37 -2 34
6 -4 13 -73 20 -95 10z"/>
<path d="M6070 1555 l0 -125 65 0 c78 0 88 18 13 22 l-53 3 -3 48 -3 47 45 0
c26 0 46 5 46 10 0 6 -20 10 -45 10 l-45 0 0 45 0 45 55 0 c30 0 55 5 55 10 0
6 -28 10 -65 10 l-65 0 0 -125z"/>
<path d="M7010 1635 c0 -16 -6 -25 -15 -25 -8 0 -15 -4 -15 -10 0 -5 7 -10 15
-10 12 0 15 -14 15 -63 0 -72 15 -101 50 -95 31 4 37 25 8 24 -21 -1 -23 4
-26 67 -3 66 -3 67 23 67 14 0 25 5 25 10 0 6 -11 10 -25 10 -20 0 -25 5 -25
25 0 16 -6 25 -15 25 -9 0 -15 -9 -15 -25z"/>
<path d="M5068 1606 c-16 -8 -28 -11 -28 -5 0 5 -7 9 -15 9 -12 0 -15 -17 -15
-90 0 -73 3 -90 15 -90 12 0 15 14 15 70 0 63 2 71 25 86 24 16 27 16 45 -1
16 -15 20 -31 20 -87 0 -39 4 -68 10 -68 6 0 10 28 10 64 0 58 3 67 26 85 20
16 31 18 45 10 16 -8 19 -21 19 -84 0 -60 3 -75 15 -75 12 0 15 14 15 65 0
105 -35 147 -90 106 -25 -18 -26 -18 -49 0 -28 23 -29 23 -63 5z"/>
<path d="M5358 1609 c-40 -15 -34 -29 7 -17 41 13 65 -1 65 -38 0 -21 -5 -24
-38 -24 -48 0 -77 -27 -68 -64 8 -31 47 -43 84 -26 18 8 28 8 30 1 2 -6 8 -11
13 -11 14 0 11 144 -3 163 -17 21 -57 28 -90 16z m72 -113 c0 -30 -22 -49 -52
-44 -49 7 -28 68 23 68 24 0 29 -4 29 -24z"/>
<path d="M5572 1604 c-12 -8 -22 -10 -22 -5 0 6 -7 11 -15 11 -12 0 -15 -17
-15 -90 0 -73 3 -90 15 -90 12 0 15 13 15 61 0 73 12 99 46 99 15 0 24 5 22
12 -7 19 -22 19 -46 2z"/>
<path d="M5790 1607 c-35 -18 -52 -55 -46 -102 6 -46 35 -75 76 -75 42 0 59 9
75 41 30 56 12 121 -38 139 -37 12 -37 12 -67 -3z m68 -23 c45 -31 21 -134
-31 -134 -54 0 -79 88 -37 130 24 24 38 25 68 4z"/>
<path d="M6460 1607 c-35 -18 -52 -55 -46 -102 7 -62 53 -88 124 -69 38 11 24
22 -21 17 -48 -6 -77 13 -77 48 0 17 7 19 65 19 36 0 65 4 65 9 0 32 -25 71
-52 80 -17 6 -31 11 -32 11 -1 0 -12 -6 -26 -13z m64 -23 c31 -30 20 -44 -34
-44 -54 0 -62 10 -33 42 20 22 46 23 67 2z"/>
<path d="M6660 1607 c-74 -37 -56 -177 22 -177 25 0 58 18 58 31 0 6 -7 6 -19
-1 -48 -25 -81 1 -81 65 0 36 5 48 24 60 20 13 29 14 46 5 23 -12 40 -6 24 9
-18 17 -49 20 -74 8z"/>
<path d="M7440 1607 c-35 -18 -52 -55 -46 -102 6 -46 35 -75 76 -75 42 0 59 9
75 41 30 56 12 121 -38 139 -37 12 -37 12 -67 -3z m68 -23 c45 -31 21 -134
-31 -134 -54 0 -79 88 -37 130 24 24 38 25 68 4z"/>
<path d="M4800 1551 c0 -33 4 -71 10 -85 12 -33 52 -43 84 -22 21 13 25 13 30
1 3 -8 10 -15 16 -15 6 0 10 35 10 90 0 73 -3 90 -15 90 -12 0 -15 -14 -15
-63 0 -49 -4 -68 -18 -80 -45 -41 -72 -13 -72 75 0 54 -3 68 -15 68 -12 0 -15
-13 -15 -59z"/>
<path d="M5660 1520 c0 -73 3 -90 15 -90 12 0 15 17 15 90 0 73 -3 90 -15 90
-12 0 -15 -17 -15 -90z"/>
<path d="M6273 1567 l25 -43 -29 -47 c-20 -33 -25 -47 -15 -47 8 0 25 19 38
42 l25 41 23 -41 c13 -23 30 -42 37 -42 10 0 6 14 -13 49 l-27 48 21 35 c24
39 27 48 13 48 -6 0 -18 -13 -28 -30 -9 -16 -21 -30 -25 -30 -4 0 -15 14 -25
30 -9 17 -24 30 -31 30 -10 0 -7 -12 11 -43z"/>
<path d="M6790 1551 c0 -33 4 -71 10 -85 12 -33 52 -43 84 -22 21 13 25 13 30
1 3 -8 10 -15 16 -15 6 0 10 35 10 90 0 73 -3 90 -15 90 -12 0 -15 -14 -15
-63 0 -49 -4 -68 -18 -80 -45 -41 -72 -13 -72 75 0 54 -3 68 -15 68 -12 0 -15
-13 -15 -59z"/>
<path d="M7130 1520 c0 -73 3 -90 15 -90 12 0 15 17 15 90 0 73 -3 90 -15 90
-12 0 -15 -17 -15 -90z"/>
<path d="M7233 1520 c41 -117 56 -118 92 -12 15 42 29 83 32 90 2 6 -2 12 -9
12 -9 0 -23 -28 -38 -75 -13 -42 -27 -72 -31 -68 -3 5 -16 38 -29 76 -13 40
-27 67 -35 67 -11 0 -6 -22 18 -90z"/>
<path d="M980 1490 c0 -5 7 -7 15 -4 8 4 15 8 15 10 0 2 -7 4 -15 4 -8 0 -15
-4 -15 -10z"/>
<path d="M3008 1493 c7 -3 16 -2 19 1 4 3 -2 6 -13 5 -11 0 -14 -3 -6 -6z"/>
<path d="M2752 1478 c5 -13 38 -20 38 -8 0 4 -7 11 -16 14 -22 9 -26 8 -22 -6z"/>
<path d="M1585 1390 c-3 -5 -2 -10 4 -10 5 0 13 5 16 10 3 6 2 10 -4 10 -5 0
-13 -4 -16 -10z"/>
<path d="M1570 1356 c0 -2 7 -6 15 -10 8 -3 15 -1 15 4 0 6 -7 10 -15 10 -8 0
-15 -2 -15 -4z"/>
<path d="M4616 1244 c-4 -9 -4 -19 -1 -22 3 -3 5 0 5 7 0 7 5 9 10 6 17 -10
11 -25 -9 -25 -10 0 -22 -8 -26 -17 -5 -15 -4 -16 6 -5 19 18 43 15 57 -9 8
-13 21 -19 35 -17 28 4 19 23 -11 23 -18 -1 -25 7 -34 37 -12 41 -22 48 -32
22z m87 -71 c-7 -2 -19 -2 -25 0 -7 3 -2 5 12 5 14 0 19 -2 13 -5z"/>
<path d="M4858 1247 c-7 -19 6 -60 20 -63 7 -1 8 0 2 3 -12 6 -13 40 -1 45 5
2 3 8 -4 15 -10 9 -14 9 -17 0z"/>
<path d="M5026 1252 c-2 -4 4 -8 15 -8 10 0 19 4 19 8 0 4 -6 8 -14 8 -8 0
-17 -4 -20 -8z"/>
<path d="M5094 1246 c-11 -28 0 -61 20 -61 11 0 20 6 22 13 1 7 0 8 -3 2 -11
-22 -33 -9 -33 20 0 29 22 42 33 20 3 -6 4 -5 3 2 -4 19 -35 22 -42 4z"/>
<path d="M5166 1252 c-2 -4 4 -8 15 -8 10 0 19 4 19 8 0 4 -6 8 -14 8 -8 0
-17 -4 -20 -8z"/>
<path d="M5234 1246 c-11 -28 0 -61 20 -61 11 0 20 6 22 13 1 7 0 8 -3 2 -11
-22 -33 -9 -33 20 0 29 22 42 33 20 3 -6 4 -5 3 2 -4 19 -35 22 -42 4z"/>
<path d="M4981 1219 c-6 -18 -9 -34 -7 -36 2 -2 9 10 15 28 6 18 9 34 7 36 -2
2 -9 -10 -15 -28z"/>
<path d="M4670 1220 c0 -11 7 -20 15 -20 8 0 19 9 25 20 9 18 8 20 -15 20 -18
0 -25 -5 -25 -20z m30 0 c0 -5 -4 -10 -10 -10 -5 0 -10 5 -10 10 0 6 5 10 10
10 6 0 10 -4 10 -10z"/>
<path d="M4734 1226 c-9 -24 4 -48 23 -44 12 2 18 12 18 28 0 29 -32 41 -41
16z m36 -16 c0 -11 -7 -20 -15 -20 -8 0 -15 9 -15 20 0 11 7 20 15 20 8 0 15
-9 15 -20z"/>
<path d="M4800 1226 c0 -8 8 -17 18 -21 16 -7 15 -8 -3 -15 -19 -8 -19 -9 3
-9 26 -1 30 24 5 34 -17 7 -16 8 2 15 19 8 19 9 -2 9 -13 1 -23 -5 -23 -13z"/>
<path d="M4904 1226 c-9 -24 4 -48 23 -44 12 2 18 12 18 28 0 29 -32 41 -41
16z m36 -16 c0 -11 -7 -20 -15 -20 -8 0 -15 9 -15 20 0 11 7 20 15 20 8 0 15
-9 15 -20z"/>
<path d="M5038 1208 c-24 -24 -23 -28 10 -27 17 1 21 3 9 6 -14 4 -16 8 -6 19
18 22 7 23 -13 2z"/>
<path d="M5178 1208 c-24 -24 -23 -28 10 -27 17 1 21 3 9 6 -14 4 -16 8 -6 19
18 22 7 23 -13 2z"/>
<path d="M6299 1181 c-66 -40 -76 -56 -47 -74 12 -8 26 -5 57 16 22 15 52 27
65 27 14 0 66 -25 116 -55 l90 -55 0 55 c0 54 0 54 -28 49 -20 -4 -45 5 -97
35 -38 23 -75 41 -81 41 -5 0 -39 -17 -75 -39z"/>
<path d="M1654 1177 c16 -13 36 -39 45 -58 13 -28 23 -35 50 -37 29 -3 33 -1
23 11 -7 7 -9 17 -5 20 3 4 1 7 -6 7 -7 0 -22 11 -32 24 -19 25 -72 56 -93 56
-6 0 2 -10 18 -23z"/>
<path d="M6120 1061 c0 -46 1 -48 25 -43 17 3 46 -8 94 -37 38 -22 76 -41 83
-41 22 0 38 22 38 50 0 24 -3 26 -29 22 -23 -3 -50 8 -114 47 -47 28 -88 51
-91 51 -3 0 -6 -22 -6 -49z"/>
<path d="M6358 1082 c-29 -6 -21 -28 18 -51 39 -23 79 -27 90 -10 13 22 -71
70 -108 61z"/>
<path d="M6461 950 c-65 -40 -125 -70 -140 -70 -14 0 -63 23 -109 50 -46 28
-85 50 -88 50 -2 0 -4 -13 -4 -30 0 -26 9 -35 93 -85 51 -30 99 -55 107 -55
20 0 250 139 256 155 3 8 4 23 2 34 -3 18 -15 13 -117 -49z"/>
<path d="M4685 846 c-76 -33 -71 -159 8 -185 41 -14 78 -3 101 31 9 12 16 26
16 30 0 14 -41 8 -46 -7 -9 -24 -43 -29 -65 -9 -39 36 -8 125 39 110 12 -4 22
-12 22 -17 0 -5 11 -9 25 -9 14 0 25 3 25 6 0 19 -24 43 -51 53 -39 13 -37 13
-74 -3z"/>
<path d="M6063 848 c-25 -40 -34 -63 -24 -66 6 -2 11 -28 11 -58 0 -51 1 -54
26 -54 24 0 25 2 23 51 -2 35 1 53 12 59 12 8 11 12 -6 24 -19 13 -19 15 -2
21 9 4 17 13 17 21 0 18 -46 19 -57 2z"/>
<path d="M4873 800 c-42 -17 -56 -77 -27 -118 20 -29 85 -31 114 -2 56 56 -13
151 -87 120z m52 -70 c0 -28 -4 -35 -20 -35 -13 0 -21 8 -23 23 -5 34 5 54 25
50 13 -2 18 -13 18 -38z"/>
<path d="M5072 801 c-7 -4 -24 -6 -38 -3 -24 4 -24 3 -24 -67 0 -64 2 -71 19
-71 17 0 20 8 23 52 2 40 7 54 20 56 14 3 17 -6 20 -50 2 -41 7 -54 21 -56 14
-3 17 4 17 40 0 51 12 73 34 65 12 -5 16 -20 16 -57 0 -43 3 -50 20 -50 18 0
20 7 20 65 0 59 -2 66 -24 76 -17 8 -29 8 -46 -1 -16 -9 -25 -9 -33 -1 -13 13
-27 14 -45 2z"/>
<path d="M5322 801 c-7 -4 -24 -6 -38 -3 l-24 4 0 -96 c0 -89 1 -96 20 -96 16
0 20 7 20 30 0 28 2 29 30 23 43 -8 70 19 70 69 0 56 -41 93 -78 69z m33 -51
c6 -20 -9 -60 -23 -60 -24 0 -43 55 -25 73 13 14 42 6 48 -13z"/>
<path d="M5520 761 c0 -28 -6 -53 -13 -60 -21 -17 -37 7 -37 56 0 36 -3 43
-20 43 -18 0 -20 -7 -20 -58 0 -62 11 -82 45 -82 12 0 26 5 33 12 9 9 12 9 12
0 0 -7 9 -12 20 -12 18 0 20 7 20 75 0 68 -2 75 -20 75 -17 0 -20 -7 -20 -49z"/>
<path d="M5609 789 c-10 -10 -19 -33 -19 -49 0 -38 43 -85 68 -75 9 4 22 9 29
12 8 3 10 -3 6 -17 -5 -19 -10 -20 -49 -14 -25 3 -44 2 -44 -3 0 -20 26 -33
67 -33 60 0 75 25 71 121 l-3 74 -53 2 c-41 1 -58 -3 -73 -18z m79 -53 c-2
-23 -8 -31 -23 -31 -15 0 -21 8 -23 29 -4 30 12 48 35 39 9 -4 13 -17 11 -37z"/>
<path d="M5770 740 c0 -68 1 -70 25 -70 23 0 25 4 25 44 0 36 4 46 20 51 11 3
20 15 20 26 0 22 -10 24 -29 7 -11 -10 -14 -10 -18 0 -3 6 -13 12 -24 12 -17
0 -19 -8 -19 -70z"/>
<path d="M5896 791 c-23 -25 -3 -38 30 -20 18 9 27 10 36 1 9 -9 8 -12 -3 -15
-68 -19 -74 -23 -77 -48 -4 -34 20 -53 55 -44 16 5 38 7 51 6 21 -2 22 1 22
58 0 49 -3 62 -19 71 -31 16 -76 12 -95 -9z m74 -65 c0 -16 -14 -36 -25 -36
-20 0 -30 21 -14 31 15 9 39 12 39 5z"/>
<path d="M0 125 l0 -25 4000 0 4000 0 0 25 0 25 -4000 0 -4000 0 0 -25z"/>
</g>
</svg>
