<?xml version="1.0" standalone="no"?>
<!DOCTYPE svg PUBLIC "-//W3C//DTD SVG 20010904//EN"
 "http://www.w3.org/TR/2001/REC-SVG-20010904/DTD/svg10.dtd">
<svg version="1.0" xmlns="http://www.w3.org/2000/svg"
 width="848.000000pt" height="483.000000pt" viewBox="0 0 848.000000 483.000000"
 preserveAspectRatio="xMidYMid meet">

<g transform="translate(0.000000,483.000000) scale(0.100000,-0.100000)"
fill="#000000" stroke="none">
<path d="M4270 4626 c0 -34 -1 -35 -33 -29 -23 3 -37 0 -46 -11 -17 -21 -18
-91 -1 -111 14 -17 56 -20 66 -4 4 8 9 8 17 0 23 -23 27 -8 27 89 0 82 -3 100
-15 100 -10 0 -15 -10 -15 -34z m-12 -58 c31 -31 -2 -100 -38 -78 -18 11 -17
69 1 81 19 12 23 11 37 -3z"/>
<path d="M7600 4581 l0 -80 54 -30 54 -31 51 31 51 32 0 78 0 79 -105 0 -105
0 0 -79z m115 9 c4 -6 2 -17 -5 -24 -8 -11 -8 -15 2 -19 7 -3 2 -6 -11 -6 -24
-1 -24 -1 -5 20 16 17 16 22 4 29 -9 6 -10 10 -3 10 6 0 15 -5 18 -10z"/>
<path d="M3572 4564 c-18 -47 -32 -90 -32 -95 0 -20 28 -7 34 16 5 21 12 25
45 25 33 0 40 -4 45 -25 4 -14 13 -25 21 -25 20 0 20 2 -13 100 -22 66 -33 86
-49 88 -17 3 -25 -11 -51 -84z m62 22 c3 -13 9 -31 12 -40 5 -13 -1 -16 -26
-16 -25 0 -31 3 -26 16 3 9 9 27 12 40 3 13 10 24 14 24 4 0 11 -11 14 -24z"/>
<path d="M3740 4586 c-6 -8 -11 -25 -10 -38 1 -13 1 -25 0 -28 -9 -21 -6 -96
3 -102 34 -22 107 -1 107 30 0 27 -20 42 -57 42 -23 0 -33 5 -33 16 0 8 5 12
11 9 18 -12 57 4 63 25 3 11 9 29 12 40 5 18 1 20 -39 20 -27 0 -49 -6 -57
-14z m60 -26 c0 -24 -26 -38 -42 -22 -16 16 -2 42 22 42 13 0 20 -7 20 -20z
m5 -110 c0 -9 -11 -16 -27 -18 -23 -3 -28 1 -28 18 0 17 5 21 28 18 16 -2 27
-9 27 -18z"/>
<path d="M3893 4592 c-20 -13 -32 -58 -24 -89 9 -32 45 -49 85 -39 38 9 32 26
-8 19 -28 -4 -36 -1 -45 16 -11 20 -9 21 33 21 53 0 62 10 44 47 -13 29 -59
42 -85 25z m57 -16 c0 -2 3 -11 6 -20 5 -13 -1 -16 -30 -16 -34 0 -36 2 -26
20 9 17 50 30 50 16z"/>
<path d="M4020 4530 c0 -56 3 -70 15 -70 11 0 15 12 15 50 0 38 4 52 18 59 28
15 42 -6 42 -61 0 -36 4 -48 15 -48 12 0 15 13 15 58 0 32 -5 63 -12 70 -15
15 -51 15 -66 0 -9 -9 -12 -9 -12 0 0 7 -7 12 -15 12 -12 0 -15 -14 -15 -70z"/>
<path d="M4353 4593 c-25 -10 -12 -20 24 -19 28 1 38 -3 41 -16 3 -14 -3 -18
-27 -18 -25 0 -61 -21 -61 -36 0 -36 53 -57 78 -32 9 9 12 9 12 0 0 -7 7 -12
15 -12 22 0 21 103 -1 124 -15 15 -55 20 -81 9z m67 -87 c0 -18 -39 -31 -52
-18 -15 15 0 32 28 32 14 0 24 -6 24 -14z"/>
<path d="M1053 4549 c-52 -33 -37 -55 17 -24 23 12 30 11 78 -16 l52 -30 0 25
c0 18 -5 26 -17 26 -10 0 -33 9 -51 20 -40 24 -39 24 -79 -1z"/>
<path d="M960 4484 c0 -14 4 -23 10 -19 6 3 28 -4 49 -16 38 -21 71 -21 71 1
0 5 -8 10 -17 10 -10 0 -36 11 -58 25 -50 31 -55 31 -55 -1z"/>
<path d="M1080 4490 c0 -14 48 -35 58 -26 8 9 -26 36 -45 36 -7 0 -13 -5 -13
-10z"/>
<path d="M1132 4424 c-29 -18 -58 -34 -65 -34 -6 0 -30 11 -52 25 -46 28 -55
30 -55 12 0 -14 83 -67 106 -67 24 0 134 71 134 86 0 20 -9 17 -68 -22z"/>
<path d="M218 4369 c-26 -15 -24 -75 3 -89 16 -9 26 -8 47 6 16 11 22 19 14
22 -7 2 -18 -1 -26 -7 -9 -7 -16 -7 -24 1 -29 29 1 75 32 49 17 -14 29 -2 15
16 -13 15 -37 16 -61 2z"/>
<path d="M928 4368 c-7 -20 3 -88 13 -88 5 0 9 12 10 28 0 15 2 37 3 50 3 23
-19 31 -26 10z"/>
<path d="M1390 4345 l0 -25 3305 0 3305 0 0 25 0 25 -3305 0 -3305 0 0 -25z"/>
<path d="M854 4344 c-18 -14 -18 -15 6 -9 l25 6 -22 -17 c-35 -25 -29 -44 12
-44 30 0 35 3 35 24 0 14 -7 32 -16 40 -19 19 -16 19 -40 0z m26 -44 c0 -5 -4
-10 -10 -10 -5 0 -10 5 -10 10 0 6 5 10 10 10 6 0 10 -4 10 -10z"/>
<path d="M307 4344 c-14 -14 -7 -53 12 -63 26 -14 54 8 49 40 -2 17 -10 25
-28 27 -14 2 -29 0 -33 -4z m39 -40 c-5 -13 -10 -14 -18 -6 -6 6 -8 18 -4 28
5 13 10 14 18 6 6 -6 8 -18 4 -28z"/>
<path d="M390 4315 c0 -19 5 -35 10 -35 6 0 10 11 10 24 0 14 4 27 9 31 12 7
25 -31 16 -45 -3 -5 -2 -10 3 -10 5 0 12 14 16 31 7 35 26 30 26 -7 0 -13 5
-24 11 -24 6 0 9 14 7 33 -3 31 -4 32 -55 35 l-53 2 0 -35z"/>
<path d="M520 4301 c0 -28 5 -51 10 -51 6 0 10 6 10 14 0 8 10 16 23 18 17 2
22 10 22 33 0 27 -4 30 -32 33 l-33 3 0 -50z m46 3 c-5 -13 -10 -14 -18 -6 -6
6 -8 18 -4 28 5 13 10 14 18 6 6 -6 8 -18 4 -28z"/>
<path d="M610 4315 c0 -33 2 -35 35 -35 33 0 35 2 35 35 0 24 -5 35 -15 35 -9
0 -15 -9 -15 -25 0 -14 -4 -25 -10 -25 -5 0 -10 11 -10 25 0 14 -4 25 -10 25
-5 0 -10 -16 -10 -35z"/>
<path d="M695 4339 c-13 -20 5 -59 28 -60 21 -1 21 -1 -3 -9 -23 -7 -23 -8 -6
-15 30 -13 51 8 54 54 3 41 3 41 -32 41 -19 0 -38 -5 -41 -11z m45 -19 c0 -21
-15 -27 -25 -10 -7 12 2 30 16 30 5 0 9 -9 9 -20z"/>
<path d="M780 4315 c0 -24 5 -35 15 -35 9 0 15 9 15 25 0 14 5 25 10 25 6 0
10 5 10 10 0 6 -11 10 -25 10 -22 0 -25 -4 -25 -35z"/>
<path d="M4724 3733 c20 -91 45 -298 51 -423 13 -267 -41 -672 -122 -920 -18
-55 -18 -55 -68 -63 -27 -4 -63 -13 -80 -19 -38 -14 -391 -36 -589 -37 -82 -1
-147 -3 -145 -6 3 -2 38 -9 79 -15 102 -15 130 -25 166 -60 18 -16 44 -32 58
-36 14 -3 26 -10 26 -16 0 -5 -4 -7 -9 -4 -26 16 -159 26 -204 15 -38 -9 -62
-9 -107 1 -48 10 -75 10 -138 0 -57 -10 -87 -10 -108 -3 -67 25 -70 25 -54 15
12 -9 9 -13 -15 -21 -17 -6 -38 -16 -47 -21 -27 -15 -55 -12 -101 12 -23 12
-69 27 -102 34 l-60 12 50 1 c34 1 67 -7 103 -24 62 -29 90 -31 98 -10 4 8 17
15 30 15 33 0 30 18 -3 26 -16 3 -65 15 -111 26 -46 11 -85 18 -88 15 -3 -3 8
-8 25 -12 34 -7 52 -25 26 -25 -9 0 -62 14 -117 31 -119 37 -155 36 -247 -10
-36 -17 -71 -31 -80 -31 -23 0 -165 -45 -291 -92 -57 -22 -70 -32 -108 -84
-23 -32 -51 -77 -62 -99 -20 -41 -50 -84 -50 -73 0 9 70 140 83 156 5 7 7 15
5 18 -3 3 -21 -18 -39 -45 -18 -28 -34 -49 -36 -47 -11 11 46 96 107 160 69
71 73 84 23 71 -33 -8 -227 -207 -249 -255 -9 -19 -30 -49 -47 -67 -33 -36
-31 -58 7 -73 19 -7 25 -17 25 -37 1 -49 5 -73 14 -73 5 0 6 -9 2 -19 -5 -16
-2 -18 15 -14 11 3 20 10 20 16 0 6 2 8 5 5 10 -10 -8 -40 -29 -48 -15 -6 -17
-9 -5 -9 21 -1 34 -31 14 -31 -18 0 -20 -16 -2 -24 9 -5 9 -7 0 -12 -7 -3 -13
-10 -13 -15 0 -6 6 -9 13 -8 26 3 37 -2 37 -16 0 -8 -9 -15 -20 -15 -11 0 -20
-4 -20 -9 0 -5 9 -7 20 -4 32 8 70 -5 64 -22 -4 -10 -20 -15 -45 -15 -58 0
-47 -15 13 -18 74 -3 84 -26 13 -30 -30 -2 -55 -7 -55 -12 0 -6 82 -10 206
-10 l205 0 -6 23 -6 22 20 -22 c17 -20 29 -23 108 -24 48 0 133 -6 188 -13
100 -12 99 -12 -195 -19 -361 -9 -956 -8 -990 2 -14 4 -26 15 -28 27 -2 11 22
103 52 204 31 101 54 186 52 187 -4 5 -74 -190 -115 -323 -17 -54 -35 -105
-40 -112 -6 -10 -23 8 -63 65 -482 693 -720 1041 -962 1403 -188 282 -292 429
-294 417 -2 -10 8 -37 23 -59 15 -23 27 -52 28 -65 0 -16 7 -27 22 -33 12 -5
33 -26 46 -46 22 -36 24 -53 37 -334 11 -260 15 -297 31 -315 10 -11 23 -30
30 -42 14 -27 -6 -36 -65 -27 -32 4 -41 10 -37 21 3 8 -9 34 -26 58 -17 24
-31 46 -31 50 0 3 -10 19 -21 35 -23 30 -20 64 5 54 11 -4 13 0 9 15 -3 11 -9
18 -14 15 -15 -9 -21 20 -10 47 5 13 10 18 10 11 1 -10 4 -10 16 2 19 19 6 57
-27 80 -17 13 -20 19 -10 25 14 8 26 60 23 101 -1 14 -3 51 -5 82 -3 39 -11
67 -27 89 -14 20 -24 50 -25 81 -2 27 -6 54 -10 60 -4 6 -28 9 -65 5 -40 -3
-63 -1 -77 9 -11 8 -27 11 -35 8 -10 -3 -22 4 -32 20 -12 18 -26 26 -47 26
-16 0 -27 -4 -24 -9 6 -9 -36 -31 -59 -31 -13 0 -15 -63 -15 -446 l0 -446 243
6 c694 19 767 17 767 -13 0 -8 16 -7 -543 -16 l-467 -7 0 -65 0 -65 32 6 c97
18 1018 52 1056 38 10 -4 377 -542 520 -764 l44 -67 -34 -43 c-18 -23 -52 -60
-76 -82 -23 -21 -42 -45 -42 -51 0 -7 -9 -15 -20 -18 -12 -3 -20 -14 -20 -26
0 -12 -4 -21 -10 -21 -5 0 -10 5 -10 12 0 19 -19 -4 -22 -27 -6 -36 -77 -120
-105 -122 -36 -3 -53 -21 -47 -51 4 -23 -1 -31 -33 -52 -21 -14 -49 -30 -63
-37 -20 -9 15 -12 178 -12 139 -1 201 2 197 9 -4 6 -2 16 3 23 6 7 11 17 12
22 6 27 20 53 46 80 26 28 56 69 107 142 12 18 25 33 28 33 4 0 12 -14 19 -30
7 -17 22 -37 34 -45 27 -19 152 -19 311 0 66 8 157 15 202 15 l83 0 31 -42
c32 -45 66 -117 61 -132 -2 -4 2 -14 8 -22 7 -7 9 -22 5 -34 l-6 -20 2755 0
2756 0 0 1515 0 1515 -1641 0 -1641 0 6 -27z m1486 -415 c0 -3 -9 -6 -20 -5
-11 1 -20 5 -20 9 0 3 9 6 20 5 11 -1 20 -5 20 -9z m180 -33 c0 -41 -2 -45
-24 -45 -26 0 -39 20 -30 45 4 8 15 15 25 15 10 0 19 7 19 15 0 8 2 15 5 15 3
0 5 -20 5 -45z m-410 26 c0 -5 -9 -7 -19 -4 -13 3 -21 -2 -26 -16 -8 -25 1
-41 21 -41 17 0 19 26 2 33 -8 3 -6 6 5 6 12 1 17 -7 17 -24 0 -20 -5 -25 -25
-25 -31 0 -50 32 -35 60 11 20 60 29 60 11z m161 2 c4 -46 2 -72 -6 -70 -5 2
-11 13 -13 25 -2 15 -10 22 -25 22 -21 -1 -21 -1 -3 -15 10 -7 15 -18 11 -24
-8 -14 -32 -14 -40 -1 -4 6 1 7 12 3 15 -6 16 -4 6 8 -8 10 -23 14 -43 11 -36
-5 -37 -9 -7 -22 22 -10 22 -10 -3 -7 -34 3 -36 50 -2 55 13 2 22 -2 22 -9 0
-10 3 -10 12 -1 7 7 22 12 35 12 13 0 23 5 23 10 0 11 20 14 21 3z m423 -2 c4
-5 -2 -7 -13 -4 -20 5 -34 -18 -25 -42 9 -22 30 -18 48 10 9 14 25 25 35 25
23 0 35 -28 20 -46 -14 -17 -49 -18 -49 -2 0 9 -3 9 -12 0 -32 -32 -80 8 -58
48 11 20 44 27 54 11z m177 2 c4 -46 2 -72 -6 -70 -12 4 -23 47 -17 65 5 13
22 17 23 5z m160 0 c4 -46 2 -72 -6 -70 -12 4 -23 47 -17 65 5 13 22 17 23 5z
m-691 -44 c0 -26 -3 -30 -22 -27 -30 4 -35 28 -7 35 22 6 22 7 3 14 -18 7 -17
8 4 8 18 1 22 -4 22 -30z m74 15 c8 -20 -11 -44 -34 -44 -23 0 -34 28 -19 46
16 19 45 18 53 -2z m180 0 c8 -20 -11 -44 -34 -44 -23 0 -34 28 -19 46 16 19
45 18 53 -2z m235 -16 c-1 -22 -3 -26 -6 -13 -8 34 -23 41 -23 12 0 -15 -4
-27 -10 -27 -5 0 -10 14 -10 30 0 25 4 30 25 30 22 0 25 -4 24 -32z m104 25
c-7 -2 -13 -16 -13 -29 0 -13 -4 -24 -10 -24 -5 0 -10 14 -10 30 0 25 4 30 23
29 12 0 16 -3 10 -6z m57 -24 c0 -26 -3 -30 -22 -27 -30 4 -35 28 -7 35 22 6
22 7 3 14 -18 7 -17 8 4 8 18 1 22 -4 22 -30z m124 15 c8 -20 -11 -44 -34 -44
-23 0 -34 28 -19 46 16 19 45 18 53 -2z m-1404 -99 c0 -78 2 -85 20 -85 11 0
20 -4 20 -10 0 -6 -27 -10 -60 -10 -33 0 -60 4 -60 10 0 6 11 10 25 10 24 0
25 2 25 70 0 67 -1 70 -20 58 -10 -7 -23 -9 -27 -4 -11 10 34 46 58 46 17 0
19 -8 19 -85z m345 -38 c-10 -8 -15 -19 -11 -25 10 -17 27 -15 42 6 13 16 14
16 8 0 -3 -10 -1 -18 4 -18 6 0 13 8 15 18 4 13 5 13 6 -4 1 -19 -5 -22 -38
-22 -27 -1 -41 4 -45 15 -7 17 10 43 27 43 6 0 3 -6 -8 -13z m400 -8 c4 12 9
21 11 18 3 -2 0 -17 -6 -32 -12 -31 -24 -25 -34 15 l-7 25 14 -24 15 -24 7 22z
m-253 -14 c3 -14 1 -25 -3 -25 -5 0 -9 11 -9 25 0 14 2 25 4 25 2 0 6 -11 8
-25z m114 2 c13 16 13 16 8 1 -3 -10 -1 -18 4 -18 6 0 13 8 15 18 4 13 5 12 6
-5 1 -18 -4 -22 -29 -21 -26 1 -30 5 -29 27 2 25 2 25 6 3 4 -22 5 -23 19 -5z
m341 0 c14 17 14 17 9 -1 -5 -16 -2 -18 24 -14 16 3 30 1 30 -4 0 -4 -20 -7
-45 -6 -42 1 -45 3 -44 27 2 25 2 25 6 3 4 -23 5 -23 20 -5z m-488 -9 c0 -16
-2 -18 -6 -8 -3 8 -11 18 -17 22 -7 5 -4 8 7 8 11 0 17 -7 16 -22z m111 2 c0
-22 -24 -27 -36 -8 -5 8 -2 9 10 5 14 -5 17 -3 12 8 -3 8 -1 15 4 15 6 0 10
-9 10 -20z m107 0 c1 -13 -4 -20 -15 -19 -11 0 -13 2 -4 6 10 4 10 8 1 19 -9
11 -8 14 3 14 7 0 14 -9 15 -20z m159 3 c-3 -6 3 -14 12 -16 15 -4 15 -5 1 -6
-9 0 -22 6 -29 14 -7 8 -17 15 -23 15 -6 0 -2 -6 9 -14 14 -11 16 -17 7 -26
-14 -15 -33 -4 -33 19 0 24 9 31 37 29 14 -2 22 -7 19 -15z m63 -6 c-1 -17 -2
-18 -6 -4 -3 12 -10 16 -24 12 -10 -4 -19 -3 -19 2 0 5 11 10 25 11 20 1 25
-3 24 -21z m106 13 c-3 -5 -13 -10 -21 -10 -8 0 -14 5 -14 10 0 6 9 10 21 10
11 0 17 -4 14 -10z m-6365 -70 c0 -5 -9 -9 -20 -7 -31 5 -36 17 -7 17 15 0 27
-4 27 -10z m-20 -24 c0 -11 -19 -15 -25 -6 -3 5 1 10 9 10 9 0 16 -2 16 -4z
m5 -66 c-3 -5 -14 -10 -23 -9 -14 0 -13 2 3 9 27 11 27 11 20 0z m552 -382
c33 -51 63 -98 67 -104 3 -6 -4 -30 -15 -53 -20 -42 -21 -42 -44 -27 -13 9
-35 16 -48 16 -13 0 -34 11 -46 24 -13 14 -29 22 -37 19 -19 -7 -44 15 -37 33
3 8 16 14 29 14 33 0 46 42 54 163 1 21 21 -2 77 -85z m5463 78 c0 -3 -4 -8
-10 -11 -5 -3 -10 -1 -10 4 0 6 5 11 10 11 6 0 10 -2 10 -4z m-240 -16 c0 -5
-7 -7 -15 -4 -8 4 -15 1 -15 -4 0 -6 9 -14 21 -17 12 -4 19 -14 17 -23 -4 -20
-36 -28 -51 -13 -7 7 -3 8 12 4 26 -7 27 8 1 25 -23 14 -16 42 11 42 10 0 19
-4 19 -10z m488 3 c-21 -5 -24 -23 -5 -24 10 0 10 -2 0 -6 -21 -8 -15 -33 8
-33 17 0 20 5 17 23 -4 20 -1 24 24 24 19 0 25 -4 19 -10 -6 -6 -7 -17 -1 -26
7 -15 1 -17 -46 -19 l-54 -2 0 40 c0 37 2 40 28 39 16 -1 20 -3 10 -6z m293 0
c4 -46 2 -72 -6 -70 -12 4 -23 47 -17 65 5 13 22 17 23 5z m-6396 -23 c-3 -5
-13 -10 -21 -10 -8 0 -14 5 -14 10 0 6 9 10 21 10 11 0 17 -4 14 -10z m5660
-31 c6 0 13 10 17 23 5 20 6 18 7 -9 1 -29 -2 -33 -24 -33 -22 0 -25 4 -24 33
1 27 2 29 7 9 4 -13 12 -23 17 -23z m135 11 c0 -16 -4 -30 -10 -30 -5 0 -10
12 -10 26 0 30 -19 22 -21 -9 -1 -20 -2 -20 -6 -2 -8 34 -23 41 -23 12 0 -15
-4 -27 -10 -27 -5 0 -10 14 -10 30 0 29 2 30 45 30 43 0 45 -1 45 -30z m60 -1
c0 -26 -3 -30 -22 -27 -30 4 -35 28 -7 35 22 6 22 7 3 14 -18 7 -17 8 4 8 18
1 22 -4 22 -30z m53 24 c-7 -2 -13 -16 -13 -29 0 -13 -4 -24 -10 -24 -5 0 -10
14 -10 30 0 25 4 30 23 29 12 0 16 -3 10 -6z m24 -40 c-3 -10 -5 -2 -5 17 0
19 2 27 5 18 2 -10 2 -26 0 -35z m77 31 c8 -20 -11 -44 -34 -44 -23 0 -34 28
-19 46 16 19 45 18 53 -2z m229 4 c4 -10 8 -10 15 0 13 19 56 11 62 -11 7 -25
24 -23 32 5 5 20 6 18 7 -9 1 -29 -2 -33 -24 -33 -18 0 -25 5 -25 20 0 11 -2
20 -4 20 -2 0 -11 3 -20 6 -12 4 -16 0 -16 -16 0 -16 4 -20 15 -16 8 3 15 1
15 -4 0 -16 -38 -11 -48 6 -5 10 -18 14 -33 12 l-24 -5 25 -11 c25 -11 25 -11
2 -11 -24 -1 -38 20 -28 44 7 18 42 20 49 3z m233 -5 c13 -17 13 -17 14 0 0 9
5 17 10 17 12 0 12 -2 0 -34 -12 -34 -28 -33 -42 2 l-11 27 -7 -30 -8 -30 -1
33 c-1 37 22 44 45 15z m98 1 c8 -20 -11 -44 -34 -44 -23 0 -34 28 -19 46 16
19 45 18 53 -2z m-1346 -10 c32 -22 29 -66 -8 -107 -16 -19 -30 -37 -30 -40 0
-3 14 -7 32 -9 17 -2 33 -9 36 -15 3 -10 -14 -13 -62 -13 -36 0 -66 3 -66 8 0
4 18 29 40 56 56 67 54 118 -4 96 -21 -8 -26 -7 -26 6 0 13 30 32 55 33 6 1
21 -6 33 -15z m-4981 -36 c-3 -8 -6 -5 -6 6 -1 11 2 17 5 13 3 -3 4 -12 1 -19z
m5330 -125 c-3 -10 -5 -2 -5 17 0 19 2 27 5 18 2 -10 2 -26 0 -35z m30 0 c-3
-10 -5 -2 -5 17 0 19 2 27 5 18 2 -10 2 -26 0 -35z m251 36 c-24 -14 -22 -28
5 -39 22 -9 22 -9 1 -9 -12 -1 -25 6 -28 15 -7 18 10 44 28 44 6 0 3 -5 -6
-11z m275 -17 c14 -28 13 -29 -13 -28 -25 1 -26 3 -18 29 6 15 11 27 13 27 2
0 10 -13 18 -28z m351 -7 c5 -16 1 -20 -18 -20 -21 0 -22 2 -13 28 10 29 20
27 31 -8z m329 19 c16 16 17 16 17 -13 0 -27 -3 -31 -25 -29 -21 2 -25 7 -24
33 0 23 2 26 8 11 7 -17 8 -17 24 -2z m184 -31 c-3 -10 -5 -2 -5 17 0 19 2 27
5 18 2 -10 2 -26 0 -35z m153 18 c0 -28 -1 -28 -55 -28 -57 0 -76 10 -56 30 9
9 11 8 6 -5 -6 -14 -1 -17 24 -15 22 1 30 6 26 16 -3 9 0 11 10 7 8 -3 21 1
27 9 18 19 18 19 18 -14z m-1408 -6 c3 -14 1 -25 -3 -25 -5 0 -9 11 -9 25 0
14 2 25 4 25 2 0 6 -11 8 -25z m791 -12 c11 0 16 4 14 11 -4 9 5 13 24 14 26
1 29 -3 29 -29 0 -26 -2 -28 -14 -16 -8 8 -29 12 -50 11 -33 -3 -36 -1 -35 24
1 23 2 24 7 7 4 -11 15 -21 25 -22z m419 12 c3 -14 1 -25 -3 -25 -5 0 -9 11
-9 25 0 14 2 25 4 25 2 0 6 -11 8 -25z m-1316 0 c-3 -9 0 -15 9 -15 10 0 12 6
8 18 -7 16 -6 16 11 0 21 -22 30 -23 22 -3 -3 8 -1 15 4 15 6 0 10 -9 10 -20
0 -16 -7 -20 -34 -20 -36 0 -52 12 -41 30 10 15 18 12 11 -5z m153 -7 c0 -16
-2 -18 -6 -8 -3 8 -11 18 -17 22 -7 5 -4 8 7 8 11 0 17 -7 16 -22z m130 0 c0
-16 -2 -18 -6 -8 -3 8 -11 18 -17 22 -7 5 -4 8 7 8 11 0 17 -7 16 -22z m27 7
c-3 -9 0 -15 9 -15 8 0 12 6 9 13 -3 8 2 14 10 14 8 0 12 -6 9 -13 -2 -7 4
-14 14 -16 10 -3 1 -5 -20 -5 -38 -1 -53 9 -42 27 10 15 18 12 11 -5z m115
-19 c8 4 9 3 5 -5 -6 -9 -12 -9 -24 1 -10 7 -19 13 -21 15 -1 1 0 7 5 14 5 9
10 6 16 -10 5 -13 12 -19 19 -15z m118 12 c0 -16 -2 -18 -6 -8 -3 8 -11 18
-17 22 -7 5 -4 8 7 8 11 0 17 -7 16 -22z m51 2 c0 -22 -24 -27 -36 -8 -5 8 -2
9 10 5 14 -5 17 -3 12 8 -3 8 -1 15 4 15 6 0 10 -9 10 -20z m67 0 c1 -13 -4
-20 -15 -19 -11 0 -13 2 -4 6 10 4 10 8 1 19 -9 11 -8 14 3 14 7 0 14 -9 15
-20z m29 4 c-5 -13 -1 -15 24 -12 16 3 30 1 30 -4 0 -12 -58 -10 -65 2 -3 6
-3 15 0 20 10 16 18 12 11 -6z m49 6 c-3 -5 -13 -10 -21 -10 -8 0 -14 5 -14
10 0 6 9 10 21 10 11 0 17 -4 14 -10z m275 -10 c0 -13 -6 -20 -17 -19 -11 0
-13 3 -5 6 6 2 12 11 12 19 0 8 2 14 5 14 3 0 5 -9 5 -20z m26 4 c-5 -13 -1
-15 24 -12 16 3 30 1 30 -4 0 -12 -58 -10 -65 2 -3 6 -3 15 0 20 10 16 18 12
11 -6z m49 6 c-3 -5 -13 -10 -21 -10 -8 0 -14 5 -14 10 0 6 9 10 21 10 11 0
17 -4 14 -10z m132 -4 c-4 -9 1 -17 11 -19 16 -4 16 -5 0 -6 -19 -1 -32 14
-23 29 9 15 18 12 12 -4z m62 -9 c-1 -17 -2 -18 -6 -4 -3 12 -10 16 -24 12
-10 -4 -19 -3 -19 2 0 5 11 10 25 11 20 1 25 -3 24 -21z m255 8 c-4 -8 -1 -15
4 -15 6 0 13 8 15 18 4 13 5 11 6 -5 1 -14 -5 -23 -13 -23 -18 0 -29 16 -21
30 9 15 15 12 9 -5z m63 -5 c1 -13 -4 -20 -15 -19 -11 0 -13 2 -4 6 10 4 10 8
1 19 -9 11 -8 14 3 14 7 0 14 -9 15 -20z m50 6 c-4 -9 1 -17 11 -19 16 -4 16
-5 0 -6 -19 -1 -32 14 -23 29 9 15 18 12 12 -4z m-1689 -105 c3 -22 4 -22 19
-4 13 16 14 16 9 1 -3 -12 0 -18 9 -18 8 0 12 6 9 13 -3 8 2 14 10 14 8 0 12
-6 9 -14 -7 -19 17 -16 33 5 13 16 14 16 8 0 -3 -10 -1 -18 4 -18 6 0 13 8 15
18 4 13 5 12 6 -5 1 -20 -3 -21 -61 -20 -35 1 -68 6 -75 10 -6 4 -14 1 -16 -5
-3 -7 -6 2 -6 20 -1 38 22 40 27 3z m342 -1 c0 -19 -5 -30 -14 -30 -25 0 -29
20 -10 40 25 24 24 25 24 -10z m127 24 c-3 -3 -12 -4 -19 -1 -8 3 -5 6 6 6 11
1 17 -2 13 -5z m191 -5 c-24 -14 -22 -28 5 -39 22 -9 22 -9 1 -9 -12 -1 -25 6
-28 15 -7 18 10 44 28 44 6 0 3 -5 -6 -11z m383 2 c-11 -7 -10 -11 4 -19 21
-11 12 -32 -13 -31 -15 0 -15 1 1 8 17 6 17 8 3 20 -17 14 -13 31 7 31 8 0 7
-3 -2 -9z m-235 -24 c13 16 13 16 8 1 -3 -10 -1 -18 4 -18 6 0 13 8 15 18 4
13 5 12 6 -5 1 -18 -4 -22 -29 -21 -26 1 -30 5 -29 27 2 25 2 25 6 3 4 -22 5
-23 19 -5z m-580 -4 c-3 -6 3 -14 12 -16 9 -3 5 -4 -10 -4 -16 1 -28 7 -28 14
0 20 -20 15 -21 -4 0 -14 -2 -15 -6 -3 -3 8 -11 18 -17 23 -6 4 8 6 32 5 28
-2 41 -7 38 -15z m63 -6 c-1 -17 -2 -18 -6 -4 -3 12 -10 16 -24 12 -10 -4 -19
-3 -19 2 0 5 11 10 25 11 20 1 25 -3 24 -21z m114 6 c-8 -19 18 -16 33 5 13
16 14 16 8 0 -3 -10 -1 -18 4 -18 6 0 13 8 15 18 3 12 5 11 6 -6 1 -17 -4 -22
-17 -20 -11 2 -27 -3 -36 -11 -15 -12 -17 -12 -14 0 2 9 -4 13 -19 11 -12 -2
-25 3 -29 9 -5 9 -2 10 10 6 13 -5 17 -3 13 7 -4 10 0 14 12 13 11 -1 17 -7
14 -14z m93 1 c-5 -13 -1 -15 24 -12 16 3 30 1 30 -4 0 -12 -58 -10 -65 2 -3
6 -3 15 0 20 10 16 18 12 11 -6z m49 6 c-3 -5 -13 -10 -21 -10 -8 0 -14 5 -14
10 0 6 9 10 21 10 11 0 17 -4 14 -10z m175 -10 c0 -13 -6 -20 -17 -19 -11 0
-13 3 -5 6 6 2 12 11 12 19 0 8 2 14 5 14 3 0 5 -9 5 -20z m37 0 c1 -13 -4
-20 -15 -19 -11 0 -13 2 -4 6 10 4 10 8 1 19 -9 11 -8 14 3 14 7 0 14 -9 15
-20z m179 3 c-3 -6 3 -14 12 -16 9 -3 5 -4 -10 -4 -16 1 -28 7 -28 14 0 20
-20 15 -21 -4 0 -14 -2 -15 -6 -3 -3 8 -11 18 -17 23 -6 4 8 6 32 5 28 -2 41
-7 38 -15z m44 7 c-18 -12 -30 -13 -30 -2 0 4 10 9 22 9 18 2 20 0 8 -7z m120
-10 c0 -13 -6 -20 -17 -19 -11 0 -13 3 -5 6 6 2 12 11 12 19 0 8 2 14 5 14 3
0 5 -9 5 -20z m24 5 c-8 -21 16 -19 32 3 13 16 14 16 8 0 -4 -11 -1 -18 6 -18
7 0 19 8 27 18 14 16 14 16 9 -2 -5 -16 -2 -18 24 -14 16 3 30 1 30 -3 0 -11
-139 -8 -146 3 -3 4 -2 13 1 18 9 15 15 12 9 -5z m131 5 c-3 -5 -13 -10 -21
-10 -8 0 -14 5 -14 10 0 6 9 10 21 10 11 0 17 -4 14 -10z m42 -10 c1 -13 -4
-20 -15 -19 -11 0 -13 2 -4 6 10 4 10 8 1 19 -9 11 -8 14 3 14 7 0 14 -9 15
-20z m-697 -16 c0 -8 -19 -13 -24 -6 -3 5 1 9 9 9 8 0 15 -2 15 -3z m-6125
-74 c3 -5 -1 -10 -9 -10 -9 0 -16 5 -16 10 0 6 4 10 9 10 6 0 13 -4 16 -10z
m3988 -85 c81 -5 149 -11 152 -15 2 -4 -3 -16 -11 -28 -14 -20 -24 -22 -102
-22 -60 0 -82 -3 -72 -10 8 -5 29 -10 45 -11 21 -1 24 -3 11 -6 -19 -5 -18 -6
5 -20 23 -14 22 -14 -16 -8 -69 11 -109 13 -130 4 -19 -7 -19 -8 -1 -8 24 -1
16 -10 -15 -17 -72 -17 -100 -21 -104 -14 -2 4 -18 5 -34 2 -26 -4 -31 -9 -35
-41 -2 -20 -3 17 -1 81 2 65 6 121 9 126 2 4 38 5 78 1 40 -4 140 -10 221 -14z
m-523 -54 c0 -14 -24 -19 -56 -13 l-29 6 30 7 c44 10 55 10 55 0z m-975 -25
c-16 -8 -66 -16 -109 -20 -43 -4 -97 -14 -120 -21 -23 -8 -54 -15 -69 -15 -22
0 -45 -16 -99 -72 -90 -93 -150 -164 -177 -208 -11 -19 -21 -30 -21 -24 0 25
203 289 236 307 39 22 164 49 257 56 138 11 136 11 102 -3z m1164 -16 c10 0
11 -3 2 -14 -9 -10 -35 -15 -88 -15 -42 0 -73 2 -70 5 11 11 103 33 122 28 11
-2 26 -4 34 -4z m414 -49 c4 -1 7 -5 7 -10 0 -4 -11 -6 -25 -3 -14 2 -25 8
-25 12 0 5 8 7 18 5 9 -2 20 -4 25 -4z m1727 -56 c0 -41 -2 -45 -24 -45 -26 0
-39 20 -30 45 4 8 15 15 25 15 10 0 19 7 19 15 0 8 2 15 5 15 3 0 5 -20 5 -45z
m469 -7 c-22 -58 -26 -64 -34 -56 -7 7 36 108 46 108 5 0 -1 -24 -12 -52z
m-733 -1 c14 -41 13 -43 -16 -24 -17 10 -22 9 -30 -3 -17 -27 -20 -3 -5 34 19
45 34 43 51 -7z m45 36 c4 -46 2 -72 -6 -70 -12 4 -23 47 -17 65 5 13 22 17
23 5z m540 0 c4 -46 2 -72 -6 -70 -12 4 -23 47 -17 65 5 13 22 17 23 5z m253
-2 c4 -5 -2 -7 -13 -4 -20 5 -34 -18 -25 -42 9 -22 30 -18 48 10 9 14 25 25
35 25 23 0 35 -28 20 -46 -14 -17 -49 -18 -49 -2 0 9 -3 9 -12 0 -32 -32 -80
8 -58 48 11 20 44 27 54 11z m177 2 c4 -46 2 -72 -6 -70 -12 4 -23 47 -17 65
5 13 22 17 23 5z m110 0 c4 -46 2 -72 -6 -70 -12 4 -23 47 -17 65 5 13 22 17
23 5z m-1503 -29 c24 -16 29 -53 11 -71 -9 -9 -7 -16 5 -29 23 -22 17 -53 -16
-77 -22 -16 -33 -18 -59 -11 -46 13 -53 39 -8 31 41 -8 62 3 57 29 -2 12 -14
21 -32 24 -39 7 -45 28 -9 32 20 2 29 9 31 26 4 27 -18 38 -47 22 -17 -9 -21
-8 -21 5 0 14 30 33 55 34 6 1 21 -6 33 -15z m505 2 c4 -10 -3 -16 -21 -19
l-27 -3 25 -11 c25 -12 25 -12 2 -12 -24 -1 -38 20 -28 44 7 19 42 20 49 1z
m66 -18 c-1 -22 -3 -26 -6 -13 -8 34 -23 41 -23 12 0 -15 -4 -27 -10 -27 -5 0
-10 14 -10 30 0 25 4 30 25 30 22 0 25 -4 24 -32z m98 -15 c-3 -10 -5 -2 -5
17 0 19 2 27 5 18 2 -10 2 -26 0 -35z m113 17 c0 -16 -4 -30 -10 -30 -5 0 -10
12 -10 26 0 30 -19 22 -21 -9 -1 -20 -2 -20 -6 -2 -8 34 -23 41 -23 12 0 -15
-4 -27 -10 -27 -5 0 -10 14 -10 30 0 29 2 30 45 30 43 0 45 -1 45 -30z m73 16
c4 -10 -3 -16 -21 -19 l-27 -3 25 -11 c25 -12 25 -12 2 -12 -24 -1 -38 20 -28
44 7 19 42 20 49 1z m66 -18 c-1 -22 -3 -26 -6 -13 -8 34 -23 41 -23 12 0 -15
-4 -27 -10 -27 -5 0 -10 14 -10 30 0 25 4 30 25 30 22 0 25 -4 24 -32z m125
16 c8 -20 -11 -44 -34 -44 -23 0 -34 28 -19 46 16 19 45 18 53 -2z m305 -16
c-1 -22 -3 -26 -6 -13 -8 34 -23 41 -23 12 0 -15 -4 -27 -10 -27 -5 0 -10 14
-10 30 0 25 4 30 25 30 22 0 25 -4 24 -32z m111 1 c0 -26 -3 -30 -22 -27 -30
4 -35 28 -7 35 22 6 22 7 3 14 -18 7 -17 8 4 8 18 1 22 -4 22 -30z m128 6 c6
-14 17 -25 23 -25 8 0 6 7 -4 18 -18 20 -13 32 12 32 13 0 13 -2 2 -9 -11 -7
-10 -11 5 -19 15 -9 17 -13 6 -24 -10 -10 -17 -10 -32 0 -12 7 -21 8 -25 2
-10 -16 -42 -12 -49 6 -8 20 10 44 34 44 9 0 22 -11 28 -25z m-4838 -72 c-1
-13 -60 -78 -60 -66 0 11 47 73 56 73 2 0 4 -3 4 -7z m3596 -48 c3 -8 -1 -22
-10 -30 -15 -15 -16 -14 -16 14 0 32 16 42 26 16z m294 -15 c0 -19 -5 -30 -14
-30 -25 0 -29 20 -10 40 25 24 24 25 24 -10z m95 17 c-10 -8 -15 -19 -11 -25
10 -17 27 -15 42 6 13 16 14 16 8 0 -3 -10 -1 -18 4 -18 6 0 13 8 15 18 4 13
5 13 6 -4 1 -19 -5 -22 -38 -22 -27 -1 -41 4 -45 15 -7 17 10 43 27 43 6 0 3
-6 -8 -13z m-3691 -58 c-27 -27 -56 -49 -66 -49 -10 0 -17 -5 -15 -12 1 -6 -6
-14 -15 -16 -30 -6 -18 11 53 76 81 74 115 74 43 1z m3452 38 c13 16 13 16 8
1 -3 -10 -1 -18 4 -18 6 0 13 8 15 18 4 13 5 12 6 -5 1 -18 -4 -22 -29 -21
-26 1 -30 5 -29 27 2 25 2 25 6 3 4 -22 5 -23 19 -5z m407 -14 c12 0 16 4 13
13 -3 8 -1 14 4 14 6 0 10 -9 10 -19 0 -15 -7 -19 -30 -19 -26 1 -30 5 -29 27
1 22 2 23 7 6 4 -11 15 -21 25 -22z m63 14 c13 16 13 16 8 1 -3 -10 -1 -18 4
-18 6 0 13 8 15 18 4 13 5 12 6 -5 1 -18 -4 -22 -29 -21 -26 1 -30 5 -29 27 2
25 2 25 6 3 4 -22 5 -23 19 -5z m-592 -2 c-4 -8 -1 -15 4 -15 6 0 13 8 15 18
4 13 5 11 6 -5 1 -14 -5 -23 -13 -23 -18 0 -29 16 -21 30 9 15 15 12 9 -5z
m75 -7 c0 -16 -2 -18 -6 -8 -3 8 -11 18 -17 22 -7 5 -4 8 7 8 11 0 17 -7 16
-22z m118 2 c1 -13 -4 -20 -15 -19 -11 0 -13 2 -4 6 10 4 10 8 1 19 -9 11 -8
14 3 14 7 0 14 -9 15 -20z m100 6 c-4 -9 1 -17 11 -19 16 -4 16 -5 0 -6 -19
-1 -32 14 -23 29 9 15 18 12 12 -4z m182 -8 c0 -16 -2 -18 -6 -8 -3 8 -11 18
-17 22 -7 5 -4 8 7 8 11 0 17 -7 16 -22z m188 2 c1 -13 -4 -20 -15 -19 -11 0
-13 2 -4 6 10 4 10 8 1 19 -9 11 -8 14 3 14 7 0 14 -9 15 -20z m-4325 -72 c-6
-6 -15 -8 -19 -4 -4 4 -1 11 7 16 19 12 27 3 12 -12z m208 -54 c0 -8 -5 -12
-10 -9 -6 4 -8 11 -5 16 9 14 15 11 15 -7z m-217 -27 c7 3 8 2 4 -2 -14 -16
-36 -14 -29 3 4 10 7 12 10 4 2 -7 9 -9 15 -5z m194 -13 c-3 -3 -12 -4 -19 -1
-8 3 -5 6 6 6 11 1 17 -2 13 -5z m1064 -67 c88 -12 117 -26 264 -124 l50 -33
-35 6 c-19 3 -82 28 -140 55 -70 32 -139 55 -205 69 -55 11 -109 23 -120 27
-19 6 -18 7 5 14 14 4 41 6 60 3 19 -3 74 -11 121 -17z m-791 -30 c0 -10 41
-69 55 -79 6 -4 26 -8 46 -8 23 0 39 -6 43 -15 4 -11 -2 -15 -25 -15 -17 0
-32 -6 -35 -15 -7 -16 -44 28 -97 112 -32 51 -33 57 -7 41 11 -7 20 -16 20
-21z m245 3 c11 -5 48 -11 81 -13 34 -3 72 -10 85 -17 22 -12 20 -14 -44 -44
l-67 -31 26 -39 27 -40 -39 24 c-52 31 -79 56 -126 115 -35 44 -38 50 -22 56
20 6 46 3 79 -11z m-374 -112 c5 -9 5 -19 0 -22 -12 -8 -54 73 -46 92 5 13 9
9 21 -18 9 -19 20 -43 25 -52z m-193 -20 c17 -17 15 -58 -3 -58 -8 0 -15 9
-15 19 0 11 -3 26 -6 35 -7 19 7 21 24 4z"/>
<path d="M6355 3280 c-4 -6 -3 -16 3 -22 6 -6 12 -6 17 2 4 6 3 16 -3 22 -6 6
-12 6 -17 -2z"/>
<path d="M6018 3283 c7 -3 16 -2 19 1 4 3 -2 6 -13 5 -11 0 -14 -3 -6 -6z"/>
<path d="M6594 3276 c-8 -22 3 -33 18 -18 9 9 9 15 0 24 -9 9 -13 7 -18 -6z"/>
<path d="M6180 3259 c0 -5 5 -7 10 -4 6 3 10 8 10 11 0 2 -4 4 -10 4 -5 0 -10
-5 -10 -11z"/>
<path d="M6244 3276 c-8 -22 3 -33 18 -18 9 9 9 15 0 24 -9 9 -13 7 -18 -6z"/>
<path d="M6424 3276 c-8 -22 3 -33 18 -18 9 9 9 15 0 24 -9 9 -13 7 -18 -6z"/>
<path d="M6830 3259 c0 -5 5 -7 10 -4 6 3 10 8 10 11 0 2 -4 4 -10 4 -5 0 -10
-5 -10 -11z"/>
<path d="M6944 3276 c-8 -22 3 -33 18 -18 9 9 9 15 0 24 -9 9 -13 7 -18 -6z"/>
<path d="M6190 2599 c0 -5 5 -7 10 -4 6 3 10 8 10 11 0 2 -4 4 -10 4 -5 0 -10
-5 -10 -11z"/>
<path d="M6334 2616 c-8 -22 3 -33 18 -18 9 9 9 15 0 24 -9 9 -13 7 -18 -6z"/>
<path d="M6568 2623 c7 -3 16 -2 19 1 4 3 -2 6 -13 5 -11 0 -14 -3 -6 -6z"/>
<path d="M6894 2616 c-8 -22 3 -33 18 -18 9 9 9 15 0 24 -9 9 -13 7 -18 -6z"/>
<path d="M7160 2460 c0 -5 5 -10 10 -10 6 0 10 5 10 10 0 6 -4 10 -10 10 -5 0
-10 -4 -10 -10z"/>
<path d="M7480 2460 c0 -5 5 -10 10 -10 6 0 10 5 10 10 0 6 -4 10 -10 10 -5 0
-10 -4 -10 -10z"/>
<path d="M6930 2460 c0 -5 5 -10 10 -10 6 0 10 5 10 10 0 6 -4 10 -10 10 -5 0
-10 -4 -10 -10z"/>
<path d="M6270 2350 c0 -5 5 -10 10 -10 6 0 10 5 10 10 0 6 -4 10 -10 10 -5 0
-10 -4 -10 -10z"/>
<path d="M4135 2071 c-8 -13 33 -34 52 -27 12 5 13 9 3 21 -14 17 -46 20 -55
6z"/>
<path d="M4210 2059 c0 -5 5 -7 10 -4 6 3 10 8 10 11 0 2 -4 4 -10 4 -5 0 -10
-5 -10 -11z"/>
<path d="M6195 1970 c-4 -6 -3 -16 3 -22 6 -6 12 -6 17 2 4 6 3 16 -3 22 -6 6
-12 6 -17 -2z"/>
<path d="M5930 1976 c0 -9 5 -16 10 -16 6 0 10 4 10 9 0 6 -4 13 -10 16 -5 3
-10 -1 -10 -9z"/>
<path d="M6834 1966 c-8 -22 3 -33 18 -18 9 9 9 15 0 24 -9 9 -13 7 -18 -6z"/>
<path d="M6058 1973 c7 -3 16 -2 19 1 4 3 -2 6 -13 5 -11 0 -14 -3 -6 -6z"/>
<path d="M6408 1973 c7 -3 16 -2 19 1 4 3 -2 6 -13 5 -11 0 -14 -3 -6 -6z"/>
<path d="M6594 1966 c-8 -22 3 -33 18 -18 9 9 9 15 0 24 -9 9 -13 7 -18 -6z"/>
<path d="M7020 1949 c0 -5 5 -7 10 -4 6 3 10 8 10 11 0 2 -4 4 -10 4 -5 0 -10
-5 -10 -11z"/>
<path d="M7134 1966 c-8 -22 3 -33 18 -18 9 9 9 15 0 24 -9 9 -13 7 -18 -6z"/>
<path d="M6200 1820 c0 -5 5 -10 10 -10 6 0 10 5 10 10 0 6 -4 10 -10 10 -5 0
-10 -4 -10 -10z"/>
<path d="M3004 3718 c3 -18 17 -42 29 -53 29 -25 60 -92 76 -168 7 -32 15 -57
17 -54 3 2 7 72 10 156 l6 151 -72 0 -72 0 6 -32z"/>
<path d="M0 3324 l0 -185 22 3 c27 4 32 33 29 203 -2 117 -14 165 -41 165 -6
0 -10 -71 -10 -186z"/>
<path d="M4410 3430 c0 -6 27 -10 61 -10 37 0 58 4 54 10 -3 6 -31 10 -61 10
-30 0 -54 -4 -54 -10z"/>
<path d="M180 3145 c0 -8 0 -18 -1 -22 0 -4 4 -9 10 -11 6 -2 11 8 11 22 0 14
-4 26 -10 26 -5 0 -10 -7 -10 -15z"/>
<path d="M783 3146 c-23 -6 -48 -18 -55 -26 -11 -12 -11 -12 2 -3 10 8 21 9
30 3 8 -6 36 -10 63 -10 48 0 60 13 35 38 -14 14 -17 14 -75 -2z"/>
<path d="M4150 3058 c0 -35 -3 -73 -6 -85 -5 -17 -2 -23 9 -23 22 0 25 17 19
98 -6 88 -22 95 -22 10z"/>
<path d="M760 2954 c107 -35 199 -63 203 -61 11 3 -373 128 -388 126 -5 -1 78
-30 185 -65z"/>
<path d="M4673 3012 c-14 -9 -5 -62 12 -62 14 0 39 27 48 53 5 13 1 17 -21 17
-15 0 -32 -4 -39 -8z"/>
<path d="M1281 2821 c-28 -18 -22 -64 16 -118 19 -29 37 -53 40 -53 2 0 2 4
-2 9 -3 5 0 13 6 16 29 19 105 -111 84 -144 -3 -6 34 -72 84 -147 l90 -137 93
3 c51 1 129 6 173 10 68 6 53 7 -92 8 -163 2 -173 3 -187 23 -8 12 -12 27 -9
35 6 16 -15 398 -24 420 -8 23 -56 14 -68 -13 -8 -20 -15 -22 -50 -17 -40 6
-75 34 -75 60 0 8 -7 14 -15 14 -8 0 -19 9 -25 20 -12 22 -18 24 -39 11z"/>
<path d="M1235 2796 c10 -14 19 -26 22 -26 7 0 -17 39 -28 46 -6 3 -3 -5 6
-20z"/>
<path d="M4000 2778 c-8 -8 -27 -13 -42 -11 -24 3 -27 -1 -44 -53 -9 -31 -23
-62 -31 -69 -15 -15 -123 -12 -182 5 -19 5 -38 7 -42 4 -5 -3 -9 -25 -9 -50 0
-44 0 -44 34 -44 19 0 38 -4 41 -10 3 -5 15 -10 26 -10 10 0 19 -7 19 -15 0
-8 5 -15 11 -15 22 0 49 21 49 39 0 31 59 84 94 84 24 0 39 9 67 41 33 37 36
45 30 80 -5 35 -8 38 -21 24z"/>
<path d="M1675 2743 c8 -42 13 -53 24 -53 5 0 4 20 -2 45 -13 55 -32 61 -22 8z"/>
<path d="M3662 2753 c2 -14 8 -28 14 -30 7 -2 9 8 6 27 -5 37 -25 40 -20 3z"/>
<path d="M3417 2753 c-13 -21 -11 -288 3 -346 15 -64 36 -71 33 -11 -11 298
-20 383 -36 357z"/>
<path d="M3800 2696 c0 -8 5 -18 10 -21 6 -3 10 3 10 14 0 12 -4 21 -10 21 -5
0 -10 -6 -10 -14z"/>
<path d="M3965 2590 c-8 -13 24 -100 36 -100 14 0 11 84 -3 98 -15 15 -25 15
-33 2z"/>
<path d="M4120 2567 c-13 -14 -29 -23 -36 -20 -7 2 -17 -5 -23 -16 -14 -26
-15 -24 12 -53 14 -15 28 -50 37 -91 14 -68 27 -83 62 -71 15 4 17 9 7 20 -6
8 -12 60 -14 125 -2 61 -8 116 -13 121 -5 5 -18 0 -32 -15z"/>
<path d="M3122 2540 c-8 -16 -11 -34 -8 -39 4 -5 2 -12 -4 -16 -5 -3 -10 -17
-10 -31 0 -13 -4 -32 -9 -42 -5 -9 -12 -25 -15 -34 -3 -10 -16 -18 -28 -19
-19 -1 -17 -2 7 -9 17 -4 47 -14 69 -23 38 -17 38 -17 32 6 -3 12 -6 70 -6
130 0 59 -3 107 -8 107 -4 0 -13 -13 -20 -30z"/>
<path d="M3543 2505 c-15 -17 -18 -36 -8 -59 5 -12 2 -28 -9 -46 -9 -16 -16
-40 -16 -54 0 -21 5 -26 25 -26 24 0 25 2 26 73 0 39 2 79 4 88 5 25 -8 39
-22 24z"/>
<path d="M3763 2493 c-16 -6 -17 -29 -2 -39 12 -7 29 12 29 34 0 13 -6 14 -27
5z"/>
<path d="M430 2426 c0 -9 8 -12 27 -8 25 5 25 6 8 13 -29 11 -35 10 -35 -5z"/>
<path d="M1700 2380 c-13 -9 -13 -11 0 -20 20 -13 77 -13 85 0 3 6 0 12 -7 14
-39 12 -65 14 -78 6z"/>
<path d="M2990 2300 c-19 -11 -41 -20 -48 -20 -8 0 -42 -13 -76 -29 -33 -16
-83 -32 -111 -36 -27 -4 -62 -9 -77 -11 -30 -4 -123 -48 -132 -62 -3 -5 23 1
59 14 35 13 115 32 178 43 75 13 133 29 168 47 39 20 75 29 129 33 62 5 72 8
55 17 -41 23 -108 24 -145 4z"/>
<path d="M1545 2241 c-3 -15 -5 -47 -4 -69 2 -28 -3 -47 -15 -61 -17 -19 -16
-20 27 -39 25 -11 55 -23 66 -27 12 -3 21 -13 21 -21 0 -18 -9 -18 -54 1 -20
9 -47 13 -61 9 -14 -3 -25 -2 -25 3 0 5 -14 17 -30 27 -21 12 -29 23 -26 34 4
12 -8 25 -45 45 -28 16 -52 27 -54 25 -1 -2 -7 -13 -13 -24 -10 -18 -8 -24 8
-35 17 -12 21 -28 24 -94 l3 -80 76 -45 c79 -46 91 -58 77 -80 -6 -10 -19 -7
-56 14 -27 15 -66 34 -87 41 l-38 13 17 -26 c66 -104 220 -332 224 -332 3 0
51 91 107 203 l102 202 -116 173 c-63 94 -117 172 -119 172 -1 0 -5 -13 -9
-29z m123 -167 c-4 -3 -12 5 -18 18 -12 22 -12 22 6 6 10 -10 15 -20 12 -24z
m13 -129 c-1 -15 -24 -12 -29 3 -3 9 2 13 12 10 10 -1 17 -7 17 -13z"/>
<path d="M3440 2251 l-55 -6 45 -12 c41 -11 47 -10 65 7 11 11 15 19 10 18 -6
-1 -35 -4 -65 -7z"/>
<path d="M3578 2253 c7 -3 16 -2 19 1 4 3 -2 6 -13 5 -11 0 -14 -3 -6 -6z"/>
<path d="M1653 2167 c12 -21 26 -42 33 -47 6 -6 87 -6 210 0 109 5 215 10 234
11 77 2 -21 18 -193 30 -114 9 -161 15 -139 20 61 12 45 18 -61 21 l-106 3 22
-38z"/>
<path d="M3783 2173 c9 -2 25 -2 35 0 9 3 1 5 -18 5 -19 0 -27 -2 -17 -5z"/>
<path d="M3848 2173 c7 -3 16 -2 19 1 4 3 -2 6 -13 5 -11 0 -14 -3 -6 -6z"/>
<path d="M1932 1798 c3 -7 -17 -98 -43 -203 -29 -115 -44 -194 -39 -199 12
-12 13 -10 54 179 48 222 50 235 36 235 -6 0 -10 -6 -8 -12z"/>
<path d="M2166 1705 c-9 -23 -8 -25 9 -25 17 0 19 9 6 28 -7 11 -10 10 -15 -3z"/>
<path d="M1750 1664 c0 -5 7 -18 15 -28 8 -11 15 -16 15 -10 0 5 -7 18 -15 28
-8 11 -15 16 -15 10z"/>
<path d="M2175 1630 c-3 -5 -1 -10 4 -10 6 0 11 5 11 10 0 6 -2 10 -4 10 -3 0
-8 -4 -11 -10z"/>
<path d="M1970 1619 c0 -5 11 -9 25 -9 14 0 25 2 25 4 0 2 -11 6 -25 8 -14 3
-25 1 -25 -3z"/>
<path d="M2168 1593 c7 -3 16 -2 19 1 4 3 -2 6 -13 5 -11 0 -14 -3 -6 -6z"/>
<path d="M1960 1578 c0 -4 7 -8 15 -8 8 0 15 4 15 8 0 5 -7 9 -15 9 -8 0 -15
-4 -15 -9z"/>
<path d="M2000 1580 c0 -5 5 -10 10 -10 6 0 10 5 10 10 0 6 -4 10 -10 10 -5 0
-10 -4 -10 -10z"/>
<path d="M2078 1553 c23 -2 61 -2 85 0 23 2 4 4 -43 4 -47 0 -66 -2 -42 -4z"/>
<path d="M1955 1540 c7 -12 55 -14 55 -2 0 4 -14 8 -30 9 -18 1 -28 -2 -25 -7z"/>
<path d="M2040 1513 c0 -5 36 -8 80 -8 44 0 80 3 80 8 0 4 -36 7 -80 7 -44 0
-80 -3 -80 -7z"/>
<path d="M1940 1498 c0 -4 16 -8 35 -8 19 0 35 2 35 4 0 2 -16 6 -35 8 -19 2
-35 0 -35 -4z"/>
<path d="M2110 1470 l-85 -6 88 -2 c52 -1 87 2 87 8 0 6 -1 9 -2 8 -2 -1 -41
-5 -88 -8z"/>
<path d="M1940 1448 c0 -5 14 -8 30 -8 17 0 30 3 30 8 0 4 -13 7 -30 7 -16 0
-30 -3 -30 -7z"/>
<path d="M2030 1418 c0 -5 41 -8 90 -8 50 0 90 3 90 8 0 4 -40 7 -90 7 -49 0
-90 -3 -90 -7z"/>
<path d="M1931 1408 c-1 -13 7 -18 24 -18 14 0 28 0 33 -1 4 0 8 8 9 18 2 10
0 12 -3 6 -3 -7 -16 -13 -29 -13 -13 0 -26 6 -28 13 -3 7 -6 5 -6 -5z"/>
<path d="M1920 1348 c0 -14 8 -18 35 -18 19 0 35 4 35 9 0 4 -12 6 -26 3 -16
-3 -30 1 -35 9 -7 11 -9 10 -9 -3z"/>
<path d="M2115 1340 l-90 -6 93 -2 c56 -1 92 2 92 8 0 6 -1 9 -2 8 -2 -1 -43
-5 -93 -8z"/>
<path d="M0 355 l0 -25 4000 0 4000 0 0 25 0 25 -4000 0 -4000 0 0 -25z"/>
</g>
</svg>
